<svg width="801" height="445" viewBox="0 0 801 445" fill="none" xmlns="http://www.w3.org/2000/svg">
<path d="M116.348 147.048C132.76 147.048 146.064 133.837 146.064 117.539C146.064 101.242 132.76 88.0305 116.348 88.0305C99.9369 88.0305 86.6328 101.242 86.6328 117.539C86.6328 133.837 99.9369 147.048 116.348 147.048Z" stroke="#4D52F8" stroke-width="1.98452" stroke-miterlimit="10"/>
<path d="M200.509 197.654C202.702 197.654 204.48 195.888 204.48 193.71C204.48 191.533 202.702 189.767 200.509 189.767C198.316 189.767 196.538 191.533 196.538 193.71C196.538 195.888 198.316 197.654 200.509 197.654Z" fill="#4D52F8"/>
<path d="M211.029 183.725C213.222 183.725 215 181.959 215 179.781C215 177.603 213.222 175.838 211.029 175.838C208.835 175.838 207.058 177.603 207.058 179.781C207.058 181.959 208.835 183.725 211.029 183.725Z" fill="#4D52F8"/>
<path d="M116.346 128.874C122.676 128.874 127.808 123.778 127.808 117.493C127.808 111.207 122.676 106.111 116.346 106.111C110.016 106.111 104.885 111.207 104.885 117.493C104.885 123.778 110.016 128.874 116.346 128.874Z" fill="#4D52F8"/>
<path d="M188.676 202.624C159.59 226.382 119.214 235.206 80.8516 222.495C21.5492 202.847 -10.4852 139.179 9.30077 80.2894C24.1403 36.1221 63.9142 7.18626 107.892 3.76794" stroke="#4D52F8" stroke-width="0.80475" stroke-miterlimit="10"/>
<path d="M37.6743 196.404C13.2247 172.719 0.401454 138.757 4.07011 104.188" stroke="#4D52F8" stroke-width="1.98451" stroke-miterlimit="10" stroke-linecap="round"/>
<path d="M3.48242 115.866C3.48242 53.7848 54.1618 3.45813 116.678 3.45813" stroke="#4D52F8" stroke-width="4" stroke-miterlimit="10" stroke-linecap="round"/>
<g clip-path="url(#clip0_449_14160)">
<path d="M644.655 269.333L499.936 23.311C492.617 10.869 474.624 10.869 467.305 23.311L315.996 280.537" stroke="#4D51F7" stroke-width="2.65" stroke-miterlimit="10"/>
<path d="M797.995 300.979L672.802 88.152C667.36 78.9007 653.981 78.9007 648.539 88.152L593.021 182.533" stroke="#4D51F7" stroke-width="2.65" stroke-miterlimit="10"/>
<path d="M338.654 317.739L284.643 225.92C280.975 219.684 271.957 219.684 268.289 225.92L230.867 289.537C230.867 289.537 154.383 442.212 32.2412 442.212" stroke="#4D51F7" stroke-width="2.65" stroke-miterlimit="10"/>
<path d="M652.281 284.381C653.519 284.381 654.522 283.378 654.522 282.14C654.522 280.902 653.519 279.899 652.281 279.899C651.043 279.899 650.04 280.902 650.04 282.14C650.04 283.378 651.043 284.381 652.281 284.381Z" fill="#4D51F7"/>
<path d="M648.44 277.974C649.678 277.974 650.681 276.97 650.681 275.733C650.681 274.495 649.678 273.492 648.44 273.492C647.203 273.492 646.199 274.495 646.199 275.733C646.199 276.97 647.203 277.974 648.44 277.974Z" fill="#4D51F7"/>
<path d="M644.599 271.567C645.836 271.567 646.84 270.563 646.84 269.326C646.84 268.088 645.836 267.085 644.599 267.085C643.361 267.085 642.357 268.088 642.357 269.326C642.357 270.563 643.361 271.567 644.599 271.567Z" fill="#4D51F7"/>
<path d="M32.2411 444.406C33.4789 444.406 34.4823 443.403 34.4823 442.165C34.4823 440.928 33.4789 439.924 32.2411 439.924C31.0034 439.924 30 440.928 30 442.165C30 443.403 31.0034 444.406 32.2411 444.406Z" fill="#4D51F7"/>
<path d="M338.654 320.049C339.892 320.049 340.895 319.046 340.895 317.808C340.895 316.57 339.892 315.567 338.654 315.567C337.416 315.567 336.413 316.57 336.413 317.808C336.413 319.046 337.416 320.049 338.654 320.049Z" fill="#4D51F7"/>
<path d="M797.962 303.215C799.2 303.215 800.203 302.212 800.203 300.974C800.203 299.736 799.2 298.733 797.962 298.733C796.724 298.733 795.721 299.736 795.721 300.974C795.721 302.212 796.724 303.215 797.962 303.215Z" fill="#4D51F7"/>
</g>
<path d="M225.437 330.493C224.857 329.79 224.077 329.595 223.247 329.882C222.491 330.144 221.737 330.465 221.059 330.884C219.755 331.692 218.726 332.947 217.131 333.28C212.632 335.845 207.902 337.912 203.092 339.808C202.945 339.866 202.766 339.843 202.602 339.858C202.626 339.684 202.621 339.499 202.678 339.336C202.961 338.517 203.288 337.712 203.543 336.885C203.669 336.477 203.831 335.975 203.703 335.611C203.157 334.05 203.074 332.333 202.237 330.888C201.905 330.316 201.732 329.805 201.758 329.16C201.8 328.072 201.467 327.069 200.91 326.141C200.526 325.5 200.121 324.87 199.743 324.225C198.647 322.357 197.025 321.148 194.974 320.554C191.037 319.414 187.342 320.07 183.867 322.181C179.798 324.654 178.458 329.005 179.6 333.188C180.058 334.863 180.203 336.599 180.776 338.24C180.833 338.403 180.694 338.748 180.54 338.849C180.181 339.086 179.758 339.227 179.36 339.406C177.221 340.37 175.718 341.988 174.673 344.049C174.1 345.177 173.708 346.39 174.069 347.653C174.32 348.532 174.289 349.38 174.148 350.24C173.739 352.724 173.817 355.199 174.095 357.693C174.432 360.714 175.229 363.551 176.866 366.139C177.881 367.744 179.297 368.766 181.078 369.355C182.227 369.735 183.395 369.798 184.585 369.713C185.044 369.68 185.284 369.914 185.326 370.349C185.429 371.402 185.46 372.466 185.627 373.508C185.773 374.421 186.151 375.299 186.271 376.213C186.4 377.191 186.301 378.197 186.389 379.184C186.462 380.002 186.457 380.754 186.131 381.551C185.442 383.237 185.445 384.954 186.262 386.626C186.344 386.794 186.447 386.954 186.51 387.129C186.638 387.485 186.467 387.742 186.159 387.88C185.878 388.007 185.567 388.068 185.269 388.157C182.687 388.933 180.274 390.071 178.009 391.531C175.548 393.116 173.083 394.696 170.618 396.275C169.831 396.779 169.055 397.302 168.242 397.76C167.229 398.331 167.076 398.235 167.042 397.139C167.023 396.516 167.034 395.892 166.999 395.27C166.637 388.986 166.276 382.701 165.895 376.418C165.842 375.536 165.94 374.723 166.215 373.862C166.807 372.006 166.706 370.159 165.489 368.521C165.181 368.108 164.986 367.721 164.961 367.181C164.804 363.881 164.626 360.583 164.403 357.287C164.311 355.922 164.171 354.549 163.903 353.21C163.657 351.98 162.281 351.157 161.047 351.323C159.769 351.495 158.937 352.377 158.872 353.711C158.832 354.518 158.853 355.332 158.895 356.14C159.089 359.812 159.304 363.482 159.494 367.154C159.508 367.44 159.481 367.844 159.304 368.005C158.58 368.659 157.943 369.419 156.812 369.495C154.888 369.625 152.974 369.903 151.053 370.09C150.068 370.186 149.928 370.104 149.749 369.203C149.295 366.907 148.449 364.764 147.113 362.861C146.425 361.881 146.282 361.074 146.848 359.991C147.177 359.362 147.184 358.546 147.256 357.807C147.314 357.226 147.468 356.771 147.902 356.331C149.153 355.066 149.233 353.487 148.532 352.002C148 350.873 147.482 349.759 147.217 348.548C146.819 346.728 145.003 346.109 144.054 344.747C143.696 344.231 142.985 343.902 142.371 343.637C141.209 343.135 139.954 342.99 138.706 343.172C137.999 343.275 137.386 343.209 136.722 342.946C135.341 342.401 134.013 342.568 132.889 343.586C132.433 343.999 131.976 344.1 131.376 344.104C127.752 344.128 125.216 345.986 123.727 349.145C122.224 352.334 122.557 355.573 124.149 358.692C124.4 359.184 124.944 359.769 124.825 360.142C124.698 360.539 123.946 360.739 123.464 361.02C121.333 362.266 119.8 363.967 119.176 366.428C118.828 367.796 118.965 369.066 119.871 370.126C120.392 370.736 120.452 371.329 120.31 372.018C119.815 374.433 119.938 376.853 120.203 379.281C120.501 382.005 121.445 384.47 123.003 386.721C124.582 389.002 126.84 389.984 129.499 390.268C130.228 390.346 131.144 389.649 131.608 390.292C131.975 390.802 131.72 391.73 131.84 392.455C131.961 393.188 132.123 393.935 132.412 394.614C132.873 395.701 133.386 396.778 134.008 397.778C134.425 398.45 134.493 398.933 134.045 399.625C133.211 400.914 133.024 402.299 133.943 403.659C134.216 404.063 134.238 404.408 134.039 404.864C133.371 406.394 133.341 407.868 134.472 409.253C134.807 409.663 134.396 412.482 134.44 413.425C134.528 415.292 134.586 417.159 134.658 419.026C134.673 419.409 134.456 419.579 134.117 419.649C133.629 419.748 133.138 419.835 132.654 419.952C130.781 420.407 128.9 420.837 127.042 421.35C126.271 421.563 125.529 421.918 124.815 422.288C124.037 422.691 123.658 423.404 123.617 424.275C123.578 425.112 124.026 425.716 124.844 425.909C125.203 425.993 125.586 426.041 125.953 426.018C127.071 425.948 128.198 425.905 129.301 425.726C133.169 425.098 137.031 424.431 140.891 423.75C142.237 423.512 143.568 423.192 144.906 422.907C146.057 422.662 147.202 422.382 148.36 422.173C150.441 421.795 152.548 421.543 154.609 421.081C156.67 420.619 157.035 419.247 155.622 417.677C155.375 417.403 155.076 417.166 154.772 416.954C154.415 416.706 154.033 416.491 153.651 416.284C152.603 415.717 152.65 415.726 152.751 414.63C152.888 413.143 153.066 411.642 152.985 410.16C152.927 409.093 153.006 408.054 153.053 407.001C153.091 406.134 153.452 405.719 154.322 405.453C156.699 404.725 159.036 403.865 161.384 403.042C162.106 402.789 162.286 402.863 162.349 403.6C162.575 406.27 162.784 408.94 163.011 411.61C163.096 412.603 163.216 413.592 163.313 414.584C163.354 414.999 163.224 415.315 162.785 415.44C162.605 415.491 162.424 415.543 162.253 415.615C161.473 415.943 161.229 416.26 161.329 416.794C161.442 417.395 161.95 417.695 162.803 417.564C163.415 417.471 164.023 417.311 164.612 417.116C166.323 416.55 168.023 415.952 169.727 415.363C169.844 415.323 169.954 415.262 170.063 415.202C170.491 414.967 170.711 414.615 170.585 414.125C170.48 413.716 170.166 413.51 169.76 413.488C169.452 413.472 169.138 413.499 168.83 413.532C168.301 413.59 167.994 413.382 167.947 412.839C167.685 409.861 167.425 406.883 167.164 403.905C167.207 403.902 167.25 403.898 167.294 403.895C167.263 403.21 167.261 402.522 167.195 401.841C167.119 401.072 167.375 400.614 168.088 400.206C169.923 399.155 171.685 397.975 173.481 396.855C176.07 395.239 178.639 393.589 181.267 392.038C182.33 391.411 183.522 391.001 184.664 390.513C184.805 390.452 185.001 390.522 185.172 390.531C185.092 390.626 185.027 390.743 184.929 390.812C183.459 391.831 182.553 393.174 182.544 395.016C182.541 395.451 182.332 395.688 181.985 395.894C181.344 396.276 180.7 396.661 180.101 397.103C179.727 397.379 179.586 397.804 179.802 398.269C180.014 398.723 180.543 398.958 181.072 398.75C181.588 398.546 182.091 398.28 182.554 397.972C185.718 395.865 189.256 395.066 192.99 394.921C193.361 394.907 193.77 394.954 194.091 394.812C194.392 394.679 194.754 394.362 194.806 394.074C194.857 393.797 194.612 393.247 194.383 393.174C193.416 392.866 193.423 392.156 193.455 391.378C193.482 390.693 193.466 390.006 193.498 389.321C193.542 388.381 193.609 388.344 194.621 388.272C195.364 388.219 196.105 388.131 196.846 388.053C197.476 387.987 197.66 388.096 197.717 388.7C197.824 389.816 197.921 390.934 197.962 392.054C197.972 392.315 197.77 392.601 197.619 392.847C197.525 392.998 197.269 393.069 197.217 393.222C197.103 393.553 196.956 393.944 197.035 394.256C197.159 394.741 197.639 394.846 198.099 394.792C198.468 394.748 198.827 394.631 199.193 394.561C199.62 394.479 200.046 394.372 200.477 394.345C202.154 394.24 203.835 394.182 205.512 394.069C206.629 393.994 207.753 393.915 208.854 393.723C209.577 393.596 210.286 393.311 210.961 393.006C211.363 392.825 211.625 392.43 211.513 391.929C211.41 391.468 210.877 391.146 210.343 391.235C210.038 391.286 209.747 391.413 209.446 391.491C208.131 391.833 208.122 391.835 207.485 390.687C207.018 389.846 206.361 389.217 205.545 388.712C204.762 388.227 204.953 387.39 204.989 386.672L205.178 383.367C205.67 381.845 205.422 380.433 204.69 379.044C204.502 378.687 204.491 378.216 204.476 377.795C204.46 377.3 204.607 376.792 204.545 376.307C204.391 375.102 203.997 373.908 204.72 372.737C204.829 372.56 204.738 372.248 204.717 372.001C204.599 370.635 204.508 369.267 204.345 367.906C204.005 365.063 203.495 362.234 203.299 359.382C203.094 356.401 203.159 353.4 203.153 350.408C203.152 350.101 203.399 349.683 203.66 349.508C204.434 348.989 205.276 348.575 206.083 348.105C211.344 345.042 217.114 342.94 222.149 339.425C223.712 338.334 224.554 337.11 224.469 335.317C224.434 334.597 224.581 334.143 225.081 333.709C225.265 333.55 225.414 333.337 225.542 333.126C226.048 332.293 226.013 331.191 225.437 330.493L225.437 330.493ZM161.304 353.551C161.692 353.438 162.028 353.849 162.116 354.579C162.25 355.686 162.382 356.796 162.448 357.908C162.586 360.258 162.681 362.61 162.794 364.961C162.818 365.518 162.87 366.075 162.86 366.632C162.853 367.006 162.554 367.121 162.222 367.165C161.84 367.216 161.649 367.039 161.598 366.676C161.572 366.492 161.534 366.309 161.523 366.124C161.296 362.29 161.072 358.457 160.847 354.623C160.822 354.189 160.748 353.713 161.304 353.551L161.304 353.551ZM151.097 372.133C152.95 371.922 154.802 371.707 156.654 371.498C156.963 371.464 157.274 371.434 157.584 371.438C158.091 371.444 158.377 371.716 158.461 372.221C158.531 372.647 158.613 373.072 158.716 373.49C158.899 374.234 158.884 374.322 158.075 374.427C155.981 374.7 153.88 374.927 151.781 375.173C150.128 375.159 150.106 375.266 150.07 373.317C150.052 372.372 150.204 372.234 151.097 372.133ZM148 372.338C148.01 376.012 148.035 379.692 147.464 383.34C147.435 383.525 147.431 383.713 147.403 383.897C147.101 385.891 147.086 385.892 145.099 386.535C143.134 387.172 141.122 387.543 139.064 387.67C138.764 387.689 138.461 387.647 138.159 387.633C138.342 387.415 138.494 387.157 138.712 386.983C140.242 385.77 141.498 384.318 142.548 382.679C143.471 381.236 144.055 379.667 144.169 377.958C144.213 377.297 144.325 376.776 144.908 376.37C145.441 376 145.678 375.422 145.729 374.761C145.758 374.397 145.826 374.02 145.967 373.687C146.227 373.073 146.241 372.496 145.967 371.884C145.844 371.611 145.786 371.292 145.773 370.99C145.722 369.794 145.062 369.129 143.93 369.023C143.195 368.954 142.844 368.588 142.558 367.982C141.753 366.273 140.611 364.801 139.293 363.458C139.137 363.3 139.039 363.085 138.92 362.891C138.901 362.887 138.882 362.885 138.863 362.88L138.542 362.435C138.51 362.403 138.479 362.371 138.448 362.339C138.112 362.204 137.773 362.075 137.447 361.919C137.378 361.886 137.374 361.719 137.34 361.613C137.482 361.628 137.667 361.592 137.759 361.669C138.005 361.872 138.224 362.109 138.448 362.339C138.493 362.357 138.538 362.377 138.583 362.395C138.687 362.547 138.792 362.699 138.896 362.85C138.905 362.863 138.912 362.878 138.92 362.891C139.202 362.948 139.497 362.975 139.756 363.086C141.136 363.68 142.525 363.802 143.919 363.18C144.485 362.927 144.85 363.063 145.168 363.567C146.863 366.25 147.991 369.127 148 372.338ZM139.235 372.375C140.034 372.036 140.862 371.763 141.684 371.481C142.379 371.244 142.368 371.256 142.436 371.999C142.464 372.295 142.498 372.639 142.664 372.861C142.906 373.186 142.828 373.394 142.622 373.66C142.511 373.803 142.45 373.984 142.373 374.151C142.198 374.529 142.716 375.091 142.154 375.326C141.475 375.61 140.75 375.801 140.029 375.959C139.87 375.994 139.532 375.767 139.468 375.59C139.172 374.777 138.945 373.938 138.666 373.019C138.862 372.788 139.003 372.474 139.235 372.375V372.375ZM134.749 363.98C134.439 363.783 134.144 363.56 133.865 363.321C133.801 363.266 133.79 363.077 133.833 362.988C133.878 362.898 134.02 362.856 134.215 362.732C134.431 362.788 134.749 362.813 135.01 362.948C137.637 364.305 139.482 366.406 140.742 369.053C140.865 369.31 140.808 369.524 140.519 369.643C140.237 369.759 139.945 369.958 139.693 369.62C139.547 369.425 139.442 369.197 139.331 368.978C138.268 366.885 136.723 365.237 134.749 363.98L134.749 363.98ZM139.768 358.803C140.706 358.54 141.442 358.009 142.068 357.293C142.35 356.97 142.667 356.919 143.067 357.069C143.47 357.219 143.892 357.325 144.312 357.425C145.203 357.638 145.292 357.778 145.076 358.708C144.694 360.354 143.456 361.463 141.885 361.464C140.953 361.43 140.06 361.046 139.358 360.269C138.633 359.467 138.726 359.095 139.768 358.803ZM144.289 348.123C144.315 348.094 144.42 348.102 144.468 348.13C144.939 348.397 145.164 348.807 145.16 349.345C145.052 349.41 144.955 349.506 144.846 349.523C144.738 349.539 144.548 349.507 144.516 349.439C144.359 349.106 144.229 348.758 144.124 348.406C144.102 348.332 144.216 348.205 144.289 348.123ZM144.472 351.806C145.869 351.572 146.873 352.483 146.851 353.752C146.843 354.361 146.581 354.818 146.051 355.128C145.345 355.54 144.625 355.577 143.944 355.122C143.59 354.885 143.326 354.519 142.996 354.241C142.239 353.602 141.503 353.761 141.034 354.655C140.949 354.818 140.919 355.011 140.839 355.177C140.027 356.867 138.415 357.364 136.831 356.417C135.849 355.83 135.761 354.808 136.714 354.178C137.432 353.703 138.212 353.24 139.031 353.014C140.821 352.522 142.641 352.112 144.472 351.806H144.472ZM137.996 349.345C138.194 349.297 138.537 349.319 138.623 349.443C138.823 349.732 138.906 350.101 139.008 350.361C138.991 350.511 139.005 350.604 138.975 350.621C138.777 350.736 138.572 350.915 138.365 350.921C137.797 350.938 137.764 350.429 137.635 350.045C137.522 349.705 137.659 349.428 137.996 349.345H137.996ZM142.405 349.757C142.292 349.888 142.197 350.105 142.077 350.119C141.787 350.153 141.325 350.202 141.222 350.049C140.961 349.663 140.838 349.175 140.715 348.713C140.693 348.629 140.931 348.376 141.055 348.373C141.336 348.364 141.745 348.365 141.877 348.537C142.129 348.864 142.225 349.313 142.405 349.757ZM135.736 347.105C136.663 345.656 138.025 345.121 139.695 345.236C140.063 345.267 140.442 345.254 140.796 345.344C141.139 345.431 141.456 345.625 141.784 345.771C141.502 345.906 141.231 346.071 140.937 346.171C139.366 346.707 137.793 347.237 136.21 347.737C136.024 347.796 135.778 347.663 135.56 347.619C135.617 347.446 135.642 347.254 135.736 347.105V347.105ZM135.25 350.711C135.751 350.513 135.782 351.063 135.941 351.349C136.023 351.497 136.018 351.693 136.059 351.906C135.912 352.017 135.788 352.149 135.635 352.213C135.548 352.249 135.377 352.21 135.309 352.14C135.186 352.013 135.079 351.849 135.025 351.681C134.908 351.319 134.848 350.87 135.25 350.711V350.711ZM134.332 345.133L134.421 345.134L134.298 345.161C134.277 345.178 134.255 345.195 134.234 345.212C134.267 345.186 134.299 345.16 134.332 345.133ZM129.583 350.314C130.415 349.774 130.707 349.132 130.721 348.164C130.743 346.641 131.059 346.409 132.641 346.352C132.941 346.341 133.242 346.331 133.543 346.321C133.544 346.313 133.546 346.306 133.547 346.298L133.571 346.32C133.561 346.32 133.552 346.321 133.543 346.321C133.292 347.769 133.023 349.214 132.798 350.666C132.648 351.635 133.017 352.5 133.47 353.327C133.734 353.81 134.026 354.226 133.96 354.868C133.807 356.372 134.516 357.476 135.785 358.274C136.538 358.748 136.659 359.056 136.393 359.385C136.024 359.84 135.177 359.971 134.71 359.624C134.566 359.518 134.432 359.367 134.351 359.208C134.009 358.529 133.482 358.26 132.715 358.198C131.715 358.117 131.648 358.049 131.61 357.104C131.579 356.314 131.324 355.808 130.565 355.554C129.896 355.33 129.761 354.806 129.967 354.206C130.259 353.358 130.177 352.701 129.452 352.042C128.821 351.469 128.877 350.774 129.583 350.314H129.583ZM125.398 350.447C125.908 349.044 126.837 347.988 128.089 347.204C128.187 347.143 128.395 347.084 128.427 347.124C128.527 347.249 128.603 347.417 128.625 347.578C128.689 348.051 128.461 348.388 128.121 348.712C126.752 350.015 126.719 351.512 127.484 353.149C127.683 353.575 127.77 354.09 127.771 354.565C127.774 355.561 128.061 356.393 128.835 357.048C129.066 357.243 129.363 357.481 129.419 357.744C129.725 359.199 130.611 360.018 132.026 360.339C132.111 360.359 132.205 360.502 132.221 360.599C132.229 360.652 132.084 360.783 132.003 360.788C131.693 360.805 131.382 360.786 131.38 360.786C128.751 360.919 127.147 359.79 126.071 357.836C124.776 355.482 124.466 353.016 125.398 350.447V350.447ZM121.238 366.869C121.459 365.876 121.892 364.954 122.656 364.296C123.495 363.573 124.42 362.931 125.372 362.363C126.137 361.906 126.959 361.819 127.846 362.285C128.429 362.591 129.156 362.615 129.811 362.795C130.027 362.855 130.24 362.982 130.404 363.134C130.441 363.168 130.3 363.46 130.187 363.584C128.687 365.24 127.185 366.894 125.659 368.525C125.469 368.73 125.151 368.877 124.872 368.923C124.385 369.002 123.882 368.982 123.385 369.003C123.261 369.01 123.137 369.019 123.013 369.02C121.341 369.035 120.879 368.483 121.238 366.869H121.238ZM130.053 388.119C127.912 388.207 126.155 387.42 124.857 385.703C123.833 384.347 123.079 382.841 122.67 381.19C121.923 378.183 121.95 375.14 122.364 372.092C122.477 371.26 122.759 371.094 123.652 371.152C124.025 371.176 124.22 371.347 124.169 371.739C124.113 372.172 124.056 372.604 124.035 372.764C123.842 374.764 124.116 376.382 125.093 377.859C126.071 379.336 127.412 380.265 129.12 380.677C129.482 380.765 129.857 380.802 130.222 380.878C130.63 380.963 130.876 381.211 130.91 381.64C130.934 381.951 130.958 382.261 130.974 382.572C131.044 384.003 131.11 385.433 131.18 386.863C131.228 387.864 131.06 388.078 130.053 388.119H130.053ZM131.021 378.837C127.683 378.932 125.786 376.137 126.033 373.356C126.163 371.888 126.681 370.539 127.604 369.42C128.79 367.983 130.105 366.652 131.364 365.275C131.766 364.835 132.221 364.828 132.707 365.116C134.612 366.244 136.255 367.639 137.319 369.629C137.811 370.551 137.798 370.731 136.742 371.122C134.821 371.832 132.866 372.45 130.923 373.099C130.572 373.216 130.148 373.213 129.87 373.418C129.613 373.608 129.347 374.021 129.38 374.301C129.413 374.58 129.784 374.985 130.059 375.033C130.592 375.126 131.186 375.1 131.711 374.96C133.151 374.577 134.568 374.109 135.994 373.675C136.635 373.48 136.689 373.509 136.876 374.189C136.943 374.429 136.995 374.673 137.052 374.915C137.206 375.573 137.36 376.232 137.513 376.89C136.805 377.246 136.12 377.666 135.381 377.94C134.57 378.241 133.716 378.441 132.868 378.62C132.264 378.748 131.637 378.768 131.021 378.837ZM132.943 382.088C132.922 380.883 132.963 380.857 133.963 380.548C135.138 380.185 136.299 379.772 137.472 379.402C137.625 379.354 137.862 379.373 137.974 379.465C138.05 379.527 138.029 379.803 137.959 379.933C137.064 381.597 135.64 382.62 133.892 383.233C133.336 383.427 133.074 383.261 132.994 382.692C132.96 382.448 132.952 382.201 132.943 382.088V382.088ZM133.277 386.695C133.094 386.286 133.256 385.782 133.653 385.602C134.331 385.296 135.034 385.047 135.709 384.735C137.77 383.782 139.245 382.244 140.116 380.152C140.328 379.644 140.399 379.078 140.536 378.539C140.668 378.019 141.072 377.876 141.529 377.901C141.714 377.911 141.888 378.097 142.096 378.219C141.934 378.815 141.864 379.316 141.668 379.761C140.15 383.217 137.805 385.799 134.058 386.874C133.756 386.961 133.451 387.082 133.277 386.695ZM143.44 421.088C141.725 421.374 140.014 421.704 138.288 421.899C137.257 422.015 137.147 421.879 137.02 420.785C136.769 418.622 136.578 416.452 136.362 414.285C136.435 414.28 136.508 414.276 136.58 414.272C136.6 413.214 136.602 412.155 136.649 411.098C136.668 410.674 136.926 410.465 137.39 410.465C138.572 410.467 139.755 410.427 140.937 410.408C141.373 410.401 141.657 410.555 141.581 411.06C141.523 411.44 141.458 411.826 140.942 411.789C140.571 411.762 140.202 411.653 139.834 411.664C139.113 411.684 138.665 412.059 138.644 412.599C138.62 413.226 139.051 413.468 139.557 413.608C139.915 413.708 140.308 413.707 140.644 413.848C140.807 413.916 140.981 414.222 140.959 414.396C140.935 414.588 140.707 414.887 140.542 414.905C140.054 414.957 139.537 414.811 139.063 414.904C138.758 414.963 138.394 415.253 138.261 415.536C138.052 415.98 138.304 416.388 138.733 416.618C138.947 416.732 139.198 416.809 139.439 416.833C140.069 416.896 140.486 417.095 140.478 417.848C140.471 418.467 140.922 418.849 141.408 419.162C142.089 419.6 142.777 420.027 143.448 420.478C143.575 420.563 143.659 420.734 143.718 420.883C143.73 420.912 143.547 421.07 143.44 421.088ZM144.22 417.665C144.104 418.235 143.827 418.267 143.301 417.923C142.826 417.613 142.643 417.223 142.745 416.668C142.911 415.754 143.068 414.838 143.21 413.919C143.379 412.817 143.522 411.711 143.69 410.609C143.746 410.245 143.773 409.846 143.947 409.54C144.072 409.32 144.428 409.099 144.666 409.114C144.909 409.129 145.26 409.389 145.338 409.619C145.472 410.011 145.431 410.464 145.487 411.209C145.105 413.17 144.68 415.421 144.22 417.665H144.22ZM145.999 402.485C146.14 402.281 146.343 402.12 146.481 401.915C146.876 401.325 146.876 400.922 146.479 400.378C146.333 400.178 146.163 399.987 145.971 399.833C144.793 398.886 144.479 397.577 144.437 396.165C144.409 395.231 144.46 394.294 144.425 393.361C144.389 392.385 143.959 391.839 143.358 391.906C142.804 391.967 142.462 392.428 142.436 393.327C142.369 395.632 142.341 397.938 142.297 400.244C142.283 400.244 142.269 400.243 142.256 400.243C142.217 402.3 142.192 404.356 142.135 406.412C142.088 408.083 142.074 408.11 140.349 408.336C139.552 408.441 138.734 408.472 137.932 408.427C137.453 408.399 136.961 408.21 136.518 408.002C135.823 407.675 135.592 407.227 135.758 406.485C135.864 406.01 136.06 405.534 136.314 405.118C136.797 404.328 136.819 403.673 136.162 402.928C135.258 401.904 135.294 401.37 136.099 400.32C136.212 400.173 136.367 400.058 136.484 399.913C137.151 399.085 137.173 398.799 136.644 397.916C135.973 396.797 135.25 395.706 134.643 394.553C134.121 393.56 133.742 392.491 133.79 391.334C133.854 389.776 134.082 389.798 135.288 389.83C137.973 389.901 140.642 389.789 143.269 389.179C144.056 388.996 144.832 388.766 145.611 388.554C146.027 388.441 146.344 388.538 146.516 388.96C146.586 389.133 146.65 389.308 146.714 389.484C147.691 392.189 149.059 394.71 150.396 397.242C150.991 398.368 151.398 399.521 151.331 400.806C151.22 402.92 151.141 405.036 150.967 407.144C150.88 408.201 150.679 408.284 149.662 408.215C148.981 408.169 148.297 408.154 147.615 408.12C146.806 408.079 146.339 407.551 146.497 406.777C146.57 406.425 146.787 406.1 146.945 405.766C147.404 404.794 147.315 404.507 146.385 403.998C145.477 403.501 145.426 403.314 145.999 402.485ZM153.158 418.418C153.355 418.477 153.489 418.747 153.652 418.919C153.472 419.034 153.305 419.221 153.111 419.253C151.092 419.591 149.073 419.935 147.045 420.211C146.16 420.331 145.913 420.026 146.076 419.131C146.265 418.092 146.556 417.072 146.735 416.031C146.977 414.625 147.175 413.21 147.355 411.794C147.558 410.2 147.592 410.154 149.434 410.24C149.683 410.27 150.18 410.303 150.663 410.403C150.78 410.427 150.935 410.677 150.922 410.808C150.909 410.945 150.727 411.156 150.596 411.175C150.168 411.235 149.727 411.193 149.298 411.246C148.828 411.304 148.482 411.555 148.442 412.072C148.402 412.588 148.719 412.891 149.154 413.041C149.501 413.161 149.88 413.189 150.246 413.254C150.634 413.323 150.739 413.586 150.693 413.929C150.649 414.255 150.531 414.502 150.119 414.5C149.694 414.497 149.223 414.456 148.858 414.622C148.59 414.745 148.356 415.156 148.305 415.471C148.267 415.702 148.536 415.994 148.699 416.239C148.761 416.331 148.902 416.403 149.017 416.421C150.6 416.663 151.669 417.974 153.158 418.418H153.158ZM161.189 400.917C158.887 402.055 156.412 402.669 153.976 403.406C153.686 403.494 153.504 403.32 153.494 403.02C153.478 402.523 153.47 402.025 153.478 401.527C153.506 399.625 153.105 397.856 152.196 396.151C150.997 393.904 149.952 391.574 148.85 389.275C148.443 388.425 148.007 387.562 148.878 386.72C149.177 385.007 149.526 383.3 149.757 381.578C149.915 380.409 149.906 379.219 149.976 378.038C150 377.622 150.18 377.34 150.637 377.295C153.481 377.014 156.324 376.73 159.168 376.447C159.903 376.34 160.187 376.568 160.245 377.299C160.55 381.145 160.846 384.991 161.138 388.838C161.406 392.375 161.648 395.913 161.943 399.447C162.002 400.15 161.877 400.577 161.189 400.917L161.189 400.917ZM161.493 372.581C161.385 372.578 161.278 372.508 161.17 372.469C161.271 372.407 161.365 372.328 161.473 372.284C161.759 372.17 162.119 372.141 162.324 371.947C162.569 371.716 162.802 371.356 162.826 371.036C162.861 370.564 162.5 370.223 162.042 370.129C161.531 370.024 161.004 369.997 160.482 369.943C160.463 369.951 160.444 369.961 160.425 369.969L160.393 369.935C160.423 369.938 160.453 369.94 160.482 369.943C161.017 369.713 161.537 369.391 162.094 369.299C163.32 369.096 163.934 369.538 164.307 370.747C164.57 371.601 164.618 372.473 164.183 373.282C164.018 373.589 163.722 373.955 163.42 374.031C162.844 374.176 163.041 373.562 162.902 373.284C162.601 372.686 162.074 372.597 161.493 372.581V372.581ZM165.879 414.117C165.867 414.179 165.712 414.225 165.615 414.251C165.578 414.26 165.489 414.201 165.478 414.159C165.4 413.863 165.299 413.567 165.273 413.265C164.636 405.883 164.006 398.501 163.379 391.118C163.036 387.086 162.699 383.054 162.36 379.022C162.319 378.525 162.261 378.029 162.248 377.532C162.231 376.879 162.547 376.549 163.27 376.518C163.456 376.51 163.776 376.692 163.819 376.847C163.934 377.26 163.951 377.704 163.974 378.137C164.305 384.168 164.647 390.199 164.949 396.231C165.08 398.843 165.075 401.462 165.22 404.073C165.371 406.806 165.629 409.534 165.841 412.264C165.87 412.636 165.901 413.009 165.939 413.479C165.927 413.628 165.927 413.877 165.879 414.117ZM182.601 326.148C183.539 324.856 184.766 323.904 186.199 323.27C188.689 322.167 191.282 321.603 193.974 322.443C194.848 322.716 195.656 323.209 196.48 323.628C196.628 323.702 196.709 323.907 196.821 324.051C196.65 324.074 196.479 324.101 196.308 324.115C196.249 324.119 196.188 324.088 195.972 324.035C195.819 324.043 195.494 324 195.211 324.089C194.631 324.271 194.144 324.164 193.616 323.878C192.5 323.272 191.387 323.226 190.283 323.998C190.016 324.184 189.583 324.257 189.253 324.206C187.779 323.977 186.554 324.248 185.701 325.611C185.527 325.89 185.143 326.107 184.812 326.209C183.21 326.701 182.336 327.779 182.091 329.411C182.073 329.532 182.051 329.668 181.983 329.763C181.918 329.853 181.743 329.977 181.699 329.95C181.58 329.878 181.422 329.731 181.424 329.617C181.456 328.342 181.847 327.186 182.601 326.148H182.601ZM176.375 345.334C177.273 343.412 178.614 341.914 180.622 341.108C180.816 341.03 181.147 341.015 181.287 341.128C181.715 341.478 182.098 341.89 182.459 342.311C182.538 342.403 182.487 342.647 182.434 342.799C182.399 342.898 182.261 342.97 182.156 343.033C180.406 344.083 179.167 345.62 178.071 347.299C177.822 347.681 177.694 348.303 177.001 348.041C176.338 347.789 176.05 347.317 176.08 346.458C176.153 346.169 176.195 345.719 176.375 345.334ZM184.374 367.558C182.696 368.05 180.143 367.098 178.939 365.436C177.832 363.908 177.072 362.203 176.657 360.358C176.163 358.161 175.964 355.931 175.936 353.526C176.013 352.626 176.098 351.571 176.202 350.518C176.21 350.436 176.348 350.367 176.426 350.292C176.531 350.406 176.729 350.524 176.723 350.633C176.706 351.002 176.563 351.368 176.565 351.735C176.567 352.661 176.527 353.602 176.674 354.509C177.118 357.254 178.872 358.722 181.517 359.247C182.005 359.344 182.493 359.438 182.983 359.526C183.576 359.631 184.389 359.531 184.703 359.882C185.037 360.255 184.926 361.05 184.962 361.664C185.058 363.28 185.124 364.897 185.21 366.513C185.243 367.12 184.922 367.398 184.374 367.558H184.374ZM184.376 351.094C184.319 351.075 184.262 351.043 184.214 351.006C183.665 350.583 183 350.021 182.406 350.601C181.871 351.123 181.595 351.937 181.293 352.659C181.141 353.022 181.583 353.552 182.036 353.546C182.712 353.538 183.387 353.42 184.062 353.347C184.439 353.305 184.652 353.465 184.653 353.85C184.655 354.347 184.637 354.843 184.628 355.34C184.631 355.34 184.634 355.34 184.637 355.34C184.635 355.465 184.632 355.589 184.63 355.713C184.599 357.525 184.558 357.56 182.7 357.343C182.576 357.329 182.453 357.315 182.33 357.296C179.835 356.918 178.494 355.513 178.562 353.024C178.659 349.49 180.312 346.752 183.211 344.754C183.756 344.378 184.287 344.279 184.951 344.534C185.49 344.741 185.773 344.996 185.805 345.575C185.883 347.002 186.008 348.426 186.075 349.852C186.121 350.814 185.305 351.389 184.376 351.094L184.376 351.094ZM186.1 342.48C185.643 342.689 185.041 342.427 184.759 341.796C184.5 341.215 184.278 340.675 183.638 340.393C183.183 340.192 183.017 339.778 183.255 339.304C183.618 338.582 183.422 337.989 182.903 337.439C182.367 336.869 182.234 336.249 182.766 335.604C183.269 334.993 183.309 334.371 182.865 333.723C182.298 332.895 182.47 332.169 183.235 331.617C183.85 331.172 184.045 330.602 184.164 329.887C184.386 328.564 184.618 328.335 185.98 328.216C186.851 328.14 187.317 327.817 187.583 326.972C187.802 326.274 188.187 326.165 188.89 326.38C189.124 326.452 189.334 326.601 189.564 326.694C190.138 326.928 190.611 326.821 191.085 326.377C192.155 325.377 192.205 325.363 193.339 326.305C193.954 326.815 194.455 326.92 195.172 326.5C195.958 326.039 196.568 326.274 196.985 327.054C197.1 327.267 197.105 327.537 197.199 327.765C197.379 328.201 197.725 328.384 198.188 328.504C199.474 328.836 199.467 328.865 199.367 330.284C199.213 330.888 199.401 331.403 199.953 331.702C200.592 332.048 200.907 332.492 200.63 333.213C200.337 333.981 200.624 334.51 201.232 334.987C201.678 335.337 201.705 335.789 201.41 336.313C201.178 336.726 201.028 337.202 200.925 337.668C200.747 338.475 200.509 338.822 199.992 338.852C199.296 338.891 198.599 338.409 198.472 337.733C198.405 337.374 198.409 336.987 198.458 336.622C198.546 335.967 198.451 335.394 197.974 334.9C197.509 334.418 197.305 333.887 197.628 333.209C197.946 332.54 197.734 331.978 197.066 331.66C196.568 331.423 196.379 331.118 196.299 330.537C196.162 329.553 195.768 329.373 194.709 329.702C194.254 329.844 193.916 329.911 193.514 329.591C192.792 329.016 192.121 329.165 191.589 329.886C191.167 330.456 190.75 330.379 190.149 330.12C189.174 329.7 188.732 329.875 188.418 330.81C188.214 331.418 188.019 331.722 187.316 331.811C186.599 331.902 186.318 332.379 186.554 333.021C186.828 333.768 186.83 334.443 186.638 335.195C186.443 335.956 186.722 336.686 187.122 337.325C187.688 338.227 187.801 339.04 186.929 339.816C186.454 340.239 186.464 340.787 186.564 341.368C186.641 341.815 186.579 342.259 186.1 342.479V342.48ZM186.672 354.85C186.674 354.726 186.674 354.602 186.679 354.479C186.756 352.81 187.24 352.356 188.965 352.379C189.102 352.381 189.307 352.54 189.358 352.672C189.531 353.123 189.732 353.589 189.765 354.06C189.806 354.647 189.812 355.297 189.591 355.817C189.475 356.089 188.844 356.15 188.439 356.287C188.147 356.386 187.848 356.466 187.547 356.53C186.868 356.676 186.696 356.53 186.664 355.776C186.651 355.468 186.672 355.159 186.678 354.85C186.676 354.85 186.674 354.85 186.672 354.85H186.672ZM195.726 337.828C196.249 337.824 196.457 338.185 196.365 338.721C196.083 340.355 194.304 341.895 192.695 341.898C191.66 341.878 190.748 341.529 189.973 340.848C189.183 340.153 189.316 338.989 190.303 338.598C191.156 338.26 191.82 337.788 192.283 337.002C192.453 336.713 192.696 336.527 193.01 336.853C193.756 337.627 194.687 337.838 195.726 337.828ZM193.936 333.819C194.104 333.747 194.29 333.712 194.471 333.68C194.959 333.593 195.322 333.694 195.401 334.276C195.451 334.64 195.55 334.998 195.626 335.353C195.573 335.467 195.541 335.649 195.468 335.668C195.301 335.711 195.046 335.748 194.947 335.657C194.498 335.243 194.069 334.803 193.676 334.335C193.443 334.058 193.716 333.912 193.936 333.819H193.936ZM195.027 346.425C194.549 346.541 194.064 346.631 193.578 346.713C191.689 347.032 191.67 347.281 191.499 345.135C191.414 344.069 191.411 344.014 192.377 344.047C193.403 344.081 194.322 343.813 195.211 343.351C195.61 343.143 195.789 343.387 195.842 343.722C195.919 344.208 195.941 344.703 195.975 345.069C195.999 346.155 195.978 346.194 195.027 346.425ZM191.029 334.844C190.593 335.456 190.618 336.484 189.644 336.53C189.102 336.527 188.739 336.136 188.756 335.678C188.777 335.108 189.091 334.744 189.619 334.615C190.086 334.501 190.574 334.472 191.052 334.406C191.048 334.554 191.101 334.743 191.029 334.844ZM188.812 342.72C189.347 343.011 189.275 343.542 189.325 344.024C189.435 345.076 189.531 346.129 189.658 347.178C189.84 348.674 190.232 349.112 191.672 348.985C193.461 348.826 195.238 348.507 197.01 348.201C197.722 348.078 198.03 347.493 198.027 346.817C198.021 345.512 197.956 344.207 197.911 342.902C197.905 342.716 197.869 342.531 197.853 342.345C197.699 340.545 197.754 340.517 199.481 340.865C200.006 340.971 200.241 341.219 200.299 341.704C200.475 343.186 200.715 344.664 200.806 346.152C200.988 349.13 201.087 352.113 201.22 355.094C201.203 355.097 201.186 355.099 201.169 355.101C201.144 356.408 201.13 357.714 201.092 359.02C201.058 360.179 200.806 360.463 199.719 360.517C199.544 360.526 199.228 360.313 199.197 360.159C199.064 359.49 198.996 358.807 198.935 358.126C198.8 356.64 198.686 355.152 198.558 353.665C198.531 353.356 198.505 353.042 198.431 352.742C198.168 351.679 197.65 351.243 196.571 351.333C195.647 351.409 194.731 351.608 193.818 351.782C193.002 351.938 192.291 352.062 191.711 351.162C191.15 350.291 190.134 350.305 189.181 350.288C188.195 350.272 188.17 350.244 188.084 349.248C187.96 347.823 187.865 346.395 187.79 344.966C187.771 344.606 187.785 344.195 187.94 343.885C188.153 343.458 188.514 343.105 188.812 342.72H188.812ZM197.059 360.454C197.092 360.886 196.883 361.157 196.461 361.246C196.219 361.297 195.973 361.33 195.727 361.355C194.69 361.462 193.653 361.563 192.616 361.666C192.482 360.639 192.333 359.613 192.22 358.583C192.146 357.908 192.125 357.227 192.09 356.689C192.123 356.177 192.113 355.801 192.177 355.438C192.365 354.361 192.708 354.04 193.835 353.812C196.463 353.28 196.471 353.279 196.717 356.015C196.85 357.493 196.95 358.974 197.059 360.454ZM190.366 361.318C190.32 361.491 190.263 361.727 190.19 361.958C190.176 362.004 190.099 362.065 190.056 362.061C189.955 362.051 189.772 362.013 189.769 361.975C189.677 360.813 189.598 359.649 189.537 358.484C189.534 358.427 189.707 358.316 189.803 358.311C189.892 358.307 190.061 358.402 190.069 358.468C190.178 359.391 190.266 360.317 190.366 361.318ZM186.92 359.372C186.948 359.285 187.064 359.149 187.109 359.161C187.209 359.186 187.35 359.279 187.367 359.365C187.436 359.727 187.483 360.095 187.506 360.462C187.525 360.77 187.499 361.081 187.493 361.39C187.512 361.39 187.532 361.391 187.551 361.391C187.546 361.638 187.557 361.888 187.529 362.132C187.518 362.226 187.417 362.309 187.357 362.398C187.278 362.312 187.138 362.233 187.127 362.139C187.037 361.341 186.968 360.541 186.898 359.741C186.888 359.618 186.883 359.486 186.92 359.372H186.92ZM187.519 365.044C187.831 364.857 188.178 364.685 188.532 364.622C190.429 364.281 192.334 363.982 194.233 363.654C196.009 363.346 197.782 363.018 199.557 362.701C200.046 362.614 200.536 362.535 200.995 362.458C201.19 362.635 201.348 362.779 201.506 362.923C201.376 363.031 201.261 363.206 201.115 363.237C199.227 363.631 197.337 364.015 195.443 364.38C193.124 364.827 190.8 365.255 188.478 365.688C188.234 365.733 187.985 365.78 187.739 365.778C187.65 365.777 187.505 365.646 187.487 365.555C187.454 365.386 187.432 365.096 187.519 365.044ZM191.192 392.635C190.731 393.401 189.499 393.097 188.619 393.325C187.841 393.527 187.064 393.738 186.278 393.902C185.88 393.985 185.464 393.985 185.055 394.018C185.051 394.029 185.048 394.042 185.044 394.054C185.023 394.057 185.003 394.064 184.981 394.067C184.957 394.105 184.933 394.143 184.909 394.181C184.911 394.146 184.9 394.091 184.916 394.081C184.934 394.07 184.959 394.07 184.981 394.067C184.991 394.052 185 394.036 185.01 394.021C185.025 394.019 185.04 394.019 185.055 394.018C185.144 393.746 185.179 393.423 185.355 393.232C185.686 392.874 186.066 392.489 186.505 392.313C188.09 391.678 188.864 390.613 188.618 388.869C188.556 388.43 188.824 388.185 189.27 388.156C189.393 388.148 189.517 388.144 189.641 388.137C191.467 388.022 191.487 388.025 191.449 389.916C191.431 390.838 191.615 391.93 191.192 392.635H191.192ZM192.777 377.208C192.701 377.569 192.583 377.931 192.419 378.261C191.921 379.261 191.839 380.239 192.223 381.324C192.466 382.01 192.535 382.794 192.513 383.529C192.466 385.13 191.701 385.857 190.088 385.992C189.778 386.017 189.466 386.025 188.968 386.05C188.376 386.06 188.142 385.913 187.943 385.206C187.646 384.151 187.673 383.088 188.17 382.11C188.653 381.161 188.73 380.222 188.445 379.216C188.361 378.92 188.345 378.601 188.329 378.291C188.253 376.822 188.356 376.708 189.784 376.56C190.526 376.483 191.265 376.376 192.007 376.311C192.662 376.253 192.916 376.545 192.777 377.208ZM196.495 386.005C195.824 386.114 195.147 386.188 194.47 386.244C194.151 386.271 194.02 386.04 194.131 385.765C194.84 384.006 194.704 382.246 194.189 380.475C194.122 380.245 194.028 379.955 194.108 379.76C194.56 378.66 194.818 377.523 194.977 376.347C195.002 376.164 195.427 375.935 195.687 375.906C196.068 375.863 196.442 376.061 196.487 376.504C196.531 376.93 196.482 377.365 196.474 377.797C196.323 378.741 196.457 379.639 196.832 380.525C196.989 380.895 197.075 381.374 196.987 381.755C196.739 382.83 196.82 383.824 197.261 384.841C197.634 385.7 197.51 385.84 196.495 386.005ZM197.073 371.958C197.071 371.274 197.086 370.59 197.082 369.907C197.081 369.597 197.087 369.282 197.029 368.98C196.919 368.411 196.529 368.068 196.029 368.041C195.532 368.015 195.207 368.307 195.11 369.004C194.963 370.049 194.872 371.103 194.765 372.154C194.727 372.525 194.73 372.9 194.684 373.269C194.633 373.678 194.403 373.964 193.979 374.012C192.192 374.213 190.404 374.41 188.614 374.586C188.108 374.636 187.785 374.373 187.729 373.85C187.583 372.492 187.446 371.133 187.369 370.398C187.359 367.941 187.35 367.869 189.124 367.648C192.579 367.217 195.963 366.442 199.351 365.676C199.533 365.635 199.715 365.597 199.899 365.567C201.816 365.256 201.88 365.269 202.154 367.156C202.367 368.63 202.474 370.119 202.618 371.603C202.674 372.174 202.44 372.577 201.856 372.697C200.825 372.907 199.79 373.095 198.758 373.295C197.638 373.512 197.077 373.066 197.073 371.958H197.073ZM204.074 390.321C204.404 390.488 204.74 390.674 205.008 390.922C205.221 391.119 205.336 391.424 205.494 391.68C205.227 391.798 204.966 391.989 204.689 392.018C203.949 392.094 203.202 392.1 202.518 392.131C199.778 392.139 200.176 392.55 199.822 389.841C199.766 389.411 199.751 388.973 199.744 388.539C199.701 385.672 199.335 386.508 202.052 385.878C202.515 385.771 202.746 386.024 202.798 386.463C202.886 387.203 202.994 387.942 203.038 388.685C203.084 389.439 203.395 389.977 204.074 390.321ZM203.29 381.951C203.303 383.134 202.867 383.577 201.681 383.833C201.198 383.938 200.713 384.044 200.224 384.108C199.399 384.215 198.92 383.782 198.962 382.947C198.98 382.582 199.058 382.204 199.188 381.863C199.43 381.231 199.386 380.643 199.014 380.096C198.414 379.212 198.318 378.267 198.585 377.257C198.632 377.079 198.654 376.892 198.659 376.707C198.669 376.349 198.514 375.847 198.692 375.666C198.955 375.398 199.444 375.34 199.847 375.23C200.082 375.166 200.338 375.184 200.583 375.149C202.203 374.922 202.584 375.246 202.518 376.932C202.491 377.116 202.459 377.424 202.399 377.727C202.222 378.613 202.336 379.402 202.845 380.201C203.155 380.687 203.283 381.36 203.29 381.951ZM216.637 340.365C212.444 342.53 208.239 344.673 204.037 346.821C203.068 347.316 202.929 347.231 202.816 346.105C202.705 344.993 202.603 343.88 202.482 342.616C202.589 342.484 202.726 342.186 202.956 342.061C203.444 341.796 203.987 341.634 204.497 341.407C208.638 339.57 212.779 337.732 216.914 335.884C217.728 335.52 217.845 335.542 218.144 336.309C219.2 339.02 219.208 339.037 216.637 340.365ZM223.271 332.503C222.876 332.8 222.452 333.057 222.063 333.36C221.277 333.972 221.175 334.284 221.781 335.199C222.149 335.754 222.089 336.271 221.927 336.772C221.832 337.068 221.431 337.266 221.146 337.527C220.944 337.407 220.712 337.352 220.666 337.227C220.385 336.477 220.123 335.718 219.913 334.946C219.86 334.751 219.95 334.401 220.099 334.286C221.075 333.538 222.083 332.832 223.091 332.126C223.148 332.086 223.292 332.17 223.396 332.197C223.356 332.301 223.346 332.446 223.271 332.503L223.271 332.503Z" fill="#141418"/>
<path d="M134.421 345.134L134.332 345.133C134.299 345.16 134.266 345.186 134.233 345.212C134.255 345.195 134.276 345.178 134.298 345.161L134.421 345.134Z" fill="white"/>
<path d="M143.918 363.18C142.525 363.802 141.135 363.68 139.755 363.086C139.496 362.975 139.201 362.948 138.919 362.891C139.038 363.085 139.137 363.3 139.292 363.458C140.611 364.801 141.752 366.273 142.558 367.981C142.844 368.588 143.194 368.954 143.929 369.023C145.061 369.129 145.721 369.794 145.772 370.99C145.785 371.292 145.843 371.611 145.966 371.884C146.24 372.496 146.226 373.072 145.967 373.687C145.826 374.02 145.757 374.397 145.729 374.761C145.677 375.422 145.44 376 144.908 376.37C144.324 376.776 144.213 377.297 144.168 377.958C144.054 379.667 143.471 381.236 142.547 382.679C141.497 384.318 140.241 385.77 138.712 386.983C138.493 387.157 138.341 387.415 138.158 387.633C138.46 387.647 138.763 387.689 139.063 387.67C141.121 387.543 143.133 387.172 145.098 386.535C147.085 385.892 147.1 385.891 147.403 383.897C147.431 383.713 147.435 383.525 147.464 383.34C148.035 379.692 148.01 376.012 147.999 372.338C147.99 369.127 146.862 366.25 145.167 363.567C144.849 363.063 144.484 362.927 143.918 363.18Z" fill="white"/>
<path d="M137.34 361.613C137.374 361.719 137.378 361.886 137.447 361.919C137.773 362.075 138.112 362.204 138.448 362.339C138.224 362.109 138.005 361.872 137.759 361.669C137.667 361.592 137.482 361.628 137.34 361.613Z" fill="white"/>
<path d="M138.583 362.395C138.538 362.377 138.494 362.357 138.448 362.339C138.479 362.371 138.51 362.403 138.542 362.435L138.863 362.88C138.882 362.884 138.901 362.887 138.92 362.891C138.912 362.878 138.905 362.863 138.897 362.85C138.792 362.699 138.688 362.547 138.583 362.395Z" fill="white"/>
<path d="M160.425 369.969C160.445 369.961 160.464 369.951 160.483 369.943C160.453 369.94 160.423 369.938 160.394 369.935L160.425 369.969Z" fill="white"/>
<path d="M162.901 373.284C163.04 373.562 162.843 374.176 163.419 374.031C163.722 373.955 164.018 373.589 164.183 373.282C164.617 372.473 164.57 371.601 164.306 370.747C163.933 369.538 163.319 369.096 162.093 369.299C161.536 369.391 161.016 369.713 160.481 369.943C161.003 369.997 161.53 370.024 162.041 370.129C162.5 370.223 162.861 370.564 162.825 371.036C162.801 371.356 162.568 371.716 162.323 371.947C162.118 372.141 161.759 372.17 161.473 372.284C161.364 372.328 161.27 372.407 161.169 372.469C161.277 372.508 161.384 372.578 161.493 372.581C162.074 372.597 162.601 372.686 162.901 373.284Z" fill="white"/>
<path d="M184.981 394.068C185.004 394.065 185.024 394.058 185.046 394.054C185.05 394.042 185.052 394.03 185.056 394.018C185.041 394.019 185.026 394.019 185.011 394.021C185.001 394.036 184.991 394.052 184.981 394.068Z" fill="white"/>
<path d="M184.909 394.182C184.933 394.144 184.957 394.106 184.981 394.067C184.958 394.07 184.934 394.07 184.916 394.081C184.899 394.091 184.91 394.147 184.909 394.182Z" fill="white"/>
<path d="M189.64 388.137C189.517 388.144 189.393 388.148 189.269 388.156C188.824 388.185 188.555 388.429 188.617 388.869C188.863 390.613 188.09 391.678 186.504 392.313C186.066 392.489 185.686 392.874 185.355 393.232C185.179 393.423 185.144 393.746 185.055 394.018C185.463 393.985 185.879 393.985 186.278 393.902C187.064 393.738 187.841 393.527 188.619 393.325C189.499 393.097 190.731 393.401 191.192 392.635C191.615 391.93 191.43 390.838 191.449 389.916C191.487 388.025 191.467 388.022 189.64 388.137H189.64Z" fill="white"/>
<path d="M129.967 354.206C129.76 354.806 129.895 355.33 130.564 355.554C131.323 355.808 131.578 356.314 131.61 357.104C131.647 358.049 131.715 358.117 132.715 358.198C133.482 358.259 134.008 358.529 134.351 359.208C134.431 359.367 134.565 359.517 134.709 359.624C135.176 359.971 136.023 359.84 136.392 359.385C136.658 359.056 136.538 358.748 135.785 358.274C134.515 357.476 133.806 356.372 133.96 354.868C134.025 354.226 133.734 353.81 133.469 353.327C133.017 352.5 132.647 351.635 132.797 350.666C133.022 349.214 133.291 347.769 133.542 346.321C133.242 346.331 132.941 346.341 132.64 346.352C131.058 346.409 130.743 346.641 130.721 348.164C130.707 349.132 130.415 349.773 129.583 350.314C128.876 350.773 128.82 351.469 129.451 352.042C130.176 352.701 130.259 353.358 129.967 354.206H129.967Z" fill="white"/>
<path d="M133.547 346.298C133.546 346.306 133.544 346.314 133.543 346.322C133.553 346.322 133.562 346.321 133.572 346.321L133.547 346.298H133.547Z" fill="white"/>
<path d="M146.944 405.766C146.786 406.1 146.569 406.425 146.496 406.777C146.338 407.551 146.805 408.079 147.614 408.12C148.296 408.154 148.98 408.168 149.661 408.215C150.678 408.284 150.879 408.201 150.967 407.144C151.14 405.036 151.22 402.92 151.33 400.806C151.397 399.521 150.99 398.368 150.396 397.242C149.058 394.71 147.691 392.189 146.713 389.484C146.649 389.308 146.585 389.133 146.515 388.96C146.343 388.538 146.026 388.441 145.611 388.554C144.831 388.766 144.055 388.996 143.269 389.179C140.641 389.789 137.972 389.901 135.287 389.83C134.081 389.798 133.853 389.776 133.789 391.333C133.742 392.491 134.12 393.56 134.642 394.553C135.249 395.706 135.972 396.797 136.643 397.916C137.172 398.799 137.15 399.085 136.483 399.913C136.366 400.058 136.211 400.173 136.098 400.32C135.293 401.37 135.257 401.904 136.161 402.928C136.818 403.673 136.796 404.328 136.313 405.118C136.059 405.534 135.863 406.01 135.757 406.485C135.591 407.227 135.822 407.675 136.517 408.002C136.96 408.21 137.452 408.399 137.931 408.427C138.733 408.472 139.551 408.441 140.348 408.336C142.073 408.11 142.087 408.083 142.134 406.412C142.192 404.356 142.216 402.299 142.255 400.243C142.269 400.243 142.283 400.243 142.297 400.244C142.34 397.938 142.368 395.632 142.435 393.327C142.461 392.428 142.803 391.967 143.357 391.906C143.958 391.839 144.388 392.385 144.424 393.361C144.459 394.294 144.408 395.231 144.436 396.165C144.478 397.577 144.792 398.886 145.97 399.833C146.162 399.987 146.333 400.178 146.478 400.378C146.875 400.922 146.875 401.325 146.48 401.915C146.342 402.12 146.139 402.281 145.998 402.485C145.425 403.314 145.477 403.501 146.384 403.998C147.314 404.507 147.404 404.794 146.944 405.766Z" fill="white"/>
<path d="M186.564 341.368C186.464 340.787 186.454 340.239 186.929 339.816C187.801 339.04 187.688 338.227 187.122 337.325C186.722 336.686 186.443 335.956 186.638 335.195C186.83 334.443 186.828 333.768 186.554 333.021C186.318 332.379 186.599 331.902 187.316 331.811C188.019 331.722 188.214 331.418 188.418 330.81C188.732 329.875 189.174 329.7 190.149 330.12C190.75 330.379 191.167 330.456 191.589 329.886C192.121 329.165 192.792 329.016 193.514 329.591C193.916 329.911 194.254 329.844 194.709 329.702C195.768 329.373 196.162 329.554 196.299 330.537C196.379 331.118 196.568 331.423 197.066 331.66C197.734 331.978 197.946 332.54 197.628 333.209C197.306 333.887 197.509 334.418 197.974 334.9C198.451 335.394 198.546 335.967 198.458 336.622C198.409 336.987 198.405 337.374 198.472 337.733C198.599 338.409 199.296 338.891 199.992 338.852C200.509 338.822 200.747 338.475 200.925 337.668C201.028 337.202 201.178 336.726 201.41 336.313C201.705 335.789 201.678 335.337 201.232 334.987C200.624 334.51 200.337 333.981 200.63 333.213C200.907 332.492 200.592 332.048 199.953 331.702C199.401 331.403 199.213 330.888 199.367 330.284C199.467 328.865 199.474 328.836 198.188 328.504C197.725 328.384 197.379 328.201 197.199 327.765C197.105 327.537 197.1 327.267 196.985 327.054C196.568 326.274 195.958 326.039 195.172 326.5C194.455 326.92 193.954 326.815 193.339 326.305C192.205 325.363 192.155 325.377 191.085 326.377C190.611 326.821 190.138 326.928 189.564 326.694C189.334 326.601 189.124 326.452 188.89 326.38C188.187 326.165 187.802 326.274 187.583 326.972C187.317 327.817 186.851 328.14 185.98 328.216C184.618 328.335 184.386 328.564 184.164 329.887C184.045 330.602 183.85 331.172 183.235 331.617C182.47 332.169 182.298 332.895 182.865 333.723C183.309 334.371 183.269 334.993 182.766 335.604C182.234 336.249 182.367 336.869 182.903 337.439C183.422 337.989 183.618 338.582 183.255 339.304C183.017 339.778 183.183 340.192 183.638 340.393C184.278 340.675 184.5 341.215 184.759 341.796C185.041 342.427 185.643 342.689 186.1 342.48C186.579 342.259 186.641 341.815 186.564 341.368L186.564 341.368Z" fill="white"/>
<path d="M137.513 376.89C137.36 376.232 137.206 375.573 137.052 374.915C136.995 374.673 136.943 374.429 136.876 374.189C136.689 373.509 136.635 373.48 135.994 373.675C134.568 374.109 133.151 374.577 131.711 374.96C131.186 375.1 130.591 375.126 130.059 375.033C129.783 374.985 129.413 374.58 129.38 374.301C129.347 374.021 129.613 373.608 129.869 373.418C130.147 373.213 130.572 373.216 130.923 373.099C132.866 372.45 134.821 371.832 136.742 371.122C137.798 370.731 137.811 370.551 137.319 369.629C136.255 367.639 134.612 366.244 132.707 365.116C132.22 364.828 131.766 364.835 131.364 365.275C130.105 366.652 128.79 367.983 127.604 369.42C126.681 370.539 126.163 371.888 126.033 373.356C125.786 376.137 127.683 378.931 131.02 378.837C131.637 378.768 132.264 378.748 132.868 378.62C133.716 378.441 134.57 378.241 135.381 377.94C136.12 377.666 136.805 377.246 137.513 376.89Z" fill="white"/>
<path d="M201.856 372.697C202.44 372.577 202.675 372.174 202.619 371.603C202.474 370.119 202.367 368.63 202.154 367.156C201.881 365.269 201.816 365.256 199.899 365.567C199.716 365.597 199.533 365.635 199.352 365.676C195.964 366.442 192.58 367.217 189.124 367.648C187.35 367.869 187.359 367.941 187.37 370.398C187.446 371.133 187.583 372.492 187.729 373.85C187.786 374.373 188.109 374.636 188.615 374.586C190.404 374.41 192.192 374.213 193.979 374.012C194.403 373.964 194.634 373.678 194.685 373.269C194.731 372.9 194.728 372.525 194.765 372.154C194.872 371.103 194.963 370.049 195.11 369.004C195.208 368.307 195.533 368.015 196.03 368.041C196.529 368.068 196.92 368.411 197.029 368.98C197.087 369.282 197.081 369.597 197.083 369.907C197.086 370.59 197.071 371.274 197.073 371.958C197.076 373.067 197.638 373.513 198.758 373.295C199.791 373.095 200.826 372.907 201.856 372.697H201.856Z" fill="white"/>
<path d="M187.79 344.966C187.865 346.395 187.96 347.823 188.084 349.248C188.17 350.244 188.195 350.272 189.181 350.288C190.134 350.304 191.15 350.291 191.711 351.162C192.291 352.062 193.002 351.938 193.818 351.782C194.732 351.608 195.647 351.409 196.572 351.333C197.651 351.243 198.168 351.679 198.431 352.742C198.505 353.042 198.531 353.356 198.558 353.665C198.687 355.152 198.8 356.64 198.935 358.126C198.997 358.807 199.064 359.49 199.197 360.159C199.228 360.313 199.544 360.526 199.719 360.517C200.807 360.463 201.059 360.179 201.092 359.02C201.13 357.714 201.145 356.408 201.169 355.101C201.186 355.099 201.203 355.097 201.22 355.094C201.087 352.113 200.988 349.13 200.806 346.152C200.715 344.664 200.476 343.186 200.299 341.704C200.241 341.219 200.006 340.971 199.481 340.865C197.754 340.516 197.699 340.545 197.853 342.345C197.869 342.531 197.905 342.716 197.911 342.902C197.956 344.207 198.021 345.512 198.027 346.817C198.03 347.493 197.722 348.078 197.01 348.201C195.238 348.507 193.461 348.826 191.672 348.985C190.232 349.112 189.84 348.674 189.659 347.178C189.531 346.129 189.436 345.076 189.325 344.024C189.275 343.542 189.347 343.011 188.812 342.72C188.514 343.105 188.154 343.458 187.94 343.885C187.786 344.195 187.771 344.606 187.79 344.966H187.79Z" fill="white"/>
<path d="M130.974 382.572C130.958 382.261 130.934 381.951 130.91 381.64C130.876 381.211 130.63 380.963 130.222 380.878C129.857 380.802 129.482 380.765 129.12 380.677C127.412 380.265 126.071 379.336 125.093 377.859C124.116 376.382 123.842 374.764 124.035 372.764C124.056 372.604 124.113 372.172 124.169 371.739C124.22 371.347 124.025 371.176 123.652 371.152C122.759 371.094 122.477 371.26 122.364 372.092C121.95 375.14 121.923 378.183 122.669 381.19C123.079 382.841 123.833 384.347 124.857 385.703C126.155 387.42 127.912 388.207 130.052 388.119C131.06 388.078 131.228 387.864 131.18 386.863C131.11 385.433 131.044 384.003 130.974 382.572H130.974Z" fill="white"/>
<path d="M216.915 335.884C212.779 337.732 208.639 339.57 204.498 341.407C203.987 341.634 203.445 341.796 202.957 342.061C202.726 342.186 202.59 342.484 202.482 342.616C202.603 343.88 202.706 344.993 202.817 346.105C202.929 347.231 203.069 347.316 204.037 346.821C208.239 344.673 212.444 342.53 216.637 340.365C219.209 339.037 219.2 339.02 218.145 336.309C217.846 335.542 217.729 335.52 216.915 335.884Z" fill="white"/>
<path d="M184.703 359.882C184.389 359.531 183.576 359.631 182.983 359.526C182.493 359.438 182.005 359.344 181.517 359.247C178.872 358.722 177.118 357.254 176.674 354.509C176.527 353.602 176.567 352.661 176.565 351.735C176.563 351.368 176.706 351.002 176.723 350.633C176.729 350.524 176.531 350.406 176.426 350.292C176.348 350.367 176.21 350.436 176.202 350.518C176.098 351.571 176.013 352.626 175.937 353.526C175.964 355.931 176.163 358.161 176.657 360.358C177.072 362.203 177.832 363.908 178.939 365.436C180.143 367.098 182.696 368.05 184.374 367.558C184.922 367.398 185.243 367.12 185.21 366.513C185.124 364.897 185.058 363.28 184.962 361.664C184.926 361.05 185.037 360.255 184.703 359.882V359.882Z" fill="white"/>
<path d="M184.951 344.534C184.287 344.279 183.756 344.378 183.211 344.754C180.312 346.752 178.659 349.49 178.562 353.024C178.494 355.513 179.835 356.918 182.33 357.296C182.453 357.315 182.576 357.329 182.7 357.343C184.558 357.56 184.599 357.525 184.63 355.713C184.632 355.589 184.635 355.465 184.637 355.34C184.634 355.34 184.631 355.34 184.628 355.34C184.637 354.843 184.655 354.347 184.653 353.85C184.652 353.465 184.439 353.305 184.062 353.347C183.387 353.42 182.712 353.538 182.036 353.546C181.583 353.552 181.141 353.022 181.293 352.659C181.595 351.937 181.871 351.123 182.406 350.601C183 350.021 183.665 350.583 184.214 351.006C184.262 351.043 184.319 351.075 184.376 351.094C185.305 351.389 186.121 350.814 186.075 349.852C186.008 348.426 185.883 347.002 185.805 345.575C185.773 344.996 185.49 344.741 184.951 344.534H184.951Z" fill="white"/>
<path d="M141.409 419.162C140.922 418.849 140.471 418.467 140.478 417.848C140.486 417.095 140.069 416.896 139.44 416.833C139.198 416.809 138.947 416.732 138.734 416.618C138.304 416.388 138.052 415.98 138.261 415.536C138.394 415.253 138.758 414.963 139.063 414.904C139.537 414.811 140.054 414.957 140.543 414.905C140.707 414.887 140.935 414.588 140.959 414.396C140.981 414.222 140.807 413.916 140.644 413.848C140.308 413.707 139.915 413.708 139.557 413.608C139.051 413.468 138.62 413.225 138.644 412.599C138.665 412.059 139.114 411.684 139.834 411.664C140.202 411.653 140.571 411.762 140.942 411.789C141.458 411.825 141.523 411.44 141.581 411.06C141.657 410.555 141.373 410.401 140.937 410.408C139.755 410.427 138.572 410.467 137.39 410.465C136.927 410.465 136.668 410.674 136.649 411.098C136.602 412.155 136.6 413.214 136.581 414.272C136.508 414.276 136.435 414.28 136.362 414.285C136.578 416.452 136.769 418.622 137.02 420.785C137.147 421.879 137.257 422.015 138.288 421.899C140.014 421.704 141.725 421.373 143.441 421.088C143.547 421.07 143.73 420.912 143.719 420.882C143.659 420.734 143.575 420.563 143.448 420.478C142.777 420.027 142.089 419.6 141.409 419.162Z" fill="white"/>
<path d="M165.219 404.073C165.074 401.462 165.079 398.843 164.949 396.231C164.647 390.199 164.305 384.168 163.974 378.137C163.95 377.704 163.934 377.26 163.819 376.847C163.775 376.692 163.456 376.51 163.27 376.518C162.547 376.549 162.231 376.879 162.248 377.532C162.261 378.029 162.318 378.525 162.36 379.022C162.699 383.054 163.035 387.086 163.378 391.118C164.006 398.501 164.636 405.883 165.272 413.265C165.298 413.567 165.399 413.863 165.477 414.159C165.489 414.201 165.578 414.26 165.615 414.251C165.711 414.225 165.866 414.179 165.879 414.117C165.926 413.877 165.927 413.628 165.938 413.479C165.9 413.009 165.869 412.636 165.84 412.264C165.629 409.534 165.371 406.806 165.219 404.073Z" fill="white"/>
<path d="M123.385 369.003C123.882 368.982 124.385 369.002 124.872 368.923C125.151 368.877 125.468 368.73 125.659 368.525C127.185 366.894 128.686 365.24 130.187 363.584C130.299 363.46 130.441 363.168 130.404 363.134C130.24 362.982 130.027 362.855 129.811 362.795C129.156 362.615 128.429 362.591 127.846 362.285C126.959 361.819 126.137 361.906 125.372 362.363C124.42 362.931 123.495 363.573 122.656 364.296C121.892 364.954 121.459 365.876 121.238 366.869C120.879 368.483 121.341 369.035 123.013 369.02C123.137 369.019 123.261 369.01 123.385 369.003H123.385Z" fill="white"/>
<path d="M192.008 376.311C191.265 376.376 190.526 376.483 189.784 376.56C188.356 376.708 188.253 376.822 188.329 378.291C188.345 378.601 188.361 378.92 188.445 379.216C188.73 380.222 188.653 381.161 188.17 382.11C187.673 383.088 187.646 384.151 187.943 385.206C188.142 385.913 188.376 386.06 188.968 386.05C189.466 386.025 189.778 386.017 190.088 385.992C191.701 385.857 192.466 385.13 192.513 383.529C192.535 382.794 192.466 382.01 192.223 381.324C191.839 380.239 191.921 379.261 192.419 378.261C192.583 377.931 192.701 377.569 192.777 377.208C192.916 376.545 192.662 376.253 192.008 376.311Z" fill="white"/>
<path d="M193.834 353.812C192.707 354.04 192.364 354.361 192.176 355.438C192.112 355.801 192.122 356.177 192.089 356.689C192.124 357.227 192.145 357.908 192.219 358.583C192.332 359.613 192.481 360.639 192.615 361.666C193.652 361.563 194.689 361.462 195.726 361.355C195.972 361.33 196.218 361.296 196.46 361.246C196.882 361.157 197.091 360.886 197.058 360.454C196.949 358.974 196.849 357.493 196.716 356.015C196.47 353.279 196.462 353.28 193.834 353.812V353.812Z" fill="white"/>
<path d="M131.38 360.786C131.381 360.786 131.693 360.805 132.002 360.788C132.083 360.783 132.229 360.652 132.22 360.599C132.205 360.502 132.11 360.359 132.025 360.339C130.61 360.018 129.724 359.199 129.418 357.744C129.363 357.481 129.065 357.243 128.834 357.048C128.06 356.393 127.773 355.561 127.771 354.565C127.769 354.09 127.682 353.575 127.483 353.149C126.719 351.512 126.751 350.015 128.12 348.712C128.461 348.388 128.689 348.051 128.624 347.578C128.602 347.417 128.526 347.249 128.426 347.124C128.394 347.084 128.186 347.143 128.089 347.204C126.836 347.988 125.907 349.043 125.398 350.447C124.465 353.016 124.775 355.482 126.071 357.836C127.146 359.79 128.75 360.919 131.38 360.786Z" fill="white"/>
<path d="M202.399 377.727C202.459 377.424 202.491 377.116 202.518 376.932C202.584 375.246 202.203 374.922 200.583 375.149C200.339 375.184 200.083 375.166 199.847 375.23C199.444 375.34 198.955 375.398 198.692 375.666C198.514 375.847 198.67 376.349 198.66 376.707C198.654 376.892 198.632 377.079 198.585 377.257C198.318 378.267 198.415 379.212 199.015 380.096C199.386 380.643 199.43 381.231 199.189 381.863C199.058 382.204 198.981 382.582 198.962 382.947C198.921 383.782 199.399 384.215 200.224 384.108C200.713 384.044 201.198 383.938 201.681 383.833C202.868 383.577 203.304 383.134 203.29 381.951C203.284 381.36 203.155 380.687 202.846 380.201C202.336 379.402 202.222 378.613 202.399 377.727Z" fill="white"/>
<path d="M148.699 416.239C148.536 415.994 148.268 415.702 148.305 415.471C148.356 415.156 148.59 414.745 148.858 414.622C149.223 414.456 149.694 414.497 150.119 414.5C150.531 414.502 150.649 414.255 150.693 413.929C150.739 413.586 150.634 413.323 150.246 413.254C149.88 413.189 149.501 413.161 149.154 413.041C148.719 412.891 148.402 412.588 148.442 412.072C148.482 411.555 148.828 411.304 149.298 411.246C149.727 411.193 150.168 411.235 150.596 411.175C150.727 411.156 150.909 410.945 150.922 410.808C150.935 410.677 150.78 410.427 150.663 410.403C150.18 410.303 149.683 410.27 149.434 410.24C147.592 410.154 147.558 410.2 147.355 411.794C147.175 413.21 146.977 414.625 146.735 416.031C146.556 417.071 146.265 418.092 146.076 419.131C145.913 420.026 146.16 420.331 147.045 420.211C149.073 419.935 151.092 419.591 153.111 419.253C153.305 419.221 153.472 419.034 153.652 418.919C153.489 418.747 153.355 418.477 153.158 418.418C151.669 417.974 150.6 416.663 149.017 416.421C148.902 416.403 148.761 416.331 148.699 416.239Z" fill="white"/>
<path d="M136.714 354.178C135.761 354.808 135.849 355.83 136.831 356.417C138.415 357.364 140.027 356.867 140.839 355.177C140.92 355.011 140.949 354.818 141.034 354.655C141.503 353.761 142.239 353.602 142.996 354.241C143.326 354.519 143.591 354.885 143.945 355.122C144.625 355.577 145.345 355.54 146.051 355.128C146.581 354.818 146.844 354.361 146.851 353.752C146.874 352.483 145.869 351.572 144.472 351.806C142.641 352.112 140.821 352.522 139.031 353.014C138.212 353.24 137.432 353.703 136.714 354.178Z" fill="white"/>
<path d="M181.699 329.95C181.744 329.977 181.918 329.853 181.983 329.763C182.051 329.668 182.073 329.532 182.091 329.411C182.337 327.779 183.21 326.701 184.813 326.209C185.144 326.107 185.527 325.89 185.702 325.611C186.554 324.248 187.779 323.977 189.254 324.205C189.583 324.257 190.017 324.184 190.283 323.998C191.387 323.226 192.501 323.272 193.617 323.878C194.144 324.164 194.631 324.271 195.211 324.088C195.494 324 195.819 324.043 195.972 324.035C196.188 324.088 196.25 324.119 196.308 324.115C196.48 324.101 196.65 324.073 196.821 324.051C196.709 323.907 196.628 323.702 196.481 323.628C195.656 323.209 194.849 322.716 193.975 322.443C191.282 321.603 188.689 322.167 186.199 323.27C184.766 323.904 183.539 324.856 182.601 326.148C181.847 327.186 181.456 328.342 181.425 329.617C181.422 329.731 181.58 329.878 181.699 329.95H181.699Z" fill="white"/>
<path d="M151.782 375.173C153.881 374.927 155.981 374.7 158.076 374.427C158.885 374.322 158.9 374.234 158.717 373.49C158.614 373.071 158.531 372.647 158.461 372.221C158.378 371.715 158.092 371.444 157.585 371.438C157.275 371.434 156.963 371.464 156.655 371.498C154.802 371.707 152.95 371.922 151.098 372.133C150.205 372.234 150.053 372.372 150.071 373.317C150.106 375.266 150.129 375.159 151.782 375.173Z" fill="white"/>
<path d="M196.988 381.755C197.076 381.374 196.989 380.895 196.833 380.525C196.458 379.639 196.324 378.741 196.475 377.797C196.483 377.365 196.532 376.93 196.488 376.504C196.442 376.061 196.068 375.863 195.688 375.906C195.428 375.935 195.003 376.164 194.978 376.347C194.819 377.523 194.561 378.66 194.109 379.76C194.029 379.955 194.123 380.245 194.19 380.475C194.705 382.246 194.84 384.006 194.132 385.765C194.021 386.04 194.152 386.271 194.47 386.244C195.148 386.188 195.825 386.114 196.496 386.005C197.511 385.84 197.634 385.7 197.262 384.841C196.821 383.824 196.74 382.83 196.988 381.755Z" fill="white"/>
<path d="M202.798 386.463C202.746 386.024 202.514 385.771 202.052 385.878C199.335 386.508 199.701 385.672 199.744 388.539C199.751 388.974 199.766 389.411 199.822 389.841C200.176 392.55 199.777 392.139 202.517 392.131C203.202 392.1 203.949 392.094 204.689 392.018C204.966 391.989 205.226 391.798 205.494 391.68C205.336 391.424 205.221 391.119 205.007 390.922C204.739 390.674 204.404 390.488 204.074 390.321C203.395 389.977 203.084 389.439 203.038 388.685C202.993 387.942 202.885 387.203 202.798 386.463Z" fill="white"/>
<path d="M177.002 348.041C177.694 348.303 177.822 347.681 178.072 347.299C179.168 345.62 180.406 344.083 182.156 343.033C182.261 342.97 182.399 342.898 182.434 342.799C182.487 342.647 182.538 342.403 182.46 342.311C182.098 341.89 181.716 341.478 181.287 341.128C181.148 341.015 180.817 341.03 180.622 341.108C178.615 341.914 177.273 343.412 176.375 345.334C176.195 345.719 176.153 346.169 176.08 346.458C176.05 347.317 176.338 347.789 177.002 348.041Z" fill="white"/>
<path d="M161.524 366.124C161.534 366.309 161.572 366.492 161.598 366.676C161.65 367.039 161.841 367.216 162.223 367.165C162.554 367.121 162.854 367.006 162.86 366.632C162.87 366.075 162.818 365.518 162.794 364.961C162.681 362.61 162.587 360.258 162.448 357.908C162.383 356.796 162.25 355.686 162.117 354.579C162.028 353.849 161.692 353.438 161.305 353.551C160.748 353.713 160.823 354.189 160.848 354.623C161.072 358.457 161.296 362.29 161.524 366.124H161.524Z" fill="white"/>
<path d="M192.283 337.002C191.821 337.788 191.156 338.26 190.303 338.598C189.316 338.989 189.184 340.153 189.974 340.848C190.749 341.529 191.661 341.878 192.695 341.898C194.305 341.895 196.083 340.355 196.365 338.721C196.458 338.185 196.25 337.824 195.726 337.828C194.687 337.838 193.757 337.627 193.011 336.853C192.697 336.527 192.454 336.713 192.283 337.002H192.283ZM194.338 339.271C194.102 339.644 194.001 340.011 193.777 340.114C193.353 340.311 192.852 340.456 192.395 340.428C192.124 340.411 191.725 340.06 191.658 339.791C191.589 339.515 191.764 339.006 191.994 338.866C192.382 338.629 192.913 338.478 193.354 338.532C193.69 338.572 193.981 338.986 194.338 339.271V339.271Z" fill="white"/>
<path d="M141.667 379.761C141.863 379.316 141.934 378.815 142.095 378.219C141.888 378.097 141.713 377.911 141.529 377.901C141.072 377.875 140.668 378.019 140.535 378.539C140.398 379.078 140.327 379.644 140.116 380.151C139.244 382.244 137.77 383.782 135.709 384.735C135.034 385.047 134.33 385.296 133.653 385.602C133.255 385.782 133.093 386.286 133.276 386.695C133.45 387.082 133.756 386.961 134.057 386.874C137.804 385.799 140.149 383.217 141.667 379.761Z" fill="white"/>
<path d="M144.666 409.114C144.428 409.099 144.072 409.32 143.947 409.539C143.773 409.846 143.746 410.245 143.69 410.609C143.522 411.711 143.379 412.817 143.21 413.919C143.068 414.838 142.912 415.754 142.745 416.668C142.644 417.223 142.826 417.613 143.301 417.923C143.827 418.267 144.104 418.235 144.221 417.665C144.68 415.421 145.105 413.17 145.487 411.209C145.431 410.464 145.473 410.011 145.338 409.619C145.26 409.389 144.909 409.129 144.666 409.114H144.666Z" fill="white"/>
<path d="M141.885 361.464C143.456 361.463 144.694 360.354 145.076 358.708C145.292 357.778 145.202 357.638 144.312 357.425C143.892 357.325 143.47 357.219 143.066 357.069C142.666 356.919 142.35 356.97 142.068 357.293C141.442 358.009 140.706 358.54 139.768 358.803C138.726 359.095 138.633 359.467 139.358 360.269C140.06 361.046 140.952 361.43 141.885 361.464ZM143.005 358.274C143.55 358.344 143.917 358.756 143.873 359.25C143.82 359.828 143.247 360.252 142.551 360.229C141.938 360.209 141.468 359.754 141.501 359.212C141.539 358.575 142.189 358.17 143.005 358.274Z" fill="white"/>
<path d="M140.03 375.959C140.751 375.801 141.475 375.61 142.155 375.326C142.717 375.091 142.198 374.529 142.373 374.151C142.451 373.984 142.512 373.802 142.622 373.66C142.829 373.394 142.907 373.186 142.664 372.861C142.498 372.639 142.464 372.294 142.437 371.999C142.368 371.255 142.379 371.244 141.685 371.481C140.862 371.763 140.034 372.036 139.235 372.375C139.003 372.474 138.863 372.788 138.667 373.019C138.946 373.938 139.173 374.777 139.468 375.59C139.532 375.767 139.871 375.994 140.03 375.959Z" fill="white"/>
<path d="M187.739 365.778C187.985 365.78 188.234 365.733 188.478 365.688C190.8 365.255 193.124 364.827 195.443 364.38C197.337 364.015 199.227 363.631 201.115 363.237C201.261 363.206 201.376 363.031 201.506 362.923C201.348 362.779 201.19 362.635 200.995 362.458C200.536 362.535 200.046 362.614 199.557 362.701C197.782 363.018 196.009 363.346 194.233 363.654C192.334 363.982 190.429 364.281 188.532 364.622C188.178 364.685 187.83 364.857 187.519 365.044C187.432 365.096 187.454 365.386 187.487 365.555C187.505 365.646 187.65 365.777 187.739 365.778Z" fill="white"/>
<path d="M195.21 343.351C194.322 343.813 193.402 344.081 192.377 344.047C191.411 344.014 191.414 344.069 191.499 345.135C191.669 347.281 191.688 347.032 193.578 346.713C194.063 346.631 194.549 346.541 195.027 346.425C195.977 346.194 195.998 346.155 195.974 345.069C195.94 344.703 195.918 344.208 195.842 343.722C195.789 343.387 195.61 343.143 195.21 343.351Z" fill="white"/>
<path d="M187.547 356.53C187.848 356.466 188.148 356.386 188.439 356.287C188.844 356.15 189.475 356.089 189.591 355.817C189.812 355.297 189.806 354.647 189.765 354.06C189.733 353.589 189.531 353.123 189.359 352.672C189.308 352.54 189.102 352.381 188.966 352.379C187.24 352.356 186.756 352.81 186.68 354.479C186.674 354.603 186.675 354.726 186.672 354.85C186.675 354.85 186.677 354.85 186.679 354.85C186.673 355.159 186.651 355.468 186.664 355.776C186.696 356.53 186.869 356.676 187.547 356.53Z" fill="white"/>
<path d="M133.892 383.233C135.641 382.62 137.065 381.597 137.96 379.933C138.03 379.802 138.051 379.527 137.975 379.465C137.863 379.373 137.626 379.354 137.473 379.402C136.299 379.772 135.139 380.185 133.964 380.548C132.964 380.856 132.923 380.882 132.944 382.088C132.953 382.2 132.961 382.448 132.995 382.692C133.075 383.261 133.337 383.427 133.892 383.233Z" fill="white"/>
<path d="M139.692 369.62C139.945 369.958 140.236 369.759 140.518 369.643C140.807 369.524 140.864 369.31 140.741 369.053C139.482 366.406 137.636 364.305 135.009 362.948C134.748 362.813 134.431 362.788 134.214 362.732C134.02 362.856 133.878 362.898 133.833 362.988C133.789 363.077 133.8 363.266 133.865 363.321C134.143 363.56 134.438 363.783 134.748 363.98C136.723 365.237 138.267 366.885 139.33 368.978C139.442 369.197 139.546 369.425 139.692 369.62L139.692 369.62Z" fill="white"/>
<path d="M136.21 347.737C137.792 347.237 139.366 346.707 140.937 346.171C141.231 346.071 141.502 345.906 141.784 345.771C141.455 345.624 141.139 345.431 140.795 345.344C140.442 345.254 140.063 345.267 139.694 345.236C138.025 345.121 136.663 345.656 135.736 347.105C135.641 347.254 135.617 347.446 135.56 347.619C135.778 347.663 136.024 347.796 136.21 347.737Z" fill="white"/>
<path d="M220.099 334.286C219.949 334.401 219.86 334.751 219.913 334.946C220.122 335.718 220.385 336.477 220.665 337.227C220.712 337.352 220.944 337.407 221.146 337.527C221.43 337.266 221.831 337.068 221.927 336.772C222.088 336.271 222.148 335.754 221.781 335.199C221.175 334.284 221.277 333.972 222.063 333.359C222.451 333.057 222.876 332.8 223.27 332.503C223.346 332.446 223.356 332.301 223.396 332.197C223.292 332.17 223.148 332.086 223.09 332.126C222.083 332.832 221.075 333.538 220.099 334.286L220.099 334.286Z" fill="white"/>
<path d="M189.618 334.615C189.091 334.744 188.776 335.108 188.755 335.678C188.739 336.136 189.102 336.527 189.643 336.53C190.617 336.484 190.593 335.456 191.028 334.844C191.1 334.743 191.047 334.554 191.052 334.406C190.573 334.472 190.085 334.501 189.618 334.615Z" fill="white"/>
<path d="M195.468 335.668C195.541 335.649 195.572 335.467 195.626 335.353C195.55 334.998 195.451 334.64 195.401 334.276C195.322 333.694 194.959 333.593 194.471 333.68C194.289 333.712 194.104 333.747 193.936 333.819C193.716 333.912 193.443 334.058 193.676 334.335C194.068 334.803 194.498 335.244 194.947 335.657C195.046 335.748 195.301 335.711 195.467 335.668H195.468Z" fill="white"/>
<path d="M189.802 358.311C189.707 358.316 189.534 358.427 189.537 358.484C189.598 359.649 189.677 360.813 189.769 361.975C189.772 362.013 189.955 362.051 190.056 362.061C190.099 362.065 190.176 362.004 190.19 361.958C190.263 361.727 190.32 361.491 190.366 361.318C190.265 360.317 190.178 359.391 190.069 358.467C190.061 358.401 189.892 358.307 189.802 358.311Z" fill="white"/>
<path d="M141.055 348.373C140.931 348.376 140.693 348.629 140.715 348.713C140.838 349.175 140.962 349.663 141.222 350.049C141.325 350.202 141.788 350.153 142.077 350.119C142.197 350.105 142.292 349.888 142.405 349.756C142.225 349.313 142.129 348.864 141.877 348.537C141.745 348.365 141.336 348.364 141.055 348.373Z" fill="white"/>
<path d="M187.127 362.139C187.138 362.233 187.277 362.312 187.357 362.398C187.417 362.309 187.518 362.226 187.529 362.132C187.557 361.888 187.546 361.638 187.551 361.391C187.532 361.391 187.512 361.39 187.493 361.39C187.499 361.081 187.525 360.77 187.506 360.462C187.483 360.095 187.436 359.727 187.367 359.365C187.35 359.279 187.209 359.186 187.109 359.161C187.064 359.149 186.948 359.285 186.92 359.372C186.883 359.486 186.888 359.618 186.898 359.741C186.968 360.541 187.037 361.341 187.127 362.139H187.127Z" fill="white"/>
<path d="M138.364 350.921C138.571 350.915 138.776 350.736 138.974 350.621C139.004 350.604 138.99 350.511 139.007 350.361C138.906 350.101 138.822 349.732 138.623 349.443C138.537 349.319 138.194 349.297 137.996 349.345C137.659 349.428 137.521 349.705 137.635 350.045C137.763 350.429 137.797 350.937 138.364 350.921H138.364Z" fill="white"/>
<path d="M135.309 352.14C135.376 352.21 135.547 352.249 135.634 352.213C135.787 352.149 135.912 352.017 136.059 351.906C136.017 351.693 136.023 351.497 135.941 351.349C135.781 351.063 135.75 350.513 135.25 350.711C134.848 350.87 134.908 351.319 135.025 351.681C135.079 351.849 135.186 352.013 135.309 352.14V352.14Z" fill="white"/>
<path d="M144.846 349.523C144.955 349.506 145.052 349.41 145.16 349.345C145.164 348.807 144.939 348.397 144.468 348.13C144.42 348.102 144.316 348.094 144.289 348.123C144.216 348.205 144.102 348.332 144.124 348.405C144.229 348.758 144.359 349.106 144.516 349.439C144.549 349.507 144.739 349.539 144.846 349.523Z" fill="white"/>
<path d="M201.977 399.318C201.498 399.429 201.031 399.617 200.58 399.818C199.01 400.516 197.363 400.715 195.669 400.621C194.864 400.576 194.06 400.496 193.256 400.433C193.256 400.466 193.255 400.499 193.254 400.532C191.829 400.505 190.403 400.462 188.977 400.463C188.616 400.463 188.235 400.549 187.899 400.686C187.466 400.861 187.146 401.25 187.314 401.709C187.419 401.995 187.786 402.282 188.093 402.372C188.493 402.49 188.951 402.405 189.384 402.421C191.18 402.491 192.989 402.458 194.768 402.669C196.471 402.87 198.119 402.719 199.739 402.3C200.748 402.039 201.71 401.567 202.661 401.121C203.065 400.932 203.296 400.522 203.148 400.025C203.012 399.569 202.466 399.205 201.977 399.318H201.977Z" fill="#141418"/>
<path d="M191.994 338.865C191.763 339.006 191.589 339.515 191.658 339.791C191.725 340.06 192.123 340.411 192.395 340.428C192.852 340.456 193.352 340.311 193.777 340.114C194 340.011 194.102 339.644 194.337 339.271C193.98 338.986 193.69 338.572 193.354 338.531C192.912 338.478 192.381 338.629 191.994 338.865Z" fill="#141418"/>
<path d="M142.551 360.229C143.247 360.252 143.82 359.828 143.872 359.25C143.917 358.756 143.55 358.344 143.005 358.274C142.188 358.17 141.539 358.575 141.501 359.212C141.468 359.753 141.938 360.209 142.551 360.229Z" fill="#141418"/>
<defs>
<clipPath id="clip0_449_14160">
<rect width="770.203" height="431.406" fill="white" transform="translate(30 13)"/>
</clipPath>
</defs>
</svg>
