<svg width="87" height="134" viewBox="0 0 87 134" fill="none" xmlns="http://www.w3.org/2000/svg">
<g clip-path="url(#clip0_395_9035)">
<path d="M43.1309 0.5V31.5025" stroke="white" stroke-miterlimit="10" stroke-linecap="round" stroke-dasharray="2 2"/>
<path d="M56.9344 18.8776L43.1313 31.5026L29.3281 17.6994" stroke="white" stroke-miterlimit="10" stroke-linecap="round" stroke-dasharray="2 2"/>
<path d="M43.1309 132.764V101.762" stroke="white" stroke-miterlimit="10" stroke-linecap="round" stroke-dasharray="2 2"/>
<path d="M29.3281 114.387L43.1313 101.762L56.9344 115.565" stroke="white" stroke-miterlimit="10" stroke-linecap="round" stroke-dasharray="2 2"/>
<path d="M43.1316 42.8151C56.2643 42.8151 66.9486 53.4994 66.9486 66.6321C66.9486 79.7649 56.2643 90.4491 43.1316 90.4491C29.9989 90.4491 19.3145 79.7649 19.3145 66.6321C19.3145 53.4994 29.9988 42.8151 43.1316 42.8151ZM43.1316 39.8151C28.3209 39.8151 16.3145 51.8215 16.3145 66.6321C16.3145 81.4428 28.3209 93.4491 43.1316 93.4491C57.9423 93.4491 69.9486 81.4428 69.9486 66.6321C69.9486 51.8215 57.9421 39.8151 43.1316 39.8151Z" fill="white"/>
<path d="M23.7754 104.626C9.95994 97.5737 0.5 83.2076 0.5 66.6321C0.5 49.1717 10.9968 34.1631 26.0243 27.5723" stroke="white" stroke-miterlimit="10" stroke-linecap="round" stroke-dasharray="2 2"/>
<path d="M59.7246 27.3515C75.0254 33.8232 85.7615 48.9739 85.7615 66.6321C85.7615 84.2903 75.0254 99.441 59.7246 105.913" stroke="white" stroke-miterlimit="10" stroke-linecap="round" stroke-dasharray="2 2"/>
<path d="M43.1308 71.3156C45.7174 71.3156 47.8143 69.2187 47.8143 66.6321C47.8143 64.0455 45.7174 61.9486 43.1308 61.9486C40.5442 61.9486 38.4473 64.0455 38.4473 66.6321C38.4473 69.2187 40.5442 71.3156 43.1308 71.3156Z" fill="white"/>
</g>
<defs>
<clipPath id="clip0_395_9035">
<rect width="86.2615" height="133.264" fill="white"/>
</clipPath>
</defs>
</svg>
