<svg width="202" height="160" viewBox="0 0 202 160" fill="none" xmlns="http://www.w3.org/2000/svg">
<path d="M18.6609 128.873H2.5" stroke="#3AF98C" stroke-width="5" stroke-miterlimit="10" stroke-linecap="round"/>
<path d="M10.5804 120.792V136.953" stroke="#3AF98C" stroke-width="5" stroke-miterlimit="10" stroke-linecap="round"/>
<path d="M199.208 68.2695H183.047" stroke="#3AF98C" stroke-width="5" stroke-miterlimit="10" stroke-linecap="round"/>
<path d="M191.128 60.1891V76.35" stroke="#3AF98C" stroke-width="5" stroke-miterlimit="10" stroke-linecap="round"/>
<path d="M165.245 140.972H149.084" stroke="#3AF98C" stroke-width="5" stroke-miterlimit="10" stroke-linecap="round"/>
<path d="M157.165 132.892V149.053" stroke="#3AF98C" stroke-width="5" stroke-miterlimit="10" stroke-linecap="round"/>
<path d="M37.7558 77.36H21.5949" stroke="#3AF98C" stroke-width="5" stroke-miterlimit="10" stroke-linecap="round"/>
<path d="M29.6754 69.2796V85.4405" stroke="#3AF98C" stroke-width="5" stroke-miterlimit="10" stroke-linecap="round"/>
<path d="M147.071 90.2452H130.91" stroke="#3AF98C" stroke-width="5" stroke-miterlimit="10" stroke-linecap="round"/>
<path d="M138.991 82.1648V98.3257" stroke="#3AF98C" stroke-width="5" stroke-miterlimit="10" stroke-linecap="round"/>
<path opacity="0.4" d="M85.2485 124.436C85.2485 105.191 69.647 89.5892 50.4016 89.5892C31.1562 89.5892 15.5547 105.191 15.5547 124.436H85.2485Z" fill="#3AF98C"/>
<path opacity="0.5" d="M181.153 124.436C181.153 113 171.883 103.73 160.447 103.73C149.012 103.73 139.741 113 139.741 124.436H181.153Z" fill="#3AF98C"/>
<path opacity="0.25" d="M152.872 124.436C152.872 98.2177 131.618 76.9635 105.399 76.9635C79.181 76.9635 57.9268 98.2177 57.9268 124.436H152.872Z" fill="#3AF98C"/>
<path d="M123.168 61.7741L105.873 32.3727C105.549 31.822 104.753 31.822 104.429 32.3727L87.134 61.7741C86.8055 62.3326 87.2082 63.0367 87.8562 63.0367H122.446C123.094 63.0367 123.497 62.3326 123.168 61.7741Z" fill="#141418"/>
<path d="M151.229 5H148.839C148.397 5 148.039 5.35818 148.039 5.79999C148.039 6.24182 148.397 6.60001 148.839 6.60001H151.229C151.671 6.60001 152.029 6.24183 152.029 5.79999C152.029 5.35819 151.671 5 151.229 5ZM144.058 5H141.668C141.226 5 140.868 5.35818 140.868 5.79999C140.868 6.24182 141.226 6.60001 141.668 6.60001H144.058C144.5 6.60001 144.858 6.24183 144.858 5.79999C144.858 5.35819 144.5 5 144.058 5ZM136.887 5H134.497C134.055 5 133.697 5.35818 133.697 5.79999C133.697 6.24182 134.055 6.60001 134.497 6.60001H136.887C137.329 6.60001 137.687 6.24183 137.687 5.79999C137.687 5.35819 137.329 5 136.887 5ZM129.716 5H127.326C126.884 5 126.526 5.35818 126.526 5.79999C126.526 6.24182 126.884 6.60001 127.326 6.60001H129.716C130.158 6.60001 130.516 6.24183 130.516 5.79999C130.516 5.35819 130.158 5 129.716 5ZM122.545 5H120.155C119.713 5 119.355 5.35818 119.355 5.79999C119.355 6.24182 119.713 6.60001 120.155 6.60001H122.545C122.987 6.60001 123.345 6.24183 123.345 5.79999C123.345 5.35819 122.987 5 122.545 5ZM115.374 5H112.984C112.542 5 112.184 5.35818 112.184 5.79999C112.184 6.24182 112.542 6.60001 112.984 6.60001H115.374C115.816 6.60001 116.174 6.24183 116.174 5.79999C116.174 5.35819 115.816 5 115.374 5ZM108.203 5H105.813C105.371 5 105.013 5.35818 105.013 5.79999C105.013 6.24182 105.371 6.60001 105.813 6.60001H108.203C108.645 6.60001 109.003 6.24183 109.003 5.79999C109.003 5.35819 108.645 5 108.203 5ZM101.032 5H98.6415C98.1996 5 97.8415 5.35818 97.8415 5.79999C97.8415 6.24182 98.1996 6.60001 98.6415 6.60001H101.032C101.474 6.60001 101.832 6.24183 101.832 5.79999C101.832 5.35819 101.474 5 101.032 5ZM93.8608 5H91.4704C91.0286 5 90.6704 5.35818 90.6704 5.79999C90.6704 6.24182 91.0286 6.60001 91.4704 6.60001H93.8608C94.3026 6.60001 94.6608 6.24183 94.6608 5.79999C94.6608 5.35819 94.3026 5 93.8608 5ZM86.6897 5H84.2993C83.8575 5 83.4993 5.35818 83.4993 5.79999C83.4993 6.24182 83.8575 6.60001 84.2993 6.60001H86.6897C87.1315 6.60001 87.4897 6.24183 87.4897 5.79999C87.4897 5.35819 87.1315 5 86.6897 5ZM79.5186 5H77.1282C76.6864 5 76.3282 5.35818 76.3282 5.79999C76.3282 6.24182 76.6864 6.60001 77.1282 6.60001H79.5186C79.9605 6.60001 80.3186 6.24183 80.3186 5.79999C80.3186 5.35819 79.9605 5 79.5186 5ZM72.3475 5H69.9572C69.5153 5 69.1572 5.35818 69.1572 5.79999C69.1572 6.24182 69.5153 6.60001 69.9572 6.60001H72.3475C72.7894 6.60001 73.1475 6.24183 73.1475 5.79999C73.1475 5.35819 72.7894 5 72.3475 5ZM65.1765 5H62.7861C62.3443 5 61.9861 5.35818 61.9861 5.79999C61.9861 6.24182 62.3443 6.60001 62.7861 6.60001H65.1765C65.6183 6.60001 65.9764 6.24183 65.9764 5.79999C65.9764 5.35819 65.6183 5 65.1765 5ZM58.0054 5H55.6151C55.1732 5 54.815 5.35818 54.815 5.79999C54.815 6.24182 55.1732 6.60001 55.6151 6.60001H58.0054C58.4472 6.60001 58.8054 6.24183 58.8054 5.79999C58.8054 5.35819 58.4472 5 58.0054 5ZM50.9704 5.07608C50.928 5.07608 50.885 5.07947 50.8419 5.08646C50.7802 5.09662 50.7187 5.10767 50.6576 5.11957C50.6543 5.12021 50.6511 5.12085 50.6478 5.12149C50.6477 5.12152 50.648 5.12146 50.6478 5.12149C50.6448 5.1221 50.6414 5.12277 50.6383 5.12338C50.6379 5.12344 50.6376 5.1235 50.6373 5.12356C50.6344 5.12414 50.6314 5.12472 50.6285 5.1253C50.6281 5.12539 50.6277 5.12545 50.6274 5.12554C50.6244 5.12612 50.6216 5.1267 50.6187 5.12728C50.6183 5.12734 50.6179 5.12743 50.6175 5.12749C50.6147 5.12807 50.6119 5.12865 50.609 5.12923C50.6086 5.12932 50.6081 5.12941 50.6077 5.1295C50.6048 5.13008 50.602 5.13063 50.5992 5.13121L50.5979 5.13148C50.595 5.13206 50.5919 5.1327 50.589 5.13331C50.5887 5.13337 50.5893 5.13325 50.589 5.13331C50.5693 5.1374 50.5491 5.14164 50.5294 5.14588C50.5292 5.14594 50.5296 5.14582 50.5294 5.14588C50.5265 5.14649 50.5228 5.14731 50.5199 5.14795C50.5193 5.14807 50.5187 5.14822 50.5181 5.14835C50.5154 5.14893 50.513 5.14945 50.5103 5.15003C50.5096 5.15021 50.5087 5.1504 50.508 5.15055C50.5056 5.1511 50.5032 5.15162 50.5007 5.15214C50.4998 5.15235 50.4989 5.15257 50.498 5.15275C50.4957 5.15327 50.4935 5.15376 50.4913 5.15425C50.4902 5.15449 50.4892 5.15471 50.4882 5.15495C50.4859 5.15547 50.484 5.15587 50.4818 5.15638C50.4806 5.15662 50.4795 5.15687 50.4783 5.15714C50.4763 5.1576 50.4742 5.15809 50.4722 5.15854C50.471 5.15878 50.4699 5.15903 50.4688 5.15927C50.4668 5.15973 50.4646 5.16022 50.4626 5.1607C50.4614 5.16094 50.4603 5.16122 50.4591 5.16149C50.4573 5.16189 50.455 5.16244 50.4531 5.16283C50.4519 5.1631 50.4507 5.16341 50.4495 5.16368C50.4475 5.16414 50.4458 5.1645 50.4438 5.16499C50.4425 5.1653 50.441 5.1656 50.4398 5.16591C50.4377 5.16637 50.4361 5.16676 50.434 5.16722C50.4329 5.16753 50.4316 5.1678 50.4304 5.16807C50.4283 5.16856 50.4263 5.16902 50.4243 5.1695C50.4232 5.16974 50.4219 5.17005 50.4208 5.17032C50.4185 5.17084 50.4165 5.17133 50.4142 5.17185C50.4133 5.17206 50.4123 5.17231 50.4114 5.17252C50.4089 5.1731 50.4066 5.17365 50.4041 5.17423C50.4033 5.17441 50.4025 5.17463 50.4018 5.17478C50.3953 5.17634 50.3892 5.1778 50.3828 5.17936L50.38 5.18L50.3732 5.18165C50.372 5.18196 50.3707 5.18226 50.3695 5.18257C50.3675 5.18306 50.366 5.18342 50.3639 5.18391C50.3625 5.18428 50.361 5.18464 50.3595 5.18501C50.3579 5.18541 50.356 5.18583 50.3545 5.18623C50.3529 5.18663 50.3514 5.18699 50.3499 5.18736C50.3485 5.18773 50.3465 5.18818 50.3451 5.18855C50.3435 5.18892 50.3419 5.18934 50.3403 5.18974C50.3386 5.19014 50.3372 5.19047 50.3356 5.1909C50.3341 5.1913 50.3324 5.19169 50.3308 5.19209C50.3292 5.19249 50.3279 5.19282 50.3262 5.19322C50.3246 5.19365 50.323 5.19404 50.3214 5.19444C50.32 5.19481 50.3182 5.19523 50.3168 5.1956C50.3152 5.196 50.3134 5.19645 50.3119 5.19685C50.3105 5.19722 50.309 5.19758 50.3076 5.19792C50.3058 5.19838 50.3041 5.19881 50.3023 5.19926C50.3009 5.19963 50.2995 5.19996 50.2981 5.20033C50.2964 5.20076 50.2947 5.20122 50.293 5.20164C50.2916 5.20201 50.2904 5.20231 50.2889 5.20268C50.2871 5.20314 50.2853 5.20363 50.2835 5.20408C50.2821 5.20445 50.281 5.20475 50.2795 5.20512C50.2778 5.20555 50.2759 5.20604 50.2741 5.20649C50.2727 5.20686 50.2717 5.20713 50.2703 5.2075C50.2684 5.20799 50.2666 5.20848 50.2647 5.20893C50.2635 5.20927 50.2622 5.2096 50.261 5.20991C50.2591 5.2104 50.2572 5.21089 50.2553 5.21141C50.2543 5.21165 50.2531 5.21199 50.2521 5.21226C50.25 5.21281 50.248 5.21333 50.246 5.21385C50.2452 5.21406 50.2443 5.21431 50.2435 5.21452C50.2357 5.2166 50.2278 5.2187 50.2199 5.22081C50.2193 5.22096 50.2191 5.22102 50.2185 5.22121C50.2162 5.22182 50.2138 5.22246 50.2116 5.22307L50.2092 5.22371C50.207 5.22429 50.2047 5.22493 50.2025 5.22554C50.2017 5.22575 50.2007 5.226 50.1999 5.22621C50.1978 5.22679 50.1958 5.22734 50.1937 5.22792C50.1927 5.22819 50.1915 5.22853 50.1905 5.22881C50.1885 5.22933 50.1865 5.22988 50.1846 5.23043C50.1835 5.2307 50.1822 5.23107 50.1813 5.23135C50.1792 5.2319 50.1773 5.23245 50.1753 5.233C50.1741 5.23334 50.1732 5.23358 50.172 5.23392C50.17 5.23447 50.1679 5.23505 50.1659 5.2356C50.1649 5.23587 50.1638 5.23618 50.1628 5.23645L50.1566 5.23819C50.1558 5.2384 50.1544 5.2388 50.1536 5.23901C50.1515 5.23962 50.1493 5.2402 50.1473 5.24081C50.1462 5.24108 50.1455 5.2413 50.1445 5.24157C50.1423 5.24218 50.1402 5.24279 50.138 5.2434C50.137 5.24367 50.1363 5.24389 50.1353 5.24416C50.1331 5.24477 50.1308 5.24541 50.1286 5.24605C50.1278 5.24629 50.1272 5.24648 50.1264 5.24669C50.124 5.24736 50.1218 5.248 50.1195 5.24867C50.1187 5.24888 50.1181 5.24907 50.1173 5.24928C50.1149 5.24998 50.1125 5.25065 50.1101 5.25136C50.1097 5.25145 50.1091 5.25163 50.1087 5.25176C50.1061 5.25252 50.1036 5.25322 50.101 5.25399C50.1006 5.25411 50.1004 5.25417 50.1 5.2543C50.0823 5.2594 50.0647 5.26458 50.0471 5.26983C50.0469 5.26989 50.0473 5.26977 50.0471 5.26983C50.0443 5.27065 50.0413 5.2716 50.0385 5.27242C50.0382 5.27248 50.0387 5.27236 50.0385 5.27242C50.036 5.27318 50.0325 5.27419 50.03 5.27495C50.0294 5.27513 50.0289 5.27529 50.0283 5.27547C50.0259 5.2762 50.0234 5.27697 50.021 5.2777C50.0203 5.27788 50.0199 5.27804 50.0193 5.27822C50.0168 5.27895 50.0144 5.27968 50.0119 5.28045C50.0113 5.28063 50.0107 5.28082 50.0101 5.281C50.0077 5.28173 50.0053 5.2825 50.0028 5.28323C50.0023 5.28341 50.0017 5.2836 50.0011 5.28378C49.9987 5.28451 49.9962 5.28528 49.9938 5.28601C49.9932 5.28619 49.9926 5.28641 49.992 5.28659C49.9895 5.28735 49.9871 5.28809 49.9846 5.28885L49.9831 5.28931C49.9805 5.2901 49.978 5.2909 49.9755 5.29169C49.9751 5.29181 49.9746 5.29196 49.9742 5.29209C49.9716 5.29291 49.9691 5.29371 49.9664 5.29453C49.966 5.29465 49.9657 5.29477 49.9653 5.2949C49.9627 5.29572 49.96 5.29655 49.9574 5.29737C49.957 5.29749 49.9577 5.29725 49.9574 5.29737C49.9337 5.30482 49.9094 5.31262 49.8859 5.32031C49.883 5.32126 49.88 5.32226 49.8771 5.32321C49.8742 5.32416 49.8713 5.32513 49.8684 5.32608C49.8683 5.32614 49.8686 5.32602 49.8684 5.32608C49.8656 5.327 49.8624 5.32806 49.8596 5.32901C49.8569 5.3299 49.8536 5.33102 49.8509 5.33191C49.8507 5.33197 49.8502 5.33215 49.8499 5.33222C49.8473 5.33314 49.8446 5.33402 49.8419 5.33494C49.8391 5.33586 49.8357 5.33701 49.833 5.33793C49.8303 5.33885 49.8267 5.34003 49.8241 5.34095C49.8236 5.3411 49.8245 5.34083 49.8241 5.34095C49.8213 5.3419 49.818 5.34302 49.8152 5.34397C49.815 5.34403 49.8153 5.34391 49.8152 5.34397C49.78 5.35593 49.7443 5.36844 49.7095 5.38098C49.7093 5.38107 49.7097 5.38092 49.7095 5.38098C49.7067 5.38202 49.7035 5.38314 49.7007 5.38415C49.698 5.38516 49.6948 5.38628 49.692 5.38729C49.6917 5.38744 49.6925 5.38717 49.692 5.38729C49.6893 5.38833 49.6859 5.38954 49.6831 5.39055C49.6803 5.39159 49.6771 5.39272 49.6743 5.39375C49.6306 5.40977 49.5869 5.42634 49.5437 5.44328C49.2406 5.56202 48.9486 5.70292 48.6698 5.86409C48.6486 5.87636 48.6273 5.88878 48.6063 5.90129C48.2263 6.12672 48.101 6.61751 48.3264 6.99748C48.4759 7.24949 48.742 7.38945 49.0152 7.38945C49.154 7.38945 49.2946 7.35332 49.4226 7.27736C49.9415 6.96956 50.5058 6.76369 51.0999 6.66545C51.5359 6.59337 51.8308 6.18159 51.7588 5.74568C51.694 5.35393 51.3549 5.07608 50.9704 5.07608ZM46.48 9.00696C46.1386 9.00699 45.8226 9.2273 45.7163 9.57007C45.6566 9.76465 45.6059 9.96308 45.5646 10.165C45.5646 10.1649 45.5646 10.1651 45.5646 10.165C45.5633 10.1715 45.5619 10.1782 45.5606 10.1847C45.5606 10.1846 45.5606 10.1848 45.5606 10.1847C45.5585 10.1946 45.5566 10.2046 45.5546 10.2144C45.5546 10.2145 45.5547 10.2144 45.5546 10.2144C45.5528 10.2241 45.5508 10.2342 45.549 10.2439C45.5489 10.2441 45.549 10.2436 45.549 10.2439C45.5471 10.2536 45.5451 10.2641 45.5433 10.2738C45.5432 10.2739 45.5433 10.2736 45.5433 10.2738C45.5414 10.2837 45.5396 10.2936 45.5378 10.3035C45.5378 10.3034 45.5378 10.3037 45.5378 10.3035C45.5366 10.31 45.5354 10.317 45.5342 10.3234C45.5342 10.3237 45.5343 10.3232 45.5342 10.3234C45.5336 10.3265 45.533 10.3304 45.5324 10.3335C45.5324 10.3335 45.5324 10.3336 45.5324 10.3335C45.5313 10.34 45.53 10.3468 45.5289 10.3533C45.5289 10.3535 45.529 10.3531 45.5289 10.3533C45.5284 10.3564 45.5277 10.3604 45.5272 10.3635C45.5261 10.37 45.5249 10.3767 45.5238 10.3832C45.5238 10.3834 45.5239 10.3829 45.5238 10.3832C45.5227 10.3896 45.5215 10.397 45.5204 10.4035C45.5199 10.4066 45.5194 10.4099 45.5189 10.413C45.5188 10.4134 45.5189 10.4127 45.5189 10.413C45.5178 10.4195 45.5165 10.427 45.5155 10.4335C45.515 10.4366 45.5145 10.4399 45.514 10.443C45.5139 10.4433 45.5139 10.4437 45.5139 10.444C45.5128 10.4505 45.5118 10.4569 45.5108 10.4633C45.5108 10.4636 45.5108 10.4631 45.5108 10.4633C45.5103 10.4662 45.5097 10.4702 45.5093 10.4731C45.5092 10.4734 45.5093 10.4728 45.5093 10.4731C45.5083 10.4794 45.5072 10.4871 45.5062 10.4934C45.5061 10.4936 45.5063 10.4931 45.5062 10.4934C45.5057 10.4965 45.5051 10.5003 45.5047 10.5035C45.5047 10.5033 45.5047 10.5037 45.5047 10.5035C45.5037 10.51 45.5027 10.5168 45.5017 10.5233L45.5016 10.5246C45.5011 10.5277 45.5007 10.5305 45.5002 10.5336C45.5002 10.5338 45.5003 10.5335 45.5002 10.5336C45.4993 10.5401 45.4983 10.547 45.4974 10.5535C45.4973 10.5539 45.4973 10.5543 45.4972 10.5547C45.4968 10.5576 45.4964 10.5607 45.4959 10.5637C45.4959 10.5634 45.4959 10.5639 45.4959 10.5637C45.4955 10.567 45.495 10.5706 45.4945 10.574C45.4945 10.5743 45.4946 10.5737 45.4945 10.574C45.4941 10.577 45.4936 10.5805 45.4932 10.5834C45.4931 10.584 45.4931 10.5845 45.493 10.585C45.4922 10.5913 45.4913 10.5978 45.4905 10.6041C45.4904 10.6045 45.4904 10.6049 45.4903 10.6054C45.4899 10.6084 45.4896 10.6108 45.4892 10.6138C45.4891 10.6142 45.4891 10.6147 45.489 10.6151C45.4882 10.6214 45.4873 10.6279 45.4865 10.6343C45.4865 10.6347 45.4864 10.6353 45.4863 10.6358C45.486 10.6383 45.4856 10.6413 45.4853 10.6438C45.4852 10.6444 45.4851 10.645 45.4851 10.6455C45.4843 10.6519 45.4835 10.6582 45.4827 10.6645C45.4826 10.6651 45.4826 10.6655 45.4825 10.6661C45.4821 10.669 45.4818 10.6717 45.4814 10.6747C45.4814 10.675 45.4815 10.6744 45.4814 10.6747C45.481 10.6781 45.4805 10.6821 45.4801 10.6855C45.4797 10.6886 45.4794 10.6917 45.479 10.6949C45.479 10.6954 45.4789 10.6959 45.4788 10.6964C45.4785 10.6994 45.4781 10.7023 45.4778 10.7053C45.4777 10.7055 45.4779 10.7051 45.4778 10.7053C45.4774 10.7087 45.4769 10.7124 45.4766 10.7158C45.4765 10.7159 45.4766 10.7156 45.4766 10.7158C45.4762 10.7187 45.4758 10.7222 45.4755 10.7251C45.4754 10.7257 45.4754 10.7264 45.4752 10.7269C45.4746 10.7333 45.4738 10.7396 45.4731 10.7459C45.473 10.7464 45.473 10.7469 45.473 10.7474C45.4727 10.75 45.4724 10.7528 45.472 10.7554L45.4719 10.7575C45.4711 10.7638 45.4705 10.7699 45.4698 10.7763C45.4697 10.7769 45.4697 10.7775 45.4696 10.778C45.4694 10.7806 45.4691 10.7833 45.4688 10.7858C45.4688 10.7865 45.4686 10.7872 45.4686 10.7879C45.468 10.7941 45.4673 10.8003 45.4667 10.8065C45.4666 10.8073 45.4665 10.8081 45.4664 10.809C45.4661 10.8115 45.466 10.8137 45.4657 10.8163C45.4656 10.817 45.4655 10.8176 45.4655 10.8183C45.4649 10.8247 45.4643 10.8307 45.4636 10.8371C45.4636 10.8378 45.4635 10.8385 45.4635 10.8393C45.4632 10.8418 45.4629 10.8446 45.4627 10.8471C45.4626 10.8477 45.4626 10.8482 45.4626 10.8487C45.4619 10.8551 45.4613 10.8614 45.4607 10.8678C45.4607 10.8684 45.4607 10.869 45.4606 10.8696C45.4603 10.8726 45.4601 10.8751 45.4598 10.8781C45.4598 10.8784 45.4598 10.8788 45.4597 10.8792C45.4594 10.8826 45.4592 10.8854 45.4589 10.8888C45.4589 10.8892 45.4588 10.8896 45.4587 10.89C45.4585 10.8928 45.4583 10.8955 45.4581 10.8982C45.458 10.8989 45.4579 10.8996 45.4579 10.9004C45.4576 10.9032 45.4573 10.9063 45.4571 10.9091C45.4571 10.9093 45.4571 10.9088 45.4571 10.9091C45.4568 10.9123 45.4565 10.9162 45.4562 10.9194C45.4562 10.9199 45.4562 10.9203 45.4561 10.9208C45.4559 10.9235 45.4557 10.926 45.4554 10.9288C45.4554 10.9296 45.4553 10.9303 45.4553 10.931C45.4548 10.9372 45.4542 10.9439 45.4537 10.9501C45.4537 10.9506 45.4537 10.9511 45.4536 10.9516C45.4534 10.9542 45.4532 10.9573 45.4529 10.9598C45.4529 10.9604 45.4529 10.9609 45.4528 10.9615C45.4523 10.9679 45.4519 10.9743 45.4514 10.9808C45.4513 10.9813 45.4513 10.9818 45.4512 10.9824C45.4511 10.985 45.4508 10.9879 45.4506 10.9905C45.4506 10.9911 45.4506 10.9917 45.4505 10.9923C45.4501 10.9987 45.4496 11.0048 45.4492 11.0113C45.4491 11.012 45.4491 11.0127 45.4491 11.0135C45.4489 11.016 45.4486 11.0189 45.4485 11.0214C45.4484 11.022 45.4484 11.0224 45.4484 11.023C45.4482 11.0262 45.448 11.0294 45.4477 11.0326C45.4477 11.0323 45.4477 11.0329 45.4477 11.0326C45.4475 11.0354 45.4473 11.0393 45.4471 11.0421C45.447 11.0428 45.447 11.0435 45.447 11.0442C45.4468 11.0468 45.4466 11.0498 45.4464 11.0524C45.4464 11.0528 45.4464 11.0533 45.4464 11.0538C45.4462 11.0568 45.446 11.0603 45.4458 11.0633C45.4457 11.0638 45.4457 11.0643 45.4456 11.0648C45.4455 11.0674 45.4453 11.0702 45.4452 11.0728C45.4452 11.0736 45.4451 11.0744 45.445 11.0752C45.4449 11.078 45.4447 11.081 45.4445 11.0838C45.4445 11.084 45.4445 11.0835 45.4445 11.0838C45.4444 11.087 45.4441 11.0907 45.4439 11.094C45.4439 11.0946 45.4439 11.0954 45.4438 11.096C45.4437 11.0986 45.4435 11.1012 45.4434 11.1038C45.4433 11.1045 45.4433 11.1051 45.4433 11.1059C45.4431 11.1091 45.443 11.1119 45.4428 11.1151C45.4426 11.1184 45.4424 11.1216 45.4422 11.1248C45.4422 11.1256 45.4422 11.1263 45.4421 11.1271C45.442 11.1294 45.4419 11.1319 45.4417 11.1343C45.4417 11.1352 45.4417 11.1361 45.4416 11.137C45.4415 11.14 45.4413 11.1432 45.4411 11.1463C45.441 11.1492 45.4408 11.1526 45.4407 11.1556C45.4406 11.1564 45.4406 11.1573 45.4406 11.1581C45.4405 11.1607 45.4403 11.163 45.4402 11.1656C45.4402 11.1663 45.4402 11.167 45.4402 11.1677C45.44 11.1709 45.4398 11.1739 45.4397 11.1771C45.4397 11.1776 45.4397 11.178 45.4397 11.1785C45.4395 11.1811 45.4394 11.1839 45.4393 11.1865C45.4393 11.1874 45.4392 11.1882 45.4392 11.1891C45.4391 11.1917 45.439 11.194 45.4389 11.1966C45.4389 11.1973 45.4388 11.198 45.4388 11.1987C45.4387 11.2017 45.4386 11.205 45.4384 11.2081C45.4384 11.2086 45.4384 11.2091 45.4383 11.2097C45.4382 11.2123 45.4381 11.2148 45.4381 11.2174C45.438 11.2183 45.438 11.2192 45.438 11.2201C45.4378 11.2227 45.4378 11.2255 45.4376 11.2281C45.4376 11.2286 45.4376 11.229 45.4376 11.2295C45.4375 11.2325 45.4373 11.2361 45.4373 11.2391C45.4372 11.2396 45.4372 11.2403 45.4372 11.2408C45.4371 11.2434 45.437 11.246 45.4369 11.2486C45.4369 11.2494 45.4368 11.2502 45.4368 11.251C45.4368 11.2536 45.4367 11.2566 45.4366 11.2592C45.4365 11.2597 45.4365 11.2602 45.4365 11.2606C45.4364 11.2639 45.4364 11.2667 45.4362 11.2699C45.4362 11.2707 45.4362 11.2715 45.4362 11.2723C45.4361 11.2749 45.436 11.277 45.436 11.2796C45.4359 11.2804 45.4359 11.2812 45.4359 11.2821C45.4358 11.2849 45.4357 11.2884 45.4356 11.2912C45.4356 11.2942 45.4355 11.2977 45.4354 11.3008C45.4354 11.3018 45.4353 11.3027 45.4353 11.3037C45.4353 11.3059 45.4352 11.3085 45.4352 11.3107C45.4352 11.3115 45.4351 11.3123 45.4351 11.3132C45.435 11.3164 45.435 11.3193 45.4349 11.3226C45.4348 11.3228 45.4349 11.3224 45.4349 11.3226C45.4348 11.3254 45.4347 11.3292 45.4347 11.332C45.4347 11.3329 45.4347 11.3338 45.4346 11.3347C45.4345 11.3373 45.4346 11.3393 45.4345 11.3419C45.4345 11.3427 45.4344 11.3435 45.4344 11.3442C45.4344 11.3475 45.4343 11.3505 45.4342 11.3538V11.3548C45.4342 11.3576 45.4342 11.3603 45.4341 11.3631C45.4341 11.364 45.4341 11.365 45.4341 11.3659C45.434 11.3685 45.434 11.3707 45.4339 11.3733V11.3754C45.4339 11.3784 45.4338 11.3816 45.4338 11.3846C45.4338 11.3854 45.4338 11.3863 45.4338 11.3871C45.4338 11.3895 45.4337 11.3918 45.4337 11.3942C45.4337 11.3951 45.4337 11.3962 45.4337 11.3971C45.4337 11.3997 45.4336 11.4022 45.4336 11.4048V11.4065C45.4335 11.4095 45.4335 11.4128 45.4335 11.4158V11.4184C45.4335 11.4205 45.4335 11.4232 45.4334 11.4253V11.4284C45.4334 11.431 45.4334 11.4339 45.4333 11.4365V11.4469C45.4333 11.4479 45.4333 11.4489 45.4333 11.4498V11.9355C45.4333 12.3774 45.7914 12.7355 46.2333 12.7355C46.6751 12.7355 47.0333 12.3774 47.0333 11.9355V11.4689C47.0333 10.9817 47.1047 10.5014 47.2455 10.0413C47.3748 9.61885 47.1371 9.17156 46.7146 9.04226C46.6366 9.01836 46.5576 9.00696 46.48 9.00696ZM46.2331 15.9162C45.7913 15.9162 45.4331 16.2744 45.4331 16.7162V19.1066C45.4331 19.5484 45.7913 19.9066 46.2331 19.9066C46.6749 19.9066 47.0331 19.5484 47.0331 19.1066V16.7162C47.0331 16.2744 46.6749 15.9162 46.2331 15.9162ZM46.2331 23.0873C45.7913 23.0873 45.4331 23.4455 45.4331 23.8873V26.2777C45.4331 26.7195 45.7913 27.0777 46.2331 27.0777C46.6749 27.0777 47.0331 26.7195 47.0331 26.2777V23.8873C47.0331 23.4455 46.6749 23.0873 46.2331 23.0873ZM46.2331 30.2584C45.7913 30.2584 45.4331 30.6165 45.4331 31.0584V33.4487C45.4331 33.8906 45.7913 34.2488 46.2331 34.2488C46.6749 34.2488 47.0331 33.8906 47.0331 33.4487V31.0584C47.0331 30.6166 46.6749 30.2584 46.2331 30.2584ZM46.2331 37.4294C45.7913 37.4294 45.4331 37.7876 45.4331 38.2294V40.6198C45.4331 41.0616 45.7913 41.4198 46.2331 41.4198C46.6749 41.4198 47.0331 41.0616 47.0331 40.6198V38.2294C47.0331 37.7876 46.6749 37.4294 46.2331 37.4294ZM46.2331 44.6005C45.7913 44.6005 45.4331 44.9587 45.4331 45.4005V47.7909C45.4331 48.2327 45.7913 48.5909 46.2331 48.5909C46.6749 48.5909 47.0331 48.2327 47.0331 47.7909V45.4005C47.0331 44.9587 46.6749 44.6005 46.2331 44.6005ZM46.2331 51.7716C45.7913 51.7716 45.4331 52.1298 45.4331 52.5716V54.9619C45.4331 55.4038 45.7913 55.762 46.2331 55.762C46.6749 55.762 47.0331 55.4038 47.0331 54.9619V52.5716C47.0331 52.1298 46.6749 51.7716 46.2331 51.7716ZM46.2331 58.9427C45.7913 58.9427 45.4331 59.3008 45.4331 59.7427V62.133C45.4331 62.5748 45.7913 62.933 46.2331 62.933C46.6749 62.933 47.0331 62.5749 47.0331 62.133V59.7427C47.0331 59.3008 46.6749 58.9427 46.2331 58.9427ZM46.2331 66.1138C45.7913 66.1138 45.4331 66.4719 45.4331 66.9137V69.3041C45.4331 69.7459 45.7913 70.1041 46.2331 70.1041C46.6749 70.1041 47.0331 69.7459 47.0331 69.3041V66.9137C47.0331 66.4719 46.6749 66.1138 46.2331 66.1138ZM46.2331 73.2848C45.7913 73.2848 45.4331 73.643 45.4331 74.0848V76.4752C45.4331 76.917 45.7913 77.2752 46.2331 77.2752C46.6749 77.2752 47.0331 76.917 47.0331 76.4752V74.0848C47.0331 73.643 46.6749 73.2848 46.2331 73.2848ZM46.2331 80.4559C45.7913 80.4559 45.4331 80.8141 45.4331 81.2559V83.6463C45.4331 84.0881 45.7913 84.4463 46.2331 84.4463C46.6749 84.4463 47.0331 84.0881 47.0331 83.6463V81.2559C47.0331 80.8141 46.6749 80.4559 46.2331 80.4559ZM46.2331 87.627C45.7913 87.627 45.4331 87.9851 45.4331 88.427V90.8173C45.4331 91.2591 45.7913 91.6173 46.2331 91.6173C46.6749 91.6173 47.0331 91.2591 47.0331 90.8173V88.427C47.0331 87.9851 46.6749 87.627 46.2331 87.627ZM46.2331 94.798C45.7913 94.798 45.4331 95.1562 45.4331 95.598V97.9884C45.4331 98.4302 45.7913 98.7884 46.2331 98.7884C46.6749 98.7884 47.0331 98.4302 47.0331 97.9884V95.598C47.0331 95.1562 46.6749 94.798 46.2331 94.798ZM46.2331 101.969C45.7913 101.969 45.4331 102.327 45.4331 102.769V105.159C45.4331 105.601 45.7913 105.959 46.2331 105.959C46.6749 105.959 47.0331 105.601 47.0331 105.159V102.769C47.0331 102.327 46.6749 101.969 46.2331 101.969ZM46.2331 109.14C45.7913 109.14 45.4331 109.498 45.4331 109.94V112.331C45.4331 112.772 45.7913 113.131 46.2331 113.131C46.6749 113.131 47.0331 112.772 47.0331 112.331V109.94C47.0331 109.498 46.6749 109.14 46.2331 109.14ZM46.2331 116.311C45.7913 116.311 45.4331 116.669 45.4331 117.111V117.967V117.987C45.4332 117.988 45.4332 117.989 45.4332 117.989V118C45.4332 118.002 45.4332 118.005 45.4332 118.008V118.01C45.4333 118.013 45.4333 118.016 45.4333 118.019C45.4333 118.019 45.4333 118.02 45.4333 118.021C45.4333 118.024 45.4334 118.026 45.4334 118.029V118.031C45.4334 118.034 45.4335 118.037 45.4335 118.04C45.4335 118.043 45.4336 118.047 45.4336 118.05C45.4336 118.05 45.4337 118.051 45.4337 118.052C45.4337 118.055 45.4337 118.058 45.4338 118.061V118.062C45.4338 118.065 45.4339 118.069 45.4339 118.072C45.4339 118.071 45.434 118.072 45.4339 118.072C45.4339 118.075 45.434 118.078 45.4341 118.081C45.4341 118.082 45.4341 118.082 45.4341 118.083C45.4341 118.086 45.4342 118.089 45.4342 118.092C45.4342 118.092 45.4343 118.093 45.4343 118.094C45.4344 118.097 45.4344 118.1 45.4345 118.103V118.104C45.4346 118.107 45.4346 118.11 45.4347 118.113C45.4347 118.113 45.4347 118.113 45.4347 118.114C45.4348 118.117 45.4348 118.12 45.4349 118.123C45.4349 118.123 45.435 118.124 45.435 118.125C45.435 118.128 45.4351 118.131 45.4352 118.133C45.4352 118.134 45.4352 118.135 45.4352 118.136C45.4353 118.138 45.4354 118.141 45.4355 118.144V118.145C45.4356 118.148 45.4356 118.151 45.4357 118.154C45.4358 118.155 45.4357 118.155 45.4357 118.156C45.4359 118.159 45.4359 118.162 45.436 118.165C45.436 118.165 45.4361 118.166 45.4361 118.167C45.4362 118.169 45.4362 118.173 45.4364 118.175C45.4364 118.176 45.4364 118.176 45.4364 118.177C45.4365 118.18 45.4365 118.182 45.4367 118.185C45.4367 118.186 45.4367 118.186 45.4367 118.187C45.4368 118.19 45.4369 118.193 45.437 118.195C45.437 118.196 45.4371 118.197 45.4371 118.198C45.4372 118.201 45.4373 118.203 45.4374 118.206C45.4374 118.207 45.4375 118.208 45.4375 118.209C45.4376 118.211 45.4376 118.213 45.4378 118.216C45.4378 118.217 45.4378 118.218 45.4378 118.218C45.438 118.221 45.4381 118.224 45.4381 118.226C45.4382 118.227 45.4382 118.228 45.4383 118.229C45.4384 118.231 45.4385 118.234 45.4386 118.237C45.4386 118.238 45.4387 118.239 45.4387 118.24L45.4391 118.248C45.4391 118.248 45.4391 118.249 45.4391 118.25C45.4392 118.252 45.4394 118.255 45.4394 118.257C45.4395 118.258 45.4395 118.259 45.4395 118.26C45.4397 118.263 45.4398 118.265 45.4399 118.268C45.44 118.269 45.44 118.27 45.4401 118.271C45.4402 118.273 45.4403 118.276 45.4404 118.279C45.4405 118.28 45.4405 118.281 45.4406 118.282C45.4407 118.284 45.4408 118.285 45.4409 118.288C45.441 118.289 45.441 118.29 45.4411 118.291C45.4412 118.294 45.4413 118.296 45.4414 118.298C45.4415 118.299 45.4415 118.301 45.4416 118.302C45.4417 118.304 45.4419 118.307 45.442 118.309C45.442 118.31 45.4421 118.311 45.4421 118.313C45.4422 118.315 45.4424 118.316 45.4425 118.319C45.4425 118.32 45.4426 118.322 45.4427 118.323C45.4428 118.325 45.4429 118.327 45.443 118.329C45.4431 118.33 45.4432 118.331 45.4432 118.332C45.4433 118.335 45.4435 118.337 45.4436 118.34C45.4437 118.341 45.4438 118.342 45.4438 118.344C45.4439 118.346 45.4441 118.348 45.4442 118.35C45.4443 118.351 45.4444 118.353 45.4444 118.354C45.4446 118.356 45.4447 118.358 45.4448 118.36C45.4449 118.361 45.4449 118.362 45.445 118.364C45.4452 118.366 45.4453 118.368 45.4454 118.37C45.4455 118.372 45.4456 118.373 45.4457 118.374C45.4458 118.377 45.446 118.379 45.4462 118.381C45.4462 118.383 45.4463 118.384 45.4464 118.385C45.4464 118.387 45.4466 118.389 45.4467 118.39C45.4468 118.392 45.4469 118.394 45.4471 118.396C45.4472 118.398 45.4473 118.399 45.4474 118.401C45.4475 118.402 45.4476 118.404 45.4477 118.405C45.4478 118.407 45.448 118.41 45.4481 118.412C45.4482 118.413 45.4484 118.415 45.4484 118.416C45.4485 118.418 45.4486 118.419 45.4487 118.42C45.4489 118.423 45.4491 118.425 45.4492 118.427C45.4493 118.429 45.4494 118.43 45.4495 118.431C45.4497 118.433 45.4498 118.436 45.45 118.438C45.4501 118.439 45.4501 118.441 45.4503 118.442C45.4504 118.444 45.4505 118.445 45.4506 118.447C45.4508 118.448 45.4508 118.45 45.451 118.451C45.4511 118.453 45.4513 118.456 45.4515 118.458C45.4516 118.459 45.4516 118.46 45.4517 118.461C45.4519 118.464 45.4522 118.467 45.4524 118.47C45.4524 118.471 45.4525 118.472 45.4525 118.472C45.4527 118.474 45.4528 118.476 45.453 118.478C45.453 118.478 45.4531 118.479 45.4531 118.48L45.4539 118.489C45.4539 118.49 45.454 118.49 45.454 118.491C45.4543 118.494 45.4545 118.497 45.4548 118.5C45.4548 118.501 45.4548 118.502 45.455 118.503C45.4554 118.508 45.4559 118.514 45.4564 118.52C45.4564 118.519 45.4564 118.52 45.4564 118.52L45.4573 118.531C45.4574 118.532 45.4574 118.532 45.4575 118.532C45.4583 118.542 45.4592 118.552 45.46 118.562C45.46 118.561 45.4601 118.562 45.46 118.562L45.4612 118.574C45.4901 118.885 45.5412 119.19 45.6128 119.488C45.701 119.854 46.0287 120.1 46.3898 120.1C46.4518 120.1 46.5149 120.093 46.5778 120.078C47.0074 119.975 47.2717 119.542 47.1683 119.113C47.0786 118.741 47.0331 118.355 47.0331 117.967V117.111C47.0331 116.669 46.6749 116.311 46.2331 116.311ZM48.7271 121.864C48.4706 121.864 48.2188 121.987 48.0641 122.215C47.8168 122.58 47.9114 123.076 48.2752 123.325C48.633 123.567 49.0162 123.775 49.4202 123.943C49.4201 123.943 49.4204 123.943 49.4202 123.943C49.4233 123.944 49.4262 123.945 49.4291 123.947C49.4289 123.947 49.4295 123.947 49.4291 123.947C49.4318 123.948 49.4354 123.949 49.4381 123.95C49.4385 123.951 49.4389 123.951 49.4392 123.951C49.4419 123.952 49.4444 123.953 49.4471 123.954C49.4475 123.954 49.4479 123.954 49.4483 123.955C49.451 123.956 49.4534 123.957 49.456 123.958C49.4566 123.958 49.457 123.958 49.4575 123.958C49.46 123.959 49.4625 123.96 49.465 123.961C49.4655 123.962 49.4661 123.962 49.4666 123.962C49.4691 123.963 49.4716 123.964 49.4741 123.965C49.4746 123.965 49.4752 123.965 49.4757 123.966C49.4782 123.967 49.4807 123.968 49.4832 123.969C49.4837 123.969 49.4842 123.969 49.4847 123.969C49.4871 123.97 49.4899 123.971 49.4924 123.972C49.4929 123.973 49.4933 123.973 49.4937 123.973C49.4964 123.974 49.4994 123.975 49.5021 123.976C49.5019 123.976 49.5023 123.976 49.5021 123.976C49.5204 123.984 49.5392 123.991 49.5576 123.998C49.5605 123.999 49.5636 124.001 49.5664 124.002C49.567 124.002 49.5677 124.002 49.5683 124.002C49.5706 124.003 49.5732 124.004 49.5755 124.005C49.5762 124.005 49.5769 124.006 49.5776 124.006C49.5799 124.007 49.5822 124.008 49.5844 124.009C49.5853 124.009 49.5861 124.009 49.5869 124.01C49.589 124.01 49.5914 124.011 49.5936 124.012C49.5944 124.012 49.5953 124.013 49.5961 124.013C49.5983 124.014 49.6002 124.015 49.6024 124.015C49.6034 124.016 49.6045 124.016 49.6055 124.017C49.6077 124.017 49.6094 124.018 49.6115 124.019L49.6146 124.02C49.6165 124.021 49.6185 124.022 49.6204 124.022C49.6215 124.023 49.6227 124.023 49.6238 124.024C49.6257 124.024 49.6276 124.025 49.6295 124.026C49.6307 124.026 49.6318 124.027 49.6329 124.027C49.6347 124.028 49.6365 124.028 49.6383 124.029C49.6395 124.029 49.6409 124.03 49.6422 124.03C49.6437 124.031 49.6457 124.032 49.6473 124.032C49.6486 124.033 49.6499 124.033 49.6513 124.034C49.653 124.034 49.6545 124.035 49.6563 124.036C49.6576 124.036 49.659 124.037 49.6603 124.037C49.662 124.038 49.6637 124.038 49.6655 124.039C49.6668 124.04 49.668 124.04 49.6694 124.04C49.6709 124.041 49.6725 124.042 49.6741 124.042C49.6756 124.043 49.6771 124.043 49.6786 124.044C49.6801 124.044 49.6814 124.045 49.6829 124.045C49.6845 124.046 49.6861 124.047 49.6876 124.047C49.689 124.048 49.6906 124.048 49.6921 124.049C49.6936 124.049 49.6951 124.05 49.6967 124.05C49.6977 124.051 49.6981 124.051 49.699 124.051C49.7033 124.053 49.7076 124.054 49.7118 124.056C49.7128 124.056 49.7135 124.057 49.7145 124.057L49.7201 124.059C49.7213 124.059 49.7224 124.06 49.7235 124.06C49.7252 124.061 49.727 124.061 49.7286 124.062C49.73 124.062 49.7313 124.063 49.7327 124.063C49.7344 124.064 49.7363 124.065 49.738 124.065C49.7394 124.066 49.7402 124.066 49.7416 124.067C49.7435 124.067 49.7454 124.068 49.7473 124.069C49.7485 124.069 49.7494 124.069 49.7505 124.07C49.7525 124.07 49.7546 124.071 49.7566 124.072C49.7575 124.072 49.7586 124.073 49.7596 124.073C49.7615 124.074 49.7634 124.074 49.7654 124.075C49.7666 124.075 49.7674 124.076 49.7687 124.076C49.7705 124.077 49.7726 124.077 49.7745 124.078C49.7755 124.078 49.7766 124.079 49.7776 124.079C49.7796 124.08 49.7816 124.081 49.7835 124.081C49.7848 124.082 49.7854 124.082 49.7867 124.082C49.7886 124.083 49.7907 124.084 49.7927 124.084C49.7937 124.085 49.7946 124.085 49.7956 124.085C49.7976 124.086 49.7997 124.087 49.8017 124.088L49.8046 124.089C49.8067 124.089 49.8088 124.09 49.8109 124.091C49.8117 124.091 49.8126 124.091 49.8134 124.092C49.8156 124.092 49.8179 124.093 49.8201 124.094C49.8207 124.094 49.8213 124.094 49.8219 124.094C49.8244 124.095 49.8269 124.096 49.8294 124.097C49.8321 124.098 49.8357 124.099 49.8383 124.1C49.8381 124.1 49.8385 124.1 49.8383 124.1C50.0401 124.168 50.247 124.226 50.4571 124.274C50.5169 124.288 50.5768 124.294 50.6357 124.294C51.0006 124.294 51.3304 124.043 51.415 123.672C51.5132 123.241 51.2437 122.813 50.813 122.714C50.2264 122.58 49.6754 122.341 49.1751 122.002C49.0376 121.908 48.8815 121.864 48.7271 121.864ZM57.616 122.836H55.2257C54.7839 122.836 54.4257 123.194 54.4257 123.636C54.4257 124.078 54.7839 124.436 55.2257 124.436H57.616C58.0579 124.436 58.416 124.078 58.416 123.636C58.416 123.194 58.0579 122.836 57.616 122.836ZM64.7871 122.836H62.3968C61.9549 122.836 61.5967 123.194 61.5967 123.636C61.5967 124.078 61.9549 124.436 62.3968 124.436H64.7871C65.2289 124.436 65.5871 124.078 65.5871 123.636C65.5871 123.194 65.229 122.836 64.7871 122.836ZM71.9582 122.836H69.5678C69.126 122.836 68.7678 123.194 68.7678 123.636C68.7678 124.078 69.126 124.436 69.5678 124.436H71.9582C72.4 124.436 72.7582 124.078 72.7582 123.636C72.7582 123.194 72.4 122.836 71.9582 122.836ZM79.1293 122.836H76.7389C76.2971 122.836 75.9389 123.194 75.9389 123.636C75.9389 124.078 76.2971 124.436 76.7389 124.436H79.1293C79.5711 124.436 79.9293 124.078 79.9293 123.636C79.9293 123.194 79.5711 122.836 79.1293 122.836ZM86.3004 122.836H83.91C83.4682 122.836 83.11 123.194 83.11 123.636C83.11 124.078 83.4681 124.436 83.91 124.436H86.3004C86.7422 124.436 87.1003 124.078 87.1003 123.636C87.1003 123.194 86.7422 122.836 86.3004 122.836ZM93.4714 122.836H91.0811C90.6392 122.836 90.2811 123.194 90.2811 123.636C90.2811 124.078 90.6392 124.436 91.0811 124.436H93.4714C93.9133 124.436 94.2714 124.078 94.2714 123.636C94.2714 123.194 93.9133 122.836 93.4714 122.836ZM100.642 122.836H98.2521C97.8103 122.836 97.4521 123.194 97.4521 123.636C97.4521 124.078 97.8103 124.436 98.2521 124.436H100.642C101.084 124.436 101.443 124.078 101.443 123.636C101.443 123.194 101.084 122.836 100.642 122.836ZM107.814 122.836H105.423C104.981 122.836 104.623 123.194 104.623 123.636C104.623 124.078 104.981 124.436 105.423 124.436H107.814C108.255 124.436 108.614 124.078 108.614 123.636C108.614 123.194 108.255 122.836 107.814 122.836ZM114.985 122.836H112.594C112.152 122.836 111.794 123.194 111.794 123.636C111.794 124.078 112.152 124.436 112.594 124.436H114.985C115.426 124.436 115.785 124.078 115.785 123.636C115.785 123.194 115.426 122.836 114.985 122.836ZM122.156 122.836H119.765C119.324 122.836 118.965 123.194 118.965 123.636C118.965 124.078 119.324 124.436 119.765 124.436H122.156C122.598 124.436 122.956 124.078 122.956 123.636C122.956 123.194 122.598 122.836 122.156 122.836ZM129.327 122.836H126.936C126.495 122.836 126.136 123.194 126.136 123.636C126.136 124.078 126.495 124.436 126.936 124.436H129.327C129.769 124.436 130.127 124.078 130.127 123.636C130.127 123.194 129.769 122.836 129.327 122.836ZM136.498 122.836H134.107C133.666 122.836 133.307 123.194 133.307 123.636C133.307 124.078 133.666 124.436 134.107 124.436H136.498C136.94 124.436 137.298 124.078 137.298 123.636C137.298 123.194 136.94 122.836 136.498 122.836ZM143.669 122.836H141.279C140.837 122.836 140.479 123.194 140.479 123.636C140.479 124.078 140.837 124.436 141.279 124.436H143.669C144.111 124.436 144.469 124.078 144.469 123.636C144.469 123.194 144.111 122.836 143.669 122.836ZM150.84 122.836H148.45C148.008 122.836 147.65 123.194 147.65 123.636C147.65 124.078 148.008 124.436 148.45 124.436H150.84C151.282 124.436 151.64 124.078 151.64 123.636C151.64 123.194 151.282 122.836 150.84 122.836ZM158.011 122.836H155.621C155.179 122.836 154.821 123.194 154.821 123.636C154.821 124.078 155.179 124.436 155.621 124.436H158.011C158.453 124.436 158.811 124.078 158.811 123.636C158.811 123.194 158.453 122.836 158.011 122.836ZM163.315 119.996C163.038 119.996 162.769 120.14 162.621 120.396C162.319 120.919 161.928 121.377 161.457 121.758C161.113 122.035 161.059 122.539 161.337 122.883C161.495 123.078 161.726 123.18 161.96 123.18C162.136 123.18 162.314 123.122 162.462 123.002C163.081 122.502 163.607 121.89 164.007 121.196C164.228 120.814 164.097 120.324 163.714 120.103C163.588 120.031 163.451 119.996 163.315 119.996ZM164.069 113.377C163.627 113.377 163.269 113.735 163.269 114.177V116.567C163.269 117.009 163.627 117.367 164.069 117.367C164.511 117.367 164.869 117.009 164.869 116.567V114.177C164.869 113.735 164.511 113.377 164.069 113.377ZM164.069 106.206C163.627 106.206 163.269 106.564 163.269 107.006V109.396C163.269 109.838 163.627 110.196 164.069 110.196C164.511 110.196 164.869 109.838 164.869 109.396V107.006C164.869 106.564 164.511 106.206 164.069 106.206ZM164.069 99.0347C163.627 99.0347 163.269 99.3929 163.269 99.8347V102.225C163.269 102.667 163.627 103.025 164.069 103.025C164.511 103.025 164.869 102.667 164.869 102.225V99.8347C164.869 99.3929 164.511 99.0347 164.069 99.0347ZM164.069 91.8636C163.627 91.8636 163.269 92.2218 163.269 92.6637V95.054C163.269 95.4958 163.627 95.854 164.069 95.854C164.511 95.854 164.869 95.4958 164.869 95.054V92.6637C164.869 92.2218 164.511 91.8636 164.069 91.8636ZM164.069 84.6926C163.627 84.6926 163.269 85.0507 163.269 85.4926V87.8829C163.269 88.3248 163.627 88.683 164.069 88.683C164.511 88.683 164.869 88.3248 164.869 87.8829V85.4926C164.869 85.0507 164.511 84.6926 164.069 84.6926ZM164.069 77.5215C163.627 77.5215 163.269 77.8797 163.269 78.3215V80.7119C163.269 81.1537 163.627 81.5119 164.069 81.5119C164.511 81.5119 164.869 81.1537 164.869 80.7119V78.3215C164.869 77.8797 164.511 77.5215 164.069 77.5215ZM164.069 70.3504C163.627 70.3504 163.269 70.7086 163.269 71.1505V73.5408C163.269 73.9826 163.627 74.3408 164.069 74.3408C164.511 74.3408 164.869 73.9826 164.869 73.5408V71.1505C164.869 70.7086 164.511 70.3504 164.069 70.3504ZM164.069 63.1794C163.627 63.1794 163.269 63.5375 163.269 63.9794V66.3697C163.269 66.8115 163.627 67.1697 164.069 67.1697C164.511 67.1697 164.869 66.8115 164.869 66.3697V63.9794C164.869 63.5375 164.511 63.1794 164.069 63.1794ZM164.069 56.0083C163.627 56.0083 163.269 56.3664 163.269 56.8083V59.1986C163.269 59.6405 163.627 59.9986 164.069 59.9986C164.511 59.9986 164.869 59.6405 164.869 59.1986V56.8083C164.869 56.3665 164.511 56.0083 164.069 56.0083ZM164.069 48.8372C163.627 48.8372 163.269 49.1954 163.269 49.6372V52.0276C163.269 52.4694 163.627 52.8275 164.069 52.8275C164.511 52.8275 164.869 52.4694 164.869 52.0276V49.6372C164.869 49.1954 164.511 48.8372 164.069 48.8372ZM164.069 41.6661C163.627 41.6661 163.269 42.0243 163.269 42.4661V44.8565C163.269 45.2983 163.627 45.6565 164.069 45.6565C164.511 45.6565 164.869 45.2983 164.869 44.8565V42.4661C164.869 42.0243 164.511 41.6661 164.069 41.6661ZM164.069 34.4951C163.627 34.4951 163.269 34.8532 163.269 35.295V37.6854C163.269 38.1272 163.627 38.4854 164.069 38.4854C164.511 38.4854 164.869 38.1272 164.869 37.6854V35.295C164.869 34.8533 164.511 34.4951 164.069 34.4951ZM164.069 27.324C163.627 27.324 163.269 27.6822 163.269 28.124V30.5144C163.269 30.9562 163.627 31.3143 164.069 31.3143C164.511 31.3143 164.869 30.9562 164.869 30.5144V28.124C164.869 27.6822 164.511 27.324 164.069 27.324ZM164.069 20.1529C163.627 20.1529 163.269 20.5111 163.269 20.9529V23.3433C163.269 23.7851 163.627 24.1433 164.069 24.1433C164.511 24.1433 164.869 23.7851 164.869 23.3433V20.9529C164.869 20.5111 164.511 20.1529 164.069 20.1529ZM164.069 12.9819C163.627 12.9819 163.269 13.34 163.269 13.7818V16.1722C163.269 16.614 163.627 16.9722 164.069 16.9722C164.511 16.9722 164.869 16.614 164.869 16.1722V13.7818C164.869 13.34 164.511 12.9819 164.069 12.9819ZM162.545 6.80109C162.349 6.80109 162.153 6.87238 161.999 7.01636C161.676 7.31787 161.659 7.82413 161.96 8.14707C162.374 8.58982 162.697 9.09757 162.921 9.65626C163.046 9.96861 163.347 10.1585 163.664 10.1585C163.763 10.1585 163.864 10.1399 163.962 10.1007C164.371 9.93641 164.57 9.47218 164.407 9.06282C164.392 9.02522 164.377 8.98839 164.361 8.95116C164.361 8.95101 164.361 8.95134 164.361 8.95116C164.36 8.94814 164.358 8.94506 164.357 8.94203C164.357 8.94194 164.357 8.94213 164.357 8.94203C164.356 8.93901 164.355 8.93604 164.353 8.93302C164.353 8.9329 164.353 8.93314 164.353 8.93302C164.351 8.92698 164.348 8.9209 164.346 8.91486C164.346 8.91477 164.346 8.91492 164.346 8.91486C164.344 8.91184 164.343 8.90864 164.342 8.90565C164.34 8.90263 164.339 8.89982 164.338 8.8968C164.338 8.89671 164.338 8.89689 164.338 8.8968C164.329 8.87574 164.319 8.85466 164.31 8.83372C164.31 8.83338 164.31 8.83308 164.31 8.83277C164.308 8.83015 164.307 8.82764 164.306 8.82505C164.306 8.82423 164.305 8.82352 164.305 8.82273C164.304 8.8205 164.303 8.8184 164.302 8.81617C164.302 8.81528 164.301 8.81446 164.301 8.81358C164.3 8.81169 164.299 8.80952 164.298 8.80763C164.298 8.80644 164.297 8.80531 164.297 8.80409C164.296 8.80241 164.295 8.80049 164.294 8.79881C164.294 8.79765 164.293 8.79646 164.293 8.7953C164.292 8.79344 164.291 8.79194 164.29 8.79008L164.289 8.78651C164.288 8.78465 164.287 8.78306 164.286 8.7812C164.286 8.78004 164.285 8.77879 164.285 8.77763C164.284 8.77598 164.283 8.77436 164.282 8.77272C164.282 8.77132 164.281 8.76997 164.28 8.7686C164.28 8.76714 164.279 8.76549 164.278 8.76399C164.278 8.76262 164.277 8.76115 164.276 8.75978C164.276 8.75828 164.275 8.75691 164.274 8.75545C164.274 8.75392 164.273 8.75246 164.272 8.75093C164.272 8.74965 164.271 8.74806 164.27 8.74675C164.27 8.74519 164.269 8.74367 164.268 8.74211C164.268 8.74098 164.267 8.73949 164.266 8.73839C164.266 8.73665 164.265 8.73497 164.264 8.73323C164.264 8.73213 164.263 8.73091 164.262 8.72981C164.262 8.72804 164.261 8.72633 164.26 8.72456C164.259 8.72343 164.259 8.72239 164.258 8.72129C164.258 8.71943 164.257 8.71769 164.256 8.71583C164.255 8.71488 164.255 8.71372 164.254 8.71281C164.254 8.71086 164.253 8.709 164.252 8.70704C164.251 8.70631 164.251 8.70542 164.251 8.70469C164.25 8.70261 164.249 8.70042 164.248 8.69834C164.247 8.69779 164.247 8.697 164.247 8.69645C164.246 8.69419 164.245 8.6919 164.243 8.68964C164.243 8.68927 164.244 8.69001 164.243 8.68964C164.231 8.66446 164.219 8.63849 164.207 8.61349C164.204 8.60794 164.201 8.60238 164.198 8.59683L164.194 8.58844C164.193 8.58582 164.191 8.58292 164.19 8.5803C164.19 8.58012 164.19 8.58048 164.19 8.5803C164.189 8.57768 164.187 8.57432 164.186 8.5717C164.186 8.57158 164.186 8.57183 164.186 8.5717C164.184 8.56898 164.183 8.56599 164.182 8.5633C164.18 8.56061 164.179 8.55756 164.177 8.55484C164.177 8.55466 164.177 8.55502 164.177 8.55484C164.176 8.55215 164.174 8.54917 164.173 8.54648C163.953 8.11194 163.684 7.70539 163.376 7.33417C163.374 7.332 163.371 7.3292 163.37 7.32706C163.37 7.32691 163.37 7.32721 163.37 7.32706L163.364 7.32026C163.364 7.3198 163.363 7.31947 163.363 7.31901C163.361 7.31712 163.36 7.31523 163.358 7.31333C163.358 7.31269 163.357 7.31229 163.357 7.31168C163.355 7.30991 163.354 7.30811 163.352 7.30634C163.352 7.30558 163.351 7.30509 163.351 7.3043C163.349 7.30256 163.348 7.30091 163.346 7.29917C163.346 7.29856 163.345 7.29777 163.345 7.29716C163.343 7.29545 163.342 7.29377 163.34 7.29206C163.34 7.2913 163.339 7.29053 163.338 7.28977C163.337 7.28821 163.336 7.2866 163.334 7.28504C163.334 7.28412 163.333 7.28327 163.332 7.28235C163.331 7.28092 163.33 7.27945 163.328 7.27802C163.328 7.27707 163.326 7.27582 163.326 7.27491C163.324 7.27354 163.323 7.27219 163.322 7.27082C163.321 7.26975 163.32 7.26878 163.319 7.26768C163.318 7.26634 163.317 7.26506 163.316 7.26371C163.315 7.26261 163.314 7.26127 163.313 7.2602C163.312 7.25898 163.311 7.25779 163.31 7.25657C163.309 7.25535 163.308 7.25404 163.307 7.25279C163.306 7.25169 163.305 7.25056 163.304 7.24946C163.303 7.24809 163.301 7.24662 163.3 7.24525C163.299 7.24424 163.299 7.24327 163.298 7.24229C163.296 7.24076 163.295 7.23942 163.294 7.2379C163.293 7.23698 163.292 7.23604 163.291 7.23512C163.29 7.23298 163.288 7.23094 163.286 7.2288C163.286 7.22859 163.286 7.22901 163.286 7.2288C163.234 7.16944 163.181 7.11033 163.127 7.0529C162.97 6.88566 162.758 6.80109 162.545 6.80109ZM158.4 5H156.01C155.568 5 155.21 5.35818 155.21 5.79999C155.21 6.24182 155.568 6.60001 156.01 6.60001H158.4C158.534 6.60001 158.665 6.60529 158.796 6.61576C158.818 6.6175 158.839 6.61832 158.861 6.61832C159.274 6.61832 159.624 6.30082 159.657 5.88211C159.692 5.44293 159.366 5.05826 158.927 5.02115C158.863 5.01599 158.799 5.01172 158.734 5.00845C158.733 5.00842 158.733 5.00839 158.733 5.00836C158.73 5.00821 158.727 5.00809 158.724 5.00793C158.723 5.00793 158.723 5.0079 158.723 5.00787C158.716 5.00756 158.709 5.00723 158.703 5.00695C158.702 5.00692 158.702 5.00689 158.701 5.00686C158.698 5.00674 158.696 5.00662 158.693 5.00649C158.692 5.00646 158.691 5.00643 158.691 5.00637C158.688 5.00628 158.686 5.00616 158.683 5.00606C158.682 5.00603 158.682 5.006 158.681 5.00597C158.678 5.00582 158.675 5.0057 158.671 5.00554C158.668 5.00539 158.665 5.0053 158.662 5.00517C158.661 5.00514 158.66 5.00508 158.659 5.00505C158.657 5.00496 158.655 5.0049 158.652 5.00481C158.651 5.00475 158.65 5.00472 158.649 5.00466C158.647 5.0046 158.644 5.00451 158.642 5.00445C158.641 5.00439 158.64 5.00436 158.639 5.00433C158.636 5.00421 158.633 5.00412 158.63 5.00399C158.629 5.00396 158.629 5.00393 158.628 5.00393C158.625 5.00384 158.623 5.00375 158.621 5.00369C158.62 5.00363 158.618 5.0036 158.617 5.00357L158.611 5.00339C158.61 5.00333 158.609 5.0033 158.607 5.00324C158.605 5.00318 158.603 5.00312 158.601 5.00306C158.6 5.00303 158.599 5.003 158.598 5.00297C158.595 5.00288 158.592 5.00279 158.589 5.0027C158.588 5.00267 158.587 5.00264 158.586 5.00261C158.584 5.00255 158.581 5.00249 158.58 5.00246C158.578 5.00243 158.577 5.00237 158.576 5.00234C158.574 5.00231 158.572 5.00225 158.57 5.00219C158.569 5.00216 158.567 5.00213 158.566 5.0021C158.564 5.00204 158.561 5.00198 158.559 5.00192C158.558 5.00189 158.557 5.00189 158.556 5.00186C158.554 5.0018 158.55 5.00174 158.548 5.00168C158.546 5.00165 158.545 5.00162 158.544 5.00159C158.542 5.00156 158.54 5.0015 158.538 5.00147C158.537 5.00144 158.536 5.00141 158.534 5.00141C158.532 5.00135 158.53 5.00132 158.528 5.00129C158.527 5.00126 158.526 5.00123 158.525 5.0012C158.522 5.00114 158.519 5.00111 158.516 5.00105C158.515 5.00105 158.514 5.00102 158.514 5.00102C158.511 5.00096 158.509 5.00093 158.506 5.0009C158.505 5.00087 158.504 5.00087 158.503 5.00084C158.501 5.00081 158.499 5.00078 158.496 5.00075C158.495 5.00072 158.494 5.00072 158.493 5.00069C158.491 5.00066 158.489 5.00063 158.486 5.0006C158.485 5.0006 158.484 5.00057 158.483 5.00057C158.48 5.00054 158.477 5.00051 158.474 5.00045H158.472C158.469 5.00042 158.467 5.00039 158.464 5.00036C158.463 5.00036 158.462 5.00036 158.461 5.00033C158.459 5.00033 158.457 5.0003 158.455 5.00027C158.454 5.00027 158.453 5.00027 158.452 5.00024C158.449 5.00024 158.446 5.00021 158.444 5.00021C158.443 5.00021 158.443 5.00018 158.442 5.00018C158.439 5.00018 158.436 5.00015 158.433 5.00015C158.432 5.00012 158.431 5.00012 158.43 5.00012C158.427 5.00012 158.425 5.00009 158.423 5.00009H158.42C158.418 5.00009 158.415 5.00009 158.413 5.00006L158.4 5Z" fill="#141418"/>
<path d="M105.121 155.019C122.004 155.019 135.69 141.333 135.69 124.45C135.69 107.568 122.004 93.8822 105.121 93.8822C88.239 93.8822 74.5531 107.568 74.5531 124.45C74.5531 141.333 88.239 155.019 105.121 155.019Z" stroke="#141418" stroke-width="1.4" stroke-miterlimit="10"/>
<path d="M105.151 119.709V46.9696" stroke="#141418" stroke-miterlimit="10"/>
<path d="M105.151 103.233V46.9696" stroke="#141418" stroke-width="3" stroke-miterlimit="10" stroke-linecap="round"/>
<path d="M105.151 81.1925V46.9696" stroke="#141418" stroke-width="7" stroke-miterlimit="10" stroke-linecap="round"/>
<path d="M105.121 132.612C109.629 132.612 113.283 128.958 113.283 124.45C113.283 119.943 109.629 116.289 105.121 116.289C100.614 116.289 96.96 119.943 96.96 124.45C96.96 128.958 100.614 132.612 105.121 132.612Z" fill="#141418"/>
</svg>
