<svg width="116" height="95" viewBox="0 0 116 95" fill="none" xmlns="http://www.w3.org/2000/svg">
<g clip-path="url(#clip0_834_12959)">
<path d="M25.1598 44.8133C28.7952 44.8133 31.7424 41.8662 31.7424 38.2307C31.7424 34.5952 28.7952 31.6481 25.1598 31.6481C21.5243 31.6481 18.5771 34.5952 18.5771 38.2307C18.5771 41.8662 21.5243 44.8133 25.1598 44.8133Z" fill="#4D52F8"/>
<path d="M3.53188 89.4167C3.53188 89.4167 -6.28262 59.0686 12.6754 52.8199" stroke="#4D52F8" stroke-width="1.98451" stroke-miterlimit="10" stroke-linecap="round"/>
<path d="M46.7877 89.4167C46.7877 89.4167 56.0434 60.7965 39.2158 53.4204" stroke="#4D52F8" stroke-width="1.98451" stroke-miterlimit="10" stroke-linecap="round"/>
<path d="M14.0469 72.3599V93.9678" stroke="#4D52F8" stroke-width="1.98452" stroke-miterlimit="10" stroke-linecap="round"/>
<path d="M36.2734 72.3599V93.9678" stroke="#4D52F8" stroke-width="1.98452" stroke-miterlimit="10" stroke-linecap="round"/>
<path d="M78.8727 44.8133C82.5081 44.8133 85.4553 41.8662 85.4553 38.2307C85.4553 34.5952 82.5081 31.6481 78.8727 31.6481C75.2372 31.6481 72.29 34.5952 72.29 38.2307C72.29 41.8662 75.2372 44.8133 78.8727 44.8133Z" fill="#4D52F8"/>
<path d="M57.2448 89.4167C57.2448 89.4167 47.9891 60.7965 64.8166 53.4204" stroke="#4D52F8" stroke-width="1.98451" stroke-miterlimit="10" stroke-linecap="round"/>
<path d="M100.501 89.4167C100.501 89.4167 110.285 59.1653 91.4482 52.85" stroke="#4D52F8" stroke-width="1.98451" stroke-miterlimit="10" stroke-linecap="round"/>
<path d="M67.7598 72.3599V93.9678" stroke="#4D52F8" stroke-width="1.98452" stroke-miterlimit="10" stroke-linecap="round"/>
<path d="M89.9863 72.3599V93.9678" stroke="#4D52F8" stroke-width="1.98452" stroke-miterlimit="10" stroke-linecap="round"/>
<path d="M77.3374 17C66.2771 17 56.5594 29.1967 52.0166 35.9515C46.8339 28.3491 37.4517 17 26.6959 17C15.1782 17 5.80859 26.5226 5.80859 38.2307C5.80859 49.9389 15.1751 59.4615 26.6959 59.4615C37.7562 59.4615 47.4739 47.2647 52.0166 40.5099C57.2057 48.2482 66.5847 59.4615 77.3374 59.4615C88.8551 59.4615 98.2247 49.9389 98.2247 38.2307C98.2247 26.5226 88.8582 17 77.3374 17ZM26.6959 56.9637C16.5582 56.9637 8.30632 48.5589 8.30632 38.2307C8.30632 27.9026 16.5551 19.4977 26.6959 19.4977C37.0287 19.4977 46.5216 32.0941 50.5336 38.2307C46.5372 44.5063 37.0615 56.9637 26.6959 56.9637V56.9637ZM77.3374 56.9637C67.0046 56.9637 57.5117 44.3673 53.4997 38.2307C57.4945 32.0894 66.9687 19.4977 77.3374 19.4977C87.4751 19.4977 95.727 27.9026 95.727 38.2307C95.727 48.5589 87.4844 56.9637 77.3374 56.9637Z" fill="#4D52F8"/>
</g>
<path d="M114.999 37.5C114.999 17.3416 98.6576 1 78.4992 1C67.7698 1 58.1216 5.62952 51.4434 13" stroke="#4D52F8"/>
<defs>
<clipPath id="clip0_834_12959">
<rect width="104.033" height="77.96" fill="white" transform="translate(0 17)"/>
</clipPath>
</defs>
</svg>
