<svg width="202" height="160" viewBox="0 0 202 160" fill="none" xmlns="http://www.w3.org/2000/svg">
<mask id="mask0_1_834" style="mask-type:luminance" maskUnits="userSpaceOnUse" x="72" y="5" width="112" height="96">
<path d="M183.256 96.7284L130.046 6.2708C129.049 4.5764 126.599 4.5764 125.602 6.2708L72.3919 96.7284C71.3812 98.4469 72.6202 100.613 74.6138 100.613H181.035C183.028 100.613 184.267 98.4469 183.256 96.7284Z" fill="white"/>
</mask>
<g mask="url(#mask0_1_834)">
<path d="M74.893 10.055C75.9961 10.055 76.8903 9.1608 76.8903 8.0577C76.8903 6.95461 75.9961 6.06037 74.893 6.06037C73.7899 6.06037 72.8957 6.95461 72.8957 8.0577C72.8957 9.1608 73.7899 10.055 74.893 10.055Z" fill="#3AF98C"/>
<path d="M81.5507 10.055C82.6538 10.055 83.5481 9.1608 83.5481 8.0577C83.5481 6.95461 82.6538 6.06037 81.5507 6.06037C80.4476 6.06037 79.5534 6.95461 79.5534 8.0577C79.5534 9.1608 80.4476 10.055 81.5507 10.055Z" fill="#3AF98C"/>
<path d="M88.2085 10.055C89.3116 10.055 90.2058 9.1608 90.2058 8.0577C90.2058 6.95461 89.3116 6.06037 88.2085 6.06037C87.1054 6.06037 86.2112 6.95461 86.2112 8.0577C86.2112 9.1608 87.1054 10.055 88.2085 10.055Z" fill="#3AF98C"/>
<path d="M94.8662 10.055C95.9693 10.055 96.8636 9.1608 96.8636 8.0577C96.8636 6.95461 95.9693 6.06037 94.8662 6.06037C93.7631 6.06037 92.8689 6.95461 92.8689 8.0577C92.8689 9.1608 93.7631 10.055 94.8662 10.055Z" fill="#3AF98C"/>
<path d="M101.524 10.055C102.627 10.055 103.521 9.1608 103.521 8.0577C103.521 6.95461 102.627 6.06037 101.524 6.06037C100.421 6.06037 99.5267 6.95461 99.5267 8.0577C99.5267 9.1608 100.421 10.055 101.524 10.055Z" fill="#3AF98C"/>
<path d="M108.182 10.055C109.285 10.055 110.179 9.1608 110.179 8.0577C110.179 6.95461 109.285 6.06037 108.182 6.06037C107.079 6.06037 106.184 6.95461 106.184 8.0577C106.184 9.1608 107.079 10.055 108.182 10.055Z" fill="#3AF98C"/>
<path d="M114.839 10.055C115.943 10.055 116.837 9.1608 116.837 8.0577C116.837 6.95461 115.943 6.06037 114.839 6.06037C113.736 6.06037 112.842 6.95461 112.842 8.0577C112.842 9.1608 113.736 10.055 114.839 10.055Z" fill="#3AF98C"/>
<path d="M121.497 10.055C122.6 10.055 123.495 9.1608 123.495 8.0577C123.495 6.95461 122.6 6.06037 121.497 6.06037C120.394 6.06037 119.5 6.95461 119.5 8.0577C119.5 9.1608 120.394 10.055 121.497 10.055Z" fill="#3AF98C"/>
<path d="M128.155 10.055C129.258 10.055 130.152 9.1608 130.152 8.0577C130.152 6.95461 129.258 6.06037 128.155 6.06037C127.052 6.06037 126.158 6.95461 126.158 8.0577C126.158 9.1608 127.052 10.055 128.155 10.055Z" fill="#3AF98C"/>
<path d="M134.813 10.055C135.916 10.055 136.81 9.1608 136.81 8.0577C136.81 6.95461 135.916 6.06037 134.813 6.06037C133.71 6.06037 132.815 6.95461 132.815 8.0577C132.815 9.1608 133.71 10.055 134.813 10.055Z" fill="#3AF98C"/>
<path d="M141.47 10.055C142.574 10.055 143.468 9.1608 143.468 8.0577C143.468 6.95461 142.574 6.06037 141.47 6.06037C140.367 6.06037 139.473 6.95461 139.473 8.0577C139.473 9.1608 140.367 10.055 141.47 10.055Z" fill="#3AF98C"/>
<path d="M148.128 10.055C149.231 10.055 150.126 9.1608 150.126 8.0577C150.126 6.95461 149.231 6.06037 148.128 6.06037C147.025 6.06037 146.131 6.95461 146.131 8.0577C146.131 9.1608 147.025 10.055 148.128 10.055Z" fill="#3AF98C"/>
<path d="M154.786 10.055C155.889 10.055 156.783 9.1608 156.783 8.0577C156.783 6.95461 155.889 6.06037 154.786 6.06037C153.683 6.06037 152.789 6.95461 152.789 8.0577C152.789 9.1608 153.683 10.055 154.786 10.055Z" fill="#3AF98C"/>
<path d="M161.444 10.055C162.547 10.055 163.441 9.1608 163.441 8.0577C163.441 6.95461 162.547 6.06037 161.444 6.06037C160.341 6.06037 159.446 6.95461 159.446 8.0577C159.446 9.1608 160.341 10.055 161.444 10.055Z" fill="#3AF98C"/>
<path d="M168.102 10.055C169.205 10.055 170.099 9.1608 170.099 8.0577C170.099 6.95461 169.205 6.06037 168.102 6.06037C166.998 6.06037 166.104 6.95461 166.104 8.0577C166.104 9.1608 166.998 10.055 168.102 10.055Z" fill="#3AF98C"/>
<path d="M174.759 10.055C175.862 10.055 176.757 9.1608 176.757 8.0577C176.757 6.95461 175.862 6.06037 174.759 6.06037C173.656 6.06037 172.762 6.95461 172.762 8.0577C172.762 9.1608 173.656 10.055 174.759 10.055Z" fill="#3AF98C"/>
<path d="M181.417 10.055C182.52 10.055 183.414 9.1608 183.414 8.0577C183.414 6.95461 182.52 6.06037 181.417 6.06037C180.314 6.06037 179.42 6.95461 179.42 8.0577C179.42 9.1608 180.314 10.055 181.417 10.055Z" fill="#3AF98C"/>
<path d="M74.893 15.8251C75.9961 15.8251 76.8903 14.9308 76.8903 13.8278C76.8903 12.7247 75.9961 11.8304 74.893 11.8304C73.7899 11.8304 72.8957 12.7247 72.8957 13.8278C72.8957 14.9308 73.7899 15.8251 74.893 15.8251Z" fill="#3AF98C"/>
<path d="M81.5507 15.8251C82.6538 15.8251 83.5481 14.9308 83.5481 13.8278C83.5481 12.7247 82.6538 11.8304 81.5507 11.8304C80.4476 11.8304 79.5534 12.7247 79.5534 13.8278C79.5534 14.9308 80.4476 15.8251 81.5507 15.8251Z" fill="#3AF98C"/>
<path d="M88.2085 15.8251C89.3116 15.8251 90.2058 14.9308 90.2058 13.8278C90.2058 12.7247 89.3116 11.8304 88.2085 11.8304C87.1054 11.8304 86.2112 12.7247 86.2112 13.8278C86.2112 14.9308 87.1054 15.8251 88.2085 15.8251Z" fill="#3AF98C"/>
<path d="M94.8662 15.8251C95.9693 15.8251 96.8636 14.9308 96.8636 13.8278C96.8636 12.7247 95.9693 11.8304 94.8662 11.8304C93.7631 11.8304 92.8689 12.7247 92.8689 13.8278C92.8689 14.9308 93.7631 15.8251 94.8662 15.8251Z" fill="#3AF98C"/>
<path d="M101.524 15.8251C102.627 15.8251 103.521 14.9308 103.521 13.8278C103.521 12.7247 102.627 11.8304 101.524 11.8304C100.421 11.8304 99.5267 12.7247 99.5267 13.8278C99.5267 14.9308 100.421 15.8251 101.524 15.8251Z" fill="#3AF98C"/>
<path d="M108.182 15.8251C109.285 15.8251 110.179 14.9308 110.179 13.8278C110.179 12.7247 109.285 11.8304 108.182 11.8304C107.079 11.8304 106.184 12.7247 106.184 13.8278C106.184 14.9308 107.079 15.8251 108.182 15.8251Z" fill="#3AF98C"/>
<path d="M114.839 15.8251C115.943 15.8251 116.837 14.9308 116.837 13.8278C116.837 12.7247 115.943 11.8304 114.839 11.8304C113.736 11.8304 112.842 12.7247 112.842 13.8278C112.842 14.9308 113.736 15.8251 114.839 15.8251Z" fill="#3AF98C"/>
<path d="M121.497 15.8251C122.6 15.8251 123.495 14.9308 123.495 13.8278C123.495 12.7247 122.6 11.8304 121.497 11.8304C120.394 11.8304 119.5 12.7247 119.5 13.8278C119.5 14.9308 120.394 15.8251 121.497 15.8251Z" fill="#3AF98C"/>
<path d="M128.155 15.8251C129.258 15.8251 130.152 14.9308 130.152 13.8278C130.152 12.7247 129.258 11.8304 128.155 11.8304C127.052 11.8304 126.158 12.7247 126.158 13.8278C126.158 14.9308 127.052 15.8251 128.155 15.8251Z" fill="#3AF98C"/>
<path d="M134.813 15.8251C135.916 15.8251 136.81 14.9308 136.81 13.8278C136.81 12.7247 135.916 11.8304 134.813 11.8304C133.71 11.8304 132.815 12.7247 132.815 13.8278C132.815 14.9308 133.71 15.8251 134.813 15.8251Z" fill="#3AF98C"/>
<path d="M141.47 15.8251C142.574 15.8251 143.468 14.9308 143.468 13.8278C143.468 12.7247 142.574 11.8304 141.47 11.8304C140.367 11.8304 139.473 12.7247 139.473 13.8278C139.473 14.9308 140.367 15.8251 141.47 15.8251Z" fill="#3AF98C"/>
<path d="M148.128 15.8251C149.231 15.8251 150.126 14.9308 150.126 13.8278C150.126 12.7247 149.231 11.8304 148.128 11.8304C147.025 11.8304 146.131 12.7247 146.131 13.8278C146.131 14.9308 147.025 15.8251 148.128 15.8251Z" fill="#3AF98C"/>
<path d="M154.786 15.8251C155.889 15.8251 156.783 14.9308 156.783 13.8278C156.783 12.7247 155.889 11.8304 154.786 11.8304C153.683 11.8304 152.789 12.7247 152.789 13.8278C152.789 14.9308 153.683 15.8251 154.786 15.8251Z" fill="#3AF98C"/>
<path d="M161.444 15.8251C162.547 15.8251 163.441 14.9308 163.441 13.8278C163.441 12.7247 162.547 11.8304 161.444 11.8304C160.341 11.8304 159.446 12.7247 159.446 13.8278C159.446 14.9308 160.341 15.8251 161.444 15.8251Z" fill="#3AF98C"/>
<path d="M168.102 15.8251C169.205 15.8251 170.099 14.9308 170.099 13.8278C170.099 12.7247 169.205 11.8304 168.102 11.8304C166.998 11.8304 166.104 12.7247 166.104 13.8278C166.104 14.9308 166.998 15.8251 168.102 15.8251Z" fill="#3AF98C"/>
<path d="M174.759 15.8251C175.862 15.8251 176.757 14.9308 176.757 13.8278C176.757 12.7247 175.862 11.8304 174.759 11.8304C173.656 11.8304 172.762 12.7247 172.762 13.8278C172.762 14.9308 173.656 15.8251 174.759 15.8251Z" fill="#3AF98C"/>
<path d="M181.417 15.8251C182.52 15.8251 183.414 14.9308 183.414 13.8278C183.414 12.7247 182.52 11.8304 181.417 11.8304C180.314 11.8304 179.42 12.7247 179.42 13.8278C179.42 14.9308 180.314 15.8251 181.417 15.8251Z" fill="#3AF98C"/>
<path d="M74.893 21.5951C75.9961 21.5951 76.8903 20.7009 76.8903 19.5978C76.8903 18.4947 75.9961 17.6005 74.893 17.6005C73.7899 17.6005 72.8957 18.4947 72.8957 19.5978C72.8957 20.7009 73.7899 21.5951 74.893 21.5951Z" fill="#3AF98C"/>
<path d="M81.5507 21.5951C82.6538 21.5951 83.5481 20.7009 83.5481 19.5978C83.5481 18.4947 82.6538 17.6005 81.5507 17.6005C80.4476 17.6005 79.5534 18.4947 79.5534 19.5978C79.5534 20.7009 80.4476 21.5951 81.5507 21.5951Z" fill="#3AF98C"/>
<path d="M88.2085 21.5951C89.3116 21.5951 90.2058 20.7009 90.2058 19.5978C90.2058 18.4947 89.3116 17.6005 88.2085 17.6005C87.1054 17.6005 86.2112 18.4947 86.2112 19.5978C86.2112 20.7009 87.1054 21.5951 88.2085 21.5951Z" fill="#3AF98C"/>
<path d="M94.8662 21.5951C95.9693 21.5951 96.8636 20.7009 96.8636 19.5978C96.8636 18.4947 95.9693 17.6005 94.8662 17.6005C93.7631 17.6005 92.8689 18.4947 92.8689 19.5978C92.8689 20.7009 93.7631 21.5951 94.8662 21.5951Z" fill="#3AF98C"/>
<path d="M101.524 21.5951C102.627 21.5951 103.521 20.7009 103.521 19.5978C103.521 18.4947 102.627 17.6005 101.524 17.6005C100.421 17.6005 99.5267 18.4947 99.5267 19.5978C99.5267 20.7009 100.421 21.5951 101.524 21.5951Z" fill="#3AF98C"/>
<path d="M108.182 21.5951C109.285 21.5951 110.179 20.7009 110.179 19.5978C110.179 18.4947 109.285 17.6005 108.182 17.6005C107.079 17.6005 106.184 18.4947 106.184 19.5978C106.184 20.7009 107.079 21.5951 108.182 21.5951Z" fill="#3AF98C"/>
<path d="M114.839 21.5951C115.943 21.5951 116.837 20.7009 116.837 19.5978C116.837 18.4947 115.943 17.6005 114.839 17.6005C113.736 17.6005 112.842 18.4947 112.842 19.5978C112.842 20.7009 113.736 21.5951 114.839 21.5951Z" fill="#3AF98C"/>
<path d="M121.497 21.5951C122.6 21.5951 123.495 20.7009 123.495 19.5978C123.495 18.4947 122.6 17.6005 121.497 17.6005C120.394 17.6005 119.5 18.4947 119.5 19.5978C119.5 20.7009 120.394 21.5951 121.497 21.5951Z" fill="#3AF98C"/>
<path d="M128.155 21.5951C129.258 21.5951 130.152 20.7009 130.152 19.5978C130.152 18.4947 129.258 17.6005 128.155 17.6005C127.052 17.6005 126.158 18.4947 126.158 19.5978C126.158 20.7009 127.052 21.5951 128.155 21.5951Z" fill="#3AF98C"/>
<path d="M134.813 21.5951C135.916 21.5951 136.81 20.7009 136.81 19.5978C136.81 18.4947 135.916 17.6005 134.813 17.6005C133.71 17.6005 132.815 18.4947 132.815 19.5978C132.815 20.7009 133.71 21.5951 134.813 21.5951Z" fill="#3AF98C"/>
<path d="M141.47 21.5951C142.574 21.5951 143.468 20.7009 143.468 19.5978C143.468 18.4947 142.574 17.6005 141.47 17.6005C140.367 17.6005 139.473 18.4947 139.473 19.5978C139.473 20.7009 140.367 21.5951 141.47 21.5951Z" fill="#3AF98C"/>
<path d="M148.128 21.5951C149.231 21.5951 150.126 20.7009 150.126 19.5978C150.126 18.4947 149.231 17.6005 148.128 17.6005C147.025 17.6005 146.131 18.4947 146.131 19.5978C146.131 20.7009 147.025 21.5951 148.128 21.5951Z" fill="#3AF98C"/>
<path d="M154.786 21.5951C155.889 21.5951 156.783 20.7009 156.783 19.5978C156.783 18.4947 155.889 17.6005 154.786 17.6005C153.683 17.6005 152.789 18.4947 152.789 19.5978C152.789 20.7009 153.683 21.5951 154.786 21.5951Z" fill="#3AF98C"/>
<path d="M161.444 21.5951C162.547 21.5951 163.441 20.7009 163.441 19.5978C163.441 18.4947 162.547 17.6005 161.444 17.6005C160.341 17.6005 159.446 18.4947 159.446 19.5978C159.446 20.7009 160.341 21.5951 161.444 21.5951Z" fill="#3AF98C"/>
<path d="M168.102 21.5951C169.205 21.5951 170.099 20.7009 170.099 19.5978C170.099 18.4947 169.205 17.6005 168.102 17.6005C166.998 17.6005 166.104 18.4947 166.104 19.5978C166.104 20.7009 166.998 21.5951 168.102 21.5951Z" fill="#3AF98C"/>
<path d="M174.759 21.5951C175.862 21.5951 176.757 20.7009 176.757 19.5978C176.757 18.4947 175.862 17.6005 174.759 17.6005C173.656 17.6005 172.762 18.4947 172.762 19.5978C172.762 20.7009 173.656 21.5951 174.759 21.5951Z" fill="#3AF98C"/>
<path d="M181.417 21.5951C182.52 21.5951 183.414 20.7009 183.414 19.5978C183.414 18.4947 182.52 17.6005 181.417 17.6005C180.314 17.6005 179.42 18.4947 179.42 19.5978C179.42 20.7009 180.314 21.5951 181.417 21.5951Z" fill="#3AF98C"/>
<path d="M74.893 27.3652C75.9961 27.3652 76.8903 26.4709 76.8903 25.3679C76.8903 24.2648 75.9961 23.3705 74.893 23.3705C73.7899 23.3705 72.8957 24.2648 72.8957 25.3679C72.8957 26.4709 73.7899 27.3652 74.893 27.3652Z" fill="#3AF98C"/>
<path d="M81.5507 27.3652C82.6538 27.3652 83.5481 26.4709 83.5481 25.3679C83.5481 24.2648 82.6538 23.3705 81.5507 23.3705C80.4476 23.3705 79.5534 24.2648 79.5534 25.3679C79.5534 26.4709 80.4476 27.3652 81.5507 27.3652Z" fill="#3AF98C"/>
<path d="M88.2085 27.3652C89.3116 27.3652 90.2058 26.4709 90.2058 25.3679C90.2058 24.2648 89.3116 23.3705 88.2085 23.3705C87.1054 23.3705 86.2112 24.2648 86.2112 25.3679C86.2112 26.4709 87.1054 27.3652 88.2085 27.3652Z" fill="#3AF98C"/>
<path d="M94.8662 27.3652C95.9693 27.3652 96.8636 26.4709 96.8636 25.3679C96.8636 24.2648 95.9693 23.3705 94.8662 23.3705C93.7631 23.3705 92.8689 24.2648 92.8689 25.3679C92.8689 26.4709 93.7631 27.3652 94.8662 27.3652Z" fill="#3AF98C"/>
<path d="M101.524 27.3652C102.627 27.3652 103.521 26.4709 103.521 25.3679C103.521 24.2648 102.627 23.3705 101.524 23.3705C100.421 23.3705 99.5267 24.2648 99.5267 25.3679C99.5267 26.4709 100.421 27.3652 101.524 27.3652Z" fill="#3AF98C"/>
<path d="M108.182 27.3652C109.285 27.3652 110.179 26.4709 110.179 25.3679C110.179 24.2648 109.285 23.3705 108.182 23.3705C107.079 23.3705 106.184 24.2648 106.184 25.3679C106.184 26.4709 107.079 27.3652 108.182 27.3652Z" fill="#3AF98C"/>
<path d="M114.839 27.3652C115.943 27.3652 116.837 26.4709 116.837 25.3679C116.837 24.2648 115.943 23.3705 114.839 23.3705C113.736 23.3705 112.842 24.2648 112.842 25.3679C112.842 26.4709 113.736 27.3652 114.839 27.3652Z" fill="#3AF98C"/>
<path d="M121.497 27.3652C122.6 27.3652 123.495 26.4709 123.495 25.3679C123.495 24.2648 122.6 23.3705 121.497 23.3705C120.394 23.3705 119.5 24.2648 119.5 25.3679C119.5 26.4709 120.394 27.3652 121.497 27.3652Z" fill="#3AF98C"/>
<path d="M128.155 27.3652C129.258 27.3652 130.152 26.4709 130.152 25.3679C130.152 24.2648 129.258 23.3705 128.155 23.3705C127.052 23.3705 126.158 24.2648 126.158 25.3679C126.158 26.4709 127.052 27.3652 128.155 27.3652Z" fill="#3AF98C"/>
<path d="M134.813 27.3652C135.916 27.3652 136.81 26.4709 136.81 25.3679C136.81 24.2648 135.916 23.3705 134.813 23.3705C133.71 23.3705 132.815 24.2648 132.815 25.3679C132.815 26.4709 133.71 27.3652 134.813 27.3652Z" fill="#3AF98C"/>
<path d="M141.47 27.3652C142.574 27.3652 143.468 26.4709 143.468 25.3679C143.468 24.2648 142.574 23.3705 141.47 23.3705C140.367 23.3705 139.473 24.2648 139.473 25.3679C139.473 26.4709 140.367 27.3652 141.47 27.3652Z" fill="#3AF98C"/>
<path d="M148.128 27.3652C149.231 27.3652 150.126 26.4709 150.126 25.3679C150.126 24.2648 149.231 23.3705 148.128 23.3705C147.025 23.3705 146.131 24.2648 146.131 25.3679C146.131 26.4709 147.025 27.3652 148.128 27.3652Z" fill="#3AF98C"/>
<path d="M154.786 27.3652C155.889 27.3652 156.783 26.4709 156.783 25.3679C156.783 24.2648 155.889 23.3705 154.786 23.3705C153.683 23.3705 152.789 24.2648 152.789 25.3679C152.789 26.4709 153.683 27.3652 154.786 27.3652Z" fill="#3AF98C"/>
<path d="M161.444 27.3652C162.547 27.3652 163.441 26.4709 163.441 25.3679C163.441 24.2648 162.547 23.3705 161.444 23.3705C160.341 23.3705 159.446 24.2648 159.446 25.3679C159.446 26.4709 160.341 27.3652 161.444 27.3652Z" fill="#3AF98C"/>
<path d="M168.102 27.3652C169.205 27.3652 170.099 26.4709 170.099 25.3679C170.099 24.2648 169.205 23.3705 168.102 23.3705C166.998 23.3705 166.104 24.2648 166.104 25.3679C166.104 26.4709 166.998 27.3652 168.102 27.3652Z" fill="#3AF98C"/>
<path d="M174.759 27.3652C175.862 27.3652 176.757 26.4709 176.757 25.3679C176.757 24.2648 175.862 23.3705 174.759 23.3705C173.656 23.3705 172.762 24.2648 172.762 25.3679C172.762 26.4709 173.656 27.3652 174.759 27.3652Z" fill="#3AF98C"/>
<path d="M181.417 27.3652C182.52 27.3652 183.414 26.4709 183.414 25.3679C183.414 24.2648 182.52 23.3705 181.417 23.3705C180.314 23.3705 179.42 24.2648 179.42 25.3679C179.42 26.4709 180.314 27.3652 181.417 27.3652Z" fill="#3AF98C"/>
<path d="M74.893 33.1352C75.9961 33.1352 76.8903 32.241 76.8903 31.1379C76.8903 30.0348 75.9961 29.1406 74.893 29.1406C73.7899 29.1406 72.8957 30.0348 72.8957 31.1379C72.8957 32.241 73.7899 33.1352 74.893 33.1352Z" fill="#3AF98C"/>
<path d="M81.5507 33.1352C82.6538 33.1352 83.5481 32.241 83.5481 31.1379C83.5481 30.0348 82.6538 29.1406 81.5507 29.1406C80.4476 29.1406 79.5534 30.0348 79.5534 31.1379C79.5534 32.241 80.4476 33.1352 81.5507 33.1352Z" fill="#3AF98C"/>
<path d="M88.2085 33.1352C89.3116 33.1352 90.2058 32.241 90.2058 31.1379C90.2058 30.0348 89.3116 29.1406 88.2085 29.1406C87.1054 29.1406 86.2112 30.0348 86.2112 31.1379C86.2112 32.241 87.1054 33.1352 88.2085 33.1352Z" fill="#3AF98C"/>
<path d="M94.8662 33.1352C95.9693 33.1352 96.8636 32.241 96.8636 31.1379C96.8636 30.0348 95.9693 29.1406 94.8662 29.1406C93.7631 29.1406 92.8689 30.0348 92.8689 31.1379C92.8689 32.241 93.7631 33.1352 94.8662 33.1352Z" fill="#3AF98C"/>
<path d="M101.524 33.1352C102.627 33.1352 103.521 32.241 103.521 31.1379C103.521 30.0348 102.627 29.1406 101.524 29.1406C100.421 29.1406 99.5267 30.0348 99.5267 31.1379C99.5267 32.241 100.421 33.1352 101.524 33.1352Z" fill="#3AF98C"/>
<path d="M108.182 33.1352C109.285 33.1352 110.179 32.241 110.179 31.1379C110.179 30.0348 109.285 29.1406 108.182 29.1406C107.079 29.1406 106.184 30.0348 106.184 31.1379C106.184 32.241 107.079 33.1352 108.182 33.1352Z" fill="#3AF98C"/>
<path d="M114.839 33.1352C115.943 33.1352 116.837 32.241 116.837 31.1379C116.837 30.0348 115.943 29.1406 114.839 29.1406C113.736 29.1406 112.842 30.0348 112.842 31.1379C112.842 32.241 113.736 33.1352 114.839 33.1352Z" fill="#3AF98C"/>
<path d="M121.497 33.1352C122.6 33.1352 123.495 32.241 123.495 31.1379C123.495 30.0348 122.6 29.1406 121.497 29.1406C120.394 29.1406 119.5 30.0348 119.5 31.1379C119.5 32.241 120.394 33.1352 121.497 33.1352Z" fill="#3AF98C"/>
<path d="M128.155 33.1352C129.258 33.1352 130.152 32.241 130.152 31.1379C130.152 30.0348 129.258 29.1406 128.155 29.1406C127.052 29.1406 126.158 30.0348 126.158 31.1379C126.158 32.241 127.052 33.1352 128.155 33.1352Z" fill="#3AF98C"/>
<path d="M134.813 33.1352C135.916 33.1352 136.81 32.241 136.81 31.1379C136.81 30.0348 135.916 29.1406 134.813 29.1406C133.71 29.1406 132.815 30.0348 132.815 31.1379C132.815 32.241 133.71 33.1352 134.813 33.1352Z" fill="#3AF98C"/>
<path d="M141.47 33.1352C142.574 33.1352 143.468 32.241 143.468 31.1379C143.468 30.0348 142.574 29.1406 141.47 29.1406C140.367 29.1406 139.473 30.0348 139.473 31.1379C139.473 32.241 140.367 33.1352 141.47 33.1352Z" fill="#3AF98C"/>
<path d="M148.128 33.1352C149.231 33.1352 150.126 32.241 150.126 31.1379C150.126 30.0348 149.231 29.1406 148.128 29.1406C147.025 29.1406 146.131 30.0348 146.131 31.1379C146.131 32.241 147.025 33.1352 148.128 33.1352Z" fill="#3AF98C"/>
<path d="M154.786 33.1352C155.889 33.1352 156.783 32.241 156.783 31.1379C156.783 30.0348 155.889 29.1406 154.786 29.1406C153.683 29.1406 152.789 30.0348 152.789 31.1379C152.789 32.241 153.683 33.1352 154.786 33.1352Z" fill="#3AF98C"/>
<path d="M161.444 33.1352C162.547 33.1352 163.441 32.241 163.441 31.1379C163.441 30.0348 162.547 29.1406 161.444 29.1406C160.341 29.1406 159.446 30.0348 159.446 31.1379C159.446 32.241 160.341 33.1352 161.444 33.1352Z" fill="#3AF98C"/>
<path d="M168.102 33.1352C169.205 33.1352 170.099 32.241 170.099 31.1379C170.099 30.0348 169.205 29.1406 168.102 29.1406C166.998 29.1406 166.104 30.0348 166.104 31.1379C166.104 32.241 166.998 33.1352 168.102 33.1352Z" fill="#3AF98C"/>
<path d="M174.759 33.1352C175.862 33.1352 176.757 32.241 176.757 31.1379C176.757 30.0348 175.862 29.1406 174.759 29.1406C173.656 29.1406 172.762 30.0348 172.762 31.1379C172.762 32.241 173.656 33.1352 174.759 33.1352Z" fill="#3AF98C"/>
<path d="M181.417 33.1352C182.52 33.1352 183.414 32.241 183.414 31.1379C183.414 30.0348 182.52 29.1406 181.417 29.1406C180.314 29.1406 179.42 30.0348 179.42 31.1379C179.42 32.241 180.314 33.1352 181.417 33.1352Z" fill="#3AF98C"/>
<path d="M74.893 38.9053C75.9961 38.9053 76.8903 38.011 76.8903 36.908C76.8903 35.8049 75.9961 34.9106 74.893 34.9106C73.7899 34.9106 72.8957 35.8049 72.8957 36.908C72.8957 38.011 73.7899 38.9053 74.893 38.9053Z" fill="#3AF98C"/>
<path d="M81.5507 38.9053C82.6538 38.9053 83.5481 38.011 83.5481 36.908C83.5481 35.8049 82.6538 34.9106 81.5507 34.9106C80.4476 34.9106 79.5534 35.8049 79.5534 36.908C79.5534 38.011 80.4476 38.9053 81.5507 38.9053Z" fill="#3AF98C"/>
<path d="M88.2085 38.9053C89.3116 38.9053 90.2058 38.011 90.2058 36.908C90.2058 35.8049 89.3116 34.9106 88.2085 34.9106C87.1054 34.9106 86.2112 35.8049 86.2112 36.908C86.2112 38.011 87.1054 38.9053 88.2085 38.9053Z" fill="#3AF98C"/>
<path d="M94.8662 38.9053C95.9693 38.9053 96.8636 38.011 96.8636 36.908C96.8636 35.8049 95.9693 34.9106 94.8662 34.9106C93.7631 34.9106 92.8689 35.8049 92.8689 36.908C92.8689 38.011 93.7631 38.9053 94.8662 38.9053Z" fill="#3AF98C"/>
<path d="M101.524 38.9053C102.627 38.9053 103.521 38.011 103.521 36.908C103.521 35.8049 102.627 34.9106 101.524 34.9106C100.421 34.9106 99.5267 35.8049 99.5267 36.908C99.5267 38.011 100.421 38.9053 101.524 38.9053Z" fill="#3AF98C"/>
<path d="M108.182 38.9053C109.285 38.9053 110.179 38.011 110.179 36.908C110.179 35.8049 109.285 34.9106 108.182 34.9106C107.079 34.9106 106.184 35.8049 106.184 36.908C106.184 38.011 107.079 38.9053 108.182 38.9053Z" fill="#3AF98C"/>
<path d="M114.839 38.9053C115.943 38.9053 116.837 38.011 116.837 36.908C116.837 35.8049 115.943 34.9106 114.839 34.9106C113.736 34.9106 112.842 35.8049 112.842 36.908C112.842 38.011 113.736 38.9053 114.839 38.9053Z" fill="#3AF98C"/>
<path d="M121.497 38.9053C122.6 38.9053 123.495 38.011 123.495 36.908C123.495 35.8049 122.6 34.9106 121.497 34.9106C120.394 34.9106 119.5 35.8049 119.5 36.908C119.5 38.011 120.394 38.9053 121.497 38.9053Z" fill="#3AF98C"/>
<path d="M128.155 38.9053C129.258 38.9053 130.152 38.011 130.152 36.908C130.152 35.8049 129.258 34.9106 128.155 34.9106C127.052 34.9106 126.158 35.8049 126.158 36.908C126.158 38.011 127.052 38.9053 128.155 38.9053Z" fill="#3AF98C"/>
<path d="M134.813 38.9053C135.916 38.9053 136.81 38.011 136.81 36.908C136.81 35.8049 135.916 34.9106 134.813 34.9106C133.71 34.9106 132.815 35.8049 132.815 36.908C132.815 38.011 133.71 38.9053 134.813 38.9053Z" fill="#3AF98C"/>
<path d="M141.47 38.9053C142.574 38.9053 143.468 38.011 143.468 36.908C143.468 35.8049 142.574 34.9106 141.47 34.9106C140.367 34.9106 139.473 35.8049 139.473 36.908C139.473 38.011 140.367 38.9053 141.47 38.9053Z" fill="#3AF98C"/>
<path d="M148.128 38.9053C149.231 38.9053 150.126 38.011 150.126 36.908C150.126 35.8049 149.231 34.9106 148.128 34.9106C147.025 34.9106 146.131 35.8049 146.131 36.908C146.131 38.011 147.025 38.9053 148.128 38.9053Z" fill="#3AF98C"/>
<path d="M154.786 38.9053C155.889 38.9053 156.783 38.011 156.783 36.908C156.783 35.8049 155.889 34.9106 154.786 34.9106C153.683 34.9106 152.789 35.8049 152.789 36.908C152.789 38.011 153.683 38.9053 154.786 38.9053Z" fill="#3AF98C"/>
<path d="M161.444 38.9053C162.547 38.9053 163.441 38.011 163.441 36.908C163.441 35.8049 162.547 34.9106 161.444 34.9106C160.341 34.9106 159.446 35.8049 159.446 36.908C159.446 38.011 160.341 38.9053 161.444 38.9053Z" fill="#3AF98C"/>
<path d="M168.102 38.9053C169.205 38.9053 170.099 38.011 170.099 36.908C170.099 35.8049 169.205 34.9106 168.102 34.9106C166.998 34.9106 166.104 35.8049 166.104 36.908C166.104 38.011 166.998 38.9053 168.102 38.9053Z" fill="#3AF98C"/>
<path d="M174.759 38.9053C175.862 38.9053 176.757 38.011 176.757 36.908C176.757 35.8049 175.862 34.9106 174.759 34.9106C173.656 34.9106 172.762 35.8049 172.762 36.908C172.762 38.011 173.656 38.9053 174.759 38.9053Z" fill="#3AF98C"/>
<path d="M181.417 38.9053C182.52 38.9053 183.414 38.011 183.414 36.908C183.414 35.8049 182.52 34.9106 181.417 34.9106C180.314 34.9106 179.42 35.8049 179.42 36.908C179.42 38.011 180.314 38.9053 181.417 38.9053Z" fill="#3AF98C"/>
<path d="M74.893 44.6753C75.9961 44.6753 76.8903 43.7811 76.8903 42.678C76.8903 41.5749 75.9961 40.6807 74.893 40.6807C73.7899 40.6807 72.8957 41.5749 72.8957 42.678C72.8957 43.7811 73.7899 44.6753 74.893 44.6753Z" fill="#3AF98C"/>
<path d="M81.5507 44.6753C82.6538 44.6753 83.5481 43.7811 83.5481 42.678C83.5481 41.5749 82.6538 40.6807 81.5507 40.6807C80.4476 40.6807 79.5534 41.5749 79.5534 42.678C79.5534 43.7811 80.4476 44.6753 81.5507 44.6753Z" fill="#3AF98C"/>
<path d="M88.2085 44.6753C89.3116 44.6753 90.2058 43.7811 90.2058 42.678C90.2058 41.5749 89.3116 40.6807 88.2085 40.6807C87.1054 40.6807 86.2112 41.5749 86.2112 42.678C86.2112 43.7811 87.1054 44.6753 88.2085 44.6753Z" fill="#3AF98C"/>
<path d="M94.8662 44.6753C95.9693 44.6753 96.8636 43.7811 96.8636 42.678C96.8636 41.5749 95.9693 40.6807 94.8662 40.6807C93.7631 40.6807 92.8689 41.5749 92.8689 42.678C92.8689 43.7811 93.7631 44.6753 94.8662 44.6753Z" fill="#3AF98C"/>
<path d="M101.524 44.6753C102.627 44.6753 103.521 43.7811 103.521 42.678C103.521 41.5749 102.627 40.6807 101.524 40.6807C100.421 40.6807 99.5267 41.5749 99.5267 42.678C99.5267 43.7811 100.421 44.6753 101.524 44.6753Z" fill="#3AF98C"/>
<path d="M108.182 44.6753C109.285 44.6753 110.179 43.7811 110.179 42.678C110.179 41.5749 109.285 40.6807 108.182 40.6807C107.079 40.6807 106.184 41.5749 106.184 42.678C106.184 43.7811 107.079 44.6753 108.182 44.6753Z" fill="#3AF98C"/>
<path d="M114.839 44.6753C115.943 44.6753 116.837 43.7811 116.837 42.678C116.837 41.5749 115.943 40.6807 114.839 40.6807C113.736 40.6807 112.842 41.5749 112.842 42.678C112.842 43.7811 113.736 44.6753 114.839 44.6753Z" fill="#3AF98C"/>
<path d="M121.497 44.6753C122.6 44.6753 123.495 43.7811 123.495 42.678C123.495 41.5749 122.6 40.6807 121.497 40.6807C120.394 40.6807 119.5 41.5749 119.5 42.678C119.5 43.7811 120.394 44.6753 121.497 44.6753Z" fill="#3AF98C"/>
<path d="M128.155 44.6753C129.258 44.6753 130.152 43.7811 130.152 42.678C130.152 41.5749 129.258 40.6807 128.155 40.6807C127.052 40.6807 126.158 41.5749 126.158 42.678C126.158 43.7811 127.052 44.6753 128.155 44.6753Z" fill="#3AF98C"/>
<path d="M134.813 44.6753C135.916 44.6753 136.81 43.7811 136.81 42.678C136.81 41.5749 135.916 40.6807 134.813 40.6807C133.71 40.6807 132.815 41.5749 132.815 42.678C132.815 43.7811 133.71 44.6753 134.813 44.6753Z" fill="#3AF98C"/>
<path d="M141.47 44.6753C142.574 44.6753 143.468 43.7811 143.468 42.678C143.468 41.5749 142.574 40.6807 141.47 40.6807C140.367 40.6807 139.473 41.5749 139.473 42.678C139.473 43.7811 140.367 44.6753 141.47 44.6753Z" fill="#3AF98C"/>
<path d="M148.128 44.6753C149.231 44.6753 150.126 43.7811 150.126 42.678C150.126 41.5749 149.231 40.6807 148.128 40.6807C147.025 40.6807 146.131 41.5749 146.131 42.678C146.131 43.7811 147.025 44.6753 148.128 44.6753Z" fill="#3AF98C"/>
<path d="M154.786 44.6753C155.889 44.6753 156.783 43.7811 156.783 42.678C156.783 41.5749 155.889 40.6807 154.786 40.6807C153.683 40.6807 152.789 41.5749 152.789 42.678C152.789 43.7811 153.683 44.6753 154.786 44.6753Z" fill="#3AF98C"/>
<path d="M161.444 44.6753C162.547 44.6753 163.441 43.7811 163.441 42.678C163.441 41.5749 162.547 40.6807 161.444 40.6807C160.341 40.6807 159.446 41.5749 159.446 42.678C159.446 43.7811 160.341 44.6753 161.444 44.6753Z" fill="#3AF98C"/>
<path d="M168.102 44.6753C169.205 44.6753 170.099 43.7811 170.099 42.678C170.099 41.5749 169.205 40.6807 168.102 40.6807C166.998 40.6807 166.104 41.5749 166.104 42.678C166.104 43.7811 166.998 44.6753 168.102 44.6753Z" fill="#3AF98C"/>
<path d="M174.759 44.6753C175.862 44.6753 176.757 43.7811 176.757 42.678C176.757 41.5749 175.862 40.6807 174.759 40.6807C173.656 40.6807 172.762 41.5749 172.762 42.678C172.762 43.7811 173.656 44.6753 174.759 44.6753Z" fill="#3AF98C"/>
<path d="M181.417 44.6753C182.52 44.6753 183.414 43.7811 183.414 42.678C183.414 41.5749 182.52 40.6807 181.417 40.6807C180.314 40.6807 179.42 41.5749 179.42 42.678C179.42 43.7811 180.314 44.6753 181.417 44.6753Z" fill="#3AF98C"/>
<path d="M74.893 50.4454C75.9961 50.4454 76.8903 49.5511 76.8903 48.4481C76.8903 47.345 75.9961 46.4507 74.893 46.4507C73.7899 46.4507 72.8957 47.345 72.8957 48.4481C72.8957 49.5511 73.7899 50.4454 74.893 50.4454Z" fill="#3AF98C"/>
<path d="M81.5507 50.4454C82.6538 50.4454 83.5481 49.5511 83.5481 48.4481C83.5481 47.345 82.6538 46.4507 81.5507 46.4507C80.4476 46.4507 79.5534 47.345 79.5534 48.4481C79.5534 49.5511 80.4476 50.4454 81.5507 50.4454Z" fill="#3AF98C"/>
<path d="M88.2085 50.4454C89.3116 50.4454 90.2058 49.5511 90.2058 48.4481C90.2058 47.345 89.3116 46.4507 88.2085 46.4507C87.1054 46.4507 86.2112 47.345 86.2112 48.4481C86.2112 49.5511 87.1054 50.4454 88.2085 50.4454Z" fill="#3AF98C"/>
<path d="M94.8662 50.4454C95.9693 50.4454 96.8636 49.5511 96.8636 48.4481C96.8636 47.345 95.9693 46.4507 94.8662 46.4507C93.7631 46.4507 92.8689 47.345 92.8689 48.4481C92.8689 49.5511 93.7631 50.4454 94.8662 50.4454Z" fill="#3AF98C"/>
<path d="M101.524 50.4454C102.627 50.4454 103.521 49.5511 103.521 48.4481C103.521 47.345 102.627 46.4507 101.524 46.4507C100.421 46.4507 99.5267 47.345 99.5267 48.4481C99.5267 49.5511 100.421 50.4454 101.524 50.4454Z" fill="#3AF98C"/>
<path d="M108.182 50.4454C109.285 50.4454 110.179 49.5511 110.179 48.4481C110.179 47.345 109.285 46.4507 108.182 46.4507C107.079 46.4507 106.184 47.345 106.184 48.4481C106.184 49.5511 107.079 50.4454 108.182 50.4454Z" fill="#3AF98C"/>
<path d="M114.839 50.4454C115.943 50.4454 116.837 49.5511 116.837 48.4481C116.837 47.345 115.943 46.4507 114.839 46.4507C113.736 46.4507 112.842 47.345 112.842 48.4481C112.842 49.5511 113.736 50.4454 114.839 50.4454Z" fill="#3AF98C"/>
<path d="M121.497 50.4454C122.6 50.4454 123.495 49.5511 123.495 48.4481C123.495 47.345 122.6 46.4507 121.497 46.4507C120.394 46.4507 119.5 47.345 119.5 48.4481C119.5 49.5511 120.394 50.4454 121.497 50.4454Z" fill="#3AF98C"/>
<path d="M128.155 50.4454C129.258 50.4454 130.152 49.5511 130.152 48.4481C130.152 47.345 129.258 46.4507 128.155 46.4507C127.052 46.4507 126.158 47.345 126.158 48.4481C126.158 49.5511 127.052 50.4454 128.155 50.4454Z" fill="#3AF98C"/>
<path d="M134.813 50.4454C135.916 50.4454 136.81 49.5511 136.81 48.4481C136.81 47.345 135.916 46.4507 134.813 46.4507C133.71 46.4507 132.815 47.345 132.815 48.4481C132.815 49.5511 133.71 50.4454 134.813 50.4454Z" fill="#3AF98C"/>
<path d="M141.47 50.4454C142.574 50.4454 143.468 49.5511 143.468 48.4481C143.468 47.345 142.574 46.4507 141.47 46.4507C140.367 46.4507 139.473 47.345 139.473 48.4481C139.473 49.5511 140.367 50.4454 141.47 50.4454Z" fill="#3AF98C"/>
<path d="M148.128 50.4454C149.231 50.4454 150.126 49.5511 150.126 48.4481C150.126 47.345 149.231 46.4507 148.128 46.4507C147.025 46.4507 146.131 47.345 146.131 48.4481C146.131 49.5511 147.025 50.4454 148.128 50.4454Z" fill="#3AF98C"/>
<path d="M154.786 50.4454C155.889 50.4454 156.783 49.5511 156.783 48.4481C156.783 47.345 155.889 46.4507 154.786 46.4507C153.683 46.4507 152.789 47.345 152.789 48.4481C152.789 49.5511 153.683 50.4454 154.786 50.4454Z" fill="#3AF98C"/>
<path d="M161.444 50.4454C162.547 50.4454 163.441 49.5511 163.441 48.4481C163.441 47.345 162.547 46.4507 161.444 46.4507C160.341 46.4507 159.446 47.345 159.446 48.4481C159.446 49.5511 160.341 50.4454 161.444 50.4454Z" fill="#3AF98C"/>
<path d="M168.102 50.4454C169.205 50.4454 170.099 49.5511 170.099 48.4481C170.099 47.345 169.205 46.4507 168.102 46.4507C166.998 46.4507 166.104 47.345 166.104 48.4481C166.104 49.5511 166.998 50.4454 168.102 50.4454Z" fill="#3AF98C"/>
<path d="M174.759 50.4454C175.862 50.4454 176.757 49.5511 176.757 48.4481C176.757 47.345 175.862 46.4507 174.759 46.4507C173.656 46.4507 172.762 47.345 172.762 48.4481C172.762 49.5511 173.656 50.4454 174.759 50.4454Z" fill="#3AF98C"/>
<path d="M181.417 50.4454C182.52 50.4454 183.414 49.5511 183.414 48.4481C183.414 47.345 182.52 46.4507 181.417 46.4507C180.314 46.4507 179.42 47.345 179.42 48.4481C179.42 49.5511 180.314 50.4454 181.417 50.4454Z" fill="#3AF98C"/>
<path d="M74.893 56.2154C75.9961 56.2154 76.8903 55.3212 76.8903 54.2181C76.8903 53.115 75.9961 52.2208 74.893 52.2208C73.7899 52.2208 72.8957 53.115 72.8957 54.2181C72.8957 55.3212 73.7899 56.2154 74.893 56.2154Z" fill="#3AF98C"/>
<path d="M81.5507 56.2154C82.6538 56.2154 83.5481 55.3212 83.5481 54.2181C83.5481 53.115 82.6538 52.2208 81.5507 52.2208C80.4476 52.2208 79.5534 53.115 79.5534 54.2181C79.5534 55.3212 80.4476 56.2154 81.5507 56.2154Z" fill="#3AF98C"/>
<path d="M88.2085 56.2154C89.3116 56.2154 90.2058 55.3212 90.2058 54.2181C90.2058 53.115 89.3116 52.2208 88.2085 52.2208C87.1054 52.2208 86.2112 53.115 86.2112 54.2181C86.2112 55.3212 87.1054 56.2154 88.2085 56.2154Z" fill="#3AF98C"/>
<path d="M94.8662 56.2154C95.9693 56.2154 96.8636 55.3212 96.8636 54.2181C96.8636 53.115 95.9693 52.2208 94.8662 52.2208C93.7631 52.2208 92.8689 53.115 92.8689 54.2181C92.8689 55.3212 93.7631 56.2154 94.8662 56.2154Z" fill="#3AF98C"/>
<path d="M101.524 56.2154C102.627 56.2154 103.521 55.3212 103.521 54.2181C103.521 53.115 102.627 52.2208 101.524 52.2208C100.421 52.2208 99.5267 53.115 99.5267 54.2181C99.5267 55.3212 100.421 56.2154 101.524 56.2154Z" fill="#3AF98C"/>
<path d="M108.182 56.2154C109.285 56.2154 110.179 55.3212 110.179 54.2181C110.179 53.115 109.285 52.2208 108.182 52.2208C107.079 52.2208 106.184 53.115 106.184 54.2181C106.184 55.3212 107.079 56.2154 108.182 56.2154Z" fill="#3AF98C"/>
<path d="M114.839 56.2154C115.943 56.2154 116.837 55.3212 116.837 54.2181C116.837 53.115 115.943 52.2208 114.839 52.2208C113.736 52.2208 112.842 53.115 112.842 54.2181C112.842 55.3212 113.736 56.2154 114.839 56.2154Z" fill="#3AF98C"/>
<path d="M121.497 56.2154C122.6 56.2154 123.495 55.3212 123.495 54.2181C123.495 53.115 122.6 52.2208 121.497 52.2208C120.394 52.2208 119.5 53.115 119.5 54.2181C119.5 55.3212 120.394 56.2154 121.497 56.2154Z" fill="#3AF98C"/>
<path d="M128.155 56.2154C129.258 56.2154 130.152 55.3212 130.152 54.2181C130.152 53.115 129.258 52.2208 128.155 52.2208C127.052 52.2208 126.158 53.115 126.158 54.2181C126.158 55.3212 127.052 56.2154 128.155 56.2154Z" fill="#3AF98C"/>
<path d="M134.813 56.2154C135.916 56.2154 136.81 55.3212 136.81 54.2181C136.81 53.115 135.916 52.2208 134.813 52.2208C133.71 52.2208 132.815 53.115 132.815 54.2181C132.815 55.3212 133.71 56.2154 134.813 56.2154Z" fill="#3AF98C"/>
<path d="M141.47 56.2154C142.574 56.2154 143.468 55.3212 143.468 54.2181C143.468 53.115 142.574 52.2208 141.47 52.2208C140.367 52.2208 139.473 53.115 139.473 54.2181C139.473 55.3212 140.367 56.2154 141.47 56.2154Z" fill="#3AF98C"/>
<path d="M148.128 56.2154C149.231 56.2154 150.126 55.3212 150.126 54.2181C150.126 53.115 149.231 52.2208 148.128 52.2208C147.025 52.2208 146.131 53.115 146.131 54.2181C146.131 55.3212 147.025 56.2154 148.128 56.2154Z" fill="#3AF98C"/>
<path d="M154.786 56.2154C155.889 56.2154 156.783 55.3212 156.783 54.2181C156.783 53.115 155.889 52.2208 154.786 52.2208C153.683 52.2208 152.789 53.115 152.789 54.2181C152.789 55.3212 153.683 56.2154 154.786 56.2154Z" fill="#3AF98C"/>
<path d="M161.444 56.2154C162.547 56.2154 163.441 55.3212 163.441 54.2181C163.441 53.115 162.547 52.2208 161.444 52.2208C160.341 52.2208 159.446 53.115 159.446 54.2181C159.446 55.3212 160.341 56.2154 161.444 56.2154Z" fill="#3AF98C"/>
<path d="M168.102 56.2154C169.205 56.2154 170.099 55.3212 170.099 54.2181C170.099 53.115 169.205 52.2208 168.102 52.2208C166.998 52.2208 166.104 53.115 166.104 54.2181C166.104 55.3212 166.998 56.2154 168.102 56.2154Z" fill="#3AF98C"/>
<path d="M174.759 56.2154C175.862 56.2154 176.757 55.3212 176.757 54.2181C176.757 53.115 175.862 52.2208 174.759 52.2208C173.656 52.2208 172.762 53.115 172.762 54.2181C172.762 55.3212 173.656 56.2154 174.759 56.2154Z" fill="#3AF98C"/>
<path d="M181.417 56.2154C182.52 56.2154 183.414 55.3212 183.414 54.2181C183.414 53.115 182.52 52.2208 181.417 52.2208C180.314 52.2208 179.42 53.115 179.42 54.2181C179.42 55.3212 180.314 56.2154 181.417 56.2154Z" fill="#3AF98C"/>
<path d="M74.893 61.9855C75.9961 61.9855 76.8903 61.0912 76.8903 59.9882C76.8903 58.8851 75.9961 57.9908 74.893 57.9908C73.7899 57.9908 72.8957 58.8851 72.8957 59.9882C72.8957 61.0912 73.7899 61.9855 74.893 61.9855Z" fill="#3AF98C"/>
<path d="M81.5507 61.9855C82.6538 61.9855 83.5481 61.0912 83.5481 59.9882C83.5481 58.8851 82.6538 57.9908 81.5507 57.9908C80.4476 57.9908 79.5534 58.8851 79.5534 59.9882C79.5534 61.0912 80.4476 61.9855 81.5507 61.9855Z" fill="#3AF98C"/>
<path d="M88.2085 61.9855C89.3116 61.9855 90.2058 61.0912 90.2058 59.9882C90.2058 58.8851 89.3116 57.9908 88.2085 57.9908C87.1054 57.9908 86.2112 58.8851 86.2112 59.9882C86.2112 61.0912 87.1054 61.9855 88.2085 61.9855Z" fill="#3AF98C"/>
<path d="M94.8662 61.9855C95.9693 61.9855 96.8636 61.0912 96.8636 59.9882C96.8636 58.8851 95.9693 57.9908 94.8662 57.9908C93.7631 57.9908 92.8689 58.8851 92.8689 59.9882C92.8689 61.0912 93.7631 61.9855 94.8662 61.9855Z" fill="#3AF98C"/>
<path d="M101.524 61.9855C102.627 61.9855 103.521 61.0912 103.521 59.9882C103.521 58.8851 102.627 57.9908 101.524 57.9908C100.421 57.9908 99.5267 58.8851 99.5267 59.9882C99.5267 61.0912 100.421 61.9855 101.524 61.9855Z" fill="#3AF98C"/>
<path d="M108.182 61.9855C109.285 61.9855 110.179 61.0912 110.179 59.9882C110.179 58.8851 109.285 57.9908 108.182 57.9908C107.079 57.9908 106.184 58.8851 106.184 59.9882C106.184 61.0912 107.079 61.9855 108.182 61.9855Z" fill="#3AF98C"/>
<path d="M114.839 61.9855C115.943 61.9855 116.837 61.0912 116.837 59.9882C116.837 58.8851 115.943 57.9908 114.839 57.9908C113.736 57.9908 112.842 58.8851 112.842 59.9882C112.842 61.0912 113.736 61.9855 114.839 61.9855Z" fill="#3AF98C"/>
<path d="M121.497 61.9855C122.6 61.9855 123.495 61.0912 123.495 59.9882C123.495 58.8851 122.6 57.9908 121.497 57.9908C120.394 57.9908 119.5 58.8851 119.5 59.9882C119.5 61.0912 120.394 61.9855 121.497 61.9855Z" fill="#3AF98C"/>
<path d="M128.155 61.9855C129.258 61.9855 130.152 61.0912 130.152 59.9882C130.152 58.8851 129.258 57.9908 128.155 57.9908C127.052 57.9908 126.158 58.8851 126.158 59.9882C126.158 61.0912 127.052 61.9855 128.155 61.9855Z" fill="#3AF98C"/>
<path d="M134.813 61.9855C135.916 61.9855 136.81 61.0912 136.81 59.9882C136.81 58.8851 135.916 57.9908 134.813 57.9908C133.71 57.9908 132.815 58.8851 132.815 59.9882C132.815 61.0912 133.71 61.9855 134.813 61.9855Z" fill="#3AF98C"/>
<path d="M141.47 61.9855C142.574 61.9855 143.468 61.0912 143.468 59.9882C143.468 58.8851 142.574 57.9908 141.47 57.9908C140.367 57.9908 139.473 58.8851 139.473 59.9882C139.473 61.0912 140.367 61.9855 141.47 61.9855Z" fill="#3AF98C"/>
<path d="M148.128 61.9855C149.231 61.9855 150.126 61.0912 150.126 59.9882C150.126 58.8851 149.231 57.9908 148.128 57.9908C147.025 57.9908 146.131 58.8851 146.131 59.9882C146.131 61.0912 147.025 61.9855 148.128 61.9855Z" fill="#3AF98C"/>
<path d="M154.786 61.9855C155.889 61.9855 156.783 61.0912 156.783 59.9882C156.783 58.8851 155.889 57.9908 154.786 57.9908C153.683 57.9908 152.789 58.8851 152.789 59.9882C152.789 61.0912 153.683 61.9855 154.786 61.9855Z" fill="#3AF98C"/>
<path d="M161.444 61.9855C162.547 61.9855 163.441 61.0912 163.441 59.9882C163.441 58.8851 162.547 57.9908 161.444 57.9908C160.341 57.9908 159.446 58.8851 159.446 59.9882C159.446 61.0912 160.341 61.9855 161.444 61.9855Z" fill="#3AF98C"/>
<path d="M168.102 61.9855C169.205 61.9855 170.099 61.0912 170.099 59.9882C170.099 58.8851 169.205 57.9908 168.102 57.9908C166.998 57.9908 166.104 58.8851 166.104 59.9882C166.104 61.0912 166.998 61.9855 168.102 61.9855Z" fill="#3AF98C"/>
<path d="M174.759 61.9855C175.862 61.9855 176.757 61.0912 176.757 59.9882C176.757 58.8851 175.862 57.9908 174.759 57.9908C173.656 57.9908 172.762 58.8851 172.762 59.9882C172.762 61.0912 173.656 61.9855 174.759 61.9855Z" fill="#3AF98C"/>
<path d="M181.417 61.9855C182.52 61.9855 183.414 61.0912 183.414 59.9882C183.414 58.8851 182.52 57.9908 181.417 57.9908C180.314 57.9908 179.42 58.8851 179.42 59.9882C179.42 61.0912 180.314 61.9855 181.417 61.9855Z" fill="#3AF98C"/>
<path d="M74.893 67.7555C75.9961 67.7555 76.8903 66.8613 76.8903 65.7582C76.8903 64.6551 75.9961 63.7609 74.893 63.7609C73.7899 63.7609 72.8957 64.6551 72.8957 65.7582C72.8957 66.8613 73.7899 67.7555 74.893 67.7555Z" fill="#3AF98C"/>
<path d="M81.5507 67.7555C82.6538 67.7555 83.5481 66.8613 83.5481 65.7582C83.5481 64.6551 82.6538 63.7609 81.5507 63.7609C80.4476 63.7609 79.5534 64.6551 79.5534 65.7582C79.5534 66.8613 80.4476 67.7555 81.5507 67.7555Z" fill="#3AF98C"/>
<path d="M88.2085 67.7555C89.3116 67.7555 90.2058 66.8613 90.2058 65.7582C90.2058 64.6551 89.3116 63.7609 88.2085 63.7609C87.1054 63.7609 86.2112 64.6551 86.2112 65.7582C86.2112 66.8613 87.1054 67.7555 88.2085 67.7555Z" fill="#3AF98C"/>
<path d="M94.8662 67.7555C95.9693 67.7555 96.8636 66.8613 96.8636 65.7582C96.8636 64.6551 95.9693 63.7609 94.8662 63.7609C93.7631 63.7609 92.8689 64.6551 92.8689 65.7582C92.8689 66.8613 93.7631 67.7555 94.8662 67.7555Z" fill="#3AF98C"/>
<path d="M101.524 67.7555C102.627 67.7555 103.521 66.8613 103.521 65.7582C103.521 64.6551 102.627 63.7609 101.524 63.7609C100.421 63.7609 99.5267 64.6551 99.5267 65.7582C99.5267 66.8613 100.421 67.7555 101.524 67.7555Z" fill="#3AF98C"/>
<path d="M108.182 67.7555C109.285 67.7555 110.179 66.8613 110.179 65.7582C110.179 64.6551 109.285 63.7609 108.182 63.7609C107.079 63.7609 106.184 64.6551 106.184 65.7582C106.184 66.8613 107.079 67.7555 108.182 67.7555Z" fill="#3AF98C"/>
<path d="M114.839 67.7555C115.943 67.7555 116.837 66.8613 116.837 65.7582C116.837 64.6551 115.943 63.7609 114.839 63.7609C113.736 63.7609 112.842 64.6551 112.842 65.7582C112.842 66.8613 113.736 67.7555 114.839 67.7555Z" fill="#3AF98C"/>
<path d="M121.497 67.7555C122.6 67.7555 123.495 66.8613 123.495 65.7582C123.495 64.6551 122.6 63.7609 121.497 63.7609C120.394 63.7609 119.5 64.6551 119.5 65.7582C119.5 66.8613 120.394 67.7555 121.497 67.7555Z" fill="#3AF98C"/>
<path d="M128.155 67.7555C129.258 67.7555 130.152 66.8613 130.152 65.7582C130.152 64.6551 129.258 63.7609 128.155 63.7609C127.052 63.7609 126.158 64.6551 126.158 65.7582C126.158 66.8613 127.052 67.7555 128.155 67.7555Z" fill="#3AF98C"/>
<path d="M134.813 67.7555C135.916 67.7555 136.81 66.8613 136.81 65.7582C136.81 64.6551 135.916 63.7609 134.813 63.7609C133.71 63.7609 132.815 64.6551 132.815 65.7582C132.815 66.8613 133.71 67.7555 134.813 67.7555Z" fill="#3AF98C"/>
<path d="M141.47 67.7555C142.574 67.7555 143.468 66.8613 143.468 65.7582C143.468 64.6551 142.574 63.7609 141.47 63.7609C140.367 63.7609 139.473 64.6551 139.473 65.7582C139.473 66.8613 140.367 67.7555 141.47 67.7555Z" fill="#3AF98C"/>
<path d="M148.128 67.7555C149.231 67.7555 150.126 66.8613 150.126 65.7582C150.126 64.6551 149.231 63.7609 148.128 63.7609C147.025 63.7609 146.131 64.6551 146.131 65.7582C146.131 66.8613 147.025 67.7555 148.128 67.7555Z" fill="#3AF98C"/>
<path d="M154.786 67.7555C155.889 67.7555 156.783 66.8613 156.783 65.7582C156.783 64.6551 155.889 63.7609 154.786 63.7609C153.683 63.7609 152.789 64.6551 152.789 65.7582C152.789 66.8613 153.683 67.7555 154.786 67.7555Z" fill="#3AF98C"/>
<path d="M161.444 67.7555C162.547 67.7555 163.441 66.8613 163.441 65.7582C163.441 64.6551 162.547 63.7609 161.444 63.7609C160.341 63.7609 159.446 64.6551 159.446 65.7582C159.446 66.8613 160.341 67.7555 161.444 67.7555Z" fill="#3AF98C"/>
<path d="M168.102 67.7555C169.205 67.7555 170.099 66.8613 170.099 65.7582C170.099 64.6551 169.205 63.7609 168.102 63.7609C166.998 63.7609 166.104 64.6551 166.104 65.7582C166.104 66.8613 166.998 67.7555 168.102 67.7555Z" fill="#3AF98C"/>
<path d="M174.759 67.7555C175.862 67.7555 176.757 66.8613 176.757 65.7582C176.757 64.6551 175.862 63.7609 174.759 63.7609C173.656 63.7609 172.762 64.6551 172.762 65.7582C172.762 66.8613 173.656 67.7555 174.759 67.7555Z" fill="#3AF98C"/>
<path d="M181.417 67.7555C182.52 67.7555 183.414 66.8613 183.414 65.7582C183.414 64.6551 182.52 63.7609 181.417 63.7609C180.314 63.7609 179.42 64.6551 179.42 65.7582C179.42 66.8613 180.314 67.7555 181.417 67.7555Z" fill="#3AF98C"/>
<path d="M74.893 73.5256C75.9961 73.5256 76.8903 72.6314 76.8903 71.5283C76.8903 70.4252 75.9961 69.5309 74.893 69.5309C73.7899 69.5309 72.8957 70.4252 72.8957 71.5283C72.8957 72.6314 73.7899 73.5256 74.893 73.5256Z" fill="#3AF98C"/>
<path d="M81.5507 73.5256C82.6538 73.5256 83.5481 72.6314 83.5481 71.5283C83.5481 70.4252 82.6538 69.5309 81.5507 69.5309C80.4476 69.5309 79.5534 70.4252 79.5534 71.5283C79.5534 72.6314 80.4476 73.5256 81.5507 73.5256Z" fill="#3AF98C"/>
<path d="M88.2085 73.5256C89.3116 73.5256 90.2058 72.6314 90.2058 71.5283C90.2058 70.4252 89.3116 69.5309 88.2085 69.5309C87.1054 69.5309 86.2112 70.4252 86.2112 71.5283C86.2112 72.6314 87.1054 73.5256 88.2085 73.5256Z" fill="#3AF98C"/>
<path d="M94.8662 73.5256C95.9693 73.5256 96.8636 72.6314 96.8636 71.5283C96.8636 70.4252 95.9693 69.5309 94.8662 69.5309C93.7631 69.5309 92.8689 70.4252 92.8689 71.5283C92.8689 72.6314 93.7631 73.5256 94.8662 73.5256Z" fill="#3AF98C"/>
<path d="M101.524 73.5256C102.627 73.5256 103.521 72.6314 103.521 71.5283C103.521 70.4252 102.627 69.5309 101.524 69.5309C100.421 69.5309 99.5267 70.4252 99.5267 71.5283C99.5267 72.6314 100.421 73.5256 101.524 73.5256Z" fill="#3AF98C"/>
<path d="M108.182 73.5256C109.285 73.5256 110.179 72.6314 110.179 71.5283C110.179 70.4252 109.285 69.5309 108.182 69.5309C107.079 69.5309 106.184 70.4252 106.184 71.5283C106.184 72.6314 107.079 73.5256 108.182 73.5256Z" fill="#3AF98C"/>
<path d="M114.839 73.5256C115.943 73.5256 116.837 72.6314 116.837 71.5283C116.837 70.4252 115.943 69.5309 114.839 69.5309C113.736 69.5309 112.842 70.4252 112.842 71.5283C112.842 72.6314 113.736 73.5256 114.839 73.5256Z" fill="#3AF98C"/>
<path d="M121.497 73.5256C122.6 73.5256 123.495 72.6314 123.495 71.5283C123.495 70.4252 122.6 69.5309 121.497 69.5309C120.394 69.5309 119.5 70.4252 119.5 71.5283C119.5 72.6314 120.394 73.5256 121.497 73.5256Z" fill="#3AF98C"/>
<path d="M128.155 73.5256C129.258 73.5256 130.152 72.6314 130.152 71.5283C130.152 70.4252 129.258 69.5309 128.155 69.5309C127.052 69.5309 126.158 70.4252 126.158 71.5283C126.158 72.6314 127.052 73.5256 128.155 73.5256Z" fill="#3AF98C"/>
<path d="M134.813 73.5256C135.916 73.5256 136.81 72.6314 136.81 71.5283C136.81 70.4252 135.916 69.5309 134.813 69.5309C133.71 69.5309 132.815 70.4252 132.815 71.5283C132.815 72.6314 133.71 73.5256 134.813 73.5256Z" fill="#3AF98C"/>
<path d="M141.47 73.5256C142.574 73.5256 143.468 72.6314 143.468 71.5283C143.468 70.4252 142.574 69.5309 141.47 69.5309C140.367 69.5309 139.473 70.4252 139.473 71.5283C139.473 72.6314 140.367 73.5256 141.47 73.5256Z" fill="#3AF98C"/>
<path d="M148.128 73.5256C149.231 73.5256 150.126 72.6314 150.126 71.5283C150.126 70.4252 149.231 69.5309 148.128 69.5309C147.025 69.5309 146.131 70.4252 146.131 71.5283C146.131 72.6314 147.025 73.5256 148.128 73.5256Z" fill="#3AF98C"/>
<path d="M154.786 73.5256C155.889 73.5256 156.783 72.6314 156.783 71.5283C156.783 70.4252 155.889 69.5309 154.786 69.5309C153.683 69.5309 152.789 70.4252 152.789 71.5283C152.789 72.6314 153.683 73.5256 154.786 73.5256Z" fill="#3AF98C"/>
<path d="M161.444 73.5256C162.547 73.5256 163.441 72.6314 163.441 71.5283C163.441 70.4252 162.547 69.5309 161.444 69.5309C160.341 69.5309 159.446 70.4252 159.446 71.5283C159.446 72.6314 160.341 73.5256 161.444 73.5256Z" fill="#3AF98C"/>
<path d="M168.102 73.5256C169.205 73.5256 170.099 72.6314 170.099 71.5283C170.099 70.4252 169.205 69.5309 168.102 69.5309C166.998 69.5309 166.104 70.4252 166.104 71.5283C166.104 72.6314 166.998 73.5256 168.102 73.5256Z" fill="#3AF98C"/>
<path d="M174.759 73.5256C175.862 73.5256 176.757 72.6314 176.757 71.5283C176.757 70.4252 175.862 69.5309 174.759 69.5309C173.656 69.5309 172.762 70.4252 172.762 71.5283C172.762 72.6314 173.656 73.5256 174.759 73.5256Z" fill="#3AF98C"/>
<path d="M181.417 73.5256C182.52 73.5256 183.414 72.6314 183.414 71.5283C183.414 70.4252 182.52 69.5309 181.417 69.5309C180.314 69.5309 179.42 70.4252 179.42 71.5283C179.42 72.6314 180.314 73.5256 181.417 73.5256Z" fill="#3AF98C"/>
<path d="M74.893 79.2956C75.9961 79.2956 76.8903 78.4014 76.8903 77.2983C76.8903 76.1952 75.9961 75.301 74.893 75.301C73.7899 75.301 72.8957 76.1952 72.8957 77.2983C72.8957 78.4014 73.7899 79.2956 74.893 79.2956Z" fill="#3AF98C"/>
<path d="M81.5507 79.2956C82.6538 79.2956 83.5481 78.4014 83.5481 77.2983C83.5481 76.1952 82.6538 75.301 81.5507 75.301C80.4476 75.301 79.5534 76.1952 79.5534 77.2983C79.5534 78.4014 80.4476 79.2956 81.5507 79.2956Z" fill="#3AF98C"/>
<path d="M88.2085 79.2956C89.3116 79.2956 90.2058 78.4014 90.2058 77.2983C90.2058 76.1952 89.3116 75.301 88.2085 75.301C87.1054 75.301 86.2112 76.1952 86.2112 77.2983C86.2112 78.4014 87.1054 79.2956 88.2085 79.2956Z" fill="#3AF98C"/>
<path d="M94.8662 79.2956C95.9693 79.2956 96.8636 78.4014 96.8636 77.2983C96.8636 76.1952 95.9693 75.301 94.8662 75.301C93.7631 75.301 92.8689 76.1952 92.8689 77.2983C92.8689 78.4014 93.7631 79.2956 94.8662 79.2956Z" fill="#3AF98C"/>
<path d="M101.524 79.2956C102.627 79.2956 103.521 78.4014 103.521 77.2983C103.521 76.1952 102.627 75.301 101.524 75.301C100.421 75.301 99.5267 76.1952 99.5267 77.2983C99.5267 78.4014 100.421 79.2956 101.524 79.2956Z" fill="#3AF98C"/>
<path d="M108.182 79.2956C109.285 79.2956 110.179 78.4014 110.179 77.2983C110.179 76.1952 109.285 75.301 108.182 75.301C107.079 75.301 106.184 76.1952 106.184 77.2983C106.184 78.4014 107.079 79.2956 108.182 79.2956Z" fill="#3AF98C"/>
<path d="M114.839 79.2956C115.943 79.2956 116.837 78.4014 116.837 77.2983C116.837 76.1952 115.943 75.301 114.839 75.301C113.736 75.301 112.842 76.1952 112.842 77.2983C112.842 78.4014 113.736 79.2956 114.839 79.2956Z" fill="#3AF98C"/>
<path d="M121.497 79.2956C122.6 79.2956 123.495 78.4014 123.495 77.2983C123.495 76.1952 122.6 75.301 121.497 75.301C120.394 75.301 119.5 76.1952 119.5 77.2983C119.5 78.4014 120.394 79.2956 121.497 79.2956Z" fill="#3AF98C"/>
<path d="M128.155 79.2956C129.258 79.2956 130.152 78.4014 130.152 77.2983C130.152 76.1952 129.258 75.301 128.155 75.301C127.052 75.301 126.158 76.1952 126.158 77.2983C126.158 78.4014 127.052 79.2956 128.155 79.2956Z" fill="#3AF98C"/>
<path d="M134.813 79.2956C135.916 79.2956 136.81 78.4014 136.81 77.2983C136.81 76.1952 135.916 75.301 134.813 75.301C133.71 75.301 132.815 76.1952 132.815 77.2983C132.815 78.4014 133.71 79.2956 134.813 79.2956Z" fill="#3AF98C"/>
<path d="M141.47 79.2956C142.574 79.2956 143.468 78.4014 143.468 77.2983C143.468 76.1952 142.574 75.301 141.47 75.301C140.367 75.301 139.473 76.1952 139.473 77.2983C139.473 78.4014 140.367 79.2956 141.47 79.2956Z" fill="#3AF98C"/>
<path d="M148.128 79.2956C149.231 79.2956 150.126 78.4014 150.126 77.2983C150.126 76.1952 149.231 75.301 148.128 75.301C147.025 75.301 146.131 76.1952 146.131 77.2983C146.131 78.4014 147.025 79.2956 148.128 79.2956Z" fill="#3AF98C"/>
<path d="M154.786 79.2956C155.889 79.2956 156.783 78.4014 156.783 77.2983C156.783 76.1952 155.889 75.301 154.786 75.301C153.683 75.301 152.789 76.1952 152.789 77.2983C152.789 78.4014 153.683 79.2956 154.786 79.2956Z" fill="#3AF98C"/>
<path d="M161.444 79.2956C162.547 79.2956 163.441 78.4014 163.441 77.2983C163.441 76.1952 162.547 75.301 161.444 75.301C160.341 75.301 159.446 76.1952 159.446 77.2983C159.446 78.4014 160.341 79.2956 161.444 79.2956Z" fill="#3AF98C"/>
<path d="M168.102 79.2956C169.205 79.2956 170.099 78.4014 170.099 77.2983C170.099 76.1952 169.205 75.301 168.102 75.301C166.998 75.301 166.104 76.1952 166.104 77.2983C166.104 78.4014 166.998 79.2956 168.102 79.2956Z" fill="#3AF98C"/>
<path d="M174.759 79.2956C175.862 79.2956 176.757 78.4014 176.757 77.2983C176.757 76.1952 175.862 75.301 174.759 75.301C173.656 75.301 172.762 76.1952 172.762 77.2983C172.762 78.4014 173.656 79.2956 174.759 79.2956Z" fill="#3AF98C"/>
<path d="M181.417 79.2956C182.52 79.2956 183.414 78.4014 183.414 77.2983C183.414 76.1952 182.52 75.301 181.417 75.301C180.314 75.301 179.42 76.1952 179.42 77.2983C179.42 78.4014 180.314 79.2956 181.417 79.2956Z" fill="#3AF98C"/>
<path d="M74.893 85.0657C75.9961 85.0657 76.8903 84.1715 76.8903 83.0684C76.8903 81.9653 75.9961 81.071 74.893 81.071C73.7899 81.071 72.8957 81.9653 72.8957 83.0684C72.8957 84.1715 73.7899 85.0657 74.893 85.0657Z" fill="#3AF98C"/>
<path d="M81.5507 85.0657C82.6538 85.0657 83.5481 84.1715 83.5481 83.0684C83.5481 81.9653 82.6538 81.071 81.5507 81.071C80.4476 81.071 79.5534 81.9653 79.5534 83.0684C79.5534 84.1715 80.4476 85.0657 81.5507 85.0657Z" fill="#3AF98C"/>
<path d="M88.2085 85.0657C89.3116 85.0657 90.2058 84.1715 90.2058 83.0684C90.2058 81.9653 89.3116 81.071 88.2085 81.071C87.1054 81.071 86.2112 81.9653 86.2112 83.0684C86.2112 84.1715 87.1054 85.0657 88.2085 85.0657Z" fill="#3AF98C"/>
<path d="M94.8662 85.0657C95.9693 85.0657 96.8636 84.1715 96.8636 83.0684C96.8636 81.9653 95.9693 81.071 94.8662 81.071C93.7631 81.071 92.8689 81.9653 92.8689 83.0684C92.8689 84.1715 93.7631 85.0657 94.8662 85.0657Z" fill="#3AF98C"/>
<path d="M101.524 85.0657C102.627 85.0657 103.521 84.1715 103.521 83.0684C103.521 81.9653 102.627 81.071 101.524 81.071C100.421 81.071 99.5267 81.9653 99.5267 83.0684C99.5267 84.1715 100.421 85.0657 101.524 85.0657Z" fill="#3AF98C"/>
<path d="M108.182 85.0657C109.285 85.0657 110.179 84.1715 110.179 83.0684C110.179 81.9653 109.285 81.071 108.182 81.071C107.079 81.071 106.184 81.9653 106.184 83.0684C106.184 84.1715 107.079 85.0657 108.182 85.0657Z" fill="#3AF98C"/>
<path d="M114.839 85.0657C115.943 85.0657 116.837 84.1715 116.837 83.0684C116.837 81.9653 115.943 81.071 114.839 81.071C113.736 81.071 112.842 81.9653 112.842 83.0684C112.842 84.1715 113.736 85.0657 114.839 85.0657Z" fill="#3AF98C"/>
<path d="M121.497 85.0657C122.6 85.0657 123.495 84.1715 123.495 83.0684C123.495 81.9653 122.6 81.071 121.497 81.071C120.394 81.071 119.5 81.9653 119.5 83.0684C119.5 84.1715 120.394 85.0657 121.497 85.0657Z" fill="#3AF98C"/>
<path d="M128.155 85.0657C129.258 85.0657 130.152 84.1715 130.152 83.0684C130.152 81.9653 129.258 81.071 128.155 81.071C127.052 81.071 126.158 81.9653 126.158 83.0684C126.158 84.1715 127.052 85.0657 128.155 85.0657Z" fill="#3AF98C"/>
<path d="M134.813 85.0657C135.916 85.0657 136.81 84.1715 136.81 83.0684C136.81 81.9653 135.916 81.071 134.813 81.071C133.71 81.071 132.815 81.9653 132.815 83.0684C132.815 84.1715 133.71 85.0657 134.813 85.0657Z" fill="#3AF98C"/>
<path d="M141.47 85.0657C142.574 85.0657 143.468 84.1715 143.468 83.0684C143.468 81.9653 142.574 81.071 141.47 81.071C140.367 81.071 139.473 81.9653 139.473 83.0684C139.473 84.1715 140.367 85.0657 141.47 85.0657Z" fill="#3AF98C"/>
<path d="M148.128 85.0657C149.231 85.0657 150.126 84.1715 150.126 83.0684C150.126 81.9653 149.231 81.071 148.128 81.071C147.025 81.071 146.131 81.9653 146.131 83.0684C146.131 84.1715 147.025 85.0657 148.128 85.0657Z" fill="#3AF98C"/>
<path d="M154.786 85.0657C155.889 85.0657 156.783 84.1715 156.783 83.0684C156.783 81.9653 155.889 81.071 154.786 81.071C153.683 81.071 152.789 81.9653 152.789 83.0684C152.789 84.1715 153.683 85.0657 154.786 85.0657Z" fill="#3AF98C"/>
<path d="M161.444 85.0657C162.547 85.0657 163.441 84.1715 163.441 83.0684C163.441 81.9653 162.547 81.071 161.444 81.071C160.341 81.071 159.446 81.9653 159.446 83.0684C159.446 84.1715 160.341 85.0657 161.444 85.0657Z" fill="#3AF98C"/>
<path d="M168.102 85.0657C169.205 85.0657 170.099 84.1715 170.099 83.0684C170.099 81.9653 169.205 81.071 168.102 81.071C166.998 81.071 166.104 81.9653 166.104 83.0684C166.104 84.1715 166.998 85.0657 168.102 85.0657Z" fill="#3AF98C"/>
<path d="M174.759 85.0657C175.862 85.0657 176.757 84.1715 176.757 83.0684C176.757 81.9653 175.862 81.071 174.759 81.071C173.656 81.071 172.762 81.9653 172.762 83.0684C172.762 84.1715 173.656 85.0657 174.759 85.0657Z" fill="#3AF98C"/>
<path d="M181.417 85.0657C182.52 85.0657 183.414 84.1715 183.414 83.0684C183.414 81.9653 182.52 81.071 181.417 81.071C180.314 81.071 179.42 81.9653 179.42 83.0684C179.42 84.1715 180.314 85.0657 181.417 85.0657Z" fill="#3AF98C"/>
<path d="M74.893 90.8357C75.9961 90.8357 76.8903 89.9415 76.8903 88.8384C76.8903 87.7353 75.9961 86.8411 74.893 86.8411C73.7899 86.8411 72.8957 87.7353 72.8957 88.8384C72.8957 89.9415 73.7899 90.8357 74.893 90.8357Z" fill="#3AF98C"/>
<path d="M81.5507 90.8357C82.6538 90.8357 83.5481 89.9415 83.5481 88.8384C83.5481 87.7353 82.6538 86.8411 81.5507 86.8411C80.4476 86.8411 79.5534 87.7353 79.5534 88.8384C79.5534 89.9415 80.4476 90.8357 81.5507 90.8357Z" fill="#3AF98C"/>
<path d="M88.2085 90.8357C89.3116 90.8357 90.2058 89.9415 90.2058 88.8384C90.2058 87.7353 89.3116 86.8411 88.2085 86.8411C87.1054 86.8411 86.2112 87.7353 86.2112 88.8384C86.2112 89.9415 87.1054 90.8357 88.2085 90.8357Z" fill="#3AF98C"/>
<path d="M94.8662 90.8357C95.9693 90.8357 96.8636 89.9415 96.8636 88.8384C96.8636 87.7353 95.9693 86.8411 94.8662 86.8411C93.7631 86.8411 92.8689 87.7353 92.8689 88.8384C92.8689 89.9415 93.7631 90.8357 94.8662 90.8357Z" fill="#3AF98C"/>
<path d="M101.524 90.8357C102.627 90.8357 103.521 89.9415 103.521 88.8384C103.521 87.7353 102.627 86.8411 101.524 86.8411C100.421 86.8411 99.5267 87.7353 99.5267 88.8384C99.5267 89.9415 100.421 90.8357 101.524 90.8357Z" fill="#3AF98C"/>
<path d="M108.182 90.8357C109.285 90.8357 110.179 89.9415 110.179 88.8384C110.179 87.7353 109.285 86.8411 108.182 86.8411C107.079 86.8411 106.184 87.7353 106.184 88.8384C106.184 89.9415 107.079 90.8357 108.182 90.8357Z" fill="#3AF98C"/>
<path d="M114.839 90.8357C115.943 90.8357 116.837 89.9415 116.837 88.8384C116.837 87.7353 115.943 86.8411 114.839 86.8411C113.736 86.8411 112.842 87.7353 112.842 88.8384C112.842 89.9415 113.736 90.8357 114.839 90.8357Z" fill="#3AF98C"/>
<path d="M121.497 90.8357C122.6 90.8357 123.495 89.9415 123.495 88.8384C123.495 87.7353 122.6 86.8411 121.497 86.8411C120.394 86.8411 119.5 87.7353 119.5 88.8384C119.5 89.9415 120.394 90.8357 121.497 90.8357Z" fill="#3AF98C"/>
<path d="M128.155 90.8357C129.258 90.8357 130.152 89.9415 130.152 88.8384C130.152 87.7353 129.258 86.8411 128.155 86.8411C127.052 86.8411 126.158 87.7353 126.158 88.8384C126.158 89.9415 127.052 90.8357 128.155 90.8357Z" fill="#3AF98C"/>
<path d="M134.813 90.8357C135.916 90.8357 136.81 89.9415 136.81 88.8384C136.81 87.7353 135.916 86.8411 134.813 86.8411C133.71 86.8411 132.815 87.7353 132.815 88.8384C132.815 89.9415 133.71 90.8357 134.813 90.8357Z" fill="#3AF98C"/>
<path d="M141.47 90.8357C142.574 90.8357 143.468 89.9415 143.468 88.8384C143.468 87.7353 142.574 86.8411 141.47 86.8411C140.367 86.8411 139.473 87.7353 139.473 88.8384C139.473 89.9415 140.367 90.8357 141.47 90.8357Z" fill="#3AF98C"/>
<path d="M148.128 90.8357C149.231 90.8357 150.126 89.9415 150.126 88.8384C150.126 87.7353 149.231 86.8411 148.128 86.8411C147.025 86.8411 146.131 87.7353 146.131 88.8384C146.131 89.9415 147.025 90.8357 148.128 90.8357Z" fill="#3AF98C"/>
<path d="M154.786 90.8357C155.889 90.8357 156.783 89.9415 156.783 88.8384C156.783 87.7353 155.889 86.8411 154.786 86.8411C153.683 86.8411 152.789 87.7353 152.789 88.8384C152.789 89.9415 153.683 90.8357 154.786 90.8357Z" fill="#3AF98C"/>
<path d="M161.444 90.8357C162.547 90.8357 163.441 89.9415 163.441 88.8384C163.441 87.7353 162.547 86.8411 161.444 86.8411C160.341 86.8411 159.446 87.7353 159.446 88.8384C159.446 89.9415 160.341 90.8357 161.444 90.8357Z" fill="#3AF98C"/>
<path d="M168.102 90.8357C169.205 90.8357 170.099 89.9415 170.099 88.8384C170.099 87.7353 169.205 86.8411 168.102 86.8411C166.998 86.8411 166.104 87.7353 166.104 88.8384C166.104 89.9415 166.998 90.8357 168.102 90.8357Z" fill="#3AF98C"/>
<path d="M174.759 90.8357C175.862 90.8357 176.757 89.9415 176.757 88.8384C176.757 87.7353 175.862 86.8411 174.759 86.8411C173.656 86.8411 172.762 87.7353 172.762 88.8384C172.762 89.9415 173.656 90.8357 174.759 90.8357Z" fill="#3AF98C"/>
<path d="M181.417 90.8357C182.52 90.8357 183.414 89.9415 183.414 88.8384C183.414 87.7353 182.52 86.8411 181.417 86.8411C180.314 86.8411 179.42 87.7353 179.42 88.8384C179.42 89.9415 180.314 90.8357 181.417 90.8357Z" fill="#3AF98C"/>
<path d="M74.893 96.6058C75.9961 96.6058 76.8903 95.7116 76.8903 94.6085C76.8903 93.5054 75.9961 92.6111 74.893 92.6111C73.7899 92.6111 72.8957 93.5054 72.8957 94.6085C72.8957 95.7116 73.7899 96.6058 74.893 96.6058Z" fill="#3AF98C"/>
<path d="M81.5507 96.6058C82.6538 96.6058 83.5481 95.7116 83.5481 94.6085C83.5481 93.5054 82.6538 92.6111 81.5507 92.6111C80.4476 92.6111 79.5534 93.5054 79.5534 94.6085C79.5534 95.7116 80.4476 96.6058 81.5507 96.6058Z" fill="#3AF98C"/>
<path d="M88.2085 96.6058C89.3116 96.6058 90.2058 95.7116 90.2058 94.6085C90.2058 93.5054 89.3116 92.6111 88.2085 92.6111C87.1054 92.6111 86.2112 93.5054 86.2112 94.6085C86.2112 95.7116 87.1054 96.6058 88.2085 96.6058Z" fill="#3AF98C"/>
<path d="M94.8662 96.6058C95.9693 96.6058 96.8636 95.7116 96.8636 94.6085C96.8636 93.5054 95.9693 92.6111 94.8662 92.6111C93.7631 92.6111 92.8689 93.5054 92.8689 94.6085C92.8689 95.7116 93.7631 96.6058 94.8662 96.6058Z" fill="#3AF98C"/>
<path d="M101.524 96.6058C102.627 96.6058 103.521 95.7116 103.521 94.6085C103.521 93.5054 102.627 92.6111 101.524 92.6111C100.421 92.6111 99.5267 93.5054 99.5267 94.6085C99.5267 95.7116 100.421 96.6058 101.524 96.6058Z" fill="#3AF98C"/>
<path d="M108.182 96.6058C109.285 96.6058 110.179 95.7116 110.179 94.6085C110.179 93.5054 109.285 92.6111 108.182 92.6111C107.079 92.6111 106.184 93.5054 106.184 94.6085C106.184 95.7116 107.079 96.6058 108.182 96.6058Z" fill="#3AF98C"/>
<path d="M114.839 96.6058C115.943 96.6058 116.837 95.7116 116.837 94.6085C116.837 93.5054 115.943 92.6111 114.839 92.6111C113.736 92.6111 112.842 93.5054 112.842 94.6085C112.842 95.7116 113.736 96.6058 114.839 96.6058Z" fill="#3AF98C"/>
<path d="M121.497 96.6058C122.6 96.6058 123.495 95.7116 123.495 94.6085C123.495 93.5054 122.6 92.6111 121.497 92.6111C120.394 92.6111 119.5 93.5054 119.5 94.6085C119.5 95.7116 120.394 96.6058 121.497 96.6058Z" fill="#3AF98C"/>
<path d="M128.155 96.6058C129.258 96.6058 130.152 95.7116 130.152 94.6085C130.152 93.5054 129.258 92.6111 128.155 92.6111C127.052 92.6111 126.158 93.5054 126.158 94.6085C126.158 95.7116 127.052 96.6058 128.155 96.6058Z" fill="#3AF98C"/>
<path d="M134.813 96.6058C135.916 96.6058 136.81 95.7116 136.81 94.6085C136.81 93.5054 135.916 92.6111 134.813 92.6111C133.71 92.6111 132.815 93.5054 132.815 94.6085C132.815 95.7116 133.71 96.6058 134.813 96.6058Z" fill="#3AF98C"/>
<path d="M141.47 96.6058C142.574 96.6058 143.468 95.7116 143.468 94.6085C143.468 93.5054 142.574 92.6111 141.47 92.6111C140.367 92.6111 139.473 93.5054 139.473 94.6085C139.473 95.7116 140.367 96.6058 141.47 96.6058Z" fill="#3AF98C"/>
<path d="M148.128 96.6058C149.231 96.6058 150.126 95.7116 150.126 94.6085C150.126 93.5054 149.231 92.6111 148.128 92.6111C147.025 92.6111 146.131 93.5054 146.131 94.6085C146.131 95.7116 147.025 96.6058 148.128 96.6058Z" fill="#3AF98C"/>
<path d="M154.786 96.6058C155.889 96.6058 156.783 95.7116 156.783 94.6085C156.783 93.5054 155.889 92.6111 154.786 92.6111C153.683 92.6111 152.789 93.5054 152.789 94.6085C152.789 95.7116 153.683 96.6058 154.786 96.6058Z" fill="#3AF98C"/>
<path d="M161.444 96.6058C162.547 96.6058 163.441 95.7116 163.441 94.6085C163.441 93.5054 162.547 92.6111 161.444 92.6111C160.341 92.6111 159.446 93.5054 159.446 94.6085C159.446 95.7116 160.341 96.6058 161.444 96.6058Z" fill="#3AF98C"/>
<path d="M168.102 96.6058C169.205 96.6058 170.099 95.7116 170.099 94.6085C170.099 93.5054 169.205 92.6111 168.102 92.6111C166.998 92.6111 166.104 93.5054 166.104 94.6085C166.104 95.7116 166.998 96.6058 168.102 96.6058Z" fill="#3AF98C"/>
<path d="M174.759 96.6058C175.862 96.6058 176.757 95.7116 176.757 94.6085C176.757 93.5054 175.862 92.6111 174.759 92.6111C173.656 92.6111 172.762 93.5054 172.762 94.6085C172.762 95.7116 173.656 96.6058 174.759 96.6058Z" fill="#3AF98C"/>
<path d="M181.417 96.6058C182.52 96.6058 183.414 95.7116 183.414 94.6085C183.414 93.5054 182.52 92.6111 181.417 92.6111C180.314 92.6111 179.42 93.5054 179.42 94.6085C179.42 95.7116 180.314 96.6058 181.417 96.6058Z" fill="#3AF98C"/>
<path d="M74.893 102.376C75.9961 102.376 76.8903 101.482 76.8903 100.379C76.8903 99.2754 75.9961 98.3812 74.893 98.3812C73.7899 98.3812 72.8957 99.2754 72.8957 100.379C72.8957 101.482 73.7899 102.376 74.893 102.376Z" fill="#3AF98C"/>
<path d="M81.5507 102.376C82.6538 102.376 83.5481 101.482 83.5481 100.379C83.5481 99.2754 82.6538 98.3812 81.5507 98.3812C80.4476 98.3812 79.5534 99.2754 79.5534 100.379C79.5534 101.482 80.4476 102.376 81.5507 102.376Z" fill="#3AF98C"/>
<path d="M88.2085 102.376C89.3116 102.376 90.2058 101.482 90.2058 100.379C90.2058 99.2754 89.3116 98.3812 88.2085 98.3812C87.1054 98.3812 86.2112 99.2754 86.2112 100.379C86.2112 101.482 87.1054 102.376 88.2085 102.376Z" fill="#3AF98C"/>
<path d="M94.8662 102.376C95.9693 102.376 96.8636 101.482 96.8636 100.379C96.8636 99.2754 95.9693 98.3812 94.8662 98.3812C93.7631 98.3812 92.8689 99.2754 92.8689 100.379C92.8689 101.482 93.7631 102.376 94.8662 102.376Z" fill="#3AF98C"/>
<path d="M101.524 102.376C102.627 102.376 103.521 101.482 103.521 100.379C103.521 99.2754 102.627 98.3812 101.524 98.3812C100.421 98.3812 99.5267 99.2754 99.5267 100.379C99.5267 101.482 100.421 102.376 101.524 102.376Z" fill="#3AF98C"/>
<path d="M108.182 102.376C109.285 102.376 110.179 101.482 110.179 100.379C110.179 99.2754 109.285 98.3812 108.182 98.3812C107.079 98.3812 106.184 99.2754 106.184 100.379C106.184 101.482 107.079 102.376 108.182 102.376Z" fill="#3AF98C"/>
<path d="M114.839 102.376C115.943 102.376 116.837 101.482 116.837 100.379C116.837 99.2754 115.943 98.3812 114.839 98.3812C113.736 98.3812 112.842 99.2754 112.842 100.379C112.842 101.482 113.736 102.376 114.839 102.376Z" fill="#3AF98C"/>
<path d="M121.497 102.376C122.6 102.376 123.495 101.482 123.495 100.379C123.495 99.2754 122.6 98.3812 121.497 98.3812C120.394 98.3812 119.5 99.2754 119.5 100.379C119.5 101.482 120.394 102.376 121.497 102.376Z" fill="#3AF98C"/>
<path d="M128.155 102.376C129.258 102.376 130.152 101.482 130.152 100.379C130.152 99.2754 129.258 98.3812 128.155 98.3812C127.052 98.3812 126.158 99.2754 126.158 100.379C126.158 101.482 127.052 102.376 128.155 102.376Z" fill="#3AF98C"/>
<path d="M134.813 102.376C135.916 102.376 136.81 101.482 136.81 100.379C136.81 99.2754 135.916 98.3812 134.813 98.3812C133.71 98.3812 132.815 99.2754 132.815 100.379C132.815 101.482 133.71 102.376 134.813 102.376Z" fill="#3AF98C"/>
<path d="M141.47 102.376C142.574 102.376 143.468 101.482 143.468 100.379C143.468 99.2754 142.574 98.3812 141.47 98.3812C140.367 98.3812 139.473 99.2754 139.473 100.379C139.473 101.482 140.367 102.376 141.47 102.376Z" fill="#3AF98C"/>
<path d="M148.128 102.376C149.231 102.376 150.126 101.482 150.126 100.379C150.126 99.2754 149.231 98.3812 148.128 98.3812C147.025 98.3812 146.131 99.2754 146.131 100.379C146.131 101.482 147.025 102.376 148.128 102.376Z" fill="#3AF98C"/>
<path d="M154.786 102.376C155.889 102.376 156.783 101.482 156.783 100.379C156.783 99.2754 155.889 98.3812 154.786 98.3812C153.683 98.3812 152.789 99.2754 152.789 100.379C152.789 101.482 153.683 102.376 154.786 102.376Z" fill="#3AF98C"/>
<path d="M161.444 102.376C162.547 102.376 163.441 101.482 163.441 100.379C163.441 99.2754 162.547 98.3812 161.444 98.3812C160.341 98.3812 159.446 99.2754 159.446 100.379C159.446 101.482 160.341 102.376 161.444 102.376Z" fill="#3AF98C"/>
<path d="M168.102 102.376C169.205 102.376 170.099 101.482 170.099 100.379C170.099 99.2754 169.205 98.3812 168.102 98.3812C166.998 98.3812 166.104 99.2754 166.104 100.379C166.104 101.482 166.998 102.376 168.102 102.376Z" fill="#3AF98C"/>
<path d="M174.759 102.376C175.862 102.376 176.757 101.482 176.757 100.379C176.757 99.2754 175.862 98.3812 174.759 98.3812C173.656 98.3812 172.762 99.2754 172.762 100.379C172.762 101.482 173.656 102.376 174.759 102.376Z" fill="#3AF98C"/>
<path d="M181.417 102.376C182.52 102.376 183.414 101.482 183.414 100.379C183.414 99.2754 182.52 98.3812 181.417 98.3812C180.314 98.3812 179.42 99.2754 179.42 100.379C179.42 101.482 180.314 102.376 181.417 102.376Z" fill="#3AF98C"/>
</g>
<path d="M183.256 96.7284L130.046 6.2708C129.049 4.5764 126.599 4.5764 125.602 6.2708L72.3919 96.7284C71.3812 98.4469 72.6202 100.613 74.6138 100.613H181.035C183.028 100.613 184.267 98.4469 183.256 96.7284Z" stroke="#141418" stroke-width="5" stroke-linecap="round" stroke-linejoin="round"/>
<path d="M51.5612 141.633C68.6464 141.633 82.4967 127.783 82.4967 110.698C82.4967 93.6125 68.6464 79.7622 51.5612 79.7622C34.476 79.7622 20.6257 93.6125 20.6257 110.698C20.6257 127.783 34.476 141.633 51.5612 141.633Z" stroke="#141418" stroke-width="1.4" stroke-miterlimit="10"/>
<path d="M82.9372 141.975C74.9162 150.021 63.8202 155 51.5612 155C38.1464 155 26.1242 149.038 18 139.618" stroke="#3AF98C" stroke-width="5" stroke-miterlimit="10" stroke-linecap="round"/>
<path d="M127.427 108.895L91.0741 47.0956C90.3931 45.938 88.7191 45.938 88.0382 47.0956L51.6855 108.895C50.995 110.069 51.8414 111.549 53.2034 111.549H125.909C127.271 111.549 128.117 110.069 127.427 108.895Z" stroke="#141418" stroke-width="1.6" stroke-miterlimit="10" stroke-linecap="round" stroke-dasharray="3.2 3.2"/>
<path d="M73.8607 140.756L83.0593 141.896L81.919 151.094" stroke="#3AF98C" stroke-width="5" stroke-miterlimit="10" stroke-linecap="round"/>
<path d="M51.5195 118.851C56.0269 118.851 59.6809 115.197 59.6809 110.69C59.6809 106.182 56.0269 102.528 51.5195 102.528C47.0121 102.528 43.3582 106.182 43.3582 110.69C43.3582 115.197 47.0121 118.851 51.5195 118.851Z" fill="#141418"/>
</svg>
