<svg xmlns="http://www.w3.org/2000/svg" viewBox="0 0 224 54.87"><title>NOBULL NEW LOGO</title><g id="019a095e-8cc8-4735-9faf-f657f4fee514" data-name="Layer 1"><path d="M54.66,0a11,11,0,0,0-11,11V43.83a11,11,0,0,0,22.08,0V11A11,11,0,0,0,54.66,0Zm0,46.23a2.4,2.4,0,0,1-2.4-2.4h0V11a2.4,2.4,0,0,1,4.8,0h0V43.83A2.41,2.41,0,0,1,54.66,46.23Z"/><path d="M106.86,11a11,11,0,0,0-11-11H85.7a.92.92,0,0,0-.92.92V54h0a.92.92,0,0,0,.92.92H95.82a11,11,0,0,0,11-11V34.15a11,11,0,0,0-2.28-6.72,11,11,0,0,0,2.28-6.71ZM98.22,43.83a2.4,2.4,0,0,1-2.4,2.4h-2.4V31.75h2.4a2.4,2.4,0,0,1,2.4,2.4h0v9.68Zm0-23.11a2.41,2.41,0,0,1-2.4,2.4h-2.4V8.64h2.4a2.4,2.4,0,0,1,2.4,2.4h0v9.68Z"/><path d="M23.61,0h-6.8a.92.92,0,0,0-.92.92V24.56L8.83.66A.91.91,0,0,0,8,0h-7A.92.92,0,0,0,0,.92V54a.92.92,0,0,0,.92.92h6.8A.92.92,0,0,0,8.64,54V30.31L15.7,54.2h0a.91.91,0,0,0,.88.67h7a.92.92,0,0,0,.92-.92V.92A.92.92,0,0,0,23.61,0Z"/><path d="M185.75,46.23h-10V.92a.92.92,0,0,0-.91-.92H168a.92.92,0,0,0-.92.92V54a.92.92,0,0,0,.92.92h17.72a.92.92,0,0,0,.91-.92v-6.8A.92.92,0,0,0,185.75,46.23Z"/><path d="M223.08,46.23h-10V.92a.92.92,0,0,0-.91-.92h-6.81a.92.92,0,0,0-.92.92V54a.92.92,0,0,0,.92.92h17.71A.92.92,0,0,0,224,54v-6.8A.92.92,0,0,0,223.08,46.23Z"/><path d="M134.08,54.87a.51.51,0,0,0,.51-.51V.92a.92.92,0,0,0-.92-.92h-6.8a.92.92,0,0,0-.92.92V44.24a11,11,0,0,0,8,10.62Z"/><path d="M139.89,54.87a.5.5,0,0,1-.5-.51V.92a.92.92,0,0,1,.92-.92h6.8a.92.92,0,0,1,.92.92V44.24a11,11,0,0,1-8,10.62Z"/></g></svg>