<?xml version="1.0" encoding="UTF-8"?><svg id="Layer_1" xmlns="http://www.w3.org/2000/svg" viewBox="0 0 115 115"><defs><style>.cls-1{fill:#fff;}.cls-2{fill:#4d52f8;}.cls-3{stroke-linejoin:round;stroke-width:1.1742px;}.cls-3,.cls-4{fill:none;stroke:#4d52f8;stroke-linecap:round;}.cls-4{stroke-dasharray:0 0 1.7479 3.49579;stroke-miterlimit:10;stroke-width:1.5px;}</style></defs><path class="cls-2" d="m57.5,36.22412c11.73157,0,21.27588,9.54431,21.27588,21.27588s-9.54431,21.27588-21.27588,21.27588-21.27588-9.54431-21.27588-21.27588,9.54431-21.27588,21.27588-21.27588m0-4c-13.95947,0-25.27588,11.31641-25.27588,25.27588s11.31641,25.27588,25.27588,25.27588,25.27588-11.31641,25.27588-25.27588-11.31641-25.27588-25.27588-25.27588h0Z"/><circle class="cls-2" cx="57.5" cy="57.5" r="5.49941"/><line class="cls-4" x1="57.5" y1="42.42429" x2="57.5" y2="4.2916"/><line class="cls-4" x1="57.5" y1="110.7084" x2="57.5" y2="72.57571"/><line class="cls-4" x1="42.42429" y1="57.5" x2="4.2916" y2="57.5"/><line class="cls-4" x1="110.7084" y1="57.5" x2="72.57571" y2="57.5"/><path class="cls-2" d="m91.77212,13.55574c.74956,0,1.35515.60686,1.35515,1.35515v1.51101c.06772.0089.13127.01861.19908.02832.44881.0669,1.78707.2825,2.33755.42185.68611.18374,1.1646.92277.97823,1.64691-.18201.72414-.91895,1.1646-1.64727.9825-.39389-.1398-1.59235-.30075-2.06667-.36847-1.35932-.20325-2.52392-.10167-3.32432.20325-.77407.29648-1.09552.7157-1.18067,1.18575-.08215.45317-.01988.71143.05465.87238.08007.16939.2363.35994.54758.56746.68856.45317,1.73878.75809,3.10246,1.12647l.11856.03386c1.20264.32608,2.67643.72841,3.76895,1.45255.59714.39807,1.16033.93593,1.50765,1.68122.3515.75383.42766,1.60079.2668,2.46474-.29648,1.64727-1.43984,2.723-2.78228,3.28193-.57599.23721-1.21117.38962-1.8803.46588v1.41442c0,.74956-.60559,1.35515-1.35515,1.35515s-1.35515-.60559-1.35515-1.35515v-1.47797c-.01698,0-.03813-.0423-.05501-.00844h-.00853c-1.02907-.16095-2.72845-.60559-3.87489-1.11377-.68384-.30493-.99176-1.10532-.68765-1.79134.30402-.68184,1.10487-.99094,1.75067-.68602.92313.3938,2.37995.77915,3.22265.91042,1.35515.20334,2.46891.0847,3.22274-.22014.7157-.29222,1.04178-.7157,1.13492-1.22388.08052-.45317.02115-.71143-.05501-.87238-.08052-.16939-.23721-.35994-.54631-.56746-.69028-.45317-1.7405-.75809-3.10418-1.12647l-.11856-.03386c-1.20264-.32608-2.67725-.72841-3.77068-1.45255-.59751-.39807-1.15734-.93593-1.50502-1.68122-.35277-.75383-.42947-1.60079-.26553-2.50286.29984-1.64727,1.48641-2.69795,2.88005-3.22982.55139-.21052,1.14935-.34895,1.78035-.42348v-1.4708c0-.74829.60559-1.35515,1.35515-1.35515Z"/><path class="cls-2" d="m84.52411,88.75944v9.40977c0,.71025-.60677,1.31711-1.35515,1.31711h-.2934c-.7482,0-1.35515-.56873-1.35515-1.31711v-9.4479c0-.71016.60695-1.31702,1.35515-1.31702h.2934c.74965,0,1.35515.64371,1.35515,1.35515Zm14.97124,2.53364c.05229.21596.07934.43737.07934.66232,0,.96135-.4844,1.82647-1.23986,2.341.01779.12773.02705.25736.02705.38635,0,.94519-.46842,1.80396-1.22097,2.32194-.10331,1.46989-1.33263,2.63404-2.82885,2.63404h-2.22444c-1.52454,0-3.03219-.50391-4.24936-1.41588l-1.55286-1.16551c-.26616-.19944-.40651-.50146-.40651-.81011,0-.53614.4312-1.01799,1.01763-1.01799.21224,0,.4263.06627.60913.20371l1.55232,1.16496c.8673.64979,1.94303,1.00837,3.02802,1.00837h2.22444c.44282,0,.80339-.35994.80339-.80248,0-.14806-.04702-.20925-.04702-.40052,0-1.13828,1.26074-.76136,1.26074-1.72098,0-.39044-.2707-.46715-.2707-.94228,0-1.26237,1.48351-.71062,1.48351-1.78498,0-.54885-.4824-.56918-.4824-1.22424,0-.53106.41086-.97742.947-1.01382.4194-.02887.7482-.377.7482-.79232,0-.44046-.35985-.8004-.80521-.83771h-5.82709c-.53233,0-1.01636-.38871-1.01636-.97823,0-.17085.04303-.34196.12981-.49629.76036-1.35687,1.0819-2.71819,1.0819-3.03174,0-.34051-.25327-.88046-.93411-.88046-1.39672,0-.60096,2.59727-3.85156,5.19618-.18719.14988-.41141.22277-.634.22277-.57844,0-1.01727-.47223-1.01727-1.016,0-1.14672,1.21426-.54921,2.55488-3.95823.4341-1.1036.97406-2.47744,2.94795-2.47744,1.85733,0,2.96683,1.48142,2.96683,2.91273,0,.53786-.22441,1.45255-.62801,2.5104h4.22884c1.56357,0,2.83611,1.27172,2.83611,2.83402,0,.98241-.51236,1.8252-1.29051,2.36842Z"/><path class="cls-2" d="m28.66541,14.02886c1.63603,0,2.9623,1.32627,2.9623,2.9623s-1.32627,2.9623-2.9623,2.9623-2.9623-1.32627-2.9623-2.9623,1.32627-2.9623,2.9623-2.9623Zm-3.70287,12.58977c0,.74983.27772,1.43486.74057,1.95789v-3.91579c-.46286.52303-.74057,1.20806-.74057,1.95789Zm6.66517-1.95789v3.92042c.46286-.52303.74057-1.20806.74057-1.95789s-.27772-1.43949-.74057-1.95789v-.00463Zm2.9623,1.95789c0,2.06898-1.21269,3.85099-2.9623,4.68413v1.98104c0,.81926-.66189,1.48115-1.48115,1.48115h-2.9623c-.81926,0-1.48115-.66189-1.48115-1.48115v-1.98104c-1.74961-.83315-2.9623-2.61515-2.9623-4.68413,0-2.8651,2.31892-5.18402,5.18402-5.18402h1.48115c2.8651,0,5.18402,2.31892,5.18402,5.18402Z"/><g><path class="cls-2" d="m32.09626,91.11866v1.93108h1.60924c.53305,0,.96554.43249.96554.96554s-.43249.96554-.96554.96554h-1.60924v.32185c0,1.42218-1.1526,2.57478-2.57478,2.57478h-.32185v1.60924c0,.53305-.43249.96554-.96554.96554s-.96554-.43249-.96554-.96554v-1.60924h-1.93108v1.60924c0,.53305-.43448.96554-.96554.96554s-.96554-.43051-.96554-.96554v-1.60924h-1.93108v1.60924c0,.53305-.43448.96554-.96554.96554s-.96554-.43051-.96554-.96554v-1.60924h-.32185c-1.42218,0-2.57478-1.1526-2.57478-2.57478v-.32185h-1.60924c-.53305,0-.96554-.43448-.96554-.96554s.43249-.96554.96554-.96554h1.60924v-1.93108h-1.60924c-.53305,0-.96554-.43448-.96554-.96554s.43249-.96554.96554-.96554h1.60924v-1.93108h-1.60924c-.53305,0-.96554-.43448-.96554-.96554s.43249-.96554.96554-.96554h1.60924v-.32185c0-1.42218,1.1526-2.57478,2.57478-2.57478h.32185v-1.60924c0-.53305.43051-.96554.96554-.96554s.96554.43249.96554.96554v1.60924h1.93108v-1.60924c0-.53305.43051-.96554.96554-.96554s.96554.43249.96554.96554v1.60924h1.93108v-1.60924c0-.53305.43051-.96554.96554-.96554s.96554.43249.96554.96554v1.60924h.32185c1.42218,0,2.57478,1.1526,2.57478,2.57478v.32185h1.60924c.53305,0,.96554.43051.96554.96554s-.43051.96554-.96554.96554h-1.60924v1.93108h1.60924c.53305,0,.96554.43051.96554.96554s-.43051.96554-.96554.96554h-1.60924Zm-1.93108-6.1151c0-.35488-.28882-.64369-.64369-.64369h-10.29911c-.35488,0-.64369.28882-.64369.64369v10.29911c0,.35488.28882.64369.64369.64369h10.29911c.35488,0,.64369-.28882.64369-.64369v-10.29911Z"/><rect class="cls-2" x="22.44084" y="88.22204" width="3.86217" height="3.86217" rx="1.93108" ry="1.93108"/></g><rect class="cls-1" x="27.99997" y="22.97983" width="1.40317" height="6.02844" rx=".70159" ry=".70159"/><path class="cls-2" d="m20.36563,15.59448c.78177,0,1.41782.63599,1.41782,1.41785,0,.78174-.63605,1.41772-1.41782,1.41772s-1.41782-.63599-1.41782-1.41772c0-.78186.63605-1.41785,1.41782-1.41785m0-1.17419c-1.43155,0-2.59201,1.1604-2.59201,2.59204,0,1.43152,1.16046,2.59192,2.59201,2.59192s2.59201-1.1604,2.59201-2.59192c0-1.43164-1.16049-2.59204-2.59201-2.59204h0Z"/><path class="cls-2" d="m17.40332,24.96078c0-.21089-.28406-.28748-.38468-.10214-.22757.41921-.3559.90111-.3559,1.41081s.12832.99161.3559,1.41081c.10061.18534.38468.10875.38468-.10214v-2.61735Z"/><path class="cls-3" d="m17.40332,32.9886v-2.03501c-1.74961-.83315-2.9623-2.61515-2.9623-4.68413,0-2.8651,2.31892-5.18402,5.18402-5.18402h1.48115c.68842,0,1.34483.13332,1.94502.37572"/></svg>