<?xml version="1.0" encoding="UTF-8"?><svg id="Layer_1" xmlns="http://www.w3.org/2000/svg" viewBox="0 0 115 115"><defs><style>.cls-1{fill:#4d52f8;}.cls-2{fill:none;stroke:#4d52f8;stroke-linecap:round;stroke-linejoin:round;stroke-width:8.2194px;}</style></defs><path class="cls-1" d="m57.5,30.01147c15.15723,0,27.48856,12.3313,27.48856,27.48853s-12.33133,27.48853-27.48856,27.48853-27.48856-12.3313-27.48856-27.48853,12.33133-27.48853,27.48856-27.48853m0-4c-17.39066,0-31.48856,14.0979-31.48856,31.48853s14.0979,31.48853,31.48856,31.48853,31.48856-14.0979,31.48856-31.48853-14.0979-31.48853-31.48856-31.48853h0Z"/><path class="cls-1" d="m57.5,7.44312h-.10635c-.00168,0-.00574.00024-.00742.00024h-.07541c-.00171,0-.00388.00024-.00555.00024h-.0535c-.0079.00024-.01581.00024-.02374.00024h-.00397c-.01761,0-.03516.00024-.05273.00024h-.00082c-.00867.00024-.01724.00024-.02591.00024-.00168,0,.00015,0-.00153,0-.46533.00317-.9292.01294-1.39148.02881-.41394.01416-.73801.36133-.72382.77515.01392.40527.34677.72437.74911.72437.0087,0,.01743-.00024.02618-.00049.56326-.01929,1.12897-.02905,1.69693-.02905.41422,0,.75-.33569.75-.75s-.33578-.75-.75-.75h0Zm-5.15652.26636c-.02582,0-.05194.00146-.07816.00415h-.00125c-.00772.00073-.01544.00171-.02316.00244-.00165.00024-.00708.00073-.00873.00098-.00513.00049-.01031.00098-.01544.00146-.0033.00049-.00659.00073-.00986.00122-.00653.00049-.01306.00122-.01956.00195-.0033.00049-.00888.00098-.01218.00122-.00443.00049-.00894.00098-.01337.00146-.0033.00049-.00882.00098-.01212.00122-.00403.00049-.00803.00098-.01208.00146-.00327.00024-.00848.00073-.01178.00122-.00671.00073-.01343.00146-.02017.0022-.00491.00049-.00845.00073-.01337.00146-.00342.00024-.00681.00073-.01022.00098-.00491.00049-.00809.00098-.01303.00146-.00351.00024-.00696.00073-.01047.00098-.00821.00098-.01602.00195-.02423.00269-.00284.00024-.00574.00073-.00858.00098-.00491.00049-.00928.00098-.01419.00146-.00299.00049-.00601.00073-.00897.00098-.00491.00073-.00922.00098-.01413.00171-.00266.00024-.00528.00049-.00793.00073-.00821.00098-.01752.00195-.0257.00293-.00305.00024-.00616.00073-.00922.00098-.00327.00024-.01062.00122-.01389.00146-.00345.00049-.0069.00073-.01031.00122-.00494.00049-.01428.00146-.0192.0022-.00464.00049-.00925.00098-.01389.00146-.00491.00049-.00742.00073-.01233.00146-.00388.00024-.00787.00073-.01178.00122-.00491.00049-.00705.00073-.01196.00146-.0051.00049-.01013.00098-.01523.00171-.00491.00049-.01056.00098-.01547.00171-.00479.00049-.00949.00098-.01425.00146-.0033.00049-.0072.00098-.01047.00122-.00507.00073-.01013.00122-.01517.00171-.0033.00049-.00546.00073-.00873.00098-.00766.00098-.01532.00171-.02298.00269-.0033.00049-.00339.00049-.00665.00073-.00604.00073-.01212.00146-.01813.0022-.00327.00024-.00427.00049-.00754.00073-.008.00098-.01596.00195-.02396.00293h0c-.00842.00098-.01678.00171-.02521.00269-.00165.00024-.0032.00049-.00485.00073-.00745.00073-.01483.00171-.02231.00244l-.00284.00049c-.01764.00195-.03525.00415-.05289.0061l-.00101.00024c-.35269.0415-.70432.08667-1.05472.1355-.41025.05713-.6965.43604-.63934.84619.05225.37524.37357.64673.74188.64673.03442,0,.06934-.00244.1044-.00732.55814-.07764,1.11929-.146,1.68329-.20459.41199-.04297.71127-.41162.66846-.82349-.04007-.38574-.36566-.67261-.74506-.67261h0Zm-5.10031.80176c-.05038,0-.10159.00513-.15283.01562-.16669.0354-.32886.07056-.49493.10742-.00162.00049-.0033.00073-.00494.00122-.00473.00098-.01141.00244-.01614.00342-.00037.00024-.00067.00024-.00104.00024-.01105.00244-.01981.00439-.03085.00684-.00327.00073-.0065.00146-.00977.0022-.00317.00073-.009.0022-.01218.00269-.00458.00122-.00919.0022-.01376.00317-.00476.00098-.00723.00171-.01196.00269-.00607.00146-.01215.00269-.01825.00415-.00314.00073-.00647.00146-.00964.0022-.00482.00098-.00961.0022-.01443.00317-.00317.00073-.00623.00146-.00937.0022-.00735.00171-.01474.00317-.02209.00488-.00314.00073-.00293.00073-.0061.00146-.00604.00122-.01208.00269-.01813.00415-.00314.00073-.004.00073-.00717.00146-.00769.00171-.01535.00342-.02304.00537h-.00055c-.00803.00195-.01614.00366-.02417.00562-.00159.00024-.00415.00098-.00571.00122-.00687.00146-.01376.00317-.02063.00464l-.00369.00098c-.00824.00171-.01648.00366-.02469.00562l-.00302.00073c-.00745.00171-.01483.00342-.02228.00513-.00159.00024-.00229.00049-.00388.00073-.01675.00391-.03354.00781-.05026.01172-.00159.00024-.00128.00024-.00284.00049-.00827.00195-.01651.00391-.02475.00586h-.00043c-.0087.00195-.01743.00415-.02612.0061l-.00119.00024c-.00803.00195-.01599.00366-.02399.00562-.00159.00024-.00137.00024-.00293.00073-.01678.00391-.03354.00781-.05032.01172-.00159.00024-.00211.00049-.00369.00073-.01654.00391-.03305.00781-.04956.01172-.00159.00024-.00323.00073-.00479.00098-.00668.00171-.01337.00317-.02005.00464-.00156.00049-.00381.00098-.0054.00146-.00809.00171-.01614.00366-.02423.00562l-.00119.00024c-.00735.00171-.01474.00342-.02209.00537-.00314.00073-.00421.00098-.00735.00171-.00598.00146-.0119.00269-.01785.00415q-.00317.00073-.00632.00146c-.00748.00171-.01498.00366-.02246.00537-.00159.00049-.00644.00146-.00803.00195-.00494.00122-.00992.0022-.01486.00342-.0047.00122-.00525.00122-.00998.00244-.00507.00122-.01016.00244-.01523.00366-.00473.00098-.01257.00293-.01727.00415-.00339.00073-.00681.00146-.01019.00244-.00473.00098-.009.0022-.0137.00317-.00253.00073-.00507.00122-.0076.00195-.01727.00415-.03198.00757-.04926.01172-.00134.00024-.00259.00073-.00394.00098-.121.02905-.23816.05786-.35883.08789-.40015.10107-.64352.50708-.54385.90796.08481.34131.39081.56909.72726.56909.05991,0,.12076-.00708.18152-.02222.54691-.13599,1.09747-.2627,1.65152-.37988.40524-.08569.66428-.48364.57852-.88892-.07468-.35303-.38614-.59497-.733-.59497h0Zm-4.98737,1.33325c-.07596,0-.15326.01147-.22943.03613-.17053.05518-.3381.1106-.50781.16772-.0004.00024-.00076.00049-.00119.00049-.01819.0061-.03464.01172-.05283.01782-.00055.00024-.00116.00049-.00174.00073-.00607.00195-.01117.00366-.01724.00562-.00046.00024-.00095.00049-.0014.00049-.01819.00635-.0347.01172-.05286.01807-.00052,0-.00104.00024-.00159.00049-.01816.0061-.03329.01123-.05142.01758-.00137.00049-.00262.00073-.004.00122-.01813.00635-.03217.01099-.05029.01733-.0011.00024-.00217.00073-.00327.00098-.00604.0022-.01044.00366-.01651.00562-.00073.00024-.0014.00049-.00214.00073-.01208.00415-.02167.00757-.03375.01172-.0004,0-.00076.00024-.00113.00024-.00604.0022-.01068.00366-.01672.00586-.00098.00024-.00195.00073-.00293.00098-.01813.00635-.03229.01123-.05042.01733-.00134.00049-.00275.00098-.00409.00146-.01813.00635-.03409.01172-.05219.01807-.00015,0-.00027,0-.00043.00024-.00604.00195-.01178.00391-.01779.0061-.00021,0-.00043,0-.00064.00024-.0181.0061-.03555.01221-.05365.01855-.00018,0-.00034.00024-.00049.00024-.22021.07666-.44073.15527-.65955.23486-.3873.14282-.58658.57202-.44519.96045.11087.30444.39844.49341.70477.49341.08521,0,.17188-.01465.25656-.04541.53003-.19312,1.06439-.37695,1.60287-.552.39395-.12793.60959-.55103.48166-.94482-.10297-.31714-.39697-.51855-.7132-.51855h0Zm-4.81955,1.85132c-.1012,0-.20407.02051-.30252.06421-.11292.05029-.22476.10059-.33722.15186-.00052.00024-.00107.00049-.00159.00073-.01727.00781-.03244.01465-.04974.02246-.00073.00049-.00146.00073-.0022.00098-.01584.00732-.03214.01489-.04797.02197-.00146.00073-.0029.00146-.00436.00195-.00577.00269-.00934.00439-.01511.00708-.00104.00049-.00204.00098-.00308.00146-.00864.00391-.02084.00952-.02948.01343-.00113.00049-.00229.00098-.00342.00146-.0043.00195-.00961.00439-.01395.00659-.00247.00098-.00488.0022-.00739.00342-.00864.00391-.01794.00806-.02658.01221-.00113.00049-.00229.00098-.00342.00146-.00433.00195-.00937.00439-.0137.00635-.00229.00098-.00455.00195-.00684.00317-.0043.00195-.00922.00415-.01352.0061-.00113.00049-.0022.00098-.00333.00171-.00864.00391-.01819.0083-.02682.01221-.00253.00122-.0051.00244-.0076.00366-.00433.00195-.00851.00391-.01282.00586-.00284.00122-.00568.00269-.00851.00391-.0072.00342-.01395.00659-.02112.00977-.00278.00122-.00552.00269-.0083.00391-.0043.00195-.0083.00391-.0126.00586-.00272.00122-.00543.00244-.00812.00366-.0072.00342-.0152.00708-.02237.0105-.00256.00122-.00516.00244-.00772.00366-.0043.00195-.00824.00366-.01254.00586-.00272.00122-.00546.00244-.00818.00366-.01434.00659-.02823.01318-.04257.01978-.00266.00122-.00528.00269-.0079.00391-.0043.00195-.00894.00415-.01324.0061-.00134.00049-.00262.00122-.00397.00171-.00861.00415-.0188.00903-.0274.01294-.00171.00073-.00342.00171-.0051.00244-.00574.00269-.00854.00391-.01428.00659-.0018.00098-.00357.00171-.00537.00269-.00861.00391-.01859.00854-.02716.0127-.00134.00049-.00266.00122-.004.00171-.00571.00269-.00873.00415-.01447.00684-.00183.00098-.00363.00171-.00549.00269-.01431.00659-.03134.01465-.04565.02148l-.00467.0022c-.01575.00732-.03238.01538-.04813.02271-.00058.00024-.00107.00049-.00165.00073-.01718.00806-.03278.01562-.04993.02368l-.00128.00073c-.17581.08325-.35168.16797-.5264.25342-.37051.18262-.52377.63062-.34225,1.00195.1301.26611.39682.4209.67438.4209.1105,0,.22278-.02441.32877-.07642.50705-.2478,1.01904-.48706,1.5358-.71753.3783-.1687.54822-.61206.37949-.99048-.12448-.27905-.39838-.44458-.68539-.44458h0Zm-4.59802,2.3479c-.12747,0-.25671.03247-.37497.10083-.12589.073-.25137.14624-.37656.22021l-.00195.00122c-.01447.00854-.0289.01685-.04333.02563-.00272.00146-.00366.00195-.00638.00366-.00488.00293-.00983.00586-.01474.00879-.00269.00146-.00443.00244-.00711.00415-.00583.00342-.01163.00684-.01746.01025-.00406.00244-.00809.00488-.01215.00732-.00211.00122-.00415.00244-.00629.00366-.01486.00879-.02994.01782-.0448.02661-.00037.00024-.00079.00049-.00116.00073-.32443.19312-.64703.39014-.96664.59033-.34998.22021-.45578.68237-.23621,1.03296.14236.22729.38654.35205.63632.35205.13599,0,.27365-.03711.3974-.1145.47861-.2998.96277-.59131,1.45236-.87476.35852-.20752.48096-.66626.27347-1.0249-.13904-.24023-.39087-.37427-.64981-.37427h0Zm-4.32706,2.81641c-.15247,0-.30634.04614-.43918.14233-.01141.0083-.02399.01758-.0354.02588-.00116.00098-.00235.00171-.00351.00269-.00507.00366-.00848.0061-.01355.00977-.00082.00073-.00159.00122-.00241.00171-.01013.00757-.01685.01245-.02698.01978-.00064.00049-.00131.00098-.00192.00146-.00507.00366-.00787.00562-.01294.00952-.00192.00122-.00385.00269-.00577.00415-.00757.00562-.01355.00977-.02112.01538-.00204.00146-.00403.00293-.00607.00439-.00378.00293-.00751.00562-.01129.0083-.00244.00195-.00491.00366-.00735.00537-.00378.00293-.00705.00537-.01083.00806-.0051.00366-.01019.00757-.01532.01123-.00378.00269-.0069.00513-.01068.00781-.00287.0022-.00574.00415-.00861.00635-.00378.00269-.0062.00464-.00998.00732-.00531.00391-.01071.00781-.01602.01172-.00253.00195-.00626.00464-.00879.00659-.00348.00244-.00696.00513-.01047.00757-.00253.00195-.00613.00464-.00864.00659-.00464.00342-.00922.00659-.01382.01001-.00378.00293-.0058.00439-.00958.00708-.00449.00342-.00891.00659-.01337.01001-.00253.00171-.00479.00342-.00729.00537-.00467.00342-.00934.00684-.01398.01025-.00253.00195-.00433.00317-.00687.00513-.0054.00391-.0108.00806-.0162.01196-.00253.00195-.00449.00342-.00702.00513-.00464.00342-.00928.00684-.01392.0105-.0025.00171-.00314.0022-.00568.00415-.00613.00439-.01227.00903-.01843.01367-.00125.00098-.00421.00317-.00549.00391-.0052.00391-.01031.00781-.01553.01172-.00125.00098-.0029.0022-.00418.00293l-.0195.01465c-.00125.00098-.00238.00171-.00366.00269-.00571.00415-.01138.00854-.01709.0127-.00128.00098-.0025.00195-.00375.00293-.01355.01001-.0271.02002-.04065.03027-.00125.00098-.0018.00122-.00305.0022-.01382.01025-.02768.02075-.0415.03101l-.00195.00146c-.01413.0105-.02826.02124-.04239.03174-.00125.00098.00052-.00024-.00073.00049-.0144.01099-.02878.02173-.04315.03247l-.00031.00024c-.02167.01636-.04333.03271-.06497.04883l-.00052.00049c-.01437.01074-.02872.02173-.04309.03247l-.00052.00049c-.06528.04932-.13043.09888-.19547.14844h-.00003c-.01428.01099-.02856.02173-.04282.03271l-.00107.00073c-.01419.01099-.02832.02173-.04248.03271l-.00082.00049c-.01398.01074-.02792.02148-.0419.03223-.00125.00098-.00113.00098-.00238.00195-.00644.00488-.01282.00977-.01926.01465l-.00137.00122-.02023.01538c-.00122.00098-.00186.00146-.00311.00244-.0058.00464-.01154.00903-.01736.01343-.00122.00098-.00204.00171-.00327.00244-.00656.00513-.01306.01025-.01962.01514-.00125.00098-.00195.00171-.0032.00269-.00546.00415-.01089.0083-.01636.01245-.00125.00098-.00397.00317-.00522.00415-.0062.00488-.01245.00952-.01865.0144-.00125.00098-.00217.00171-.00342.00269-.00513.00391-.01028.00781-.01541.01196-.0025.00195-.00418.00317-.00665.00513-.0047.00366-.00946.00732-.01416.01099-.00247.00195-.00531.00415-.00778.00586-.00482.00391-.00967.00757-.0145.01147-.0025.00171-.00549.00415-.00797.0061-.0036.00269-.0072.00562-.01077.0083-.00372.00293-.0083.00659-.01202.00928-.00397.00317-.00797.00635-.01196.00928-.00369.00293-.00656.00513-.01028.00806-.00241.00195-.00488.00391-.00729.00586-.01236.00952-.02628.02026-.03864.03003-.00125.00098-.00241.00195-.00369.00293-.01852.0144-.03445.02686-.05295.04126-.32495.25562-.3819.72607-.12698,1.05176.14792.18896.36838.28784.59113.28784.16168,0,.32452-.052.4617-.15942.44498-.34814.89612-.68872,1.35333-1.02173.33487-.24365.40872-.71265.16495-1.04761-.14679-.20166-.37527-.30859-.60696-.30859h0Zm-4.00986,3.2522c-.17889,0-.35849.06372-.50186.19287-.43286.39014-.85886.7876-1.27783,1.19238-.29788.28784-.30606.7627-.01825,1.06055.14719.15234.34317.229.53946.229.18762,0,.37549-.07007.52106-.21069.40649-.39282.81982-.77856,1.23978-1.15698.30771-.27734.33234-.75146.05502-1.05933-.1481-.16431-.35229-.2478-.55737-.2478h0Zm-3.64993,3.65161c-.20511,0-.40945.08374-.55753.24805-.08472.09399-.1691.18848-.25308.2832-.00107.00122-.00253.00293-.00357.00391-.00464.00537-.00934.01074-.01401.01587-.00204.00244-.00253.00293-.00461.00513-.00403.00464-.00806.00928-.01208.01367-.00208.00244-.00623.00708-.0083.00952-.0022.00244-.00443.00488-.00662.00732-.01141.01294-.02118.02393-.03256.03687l-.00119.00146c-.27539.31201-.54565.62598-.81329.94482-.26379.31714-.22186.78809.09442,1.05371.14056.11816.31168.17578.4819.17578.21393,0,.42642-.09106.57477-.26782.36359-.43311.73459-.85962,1.11282-1.27954.27719-.30786.25241-.78198-.05539-1.05933-.14337-.12891-.32281-.19263-.50168-.19263h0Zm-3.25052,4.01123c-.23108,0-.45895.10645-.60577.30713-.03503.0481-.07217.09937-.10706.14771-.0007.00098-.00137.00171-.00208.00269-.00275.00391-.00629.00879-.00903.0127-.00156.0022-.00311.00415-.00464.00635-.00369.00513-.00824.01147-.0119.0166-.00278.00366-.00552.00757-.0083.01147-.00275.00366-.00339.00464-.00613.00854-.00278.00391-.00555.00757-.00833.01147-.00183.00269-.00351.00488-.00534.00757-.00433.00586-.00867.01196-.013.01807-.00183.00244-.00241.00317-.00421.00586-.00357.00488-.00711.00977-.01068.01489-.00092.00122-.00299.00415-.00391.00537-.0047.00659-.00943.01318-.01413.01978-.00092.00122-.00046.00049-.00137.00195-.00449.0061-.009.01245-.01349.0188-.00092.00122-.0015.00195-.00241.00317-.00992.01392-.01981.02783-.02969.04175l-.00208.00269c-.01016.0144-.02032.02856-.03046.04272l-.00052.00073c-.03687.05176-.07364.10352-.11029.15552h-.00012c-.01028.01465-.02057.0293-.03085.0437l-.00125.00195c-.01004.01416-.02011.02856-.03012.04272l-.00165.0022c-.00467.00684-.00931.01343-.01398.02002l-.00107.00146c-.00491.00708-.00983.01392-.01474.021-.00092.00122-.00107.00146-.00198.00293-.00412.00586-.00827.01172-.01239.01758-.00092.00122-.00211.00293-.00302.00439-.00461.00659-.00919.01294-.01379.01953-.00089.00122-.00204.00293-.00293.00415-.00375.00537-.00751.01074-.01123.01611-.00092.00122-.00311.00439-.00403.00586-.00449.00635-.00894.0127-.01343.01904-.00089.00146-.00177.00269-.00266.00391-.00366.00513-.00726.0105-.01093.01562-.00177.00244-.00317.00464-.00497.00708-.00351.00513-.00702.01001-.01053.01514-.0018.00269-.0033.00464-.00507.00732-.00354.00488-.00702.01001-.01056.01514-.00177.00244-.00433.0061-.00613.00879-.00259.00366-.00516.00732-.00775.01099-.00177.00269-.00494.00732-.00671.00977-.00351.00513-.00699.01001-.01047.01514-.00269.00391-.00464.00659-.00732.0105-.00201.00293-.00403.00586-.00607.00879-.00269.00391-.00455.00659-.00723.01025-.00369.00537-.00735.01074-.01105.01611-.00269.00366-.00507.00732-.00772.01099l-.00494.00732c-.00269.00366-.00571.00806-.00836.01196-.00058.00073-.00113.00171-.00171.00244-.00534.00781-.01263.01831-.01797.02612-.00101.00146-.00201.00269-.00299.00415-.00357.00513-.00604.00879-.00958.01392-.00009.00024-.00018.00024-.00027.00049-.00714.01025-.01389.02002-.02103.03052-.00006,0-.00012,0-.00018.00024-.00357.00513-.0069.01001-.01047.01514l-.00055.00073c-.08633.12549-.17163.25049-.25684.37671-.23068.34302-.1402.80835.20258,1.03979.12872.08691.27469.12866.41916.12866.24075,0,.47726-.11572.62216-.33032.31659-.46875.64114-.9314.97345-1.38818.24368-.33496.16968-.8042-.16528-1.04785-.13321-.09692-.2876-.14355-.44058-.14355h0Zm-2.81482,4.32812c-.25821,0-.5094.1333-.64865.37231-.2916.50415-.57666,1.01758-.85095,1.53271-.19284.36523-.05408.81787.31076,1.01221.1123.05981.23291.08813.35187.08813.26825,0,.52774-.14429.66263-.39771.2659-.49927.54025-.99341.82291-1.48218.20734-.35864.08478-.81738-.2738-1.02466-.11826-.06836-.24734-.10083-.37476-.10083h0Zm-2.3465,4.59839c-.28708,0-.5611.16577-.68549.44482-.23682.53149-.46463,1.06787-.68326,1.60889-.15521.38403.0303.82129.41434.97632.0921.03735.18719.05493.28076.05493.29666,0,.57764-.17725.69565-.46924.21201-.52466.43298-1.04492.66266-1.5603.16858-.37842-.00146-.82178-.37982-.99023-.09918-.04419-.20282-.06519-.30484-.06519h0Zm-1.85031,4.81958c-.31549,0-.60895.20068-.71249.5166-.06027.18555-.11923.37109-.17737.55786-.00018.00049-.00037.00098-.00055.00171-.00571.01831-.01062.03418-.01633.05249-.00027.00098-.00055.00171-.00085.00269-.00568.01831-.01068.03467-.01636.05298-.00015.00049-.00027.00073-.00043.00122-.00189.0061-.00357.01172-.00546.01782-.00012.00024-.00024.00073-.00037.00122-.00568.01831-.01068.03467-.01633.05298-.00031.00098-.00058.00195-.00089.00293-.00565.01831-.01031.03345-.01593.052-.00027.00073-.00055.00171-.00082.00269-.00565.01831-.01071.03491-.01633.05347l-.00027.00073c-.00186.0061-.00327.01074-.00513.01685-.0004.00146-.00076.00269-.00116.00391-.00513.01685-.01035.03394-.01544.05078-.0004.00146-.00076.00269-.00116.00391-.0051.01685-.01016.03369-.01526.05054-.00046.00146-.00089.00293-.00131.00439-.00186.0061-.00305.01001-.00488.01611-.00034.00098-.00067.0022-.00101.00317-.00323.01074-.00693.02319-.01016.03394-.00006.00024-.00012.00049-.00018.00049-.00186.00635-.00308.01025-.00491.0166l-.00156.00513c-.00461.01514-.00989.03296-.0145.04834l-.00201.00659c-.00137.00464-.00302.01025-.00439.01489-.00046.00146-.00092.00293-.00137.00464-.00275.00903-.00558.0188-.00833.02783-.0007.00244-.0014.00488-.00211.00708-.00183.00635-.00247.0083-.0043.0144l-.00192.00659c-.00317.01074-.00604.02026-.00922.03125l-.00046.00146c-.00137.00464-.00314.0105-.00452.01514-.00064.0022-.00128.00439-.00189.00659-.00458.01538-.00952.03198-.01404.04736-.0007.00244-.00143.00488-.00214.00732-.00134.00464-.00278.00952-.00415.01392-.00079.00293-.00162.00562-.00241.0083-.00272.00928-.00443.01514-.00714.02441-.00073.00244-.0015.00513-.00223.00757-.00137.00464-.00281.00952-.00415.01416-.00076.00269-.00156.00537-.00232.00781-.00226.00781-.00479.0166-.00705.02417l-.00238.00806c-.00134.00464-.00244.00854-.00378.01318-.00098.00317-.00192.00659-.0029.00977-.00134.00464-.00226.00781-.0036.01245-.00122.00415-.00247.00854-.00369.0127-.0018.0061-.00342.01172-.00519.01782-.0011.00366-.0022.00757-.00327.01123-.00092.00317-.00256.00879-.00345.01196l-.00339.01172c-.00134.00464-.0032.01099-.00455.01562-.00146.00513-.00296.01025-.00443.01538-.00134.00464-.00168.00586-.00302.0105-.00122.00415-.00241.0083-.00363.01245-.00134.00464-.00171.00586-.00305.0105-.00195.00684-.00394.01367-.00589.02051-.00089.00317-.00162.00562-.0025.00879-.00143.00488-.00287.01001-.00433.01489-.00089.00317-.00165.00586-.00253.00903-.0018.00635-.00363.01245-.00543.0188-.00089.00317-.00134.00464-.00223.00781l-.00522.01831c-.00046.00146-.00085.00293-.00131.00439-.11337.39819.11713.81299.51514.92676.06891.01953.13828.02905.20654.02905.32629,0,.62656-.2146.72073-.54395.15564-.54443.32053-1.08472.49451-1.62109.12781-.39404-.08795-.81714-.48196-.94482-.0769-.0249-.15488-.03687-.2316-.03687h0Zm-1.33212,4.9873c-.34695,0-.65851.24219-.73306.59521-.03.14209-.05942.28418-.08823.42676l-.00021.00098c-.00159.00806-.00317.01587-.00479.02393l-.00076.00366c-.00168.0083-.00333.0166-.005.0249-.00034.00171-.00009.00049-.00043.0022-.0014.00684-.00281.01392-.00421.021-.00064.00317-.00122.0061-.00186.00928-.00092.00464-.00183.00928-.00278.01367-.00061.00317-.00146.00732-.00208.01074-.00134.00659-.00269.01318-.004.01978-.00095.00488-.00171.00854-.00266.01343-.00058.00293-.00119.00586-.00177.00879-.00095.00488-.00198.01001-.00293.01489-.00027.00146-.00058.00293-.00085.00439-.00351.01758-.00714.03589-.01059.05347-.00006.00024-.00012.00049-.00015.00073-.06989.354-.13608.70996-.19843,1.06689-.06952.40674.20309.7937.61014.86499.0437.00757.08716.01123.13007.01123.35754,0,.67419-.25659.73788-.62085.0976-.55835.20474-1.11328.32126-1.66504.0856-.40527-.17352-.80322-.57883-.88867-.05225-.01099-.10437-.01636-.15573-.01636h0Zm-.80032,5.10059c-.37946,0-.70514.28687-.74506.67261-.05984.57764-.10983,1.1582-.14987,1.74146-.02835.41333.28366.77124.6969.79956.01749.00122.03485.00171.05209.00171.39084,0,.72034-.30298.7475-.69873.03882-.56567.08734-1.12891.14539-1.68945.04266-.41187-.25674-.78052-.66876-.82324-.02628-.00269-.05234-.00391-.07819-.00391h0Zm-.26376,5.15747h-.00027c-.41345.00024-.74866.33496-.74976.74805.00003.04224.00009.0835.00021.12573v.00244c0,.00684.00003.01172.00006.01855v.00317c.00003.01001.00006.02197.00012.03223,0,.0022,0,.00439.00003.00684,0,.00488.00003.00903.00003.01416.00003.00317.00003.00659.00006.01001.00003.00513.00003.00806.00006.01318s.00003.01001.00006.01514c.00003.00342.00006.01074.00009.01392.00003.00586.00006.01147.00009.01733,0,.00342.00003.00537.00003.00854.00003.0061.00009.01221.00012.01831,0,.00171.00003.00439.00003.0061.00006.0083.00012.0166.00015.0249.00003.00171.00003.00098.00003.00244.00006.00781.00012.01562.00015.02319.00003.00171.00003.00342.00006.00513.00003.00781.00009.01587.00015.02393l.00003.00098c.00012.01782.00027.03564.00043.05371l.00003.00146c.00391.43774.01343.87427.0285,1.30908.01404.40527.34686.72412.74908.72412.00876,0,.01761-.00024.02643-.00049.41397-.0144.73792-.36157.7236-.77539-.01953-.56323-.02948-1.12891-.02966-1.69702-.00012-.41406-.33585-.74976-.74997-.74976h0Zm.26904,5.15723c-.026,0-.05225.00146-.07867.00415-.4118.04297-.71088.41162-.66824.82324.00018.00171.00009.00098.00024.00244.00085.00806.00168.01611.00253.02417.00018.00171.00027.00269.00046.00439.00073.00684.00146.01392.0022.02075.00015.00171.00046.00439.00061.0061.00177.0166.00354.0332.00531.05005.00018.00146.00031.00293.00049.00439.00079.00757.00156.01489.00235.02222.00018.00171.00021.00171.00037.00342.00186.01733.00369.03442.00555.05176l.0004.00342c.00089.0083.00177.01636.00269.02466l.00006.00073c.00098.00903.00195.01782.0029.02661l.00018.00171c.00089.00806.00177.01611.00269.02441.00015.00146.00012.00122.00031.00293.00192.01733.00385.03491.00577.05225l.00024.00195c.00293.02661.00592.05322.00891.07983l.00012.00122c.00507.04517.01022.09009.01541.13525h0c.00833.07227.01685.14453.02545.2168l.00012.00098c.0032.02661.00641.05322.00964.07983l.00021.00171c.00211.01733.00421.03467.00635.05225.00021.00146.00018.00146.0004.00293.00098.00806.00195.01611.00296.02417l.00018.00171c.00107.00879.00217.01733.00323.02612l.00021.00171c.00098.00806.00192.01562.0029.02344l.00055.00439c.00208.01685.00415.03345.00626.05005.00018.00171.00046.00391.00067.00562.00082.00659.00168.01318.0025.01978.00021.00171.00055.00439.00073.0061.00101.00781.00201.01562.00302.02368.00018.00171.00052.00415.00073.00586.00076.0061.00153.01221.00232.01831.0004.00317.00064.00488.00104.0083.00073.00586.00146.01147.0022.01733.00043.00317.00055.00415.00098.00732.00092.00732.00186.01465.00278.02197.00064.00488.00073.00586.00137.01074.00055.00415.00107.0083.00162.01245.00061.00488.00092.00732.00156.01221.00046.00342.00092.00708.00134.0105.00107.00806.00226.01733.00333.02563.00027.00195.00052.00415.00079.00635.00085.00635.00122.00928.00208.01587.00024.00195.00052.00391.00076.00586.00232.01782.00482.03687.00717.05469,0,.00024.00003.00049.00006.00073.01837.14014.0372.27905.05673.4187.05377.37354.37424.64331.74136.64331.03455,0,.06952-.00244.10471-.00732.41022-.05737.69635-.43628.63904-.84668-.07791-.55811-.14636-1.11914-.20517-1.68311-.04019-.3855-.36578-.67236-.74506-.67236h0Zm.80344,5.09985c-.05151,0-.10385.00537-.15628.01636-.40414.08569-.66272.48193-.57886.88623.05008.23633.10175.47168.15518.70703.00024.00098.00049.0022.00073.00317.00394.01733.00757.0332.01154.05078.00058.00244.00119.00513.00177.00757.0011.00488.00208.00928.00317.01392.00095.00415.00192.0083.00287.0127.00146.00635.00238.01025.00381.0166l.0032.01392c.00073.00317.00156.00684.00229.00977.00125.00562.0025.01099.00375.01636.00073.00317.00082.00366.00156.00684l.0054.02344c.00037.00146.00079.00342.00116.00488.00156.00684.00314.01367.0047.02051.00037.00146.0007.00293.00107.00464.00388.01685.00781.03369.01172.05054l.00046.00195c.05768.2478.11719.49487.17853.74121.0849.34106.39084.56909.7272.56909.05997,0,.12094-.00732.18176-.02246.40192-.1001.64667-.50708.5466-.90894-.13614-.54688-.263-1.09741-.3804-1.65137-.0748-.35278-.3862-.59473-.73294-.59473h0Zm1.33432,4.98633c-.07684,0-.15503.01172-.23209.03687-.39294.12769-.60837.54907-.48227.94214.02722.08374.05527.16943.08292.25293.00049.00146.00095.00293.00143.00415.0015.00464.00281.00854.0043.01318.00125.00366.00253.00757.00378.01123.00101.00317.00235.00708.00336.01025.00232.00684.00461.01392.00693.02075.00101.00317.00137.00415.00238.00732.00195.00586.00394.01172.00592.01758.00049.00171.00122.00391.00174.00537.00546.01636.01096.03271.01645.04932l.00043.00122c.14154.42334.28854.84399.44098,1.26221.11096.30444.39847.49341.70471.49341.08527,0,.17203-.01465.25681-.04565.38916-.14185.58966-.57227.44778-.96143-.19321-.53003-.37741-1.06421-.55249-1.60254-.10303-.31689-.397-.51831-.71307-.51831h0Zm1.85242,4.81836c-.10217,0-.20599.021-.3053.06519-.37747.16846-.54727.6106-.38019.98828.02457.05493.0491.10986.07385.16479.00046.00098.00092.00195.00134.00293.00259.00562.00446.00977.00705.01562.00046.00098.00095.00195.0014.00293.00391.00879.00787.01758.01178.02612.00128.00293.00256.00586.00385.00854.00131.00293.00409.00903.0054.01196.00153.00342.00305.00684.00455.01001.00195.00439.00504.01123.00699.01538.00214.00488.0043.00952.00644.0144.00131.00269.00302.00659.00433.00952l.00595.01318c.00131.00269.00272.00586.00403.00879l.00897.01978c.00131.00269.00223.00488.00354.00781l.00677.01465c.00064.00146.00278.0061.00342.00757.00314.00684.00629.01392.0094.02075.00131.00269.00162.00342.00293.00635.00235.00513.00473.01025.00708.01538.00134.00293.00247.00537.00378.0083.0029.00635.00583.0127.00873.01929l.00119.00244c.0032.00708.00641.01392.00961.021.00131.00293.00183.00391.00314.00684l.00833.01831c.00064.00122.00113.00244.0018.00391l.01007.02197c.00067.00122.00192.00415.00259.00562.00262.00562.00531.01147.00797.01709.00064.00146.00198.00439.00262.00586.0033.00708.00659.01416.00989.02148.00131.00293.00107.0022.00241.00513.00266.00586.00531.01147.00797.01733.00067.00146.00241.00513.00308.00659.0032.00708.00641.01392.00961.021.00067.00122.00162.00342.00229.00488.00269.00586.00537.01147.00809.01733.00131.00293.00183.00415.00317.00684.00278.0061.00549.01196.00827.01807.00067.00122.00143.00293.00211.00439.0032.00708.00644.01392.00964.02075.00134.00293.00226.00488.0036.00781.00223.00488.00443.00952.00665.0144.00131.00269.00235.00513.00369.00781.00308.00659.00613.01318.00922.01978.00131.00293.00259.00562.00391.00854.00211.00439.00421.00903.00632.01343.00201.00439.00217.00464.00418.00903.00299.00635.00604.01294.00903.01929.00134.00293.0029.00635.00424.00928.00183.00391.00363.00757.00546.01147.00134.00293.00381.0083.00516.01123.00168.00342.00336.00708.00504.01074.00266.00562.00607.01294.00876.01855.00146.00317.0029.00635.00436.00928.00201.00439.00403.00879.00604.01294.0011.00244.0022.00464.00327.00708.00674.01416.01392.02954.02066.04395.00104.0022.00208.00439.00308.00659.00674.01416.01486.03149.02161.04565.00058.00122.00119.00269.00177.00391.00269.00562.0047.00977.00742.01562h.00003c.0054.01147.01062.02246.01602.03394.00009.00024.00015.00024.00024.00049.0914.19312.18307.38354.27686.5752.1304.26514.39664.41919.67358.41919.11063,0,.22296-.02441.32901-.07642.3721-.18188.52618-.6311.34415-1.00317-.24799-.50708-.4874-1.0188-.71805-1.53564-.12451-.27881-.39838-.44434-.68527-.44434h0Zm2.34903,4.59692c-.12756,0-.25687.03271-.37518.10107-.35736.20703-.47998.66382-.27496,1.02173.17667.30518.35583.60718.53873.9082.00006,0,.00009,0,.00012.00024.03265.05371.06512.10693.09796.1604.00024.00049.00043.00073.00064.00098.01971.03223.03897.06372.05875.0957.00009.00024.00012.00024.00021.00024.06924.11255.13873.22437.20883.33618.14255.22607.38602.3501.63504.3501.13608,0,.27383-.03711.39761-.11475.35098-.21997.45715-.68286.23718-1.03369-.29993-.47852-.59171-.96265-.87524-1.45215-.13907-.23999-.39087-.37427-.64969-.37427h0Zm2.8179,4.32617c-.15317,0-.30774.04688-.44101.14404-.33411.24341-.4082.71094-.16608,1.04565.09415.12915.18976.25928.2851.38745.00027.00049.00055.00073.00082.00122.02243.03003.04437.05957.06686.0896.00006.00024.00018.00024.00024.00049.00375.00488.00726.00952.01102.01465.00021.00024.0004.00049.00061.00073.01126.01514.02176.0293.03302.04419.00027.00049.00055.00073.00082.00122.01126.01489.02191.02905.0332.04419.00006,0,.00021.00024.00031.00049.20505.27295.41394.54541.62442.81421.14792.18774.36761.28589.58963.28589.16171,0,.32471-.05225.46191-.15967.32611-.25537.38342-.72681.12805-1.05273-.34839-.44482-.68915-.896-1.02213-1.35303-.14682-.20166-.37521-.30859-.60681-.30859h0Zm3.25397,4.00928c-.17902,0-.35867.06372-.50208.19312-.3074.2771-.33203.75098-.05515,1.05859.00104.00122.00174.00195.00281.00317.00497.00537.00992.01099.01492.0166.00104.00098.00345.00366.00452.00488.00394.00439.00793.00879.01187.01318.00211.0022.0036.00391.00568.00635.00464.00513.00931.01025.01395.01538.00208.0022.00165.00171.00375.00415.00446.00488.00897.00977.01343.01489.00211.0022.00375.00415.00586.00635.00409.00464.00815.00903.01224.01343.00104.00122.0029.00317.00394.00439.00513.00562.01025.01123.01535.01685.00107.00122.00418.00464.00522.00586.00415.00464.00833.00928.01248.01367.00211.00244.00171.00195.00381.00415.00513.00586.01028.01147.01544.01709.00104.00122.00443.00488.00549.0061l.01135.01245c.00211.0022.00314.00342.00525.00562l.01529.01685c.00211.00244.00266.00293.00476.00537.00388.00415.00775.0083.01163.0127.00104.00098.00446.00488.00549.00586.0051.00562.01016.01123.01526.01685.00104.00122.0032.00342.00427.00464.00409.00439.00818.00903.01227.01343.00211.0022.00336.00366.00549.0061.00488.00513.00983.01074.01474.01611.00104.00098.00183.00195.0029.00293.0047.00513.00943.0105.01416.01562.00211.0022.00305.00317.00516.00562.00418.00439.0083.00903.01245.01367.00107.00098.00348.00366.00455.00488.00507.00537.01013.01099.01523.0166.00104.00098.00385.00415.00491.00537.00439.00464.00879.00952.01318.01416.00107.00122.00223.00244.00327.00366.00537.00586.01071.01172.01608.01733.00104.00122.0033.00366.00436.00488l.01291.01392c.00107.00122.0032.00366.00427.00464l.0162.01758.00296.00317c.0047.00513.00937.01025.01407.01538.00107.00122.00278.00293.00385.00415.00558.0061.01111.01196.01669.01807.00107.00098.00049.00049.00156.00171l.01501.01611c.00107.00122.00333.00366.00439.00488.01111.01196.02219.02393.03333.03589.00107.00122.00241.00269.00348.00366.01138.01245.02277.02466.03418.03687.00107.00122.00195.0022.00302.00317.01163.01245.02325.02515.03488.0376.00107.00122.00049.00049.00156.00171.00562.00586.01126.01196.01685.01807l.00119.00122c.00595.00635.0119.0127.01788.01904l.00122.00146c.00558.00586.01123.01196.01685.01807.00107.00098.00043.00024.0015.00146.01205.01294.02411.02588.03616.03857l.0011.00122c.01202.01294.02411.02588.03616.03857l.00143.00146.03635.03882c.00107.00098-.00031-.00049.00076.00073.03107.03296.06213.06592.09326.09888h.00003c.01242.01318.02487.02637.03732.03931l.00043.00049c.0123.01294.02463.02612.03696.03906l.00089.00098c.01236.01294.02469.02588.03705.03882l.00037.00049c.01242.01294.0249.02612.03732.03906l.00037.00049c.01865.01953.03732.03906.05597.05859l.00067.00049c.01224.01294.02444.02563.03668.03833.00107.00122.00049.00049.00159.00171.01187.01245.02374.02466.03561.03711l.00299.00317c.00558.00562.01114.01147.01669.01733l.00095.00098c.00568.00586.01138.01172.01706.01758.00107.00122.00284.00293.00391.00415l.01483.01538c.00107.00098.00146.00146.00253.00269.00549.00562.01102.01123.01651.01709.00107.00098.00394.00391.00504.00513.00397.00415.00797.0083.01193.01245.0011.00098.00314.00317.00421.00415.14709.1521.34286.22827.53891.22827.18771,0,.37564-.06982.52124-.21069.29779-.28784.30579-.7627.01785-1.06055-.39288-.40625-.77875-.81958-1.15738-1.23926-.14807-.16431-.35223-.2478-.55719-.2478h0Zm3.65335,3.64917c-.20523,0-.40961.08374-.55771.24829-.27686.30762-.2522.78125.05493,1.05835.00464.00439.00854.00781.01318.01196.0004.00049.00079.00073.00119.00098.00464.00439.00858.00781.01321.01196l.00156.00146c.00931.0083.017.01514.02631.02368.00018,0,.00037.00024.00055.00049.00467.00415.00806.00708.0127.01123l.0032.00293c.01282.01147.02548.02295.0383.03442.00122.00098.00241.00195.0036.00317.01166.0105.02615.02319.03781.03369.00131.00122.00262.00244.00397.00366.01282.01147.02634.02344.03918.03491.00058.00049.00116.00098.00171.00146.01401.01245.02686.02393.04089.03638.00024.00024.00052.00049.00076.00073.35663.31689.71875.62964,1.08438.93628.14008.11646.31009.17334.47922.17334.21402,0,.42661-.09106.57492-.26782.26624-.31738.22485-.79028-.09247-1.05664-.43314-.36353-.85983-.73438-1.27991-1.1123-.14334-.12915-.32272-.19263-.5015-.19263h0Zm4.01279,3.24951c-.23184,0-.46054.10718-.60727.30908-.24347.33496-.16946.80371.16534,1.04736.00125.00098.00302.0022.0043.00317.00452.00317.00903.00659.01358.00977.00253.00195.00525.00391.00778.00562.00443.00342.00885.00659.01328.00977.00381.00269.00906.00659.01285.00928.00314.0022.00632.00464.00943.00684.00381.00269.00717.00513.01099.00806.00177.00122.00354.00244.00534.00391.01395.01001.02753.01978.0415.03003.00037.00024.00073.00049.00113.00073.43329.31299.86966.61792,1.3132.91724.12827.08594.27353.1272.41727.1272.24084,0,.47742-.11572.62231-.33032.23175-.34351.1413-.80957-.20203-1.04126-.46878-.31641-.9317-.64087-1.38864-.97314-.13318-.09668-.28745-.14331-.44037-.14331h0Zm4.32907,2.81323c-.25909.00024-.51114.13452-.65009.375-.20673.35791-.08505.81519.27161,1.02319.50565.29224,1.01569.5752,1.53232.8501.11188.05908.2319.08716.35028.08716.26837,0,.52792-.14429.66278-.39771.19455-.36572.05585-.81982-.30984-1.0144-.49942-.26587-.99368-.54004-1.48251-.82251-.11819-.06836-.24719-.10083-.37454-.10083h0Zm4.59909,2.34473c-.28717,0-.56125.16577-.68558.44507-.16849.37842.00171.82178.38013.99023.24075.10718.48254.21265.72528.31592l.0004.00024.04816.02051c.00146.00073.00214.00098.0036.00146.01547.00659.03101.01318.04651.01978.00146.00073.0033.00146.00476.00195l.02069.00879c.00146.00073.00095.00049.00241.00098.00754.00342.01511.00659.02264.00977.00146.00049.004.00171.00546.0022l.0174.00732c.00146.00073.00507.0022.00653.00269.00714.00317.01425.0061.02139.00903.00293.00122.00305.00146.00598.00269.00528.0022.01059.00439.01587.00659.00293.00122.00558.00244.00851.00366.00595.00244.01202.00488.01797.00757.00293.00122.0058.00244.00873.00366.00516.0022.01031.00415.01544.00635.00293.00122.00671.00293.00964.00415.00452.00195.00909.00366.01364.00562.00293.00122.00629.00269.00922.00391.0062.00269.0123.00513.01846.00781.00439.00171.00577.0022.01016.00415.00415.00171.00833.00342.01248.00513.00293.00122.00665.00293.00961.00415.00635.00269.01273.00537.0191.00781.00439.00195.0061.00269.0105.00439.00381.00171.00766.00317.01147.00488.00293.00122.00757.00317.0105.00439.00452.00171.00903.00366.01358.00562.00438.00171.01172.00488.01611.00659.0036.00146.0072.00317.01077.00464.00296.00122.00888.00366.01181.00488.00314.00122.00635.00244.00949.00391.00586.00244.01431.00586.02017.0083.00333.00146.00659.00269.00992.00415.00443.00171.00745.00293.01184.00488.00336.00122.00668.00269.01004.00415.00443.00171.00732.00293.01172.00488.0061.00244.01218.00488.01828.00732.00439.00195.00729.00317.01169.00488.0032.00146.00638.00269.00958.00391.00439.00195.00778.00317.01218.00513.00363.00146.00717.00293.0108.00439.00586.00244.01276.00537.01862.00757.00354.00146.00699.00293.01053.00439.00293.00122.00858.00366.01154.00464.00372.00171.00739.00317.01111.00464.00589.00244.01147.00464.01736.00708.00388.00171.00772.00317.0116.00488.00443.00171.00681.00269.0112.00439.004.00171.00793.00342.0119.00488.00296.00122.00687.00293.00983.00415.00632.00244.0127.00513.01904.00781.00443.00171.00656.00269.01099.00439.00369.00146.00735.00293.01105.00439.00439.00195.00623.00269.01065.00439.0058.00244.01166.00488.01746.00708.00296.00122.00882.00366.01178.00488.00406.00171.00806.00317.01212.00488.00296.00122.00732.00293.01025.00415.00488.00195.00974.00391.01462.00586.00293.00122.00949.00391.01245.00513.00485.00195.00964.00391.0145.00586.00293.00122.00684.00269.0098.00391.00446.00195.00891.00366.01337.00537.00296.00122.00433.00171.00729.00293.09186.03711.18668.05469.28.05469.29675,0,.57779-.17749.69571-.46948.15506-.38403-.03061-.82129-.41467-.97632-.52481-.21191-1.04504-.43262-1.56052-.66211-.09915-.04419-.2027-.06494-.30463-.06494h0Zm4.81961,1.84814c-.31638,0-.61053.20166-.71332.5188-.12766.39404.08826.81714.4823.94482.22464.07275.44992.14404.67593.21362l.00055.00024c.01709.00513.03415.0105.05124.01562l.00198.00073c.00751.0022.01501.00464.02252.00684.00156.00049.0022.00073.00372.00122.00812.00244.01627.00488.02438.00732l.00113.00049c.00732.0022.01465.00439.02194.00659.00308.00098.0036.00122.00665.0022.0062.00171.01239.00366.01855.00562.00156.00049.00388.00122.0054.00146.00726.00244.01453.00464.02179.00684.00308.00073.00565.00171.0087.00269.00461.00122.00922.00269.01382.00415.00308.00098.00705.00195.0101.00293.00662.00195.01318.00415.01981.0061.00461.00146.00684.00195.01144.00342.00357.00098.00708.0022.01065.00317.00461.00146.00824.00244.01285.00391.00275.00098.00549.00171.00827.00244.00922.00293.01624.00488.02545.00781.00204.00049.00409.00122.00613.00171.00461.00146.01028.00317.01489.00464.00204.00049.00406.00122.0061.00171.01691.00513.03357.01025.05048.01514.00067.00024.00134.00049.00204.00073.20602.06177.41086.12158.61798.18066.0679.01929.13626.02832.20352.02832.32642,0,.62671-.21484.72079-.54419.11374-.39844-.11691-.81348-.51523-.92725-.54437-.15527-1.08487-.32007-1.62125-.4939-.07681-.0249-.15472-.03662-.23135-.03662h0Zm4.98709,1.32983c-.34702,0-.65863.24219-.73309.59546-.08524.40405.17242.80103.5759.88794.08572.01807.16879.03516.25467.05298.0014.00024.00287.00049.00427.00073.00635.00146.01019.0022.01657.00342.00159.00049.0032.00073.00479.00098.00797.00171.01727.00366.02524.00513.00409.00098.00824.00171.01236.00269.00317.00049.00745.00146.01062.0022.00577.00098.01157.0022.01733.00342.00159.00024.00381.00073.0054.00122.00793.00146.01593.00317.02386.00464.00159.00049.00339.00073.00497.00122.00717.00146.01428.00269.02145.00415.00159.00049.00165.00049.00327.00073.0174.00366.03485.00708.05228.0105h.00015c.41904.08447.83997.16357,1.26266.2373.04364.00757.08698.01123.12982.01123.35764,0,.67435-.25684.73795-.62134.0712-.40796-.20187-.79639-.60992-.86768-.55835-.09741-1.11343-.20435-1.66504-.32056-.05222-.01123-.10422-.01636-.15552-.01636h0Zm5.10056.79858c-.37955,0-.70526.28711-.74509.67285-.04245.41113.25562.77881.6662.82275.32852.03394.66199.06519.99234.09253l.00595.00073c.00497.00024.01056.00073.01553.00122.00278.00024.00565.00049.00845.00073.00827.00049.0144.00122.02267.00171.00415.00049.00821.00073.01236.00098.00494.00049.00653.00073.01151.00098.00446.00049.00894.00073.01343.00122.00494.00024.00537.00049.01035.00073.00757.00073.01514.00122.02274.00195.00165,0,.00351.00024.00516.00049.00656.00049.01306.00098.01962.00146.00333.00024.00394.00024.00723.00049.00717.00073.01437.00122.02155.00171l.00266.00024c.00876.00073.01755.00146.02631.0022h.00107c.00861.00073.01727.00146.02588.0022h.0011c.17252.01343.34525.02612.51828.03809.0174.00122.03464.00171.05185.00171.3909,0,.72046-.30298.7475-.69897.0282-.41309-.28394-.771-.6972-.79932-.56586-.03857-1.12906-.08691-1.68948-.14478-.02618-.00269-.05215-.00415-.07794-.00391h0Zm6.88165.23218c-.00885,0-.01779.00024-.0267.00049-.5632.01978-1.12888.02979-1.69684.03027-.41422.00024-.74976.33618-.74948.75049.00024.41406.33597.74951.74997.74951h.00052c.58517-.00049,1.168-.01074,1.74829-.03125.41397-.0144.73779-.36157.7233-.77563-.01416-.40503-.34692-.72388-.74905-.72388h0Zm5.14417-.44824c-.03461,0-.0697.00244-.10495.00732-.55804.07812-1.11911.14697-1.68307.20581-.41196.04321-.711.41211-.66788.82397.04031.3855.36584.67212.74503.67212.0256,0,.05145-.00146.07748-.00391.00327-.00049.00513-.00073.00839-.00098.00049,0,.00101-.00024.00146-.00024.01147-.00122.01987-.00195.03137-.00317.00293-.00049.00589-.00073.00885-.00098.00491-.00049.00812-.00098.01306-.00146.00409-.00024.00827-.00073.01239-.00122.00327-.00049.00714-.00073.01044-.00122.00745-.00073.01489-.00146.02237-.0022.00327-.00049.00403-.00049.00729-.00098.00616-.00049.0123-.00122.01846-.00195.0033-.00024.00308-.00024.00635-.00049.01694-.00195.03378-.00366.05072-.00562.00165-.00024.00076,0,.00241-.00024.00824-.00098.01651-.00171.02475-.00269l.0015-.00024c.23544-.02563.4704-.05298.70483-.08179.00165-.00024-.00037,0,.00125-.00024.01736-.00195.03476-.00415.05212-.00635.00165-.00024.00195-.00024.00357-.00049.008-.00098.01602-.00195.02405-.00293l.00146-.00024c.00861-.00098.01724-.0022.02585-.00317l.00323-.00049c.00696-.00098.01395-.00171.0209-.00269.00162-.00024.00534-.00049.00696-.00073.00674-.00098.01343-.00171.02017-.00269.00162-.00024.00317-.00024.00482-.00049.0076-.00098.01517-.00195.0228-.00293.00327-.00049.00543-.00073.0087-.00122.005-.00049.00995-.00122.01495-.00171.00327-.00049.00687-.00098.01013-.00146.0058-.00073.01169-.00146.01749-.0022.00488-.00073.0105-.00122.01538-.00195.00375-.00049.00754-.00098.01126-.00146.00327-.00049.01053-.00146.01379-.00171.00259-.00049.00516-.00073.00775-.00098.0163-.0022.03406-.00439.05035-.00659.00186-.00024.00366-.00049.00552-.00073.15805-.02051.31421-.04175.4718-.06372.40884-.05884.69351-.43701.6362-.84644-.05249-.375-.37369-.64624-.74179-.64624h0Zm5.06705-.98315c-.06003,0-.12109.00708-.18201.02246-.54678.13623-1.09726.26318-1.65121.38086-.40518.08594-.66394.48413-.57791.8894.07486.35278.38626.59448.73288.59448.05161,0,.104-.00537.15652-.0166.0618-.01318.1236-.02637.18533-.03979.00156-.00024.00201-.00024.0036-.00073.01633-.00342.03268-.00708.04901-.0105.00159-.00049.00488-.00122.00647-.00146.00607-.00122.01221-.00269.01831-.00391.00317-.00073.00363-.00098.00681-.00146.00735-.00171.01465-.00342.022-.00488.00317-.00073.0062-.00146.00937-.0022.00452-.00098.009-.00195.01352-.00293.00317-.00049.00803-.00171.0112-.00244.00421-.00073.00845-.00171.01266-.00269.00632-.00146.01349-.00293.01981-.00439.00339-.00073.00684-.00146.01022-.0022.00473-.00098.00876-.00195.01352-.00293.00293-.00073.00586-.00146.00879-.00195.01584-.00366.03229-.00708.0481-.01074.00195-.00049.00391-.00073.00583-.00122.00476-.00098.01166-.00269.01639-.00366h.00003c.01108-.00244.02396-.00537.03503-.00781.00131-.00024.00262-.00049.00394-.00098.00635-.00122.01019-.0022.01654-.00366.00134-.00024.00272-.00049.00409-.00073.01736-.00391.03455-.00781.05194-.01172.0014-.00024.00284-.00073.00424-.00098.01898-.00415.03452-.00781.05347-.01196.00067-.00024.00134-.00049.00201-.00049.00632-.00146.01163-.00269.01794-.00415.00049,0,.00095-.00024.00143-.00024.01895-.00439.03467-.00781.05362-.01221.00153-.00024.00308-.00073.00461-.00098.01578-.00366.0361-.0083.05188-.01196.00131-.00024.00253-.00049.00381-.00073.00632-.00146.01004-.00244.01636-.00391.00159-.00024.00317-.00073.00476-.00098.00949-.0022.02243-.00513.03189-.00732.00101-.00024.00195-.00049.00296-.00073.00473-.00098.01053-.00244.01526-.00342.00238-.00073.00476-.00122.00717-.00171.00473-.00122.00995-.00244.01468-.00342.00204-.00049.00412-.00098.00616-.00146.00946-.0022.01648-.00366.02594-.00586.00311-.00073.00623-.00146.00937-.0022s.00995-.00244.01312-.00317c.00391-.00073.00781-.00171.01172-.00269.00473-.00098.01111-.00244.01584-.00366.00507-.00122.0101-.00244.01517-.00342.00314-.00073.00754-.00195.01068-.00269.00467-.00098.00943-.0022.0141-.00317.00314-.00073.00577-.00146.00891-.0022.00739-.00171.01477-.00342.02213-.00513.00314-.00073.00363-.00073.00677-.00146.00577-.00146.01157-.00269.01736-.00415.00314-.00073.00427-.00098.00745-.00171.00742-.00171.01486-.00342.02231-.00537l.00137-.00024c.00809-.00195.0162-.00391.02429-.00562.00159-.00049.00299-.00073.00455-.00122.0076-.00171.01511-.00342.02267-.00537l.00174-.00024c.01755-.00415.03503-.0083.05255-.01245l.00015-.00024c.17688-.04199.35345-.08496.5296-.12891.40192-.1001.64651-.50708.5463-.90918-.08499-.34106-.39087-.5686-.72714-.5686h0Zm4.93576-1.51147c-.08536,0-.17221.01465-.25705.04565-.52991.19336-1.06418.37769-1.60254.55298-.39386.12817-.60922.55151-.48102.94531.10312.31689.397.51807.71301.51807.0762,0,.15378-.01172.23016-.03638.04871-.01587.09592-.03125.14456-.04712.00195-.00073.00388-.00146.00583-.00195.0061-.00195.00806-.00269.01413-.00464.0033-.00122.00656-.0022.00983-.00342.0061-.00195.01129-.00366.01736-.00562.00464-.00146.00919-.00293.01382-.00464.00305-.00098.00714-.0022.01019-.00317.00522-.00195.01044-.00366.01569-.00537.00302-.00098.0032-.00098.00626-.00195.00772-.00269.01544-.00513.02319-.00781l.0036-.00122c.00723-.0022.01447-.00464.0217-.00708.00153-.00049.0014-.00049.00293-.00098.31934-.1062.63733-.21533.95377-.32764.00153-.00049.00122-.00049.00272-.00098.00757-.00269.01511-.00537.02267-.00806l.00195-.00073c.00781-.00269.01569-.00562.0235-.0083.0015-.00049.00412-.00146.00562-.0022.00568-.00195.01138-.00391.01706-.00586.0015-.00073.00653-.00244.00803-.00293.00604-.0022.01212-.00439.01816-.00659.00452-.00146.00803-.00269.01251-.00439.00375-.00146.00745-.00269.0112-.00391.00302-.00122.00952-.00342.01251-.00464.00278-.00098.00552-.00195.0083-.00293.01053-.00366.01947-.00708.02997-.01074.00015,0,.00034-.00024.00046-.00024.00601-.0022.01193-.00415.01791-.00635h.00012c.07358-.02661.14838-.05371.2218-.08032.3873-.14307.58633-.57251.44467-.96069-.11102-.30444-.39844-.49316-.70459-.49316h0Zm4.7489-2.02271c-.11069,0-.22311.02466-.32922.07666-.50687.24805-1.01871.48779-1.53531.71851-.37817.16895-.54776.61255-.37878.99072.12457.27881.39835.44434.68518.44434.10141,0,.20453-.02075.30316-.06445.51373-.22949,1.02118-.46655,1.52557-.71265l.00146-.00073c.00568-.00293.01028-.00513.01596-.00781.00107-.00049.00223-.00122.0033-.00171.00711-.00342.01709-.0083.0242-.01172.0032-.00171.00644-.00317.00964-.00488.00143-.00073.0047-.0022.00613-.00293.37131-.18237.52484-.6311.34286-1.00293-.13019-.26587-.39679-.42041-.67416-.42041h0Zm4.51114-2.51025c-.13617,0-.27399.03711-.39786.11475-.47839.30005-.96237.59204-1.45178.87573-.35837.20776-.4805.6665-.2728,1.0249.1391.23999.39084.37402.6496.37402.12762,0,.25702-.03247.3754-.10107.02362-.01392.04727-.02759.07086-.04126h.00009c.01556-.00903.03122-.01831.04678-.02734.00134-.00073-.00034.00024.00101-.00049.01529-.00903.03058-.01782.04587-.02686l.00214-.00122c.00674-.00391.01349-.00781.02023-.01196.00137-.00073.00168-.00098.00302-.00171.00739-.00439.01474-.00854.02213-.01294l.00143-.00073c.0069-.00415.01373-.00806.02063-.01221.00134-.00073.00183-.00098.0032-.00195.00739-.00415.0148-.00854.02222-.01294l.00024-.00024c.00696-.00391.01389-.00806.02084-.01221.00272-.00146.00229-.00122.005-.00293.0141-.0083.02817-.0166.04227-.0249.00134-.00073.00391-.0022.00528-.00317.0061-.00342.01221-.00708.01834-.01074.00134-.00073.00165-.00098.00299-.00171.00708-.00415.01413-.0083.02118-.0127.00137-.00073.00311-.00171.00446-.00244.00604-.00366.01205-.00732.01807-.01074.00137-.00073.00241-.00146.00375-.0022l.02115-.01245.004-.00244c.00589-.00366.01178-.00708.01767-.0105.00134-.00073.00375-.0022.0051-.00317.00699-.00415.01395-.00806.02094-.01221.00134-.00098.00082-.00073.0022-.00146.00641-.00366.01285-.00757.01926-.01147.00137-.00073.00323-.00195.00458-.00269.01428-.00854.02859-.01709.04285-.02539.00137-.00098.00308-.00195.00446-.00269.00656-.00391.01318-.00806.01974-.01196.00134-.00073.00027,0,.00165-.00098.00729-.00415.01456-.00854.02185-.01294.00134-.00073.00174-.00098.00311-.00195.00665-.00391.01337-.00806.02002-.01196l.00223-.00122c.00751-.00464.01501-.00903.02252-.01367l.00073-.00024c.00708-.00439.01422-.00854.02133-.01294.00134-.00073.00116-.00073.00253-.00146.01486-.00903.02972-.01782.04459-.02686.00134-.00073.00104-.00049.00238-.00146.01492-.00879.02988-.01782.0448-.02686l.0018-.00122c.01523-.00903.03043-.01831.04565-.02759l.00046-.00024c.10886-.06567.21747-.13208.32574-.19873.00134-.00073-.00076.00049.00058-.00024.01523-.00928.03046-.0188.04568-.02808l.0011-.00073c.01501-.00928.03003-.01855.04501-.02783.00134-.00073.00082-.00049.00214-.00122.01471-.00903.02942-.01831.0441-.02734.00131-.00073.00162-.00098.00296-.00195.0065-.00391.01303-.00806.01953-.01196l.00278-.00171c.00696-.00439.01398-.00879.02094-.01294.00269-.00171.00186-.00122.00455-.00293l.01666-.01025c.00134-.00098.00403-.00269.00534-.00342.00674-.00415.01346-.0083.02017-.0127.00134-.00073.00308-.00171.00439-.00269.00522-.00317.0105-.00635.01572-.00977.00266-.00171.00522-.00317.00787-.00488.00464-.00293.00919-.00562.01379-.00854.00266-.00171.00867-.00537.01135-.00708.00421-.00269.00839-.00537.01263-.00781l.01062-.00684c.00269-.00171.00546-.00342.00812-.00513.00934-.00562.01697-.0105.02628-.01636.00027-.00024.00052-.00024.00079-.00049.00531-.00342.00928-.00586.01462-.00903.00085-.00073.00174-.00122.00262-.00171.004-.00244.00812-.00513.01212-.00757.34998-.22046.45551-.68262.23566-1.0332-.14243-.22705-.38647-.35156-.63605-.35156h0Zm4.22461-2.96826c-.1618,0-.32486.05225-.4621.15967-.4447.34863-.89563.68945-1.35263,1.02271-.33472.2439-.40823.71313-.16422,1.04785.14682.20142.37512.30811.60666.30811.15323,0,.30789-.04688.44119-.14404.05148-.03735.10294-.0752.15427-.11279h.00012c.01453-.01074.02902-.02148.04352-.03223l.00092-.00049c.01425-.0105.02856-.02124.04279-.03174.00125-.00073.00043-.00024.00168-.00122.0069-.00488.01373-.01001.02063-.01514l.00055-.00049.02078-.01538c.00125-.00073.00171-.00122.00299-.0022.00595-.00439.0119-.00879.01782-.01318.00128-.00098.00192-.00146.0032-.0022.00659-.00488.01321-.01001.01981-.01489.00125-.00073.0025-.00171.00375-.00269.00534-.00391.01065-.00781.01599-.01196.00125-.00073.00433-.00317.00558-.00415l.01895-.01392c.00125-.00098.00204-.00146.0033-.00244l.01584-.01172c.0025-.00195.00388-.00293.00638-.00488.00574-.00415.01144-.00854.01718-.0127.00125-.00098.00314-.00244.00439-.00342l.01584-.01172c.0025-.00195.00513-.00391.00766-.00562.00421-.00317.00845-.00635.01266-.00952.00253-.00195.00443-.00342.00693-.00513.00552-.00415.01111-.0083.01663-.01245.0025-.00195.00552-.00415.00803-.0061.00385-.00293.00772-.00586.01157-.00854.0025-.00195.00558-.00415.00812-.0061.00531-.00391.01068-.00806.01602-.01196.00375-.00293.00638-.00488.01013-.00757.00278-.0022.00555-.00415.00833-.00635.00375-.00293.0065-.00488.01025-.00781.00262-.00195.00528-.00391.0079-.00586.00626-.00464.01291-.00952.01917-.0144.00198-.00146.004-.00293.00598-.00439.00375-.00293.00858-.00635.01233-.00928.00073-.00049.00153-.00122.00229-.00171.00876-.00659.01776-.01343.02652-.02002.00073-.00049.00146-.00098.0022-.00171.005-.00366.00912-.00684.01413-.0105.00034-.00024.00061-.00049.00092-.00073.03003-.02271.0592-.04468.08917-.06738.00012,0,.00024-.00024.00037-.00024.14487-.10986.28784-.21924.43146-.33057l.00311-.0022c.00745-.00586.01669-.01294.02411-.0188.00134-.00098.00272-.0022.00406-.00317.00372-.00293.00708-.00537.0108-.0083.00259-.00195.00519-.00415.00775-.0061.00372-.00293.00677-.00513.0105-.00806.00516-.00415.01028-.00806.01544-.01196.00372-.00293.00519-.00415.00888-.00708.00342-.00269.00684-.00513.01025-.00781.00247-.00195.00565-.00439.00812-.00635.00577-.00464.01151-.00903.01724-.01343.00247-.00195.00275-.0022.00522-.00415.00488-.00366.00977-.00757.01465-.01147.00247-.00195.00287-.0022.00534-.00415.01331-.01025.02658-.02075.03989-.03101l.00168-.00146c.01404-.01099.02811-.02197.04214-.03296.32605-.25537.38321-.72681.12772-1.05298-.14795-.18872-.36826-.28735-.59085-.28735h0Zm3.8931-3.39209c-.18777,0-.37582.07007-.52142.21094-.40625.39307-.81931.77905-1.23901,1.15771-.30753.27759-.33182.75195-.05432,1.05933.14807.16406.35214.24756.55704.24756.17911,0,.3588-.06372.50223-.19336.27029-.2439.53784-.49048.8027-.74023l.00055-.00049c.00653-.0061.01306-.01245.01959-.01855l.00024-.00024c.00607-.00562.01212-.01147.01819-.01709.00113-.00098.00137-.00122.0025-.00244.0062-.00586.01242-.01172.01862-.01758.00113-.00098-.00006,0,.00107-.00098.00549-.00513.01102-.0105.01654-.01562.00113-.00098.00354-.00342.00467-.00439.00583-.00562.01166-.01099.01746-.0166l.0011-.00098c.00522-.00488.01041-.01001.01562-.01489.00226-.0022.00455-.00415.00681-.00635.00388-.00366.00772-.00732.0116-.01099.00342-.00342.0054-.00513.00882-.00854.00397-.00366.00797-.00757.01193-.01123.00339-.00317.00574-.00537.00912-.00879.0025-.0022.005-.00464.00748-.00708.00568-.00537.0097-.00928.01538-.01465.0025-.00244.00507-.00488.0076-.00708.00339-.00342.00681-.00659.01019-.00977.00208-.00195.00412-.00391.00616-.00586.01245-.01196.02475-.02368.0372-.03564.00021-.00024.0004-.00024.00061-.00049.07574-.07251.15198-.14575.22729-.21851.29575-.28833.30292-.76172.01553-1.05859-.14716-.1521-.34299-.22852-.53909-.22852h0Zm3.51944-3.77856c-.21411,0-.42676.09131-.5751.26807-.36328.43335-.73401.86011-1.11194,1.28027-.27701.30811-.25189.78223.05606,1.05933.14334.12891.32263.19238.50131.19238.20422,0,.40765-.08301.55554-.24585.14334-.15942.28485-.31885.42615-.47998.00052-.00049.00107-.00122.00159-.00171.01239-.01416.02246-.02563.03482-.03979.00098-.00098.00192-.0022.00287-.00317.01031-.01196.02274-.02612.03302-.03784.0015-.00171.00302-.00342.00452-.00513.00308-.00366.00702-.00806.0101-.01172.00101-.00122.00195-.0022.00296-.00342.00616-.00708.01178-.01343.01794-.02051.00204-.00244.00409-.00464.00616-.00708.00308-.00342.00592-.00684.009-.01025.00208-.00244.00418-.00488.00629-.00732.00409-.00464.01041-.01196.01453-.0166l.00687-.00806c.00204-.0022.00641-.00732.00845-.00977.00256-.00293.0051-.00586.00766-.00879.00308-.00342.00803-.00928.01111-.0127.00314-.00366.00638-.00732.00955-.01099.00204-.00244.00513-.0061.0072-.0083l.00934-.01099c.00204-.0022.00412-.00464.00616-.00708.00455-.00513.00906-.0105.01361-.01562.00305-.00366.00412-.00488.0072-.0083l.00879-.01025c.00204-.00244.00446-.00513.0065-.00757.00458-.00513.00916-.0105.01373-.01587.00204-.00244.00479-.00562.00684-.00781.00296-.00342.00592-.00708.00888-.0105.00305-.00342.00385-.00439.00693-.00781.00449-.00537.009-.0105.01352-.01587.00204-.0022.00479-.00562.00684-.00781.00284-.00342.00571-.00659.00858-.01001.00201-.00244.00513-.00586.00717-.0083.00327-.00391.0065-.00757.00977-.01147.00305-.00342.00696-.00806.01001-.01172.00314-.00342.00623-.00708.00937-.01074.00204-.00244.0047-.00562.00674-.00781.00311-.00366.00629-.00732.00943-.01099.00305-.00366.00671-.00806.00977-.01147.00327-.00391.00653-.00757.0098-.01147.00201-.00244.00504-.00586.00708-.0083l.00879-.01025c.00305-.00342.00571-.00659.00876-.01025.00375-.00439.00745-.00879.0112-.01294.00305-.00366.00473-.00562.00778-.00928.00244-.00293.00488-.00562.00732-.00854.00305-.00366.00479-.00562.00784-.00928.00433-.00488.00861-.01001.01291-.01514.00305-.00342.00464-.00537.00769-.00903.00253-.00293.0051-.00586.00763-.00879.00305-.00366.00467-.00562.00772-.00903.00439-.00513.00876-.01025.01315-.01562.00204-.0022.0051-.00586.00711-.0083.00253-.00293.00513-.0061.00766-.00903.00302-.00342.0051-.00586.00815-.00952.00272-.00317.00537-.00635.00809-.00952.00406-.00488.00784-.00928.0119-.01392.00259-.00317.00525-.00635.00784-.00928.00201-.00244.00595-.00708.00797-.00952.00253-.00293.00507-.00586.0076-.00903.00406-.00464.00833-.00977.01236-.0144.00259-.00317.0051-.0061.00769-.00928.00302-.00342.00522-.0061.00824-.00977.00232-.00269.00461-.00537.0069-.00806.00507-.00586.00946-.01123.0145-.01709.00198-.00244.00394-.00464.00592-.00708.00302-.00366.00592-.00708.00894-.0105.00195-.00244.00391-.00464.00586-.00708.01007-.01196.02042-.02417.03052-.03613.00156-.00195.00317-.00391.00476-.00562.00302-.00366.00674-.00806.00977-.01172.00049-.00049.00092-.00098.0014-.00171.00705-.0083.01334-.01587.02039-.02417.00128-.00146.00256-.00293.00385-.00464.004-.00464.00647-.00757.0105-.01245.0004-.00049.00079-.00098.00116-.00146.00403-.00464.00845-.01001.01245-.01465.26535-.31763.2236-.79004-.09351-1.05591-.1405-.11768-.31146-.17529-.48151-.17529h0Zm3.10696-4.12402c-.24094,0-.47757.11597-.62247.33081-.31625.46875-.64047.93188-.97251,1.38892-.24343.33521-.16912.8042.166,1.04761.13315.09668.28735.14331.44022.14331.23132,0,.45944-.10669.60623-.30762.07739-.10669.15405-.21313.23062-.32007.00061-.00098.00122-.00171.00183-.00269.01004-.01392.02002-.02808.03003-.04199l.00357-.00513c.00272-.00366.00607-.00854.00879-.01221.00171-.00244.00339-.00488.0051-.00732.00455-.00635.00861-.01196.01315-.01831.0022-.00317.00436-.00635.00659-.00928.00272-.00391.0043-.0061.00702-.01001.00275-.00391.00543-.00757.00818-.01147.00272-.00391.00674-.00952.00946-.01318.00266-.00391.00531-.00757.00797-.01123.0018-.00269.00391-.00562.00574-.0083.00339-.00464.00677-.00952.01016-.01416.00183-.00269.00412-.00586.00592-.00854.00351-.00488.00702-.00977.01053-.01489.00183-.00244.0032-.00439.005-.00708.00354-.00488.00708-.00977.01059-.01489.00092-.00122.00232-.00317.0032-.00439.00455-.00659.00906-.01294.01361-.01929.00089-.00122.00275-.00391.00366-.00537l.01144-.01611c.0018-.00244.00119-.00171.00299-.00415.0047-.00684.00937-.01343.01407-.02002.00089-.00122.0015-.0022.00241-.00342.00415-.00586.00824-.01172.01242-.01758.00089-.00146.00168-.00244.00259-.00391.00488-.00684.00974-.01367.01462-.02075l.00055-.00073c.00476-.00684.00949-.01343.01425-.02026.00089-.00122.00098-.00146.00189-.00269.00983-.01416.01965-.02808.02948-.04199l.00198-.00293c.01001-.0144.01999-.02856.03-.04297l.00082-.00098c.01025-.01489.02051-.02954.03076-.04419l.00009-.00024c.06235-.08936.12442-.17896.18622-.26904l.0004-.00049c.01007-.01465.02011-.0293.03015-.04395.00089-.00122.00021-.00024.0011-.00146.00977-.0144.01959-.02881.02936-.04297.00089-.00122.00119-.00171.00208-.00317.00946-.01367.01886-.02759.02829-.04126.00089-.00122.00247-.00366.00336-.00488.00388-.00586.00775-.01147.01163-.01709.00089-.00122.00171-.00244.00259-.00391.00427-.0061.00861-.01245.01288-.0188.00089-.00122.00397-.00586.00485-.00708.00308-.00464.00613-.00903.00922-.01367.00177-.00244.00272-.00391.00449-.00659.00406-.00586.00812-.01196.01218-.01782.00177-.00269.00412-.0061.00589-.00879.00244-.00342.00485-.00708.00729-.01074.00266-.00391.00388-.00562.0065-.00952.00229-.00342.00458-.00684.00684-.01001.00443-.00659.00793-.01172.01236-.01831.00137-.00195.00278-.00415.00415-.0061.00266-.00391.00607-.00903.0087-.01294.00067-.00098.00131-.00195.00198-.00293.00616-.00903.0126-.01855.01874-.02759.00037-.00049.0007-.00098.00107-.00171.00702-.01025.01398-.02051.021-.03101.23065-.34326.13989-.80859-.20316-1.04004-.1286-.08667-.27441-.12842-.4187-.12842h0Zm2.65909-4.42529c-.26843,0-.52811.14453-.6629.39819-.26553.49951-.53958.99365-.8219,1.48267-.20709.35864-.0842.81738.27451,1.02466.11813.06812.24707.10059.37433.10059.25919,0,.51129-.13452.65021-.37524.18643-.32275.36935-.64795.54874-.97534l.00009-.00024c.0087-.01587.01733-.03174.026-.04761l.0004-.00073c.00861-.01562.01715-.03125.0257-.04712l.00073-.00122c.00403-.00732.00806-.01465.01205-.02222l.00082-.00146c.00421-.00781.00839-.01538.0126-.02319l.00061-.00098c.00381-.00708.00763-.01416.01147-.02124.00073-.00122.00122-.0022.00198-.00366.00406-.00732.00812-.01489.01218-.02246h.00003c.00388-.00708.00772-.01416.01157-.02124.00153-.00293.00125-.00244.00275-.00513.00381-.00708.00763-.01416.01141-.02124l.00034-.00049c.00385-.00708.00763-.01416.01144-.02124.0015-.00269.00192-.00342.00342-.00635l.00952-.01758c.00076-.00146.00125-.00244.00201-.00366.00375-.00708.00751-.01392.01126-.021.00073-.00146.00262-.00488.00339-.00635.00287-.00513.00571-.0105.00854-.01587.0015-.00269.00189-.00342.00339-.0061.00357-.00684.0072-.01343.01077-.02002.00146-.00293.00217-.00415.00366-.00684.00266-.00513.00528-.01001.00793-.01489.0015-.00269.00244-.00464.00394-.00732.00357-.00659.00711-.01318.01068-.02002.00073-.00122.00235-.00439.00308-.00562.00278-.00513.00555-.0105.00833-.01562.0015-.00269.00278-.00513.00427-.00806.00272-.00488.0054-.01001.00812-.01514.0015-.00269.00342-.00635.00488-.00903.00287-.00537.00571-.01074.00854-.01611.0015-.00269.00323-.0061.00473-.00879.00232-.00439.00461-.00854.00693-.01294.00146-.00293.00299-.00562.00449-.00854.0033-.0061.00662-.01245.00992-.01855.00223-.00415.00266-.00488.00488-.00928.00214-.00391.00427-.00781.00641-.01196.00073-.00146.0029-.00537.00366-.00684.19391-.36572.05502-.81934-.31052-1.01367-.11218-.05957-.23264-.08789-.35141-.08789h0Zm2.17996-4.67944c-.29688,0-.57794.17749-.69583.46973-.21167.5249-.43225,1.04517-.66156,1.56055-.16833.37866.00198.82178.38046.99023.09903.04395.20251.06494.30435.06494.28729,0,.56143-.16602.6857-.44556.23645-.53149.4639-1.06787.68216-1.60913.15494-.38428-.03085-.82129-.41501-.97607-.09192-.03711-.18689-.05469-.28027-.05469h0Zm1.67505-4.88257c-.32651,0-.62689.21509-.72086.54468-.1553.54443-.31982,1.08496-.49344,1.62134-.12756.39404.08853.81689.4826.94458.07675.02466.15457.03662.23111.03662.31583,0,.60953-.20117.71277-.51733.10208-.31543.20081-.6311.29675-.94922.00006-.00024.00009-.00024.00015-.00049.00555-.01831.01059-.03516.01611-.05347.00031-.00098.00058-.00195.00089-.00293.0051-.01685.0101-.03369.01517-.05054.00052-.00171.00104-.00342.00153-.00513.00186-.00635.00278-.00928.00461-.01562.00052-.00146.00101-.00317.00153-.00488.00275-.00928.00589-.01978.00864-.02905.00049-.00171.00101-.00342.0015-.00488.00137-.00464.00296-.01001.00433-.01465.00073-.00244.00143-.00488.00214-.00708.00458-.01538.00964-.03271.01422-.0481.00055-.00195.00113-.00391.00171-.00586.00137-.00439.00323-.01074.00461-.01538l.00082-.00293c.00275-.00903.00659-.02222.00931-.03149.00043-.00122.00082-.00269.00122-.00415.00183-.0061.00296-.01001.00479-.01611.0004-.00146.00079-.00269.00119-.00415.00497-.01685.00998-.03394.01495-.05078.00034-.00122.00067-.00244.00104-.00366.00543-.01855.01019-.03467.01559-.05322.00006-.00024.00009-.00024.00015-.00049.02927-.10034.05862-.2019.08725-.30249.11176-.39746-.11893-.81079-.51633-.92407-.06876-.01953-.13794-.02905-.20605-.02905h0Zm1.15164-5.03223c-.35776,0-.67453.25684-.73801.62134-.09723.55835-.20398,1.11353-.32013,1.66528-.0853.40527.1741.80298.57944.88843.05209.01074.10403.01611.15524.01611.34634,0,.65741-.24146.73267-.59326.0127-.0603.02542-.12134.0379-.18164.00003-.00024.00006-.00024.00009-.00049.00098-.00488.00241-.01172.00339-.0166.00043-.00195.00082-.00391.00125-.00586.00327-.01587.00644-.03125.0097-.04712l.0022-.01099c.00067-.00317.00174-.0083.00241-.01147.00098-.00488.00195-.00977.00293-.0144.00098-.00488.00183-.00903.00281-.01367.0011-.00562.0022-.01074.0033-.01611.00064-.00342.0014-.00708.00204-.01025.00104-.00513.00208-.01001.00311-.01514.00064-.00317.00095-.00488.00159-.00806.00156-.00757.00308-.01514.00461-.02271.00067-.00317.00061-.00293.00125-.0061.00125-.0061.0025-.01245.00375-.01855.00064-.00317.0007-.00342.00134-.00659.0033-.01636.00656-.03271.00986-.04907.00031-.00146.00049-.0022.00079-.00391.00153-.00757.00302-.01514.00455-.02271l.00052-.00244.01035-.052.00031-.00146c.07809-.39233.15164-.78638.22052-1.18188.07104-.40796-.20215-.79639-.61023-.86743-.04355-.00757-.08682-.01123-.12955-.01123h0Zm.61819-5.12549c-.39102,0-.72064.30322-.74753.69922-.03845.56592-.08658,1.12915-.14426,1.68945-.04239.41211.25726.78052.66931.823.02609.00269.052.00391.07767.00391.3797,0,.70544-.28735.74515-.67334.01486-.14429.02908-.28882.04272-.43335l.00003-.00049c.00168-.01782.00336-.03564.005-.05347l.00015-.00171c.00079-.0083.00156-.01685.00235-.02515l.00012-.00146c.00162-.01758.00323-.03491.00482-.05249l.00027-.00293c.00076-.0083.00153-.01685.00229-.02515l.00006-.00073c.00079-.00879.00162-.01782.00241-.02661l.00009-.00098.0022-.02417c.00015-.00171.00018-.00244.00034-.00391.00156-.01733.00311-.03467.00464-.052.00015-.00171.00003-.00049.00018-.00195.00073-.0083.00146-.01685.0022-.02515l.00012-.00146c.00156-.01758.00311-.03516.00464-.05273l.00021-.0022c.00229-.02661.00458-.05298.00681-.07935l.00018-.00195c.01849-.2168.03561-.43359.05133-.65112.00012-.00171.00021-.00269.00034-.00439.00058-.0083.00119-.0166.0018-.0249v-.00024c.00061-.0083.00122-.01685.0018-.02515l.00049-.00684c.0004-.00562.00082-.01147.00122-.01733.00012-.00146.00052-.00732.00064-.00903.0004-.00537.00079-.01099.00119-.0166.00034-.00488.00082-.01196.00116-.01685l.00082-.01172c.00034-.00488.00067-.00952.00101-.01465l.00046-.00659c.00162-.02319.00314-.04541.0047-.0686.02695-.41235-.28494-.76904-.69757-.79712-.0173-.00122-.03448-.00171-.05157-.00171h0Zm.08481-5.16479c-.00894,0-.01794.00024-.02695.00049-.41394.01465-.73767.36206-.72305.77588.0199.56323.03021,1.12891.03076,1.69678.0004.41406.33609.74927.75.74927h.00073c.41422-.00024.74966-.33643.74927-.75073-.00024-.25586-.00244-.51147-.0065-.76636l-.00003-.00049c-.00043-.0271-.00089-.05396-.00134-.08105l-.00003-.00122c-.00049-.02686-.00098-.05371-.0015-.08057l-.00003-.00146c-.00034-.01782-.00067-.03564-.00104-.05347l-.00003-.00146c-.00018-.0083-.00034-.01685-.00052-.02515-.00003-.00171,0-.00024-.00003-.00195-.00037-.01758-.00076-.03516-.00113-.05298-.00006-.00146-.00003-.00073-.00006-.00244-.00018-.00781-.00037-.01562-.00052-.02368-.00006-.00171-.00006-.00146-.00009-.00317-.00037-.01709-.00076-.03418-.00116-.05127-.00006-.00146-.00009-.00342-.00012-.00513-.00018-.00708-.00034-.01416-.00052-.02124-.00003-.00171-.00006-.00269-.00009-.00439-.00021-.0083-.00043-.0166-.00061-.02515-.00006-.00171-.00006-.0022-.00012-.00391-.00015-.00684-.00034-.01392-.00052-.02075-.00006-.00342-.00006-.00366-.00015-.00708-.00015-.0061-.00031-.01221-.00049-.01831-.00006-.00342-.00009-.00415-.00018-.00732-.00018-.00757-.0004-.01514-.00058-.02271-.00009-.00342-.00018-.00659-.00027-.01001-.00009-.00439-.00021-.00903-.00034-.01343-.00009-.00342-.00024-.00879-.00034-.01221-.00009-.00366-.00021-.00757-.00031-.01123-.00027-.01025-.00055-.02026-.00082-.03027-.00003-.00073-.00003-.00146-.00006-.0022-.00015-.00513-.00031-.01123-.00046-.01636-.00006-.00195-.00012-.00415-.00018-.00635-.00012-.00513-.00034-.01172-.00046-.0166l-.00009-.00293c-.00333-.11719-.00696-.23022-.01111-.34717-.01605-.40356-.34805-.72021-.74893-.72021h0Zm-.4494-5.14355c-.0347,0-.06982.00244-.10516.00732-.41019.05762-.69604.43677-.63849.84692.07831.55811.14713,1.11914.20633,1.68311.04044.38525.36591.67163.745.67163.02615,0,.05258-.00122.07916-.00415.41196-.04321.71088-.41211.66763-.82422-.061-.5813-.13196-1.15967-.21268-1.73486-.05261-.37476-.37381-.64575-.74179-.64575h0Zm-.98532-5.06738c-.06015,0-.12128.00732-.18225.02271-.40189.10034-.64633.50732-.54599.90918.13651.54688.26376,1.09717.38153,1.65112.07498.35254.38629.59424.73285.59424.05167,0,.10416-.00537.15674-.0166.40421-.08594.66254-.48242.57822-.88672-.12177-.57275-.25351-1.14258-.39468-1.70801-.08606-.33936-.39117-.56592-.72641-.56592h0Zm-1.5137-4.93579c-.08542,0-.17233.01465-.25726.04565-.38907.14233-.58923.57275-.44711.96191.19354.52979.37814,1.06396.55359,1.60229.10318.31665.39703.51782.71295.51782.077,0,.15533-.01196.23254-.03711.3934-.12817.60858-.55078.48105-.94434-.00247-.00757-.00452-.01367-.00699-.02148-.00006,0-.00009-.00024-.00015-.00024-.0015-.00464-.00327-.01001-.00476-.01465-.00082-.00244-.00165-.00513-.00247-.00757-.0015-.00464-.00296-.00903-.00446-.01367-.0015-.00439-.00299-.00903-.00449-.01367s-.00366-.01123-.00516-.01562c-.00131-.00415-.00269-.0083-.00403-.01245-.00098-.00293-.0025-.00757-.00348-.0105-.0018-.00562-.00357-.01099-.00537-.01636-.00098-.00293-.00183-.00562-.00281-.00854-.00204-.0061-.00409-.01245-.0061-.01855-.00101-.00317-.00171-.00513-.00269-.0083-.00195-.00586-.00388-.01147-.0058-.01758-.00101-.00293-.00079-.0022-.0018-.00537-.00247-.00732-.00494-.01489-.00742-.02246-.00052-.00146-.0015-.00439-.00198-.00586-.00211-.00635-.00424-.01294-.00635-.01929-.00052-.00146-.00098-.00293-.00146-.00439-.00269-.00806-.00531-.01611-.008-.02417-.00049-.00146.00003.00024-.00049-.00146-.0025-.00732-.00497-.01489-.00748-.02246l-.00146-.00439c-.00537-.01611-.01077-.03223-.01614-.04834-.00052-.00171-.00055-.00171-.00104-.00317-.00262-.00781-.00528-.01587-.0079-.02368l-.00024-.00073-.01694-.05054c-.00052-.00146-.00009-.00024-.00061-.00171-.00562-.01685-.01126-.03369-.01691-.05029l-.00055-.00171c-.00571-.01685-.01141-.03394-.01712-.05078-.00052-.00146.00031.00098-.00021-.00049-.0087-.02588-.0174-.05151-.02612-.07715l-.00012-.00049c-.00574-.01685-.01151-.03369-.01724-.05054l-.0007-.00195c-.00568-.0166-.01135-.0332-.01706-.05005-.00052-.00146-.00015-.00024-.00067-.00195-.00262-.00757-.00525-.01514-.00787-.02295l-.00085-.00244c-.00284-.0083-.00568-.0166-.00851-.02466l-.00027-.00098-.00787-.02271c-.00052-.00171-.00089-.00269-.0014-.00415-.00546-.01587-.01089-.03174-.01636-.04736-.00104-.00317-.00085-.00269-.00189-.00562l-.00732-.02124c-.00052-.00146-.00021-.00049-.00073-.00195-.00266-.00781-.00534-.01562-.008-.02319-.00055-.00146-.00156-.00439-.00211-.0061-.00204-.00586-.00412-.01172-.00616-.01782-.00052-.00146-.00174-.00488-.00226-.00635-.00253-.00732-.00504-.01465-.00757-.02173-.00104-.00317-.00137-.00391-.00241-.00708-.00183-.00513-.00369-.0105-.00552-.01587-.00104-.00293-.00186-.00537-.00293-.0083-.00198-.00562-.00394-.01123-.00592-.01685-.00104-.00317-.00296-.00854-.004-.01172-.00174-.00488-.00345-.00977-.00519-.01465-.00104-.00317-.00269-.00781-.00372-.01074-.00134-.00391-.00269-.00757-.00403-.01147-.00159-.00464-.0033-.00928-.00488-.01392-.00186-.00537-.00372-.0105-.00558-.01587-.00159-.00464-.00262-.00757-.00421-.01196-.00116-.00342-.00232-.00659-.00348-.01001-.00159-.00439-.00287-.0083-.00449-.0127l-.00311-.00879c-.00266-.00757-.00534-.01538-.008-.02295-.00089-.00244-.00174-.00488-.00262-.00732-.00159-.00439-.0036-.01025-.00522-.01465-.00043-.00146-.00092-.00269-.00134-.00391-.00372-.0105-.00797-.02246-.01169-.0332-.00003,0-.00006,0-.00009-.00024-.00214-.00586-.00406-.01123-.0062-.01733-.00015-.00049-.00034-.00098-.00049-.00146-.05386-.15186-.10776-.30176-.16302-.45288-.11176-.30273-.39844-.49048-.70364-.49048h0Zm-2.02481-4.74854c-.11075,0-.22327.02441-.32944.07666-.37195.18213-.52573.63135-.34348,1.00342.24832.50684.4881,1.01855.71906,1.53491.12463.27881.39835.44409.68509.44409.10233,0,.20633-.021.30579-.06543.37811-.16919.54755-.61279.37845-.99097-.05173-.11572-.10388-.23096-.15646-.34619l-.00262-.00586c-.0025-.00537-.00504-.01099-.00754-.01636-.00131-.00293-.00186-.00415-.00317-.00708-.0029-.00635-.00577-.0127-.00867-.01904-.00198-.00415-.00339-.00732-.00537-.01172-.00128-.00269-.00253-.00537-.00378-.00806-.00726-.01587-.01376-.03003-.02106-.0459l-.00128-.00293c-.17322-.37695-.35019-.74976-.53244-1.12158-.13058-.2644-.39648-.41821-.67307-.41797h0Zm-2.51205-4.5105c-.13623,0-.27414.03711-.39804.11499-.35083.22021-.4567.68311-.23648,1.03394.30026.47827.59241.96216.87622,1.45142.13913.23999.39081.37378.64948.37378.12772,0,.25717-.03271.37561-.10132.35828-.20776.48029-.66675.27243-1.02515-.10501-.18091-.21112-.36133-.3183-.54077-.00079-.00146-.00046-.00073-.00128-.0022-.00397-.00659-.008-.01343-.01196-.02002l-.00186-.00317c-.00424-.00708-.00845-.01416-.0127-.02124-.00079-.00122-.00171-.00269-.00253-.00415-.0033-.00537-.00656-.01099-.00986-.01636-.00079-.00146-.00302-.00513-.00381-.00659l-.01154-.01904c-.00162-.00269-.00314-.00537-.00476-.00806l-.00705-.01172c-.00241-.00391-.00397-.00659-.00638-.0105-.00171-.00293-.00342-.00586-.00513-.00854-.00406-.00684-.00897-.01489-.01303-.02173-.00104-.00171-.00201-.00342-.00305-.00513-.00323-.00537-.0051-.00854-.00836-.01392-.00073-.00122-.0015-.00244-.00226-.00366-.15747-.26123-.31906-.52393-.48114-.78223-.1427-.2251-.38568-.34863-.63422-.34863h0Zm-2.96954-4.22339c-.1619,0-.32501.05225-.46231.15991-.32593.25562-.38297.72705-.12735,1.05298.34866.44458.68973.89551,1.02304,1.35229.14682.20117.37509.30811.60651.30811.15332,0,.30804-.04688.44141-.14429.33414-.24365.40778-.71191.16495-1.04639-.01385-.01904-.02728-.03735-.04114-.0564-.00055-.00073-.00113-.00146-.00168-.0022-.01019-.01392-.02005-.02734-.03027-.04126-.00122-.00171-.0025-.00342-.00375-.00513-.00278-.00391-.00558-.00781-.00836-.01147-.00223-.00317-.00446-.0061-.00668-.00903-.00369-.00513-.00781-.01074-.01154-.01587-.00244-.00317-.00485-.00659-.00729-.00977-.00186-.00269-.00507-.00708-.00693-.00952l-.00815-.01099c-.00278-.00391-.00412-.00562-.0069-.00952-.00385-.00513-.00769-.01025-.01151-.01562-.00186-.00244-.0033-.00439-.00516-.00684l-.01071-.01465c-.00186-.00244-.00171-.0022-.00357-.00488-.00476-.00635-.00952-.01294-.01428-.01929-.00095-.00122-.00195-.00269-.00287-.00391-.00418-.00562-.00839-.01123-.01257-.01685-.00092-.00122-.00174-.00244-.00269-.00366-.00497-.00684-.00995-.01343-.01495-.02026l-.00134-.00171c-.00473-.00659-.00946-.01294-.01419-.01929-.00095-.00122-.00098-.00122-.00192-.00269-.01041-.01392-.02081-.02808-.03125-.04199l-.00095-.00122c-.26053-.35083-.52554-.69775-.79492-1.04126-.14795-.18872-.36816-.28735-.59067-.28735h0Zm-3.3931-3.89136c-.18787,0-.37595.07007-.52158.21118-.29761.28809-.3053.76294-.01718,1.06055.39319.40601.7793.81885,1.15823,1.23853.14807.16406.35205.24731.55685.24731.17917,0,.35898-.06396.50244-.19336.30661-.27686.33142-.74951.05606-1.05688-.30923-.34253-.62183-.67944-.94031-1.01318-.00067-.00073-.00128-.00122-.00195-.00195-.01187-.01245-.02234-.02344-.03424-.03589-.00201-.0022-.004-.00415-.00601-.00635-.00327-.00342-.00586-.0061-.00909-.00952-.00311-.00317-.00623-.00635-.00934-.00977-.00323-.00317-.00662-.00684-.00986-.01025-.00391-.00391-.00778-.00806-.01169-.01221-.00217-.0022-.00354-.00366-.00571-.00586-.00458-.00488-.00916-.00952-.01376-.0144-.0011-.00122-.0018-.00195-.0029-.00293-.00565-.00586-.01132-.01196-.017-.01782-.0011-.00098-.00195-.00195-.00302-.00317-.04361-.04517-.08728-.09058-.13101-.13574-.14713-.15186-.3429-.22827-.53894-.22827h0Zm-3.77917-3.51782c-.21417,0-.42691.09131-.57526.26831-.26602.31763-.2243.79053.09317,1.05664.43338.36304.86035.73364,1.28067,1.11157.14331.12866.32251.19214.50113.19214.20535,0,.40994-.08398.55804-.24854.27628-.30737.25174-.78027-.05438-1.05737-.04306-.03882-.08658-.07764-.12976-.11621-.00049-.00049-.00095-.00098-.00143-.00146-.00818-.00708-.01459-.01294-.02277-.02026-.00189-.00171-.00378-.00342-.00571-.00513-.00348-.00293-.00668-.00586-.01019-.00903-.00317-.00269-.00632-.00562-.00949-.0083-.00232-.0022-.00601-.00537-.00836-.00757-.00507-.00439-.0101-.00903-.01517-.01343-.00235-.0022-.00366-.00317-.00601-.00537-.0051-.00464-.01019-.00903-.01529-.01367-.00116-.00098-.00128-.00098-.00247-.0022-.00638-.00562-.0127-.01123-.0191-.01685-.00116-.00098-.00079-.00073-.00195-.00171-.00635-.00562-.0127-.01123-.01907-.01685l-.00018-.00024c-.19043-.1687-.3822-.33618-.5752-.50195l-.00183-.00171c-.01312-.01123-.02628-.02246-.03943-.03369-.00119-.00122-.00131-.00122-.0025-.0022-.00601-.00513-.01205-.01025-.01804-.01562-.00119-.00098-.00055-.00024-.00174-.00146-.00638-.00537-.01276-.01074-.01913-.01636-.00119-.00098-.00204-.00171-.00323-.00269-.00531-.00464-.01062-.00903-.01593-.01367-.00119-.00098-.0029-.00244-.00409-.00342-.00595-.00513-.01193-.01025-.01788-.01538-.00238-.00195-.00269-.0022-.00507-.00415-.00446-.00391-.00894-.00781-.01343-.01147-.00119-.00098-.0051-.00439-.00629-.00537-.00571-.00488-.01144-.00977-.01715-.01465-.00238-.00195-.00262-.0022-.005-.00439-.00439-.00366-.00885-.00732-.01324-.01123-.00241-.00195-.00418-.00342-.00656-.00562-.00519-.00439-.01044-.00879-.01566-.01318-.00119-.00098-.00528-.00464-.00647-.00562-.00424-.00366-.00848-.00708-.01276-.01074-.00238-.00195-.00558-.00488-.00797-.00684-.004-.00342-.00797-.00684-.01196-.01001-.00357-.00317-.00455-.00391-.00815-.00708-.00461-.00391-.00925-.00781-.01385-.01172-.00238-.00195-.00604-.00513-.00842-.00708-.00342-.00293-.00687-.00586-.01028-.00879-.00241-.00195-.00534-.00439-.00772-.00659-.00528-.00439-.01059-.00879-.01587-.01343-.0036-.00293-.00479-.00391-.00839-.00708-.0033-.00269-.00656-.00537-.00986-.0083-.00357-.00293-.00467-.00391-.00824-.00684l-.01556-.01318c-.00357-.00293-.00497-.00415-.00858-.00732-.00327-.00269-.00653-.00537-.00977-.00806-.0036-.00317-.005-.00439-.00858-.00732-.00421-.00342-.00839-.00708-.01257-.0105-.0036-.00317-.008-.00684-.0116-.00977-.00314-.00269-.00632-.00537-.00946-.00806-.00241-.00195-.00601-.00513-.00839-.00708-.00424-.00342-.00842-.00708-.01263-.0105-.0036-.00317-.00671-.00562-.01031-.00879l-.01135-.00952c-.00241-.00195-.00565-.00464-.00803-.00659-.00397-.00342-.0079-.00659-.01187-.01001-.00241-.00195-.00296-.00244-.00537-.00439-.14041-.11768-.31113-.17505-.48099-.17505h0Zm-4.12463-3.10522c-.24103,0-.47775.11597-.62259.33081-.23151.34351-.14075.80957.20273,1.04102.46896.31616.93213.64038,1.38928.97217.13309.09668.28717.14307.43994.14307.23203,0,.46085-.10742.60757-.30933.24335-.33545.16885-.8042-.16635-1.04761-.41949-.30469-.84384-.60278-1.27301-.89429l-.0011-.00073c-.00729-.00513-.01462-.01001-.02191-.01489-.00131-.00098.00018,0-.0011-.00073-.00632-.00439-.01263-.00879-.01895-.01294-.00128-.00098-.00391-.00269-.00519-.00342-.00583-.00415-.01172-.00806-.01755-.01196-.00259-.00171-.00507-.00342-.00766-.00513-.00443-.00317-.00885-.0061-.01328-.00903-.00259-.00171-.00681-.00464-.0094-.00635-.00305-.0022-.00613-.00415-.00916-.00635-.00781-.00513-.0159-.01074-.02368-.01587-.00052-.00049-.00101-.00073-.00153-.00098-.00519-.00366-.01004-.00684-.01526-.01025-.00012-.00024-.00024-.00024-.0004-.00049-.00522-.00342-.00858-.00562-.01376-.00928-.12836-.08618-.2738-.12744-.41766-.12744h0Zm-4.4263-2.65771c-.26852,0-.52823.14453-.66299.39819-.19431.36597-.05527.82007.31052,1.01416.49963.26562.99405.53931,1.48309.82153.11807.06812.24692.10059.37408.10059.25928,0,.51147-.13477.65036-.37549.20697-.35864.08392-.81738-.27484-1.02441-.05499-.03174-.11008-.06323-.16519-.09497l-.00131-.00073c-.00705-.00391-.01401-.00781-.02106-.01196l-.00266-.00146c-.00726-.00415-.0145-.0083-.02173-.01245l-.00381-.0022c-.00583-.00317-.01166-.00659-.01749-.01001-.00137-.00073-.00458-.00244-.00595-.00342-.00684-.00366-.01361-.00757-.02042-.01147-.00137-.00073-.00293-.00171-.0043-.00244-.00537-.00317-.01071-.0061-.01611-.00928-.00272-.00146-.00531-.00293-.00806-.00439l-.0152-.00879c-.00275-.00146-.00613-.00342-.00888-.00488-.00513-.00293-.01035-.00586-.01547-.00879-.00275-.00171-.00659-.00391-.00934-.00537-.00385-.0022-.00766-.00439-.01147-.00659-.00412-.0022-.00806-.00439-.01218-.00684l-.01437-.00806c-.00412-.00244-.00705-.00415-.01117-.00635-.00311-.00171-.0062-.00342-.00931-.00537-.00412-.0022-.00711-.00391-.0112-.00635-.00378-.00195-.00754-.00415-.01132-.00635-.00546-.00293-.01157-.00635-.01706-.00952-.00281-.00171-.00565-.00317-.00848-.00488-.00409-.0022-.00739-.00415-.01151-.00635-.00296-.00171-.00592-.00342-.00885-.00513-.00687-.00366-.01303-.00732-.0199-.01099-.00269-.00171-.00537-.00317-.00806-.00464-.00412-.0022-.00797-.00439-.01208-.00684-.00253-.00146-.00513-.00293-.00766-.00415-.00824-.00464-.01291-.00732-.02115-.01196-.0025-.00146-.00494-.00269-.00745-.00415-.00415-.00244-.00824-.00464-.01236-.00684-.00247-.00146-.00491-.00293-.00739-.00415-.0069-.00391-.0137-.00781-.02057-.01172-.00296-.00146-.00589-.00317-.00885-.00488-.00412-.0022-.00705-.00391-.01117-.0061-.00296-.00171-.00592-.00342-.00885-.00513-.00412-.0022-.00742-.00415-.01157-.00635-.00366-.00195-.00729-.00415-.01096-.0061-.00549-.00317-.01196-.00659-.01746-.00977-.00281-.00146-.00558-.00317-.00839-.00464-.00412-.00244-.00809-.00464-.01221-.00684-.00235-.00122-.00464-.00269-.00696-.00391-.00827-.00464-.01285-.00708-.02112-.01172-.00281-.00146-.00568-.00317-.00851-.00464-.00275-.00171-.0087-.00488-.01147-.00635-.0032-.00195-.00635-.00366-.00955-.00537-.00549-.00317-.013-.00732-.01849-.01025-.00308-.00171-.00613-.00342-.00922-.00513-.00415-.0022-.00757-.00415-.01169-.00659-.00296-.00146-.00589-.00317-.00885-.00488-.00549-.00293-.01013-.00562-.01566-.00854-.00421-.00244-.00845-.00464-.01266-.00708-.00415-.0022-.00656-.00366-.01068-.00586-.00354-.00195-.00711-.00391-.01065-.00586-.00415-.0022-.00568-.00317-.00983-.00537-.00604-.00342-.01215-.00684-.01819-.01001-.00275-.00171-.00613-.00342-.00891-.00488-.00406-.00244-.00809-.00464-.01212-.00684-.00278-.00146-.00626-.00342-.00903-.00488-.00583-.00317-.0116-.00635-.01743-.00952-.00278-.00171-.00589-.00342-.00864-.00488-.00458-.00244-.00919-.00488-.01376-.00757-.00275-.00146-.00607-.00317-.00882-.00488-.00443-.00244-.00888-.00488-.01331-.00708-.00415-.00244-.00769-.00439-.01184-.00659-.00491-.00269-.00977-.00537-.01468-.00806-.00275-.00146-.00543-.00293-.00818-.00439-.00479-.00269-.00952-.00537-.01431-.00781-.00275-.00171-.00427-.00244-.00702-.00391-.00647-.00366-.01291-.00708-.01938-.0105-.00137-.00098-.00632-.00366-.00769-.00439-.0047-.00244-.0094-.00513-.01407-.00757-.00278-.00146-.00458-.00244-.00732-.00415-.00659-.00342-.01324-.00708-.01984-.01074-.00278-.00146-.00351-.00195-.00629-.00342-.0051-.00269-.01016-.00537-.01526-.0083-.00137-.00073-.00592-.00317-.00729-.00391l-.02005-.01099c-.0014-.00073-.0036-.00195-.005-.00269-.00519-.00269-.01041-.00562-.01559-.00854-.00278-.00146-.00571-.00293-.00845-.00439-.00507-.00293-.0101-.00562-.01517-.0083-.00275-.00146-.00598-.00317-.00876-.00464-.0054-.00293-.01083-.00586-.01627-.00879-.00278-.00171-.00595-.00342-.00873-.00488-.00443-.00244-.00882-.00464-.01328-.00708-.00275-.00146-.00497-.00269-.00775-.00415-.00623-.00342-.01239-.00684-.01865-.01025-.00415-.0022-.00519-.00269-.00937-.00488-.00397-.0022-.008-.00439-.01199-.00659-.00278-.00146-.00653-.00342-.00931-.00488-.00598-.00342-.01196-.00659-.01794-.00977-.00418-.0022-.00641-.00342-.01059-.00562-.00327-.00195-.00656-.00366-.00983-.00537-.00418-.0022-.00699-.00366-.01117-.0061-.00299-.00146-.00595-.00317-.00897-.00464-.00696-.00391-.01361-.00732-.02057-.01123-.00256-.00122-.0051-.00269-.00769-.00391-.00415-.00244-.00818-.00439-.01236-.00684-.00241-.00122-.00485-.00244-.00726-.00391-.00833-.00439-.01596-.00854-.02429-.01294-.00146-.00073-.00302-.00146-.00452-.00244-.00555-.00293-.00894-.00464-.0145-.00757-.00119-.00073-.00232-.00146-.00351-.00195-.01532-.0083-.03259-.01733-.04791-.02563h-.00009c-.0209-.01123-.04129-.02197-.06219-.0332-.11172-.05884-.2316-.08691-.34979-.08691h0Zm-4.68051-2.17896c-.29694.00024-.57809.17773-.69589.46997-.15482.38428.03116.82129.41537.97607.5249.21143,1.04526.43188,1.56091.66089.099.04419.20239.06494.30414.06494.28735,0,.56158-.16626.68579-.44556.16818-.37866-.0022-.82153-.38052-.98999-.00146-.00049.00015.00024-.00128-.00049-.00699-.00317-.01398-.0061-.02094-.00928-.0029-.00122-.00562-.00244-.00851-.00391-.00421-.00171-.00848-.00366-.0127-.00562-.00433-.00195-.0058-.00244-.01013-.00439l-.01163-.00513c-.00723-.00317-.01312-.00586-.02036-.00903-.00192-.00098-.00385-.00171-.00577-.00244-.42197-.18652-.84604-.36694-1.27405-.54224-.00247-.00098-.00497-.00195-.00745-.00293-.00443-.00195-.00818-.00342-.0126-.00513-.00629-.00269-.0126-.00513-.01889-.00781-.00296-.00122-.00595-.00244-.00891-.00366l-.01474-.00586c-.00296-.00122-.00433-.00195-.00726-.00293-.01575-.00659-.03143-.01294-.04718-.01929l-.0011-.00049c-.04208-.01709-.08414-.03418-.12625-.05103-.09186-.03711-.18674-.05469-.28006-.05469h0Zm-4.8837-1.67383c-.3266,0-.62701.21509-.72095.54468-.11346.39844.11749.81323.51587.92676.54453.15503,1.08511.31934,1.62164.49292.07666.02466.15439.03662.23083.03662.31659,0,.61084-.20215.71347-.51953.12711-.39331-.08771-.81494-.47995-.94336-.17062-.05518-.33929-.10889-.51071-.16211-.00021-.00024-.00049-.00024-.00067-.00024-.38721-.12061-.77533-.23633-1.16647-.34766-.06778-.01904-.13596-.02808-.20306-.02808h0Zm-5.03342-1.15039c-.35785,0-.67468.25708-.73804.62158-.07092.4082.20242.79639.61053.86743.55841.09692,1.11359.20361,1.66531.31958.05203.01099.10385.01611.155.01611.3472,0,.65894-.24243.73322-.59595.08517-.40527-.17438-.80298-.57971-.88818-.29291-.06152-.58673-.12061-.8815-.177-.00159-.00024-.00061,0-.0022-.00024-.01678-.00317-.03357-.00659-.05035-.00977-.00159-.00024-.00397-.00073-.00555-.00098-.00653-.00122-.013-.00244-.01953-.00366-.0032-.00073-.00266-.00049-.00586-.00122-.00772-.00146-.01538-.00293-.0231-.00439-.0032-.00049-.00397-.00073-.00717-.00122-.00549-.00098-.01099-.0022-.01648-.00317-.00317-.00049-.00592-.00122-.00912-.00171-.0058-.00098-.0116-.0022-.01743-.00317-.00317-.00073-.00937-.00195-.01254-.00244l-.01483-.00293c-.0032-.00049-.0087-.00146-.0119-.0022-.00378-.00073-.00757-.00122-.01135-.00195-.00479-.00098-.0072-.00146-.01199-.00244-.00656-.00122-.01309-.00244-.01962-.00366-.00482-.00073-.00873-.00146-.01352-.00244-.00311-.00049-.00632-.00122-.00943-.00171-.00482-.00098-.00897-.00171-.01376-.00244-.00278-.00073-.00555-.00122-.0083-.00171-.00961-.00171-.01697-.00317-.02658-.00488-.00217-.00049-.00424-.00073-.00641-.00122-.00482-.00073-.01065-.00195-.01544-.00269-.00211-.00049-.00415-.00098-.00626-.00122-.01761-.00317-.03436-.00635-.05197-.00952l-.0033-.00073c-.01923-.00342-.03619-.00659-.05542-.01001-.00043,0-.00085-.00024-.00128-.00024-.00641-.00122-.01126-.0022-.0177-.00317-.00107-.00024-.00211-.00049-.0032-.00073-.01923-.00342-.03497-.00635-.0542-.00977-.00092,0-.0018-.00024-.00272-.00049-.02567-.00464-.04901-.00879-.07468-.01343-.00101,0-.00201-.00024-.00299-.00049-.01926-.00342-.03497-.0061-.05426-.00952-.00101-.00024-.00195-.00049-.00296-.00073-.00641-.00098-.01151-.00195-.01794-.00317h-.0007c-.01285-.0022-.02505-.00439-.0379-.00684h-.00009c-.00644-.00098-.01117-.00195-.01758-.00293l-.0043-.00073c-.01608-.00293-.03593-.00635-.052-.00928-.00177-.00024-.00357-.00049-.00531-.00098-.00644-.00098-.00989-.00171-.01633-.00269-.0015-.00024-.0029-.00049-.00439-.00073-.00482-.00098-.01163-.0022-.01645-.00293-.04318-.00757-.08603-.01099-.12839-.01099h0Zm-5.12546-.61621c-.39114,0-.72076.30322-.74753.69946-.02795.41309.28442.77075.69769.79883.56589.03809,1.12912.08618,1.68951.14355.02603.00269.05182.00415.07742.00415.37979,0,.70557-.2876.74518-.67358.04227-.41211-.25745-.78027-.66946-.82275h-.00079c-.24347-.0249-.48737-.0481-.73187-.06958h-.00003c-.01794-.00171-.03592-.00317-.05386-.00464l-.00143-.00024c-.00815-.00073-.01633-.00146-.02448-.0022-.00165,0-.00125,0-.0029-.00024-.01688-.00146-.03375-.00293-.05063-.00415-.00165-.00024-.00446-.00049-.0061-.00073-.00677-.00049-.01349-.00098-.02026-.00171-.00165,0-.00333-.00024-.00497-.00024-.00809-.00073-.0162-.00146-.02426-.0022-.00333-.00024-.00278-.00024-.00607-.00049-.00604-.00049-.01205-.00098-.01813-.00146-.0033-.00024-.00522-.00049-.00851-.00073-.00598-.00049-.01199-.00098-.01797-.00146-.00165-.00024-.00494-.00049-.00659-.00049-.0076-.00073-.01523-.00122-.02283-.00195-.00165-.00024-.00751-.00049-.00916-.00073-.00497-.00049-.00986-.00073-.01483-.00122-.0033-.00024-.00693-.00049-.01022-.00073-.00604-.00049-.01202-.00098-.01807-.00146-.00494-.00049-.00787-.00073-.01282-.00122-.00482-.00024-.00964-.00073-.01447-.00122-.0033-.00024-.00894-.00073-.01224-.00098-.00388-.00024-.00769-.00049-.01154-.00073-.00497-.00049-.00732-.00073-.0123-.00098-.00549-.00049-.01096-.00098-.01645-.00146-.00662-.00049-.00998-.00073-.0166-.00122-.00375-.00024-.00745-.00073-.0112-.00098-.0033-.00024-.00961-.00073-.01291-.00098-.00345-.00024-.00693-.00049-.01038-.00073-.00827-.00073-.01404-.00122-.02231-.00195l-.01117-.00073c-.00497-.00049-.00793-.00073-.01291-.00098-.00357-.00024-.00717-.00073-.01077-.00098-.00494-.00024-.00818-.00049-.01312-.00098-.00381-.00024-.00757-.00049-.01138-.00073-.00662-.00073-.01422-.00122-.02084-.00171-.00391-.00024-.00784-.00049-.01175-.00098-.0033-.00024-.00919-.00073-.01251-.00098-.00394-.00024-.00793-.00049-.0119-.00073-.00494-.00049-.00696-.00049-.01193-.00098-.00696-.00049-.01395-.00098-.0209-.00171-.0033-.00024-.00742-.00049-.01071-.00073-.00461-.00024-.00925-.00073-.01385-.00098-.00333-.00024-.00708-.00049-.01038-.00073-.00531-.00049-.01059-.00073-.01587-.00122-.00333-.00024-.00494-.00049-.00824-.00073-.00763-.00049-.01529-.00098-.02292-.00171-.00165,0-.00607-.00024-.00775-.00049-.00595-.00049-.01193-.00073-.01788-.00122-.00168-.00024-.00522-.00049-.00687-.00049-.01675-.00122-.03342-.00244-.05017-.00366-.00165-.00024-.00259-.00024-.00427-.00024-.07199-.00537-.14407-.01025-.21619-.01514-.01721-.00122-.0343-.00171-.05133-.00171h0Z"/><circle class="cls-1" cx="57.5" cy="57.5" r="5.49941"/><line class="cls-2" x1="84.66481" y1="84.69774" x2="103.33265" y2="103.36558"/><path class="cls-1" d="m57.5,67.43264c-3.83337,0-6.94094,3.1075-6.94094,6.941v11.64907h13.88187v-11.64907c0-3.83349-3.10756-6.941-6.94094-6.941Zm-2.32101,17.26661c0,.32418-.2629.5872-.58714.5872s-.58708-.26302-.58708-.5872v-10.99475c0-.32418.26284-.5872.58708-.5872s.58714.26302.58714.5872v10.99475Zm5.83009,0c0,.32418-.26278.5872-.58714.5872-.3243,0-.58708-.26302-.58708-.5872v-10.99475c0-.32418.26278-.5872.58708-.5872.32436,0,.58714.26302.58714.5872v10.99475Z"/></svg>