<?xml version="1.0" encoding="UTF-8"?><svg id="Layer_1" xmlns="http://www.w3.org/2000/svg" viewBox="0 0 115 115"><defs><style>.cls-1,.cls-2,.cls-3{stroke-linejoin:round;}.cls-1,.cls-2,.cls-3,.cls-4{fill:none;stroke:#4d52f8;stroke-linecap:round;}.cls-1,.cls-4{stroke-width:1.5px;}.cls-5{fill:#4d52f8;}.cls-2{stroke-width:4.19771px;}.cls-3{stroke-width:3.55px;}.cls-4{stroke-dasharray:0 0 1.7479 3.49579;stroke-miterlimit:10;}</style></defs><g><path class="cls-5" d="m57.5,36.22412c11.73157,0,21.27588,9.54431,21.27588,21.27588s-9.54431,21.27588-21.27588,21.27588-21.27588-9.54431-21.27588-21.27588,9.54431-21.27588,21.27588-21.27588m0-4c-13.95947,0-25.27588,11.31641-25.27588,25.27588s11.31641,25.27588,25.27588,25.27588,25.27588-11.31641,25.27588-25.27588-11.31641-25.27588-25.27588-25.27588h0Z"/><line class="cls-4" x1="57.5" y1="42.42429" x2="57.5" y2="4.2916"/><line class="cls-4" x1="57.5" y1="110.7084" x2="57.5" y2="72.57571"/><polyline class="cls-2" points="45.37796 57.97209 54.98227 64.93652 67.6223 47.50524"/></g><polyline class="cls-3" points="9.69905 55.52645 17.82141 61.41626 28.51108 46.67464"/><path class="cls-1" d="m25.47945,59.42548c-1.06341,5.88323-6.69478,9.79047-12.57801,8.72705s-9.79047-6.69478-8.72705-12.57801,6.69478-9.79047,12.57801-8.72705c1.47081.26585,2.81811.8172,3.99513,1.58661"/><g><circle class="cls-4" cx="100.2528" cy="57.5" r="10.7472"/><circle class="cls-5" cx="100.2528" cy="57.5" r="5.49941"/></g></svg>