<?xml version="1.0" encoding="UTF-8"?><svg id="Layer_1" xmlns="http://www.w3.org/2000/svg" viewBox="0 0 115 115"><defs><style>.cls-1{fill:#4d52f8;}</style></defs><g><circle class="cls-1" cx="81.42419" cy="57.5" r="5.49941"/><path class="cls-1" d="m81.42419,67.43274c-3.83337,0-6.94092,3.10754-6.94092,6.94092v11.64893h13.88184v-11.64893c0-3.83337-3.10754-6.94092-6.94092-6.94092Zm-2.32104,17.26648c0,.32422-.26288.5871-.5871.5871s-.5871-.26288-.5871-.5871v-10.99475c0-.32422.26288-.5871.5871-.5871s.5871.26288.5871.5871v10.99475Zm5.83008,0c0,.32422-.26276.5871-.5871.5871-.32428,0-.5871-.26288-.5871-.5871v-10.99475c0-.32422.26282-.5871.5871-.5871.32434,0,.5871.26288.5871.5871v10.99475Z"/></g><path class="cls-1" d="m32.66479,30.01141c15.15726,0,27.48859,12.33136,27.48859,27.48859s-12.33133,27.48859-27.48859,27.48859-27.48856-12.33136-27.48856-27.48859,12.33133-27.48859,27.48856-27.48859m0-4C15.27414,26.01141,1.17624,40.10938,1.17624,57.5s14.0979,31.48859,31.48856,31.48859,31.48859-14.09796,31.48859-31.48859-14.09793-31.48859-31.48859-31.48859h0Z"/><path class="cls-1" d="m71.52393,15.18872h-.05099c-.01678.00006-.03265.00006-.04944.00012h-.01706c-.26282.00073-.52509.00391-.78781.00952h-.00122c-.00488.00012-.00977.00018-.01465.00031-.00079,0-.00159.00006-.00235.00006-.00421.00012-.0098.00024-.01398.00031-.00082,0-.00168.00006-.0025.00006-.01047.00024-.02118.00049-.03168.00073-.00119,0-.00241,0-.00363.00006-.00418.00012-.00793.00018-.01215.00031-.00162,0-.0032.00006-.00482.00006-.00351.00012-.00644.00018-.00995.00024-.00208.00006-.00418.00012-.00629.00018-.00281.00006-.0065.00012-.00931.00018-.00293.00006-.0058.00018-.00873.00024-.00348.00006-.00821.00018-.01169.00024-.00293.00006-.0058.00018-.0087.00024-.00211.00006-.00375.00006-.00586.00012-.0032.00006-.00641.00018-.00958.00024-.0014.00006-.00366.00012-.00507.00012-.00348.00012-.00696.00018-.01044.00024-.0014.00006-.00177.00006-.00317.00012-.01733.00043-.03467.00085-.052.00134-.0007,0,.00027,0-.00043,0-.20471.00549-.40933.01239-.61395.02081-.41388.01697-.73557.36627-.71857.78015.01657.40338.34875.71924.74884.71924.01035,0,.02084-.00024.03131-.00067.55911-.02295,1.12631-.03461,1.68585-.03461.41422,0,.75-.33582.75-.75,0-.41425-.33578-.75-.75-.75h0Zm-5.13742.31677c-.02994,0-.06027.00183-.09073.00549-.16864.02087-.33835.04291-.50674.0658-.00134.00018-.00266.00037-.004.00055-.00345.00049-.00742.00098-.01089.00146-.00192.00031-.00388.00055-.0058.00079-.00348.00049-.00708.00098-.01053.00146-.00153.00018-.00302.00037-.00452.00061-.00415.00055-.00815.0011-.0123.00165-.00333.00049-.00668.00092-.00998.0014-.00278.00037-.00455.00061-.00732.00098-.00317.00049-.00629.00092-.00946.00134-.00137.00018-.00311.00043-.00449.00061-.00351.00049-.00693.00092-.01041.0014-.00137.00024-.00256.00037-.00397.00055-.37787.05225-.75516.10962-1.13171.17206-.40863.06769-.68497.45392-.61722.86255.06085.36713.37869.62744.73901.62744.04071,0,.08206-.00336.12354-.01019.55191-.09155,1.11334-.17279,1.66876-.24158.41107-.0509.70303-.42535.65213-.83643-.047-.37982-.37024-.65796-.74338-.65796h0Zm-5.06049.94623c-.06061,0-.12222.00745-.18369.02289-.56448.14215-1.12653.29602-1.6857.46161-.39716.11768-.62378.53497-.50613.93213.09659.32611.39517.53723.71881.53723.0705,0,.14224-.01007.21329-.03107.53625-.15887,1.08331-.30865,1.62601-.44531.40167-.10114.64529-.50873.54416-.9104-.08566-.34021-.39114-.56708-.72675-.56708h0Zm-4.90488,1.5636c-.08975,0-.18106.01624-.26981.05048-.14218.05524-.28394.11121-.42563.16809-.00012.00006-.00027.00012-.0004.00018-.00525.00208-.01019.00409-.01544.00616-.00003,0-.00009.00006-.00012.00006-.01575.00635-.03052.01227-.04623.01862-.00073.00031-.00153.00061-.00226.00092-.00394.00159-.00946.00378-.0134.00537-.00052.00024-.0011.00043-.00162.00067-.00525.00214-.00909.00366-.01434.0058-.00034.00012-.00064.00024-.00101.00037-.00525.00214-.01007.00409-.01532.00623-.00037.00012-.00064.00024-.00101.00043-.00461.00183-.00882.00354-.0134.00537-.00125.00055-.00247.00104-.00372.00153-.00394.00159-.00735.00299-.01129.00458-.00128.00055-.00253.00104-.00381.00153-.00394.00165-.00787.00323-.01178.00482-.00101.00037-.00201.00079-.00299.00122-.00525.00214-.00952.00385-.01477.00598-.00055.00024-.00113.00043-.00168.00067-.00394.00159-.00879.0036-.0127.00519-.00159.00061-.00311.00128-.0047.00189-.00327.00134-.00647.00262-.00974.00397-.00171.00067-.00342.0014-.00513.00208-.00327.00134-.00616.0025-.00943.00385-.00186.00073-.00366.00153-.00552.00226-.00458.00189-.00919.00372-.01376.00562-.00119.00049-.00235.00098-.00354.00146-.00327.00134-.00729.00299-.01059.00433-.00192.00079-.00385.00153-.0058.00232-.00327.00134-.00586.00244-.00916.00378-.00174.00067-.00348.0014-.00522.00214-.00327.00134-.00638.00256-.00964.00391-.00168.00073-.0033.0014-.00497.00208-.00458.00189-.00934.00385-.01392.00568-.00134.00055-.00275.00116-.00409.00171-.00327.00134-.00674.00275-.01001.00409-.00217.00092-.00443.00183-.00659.00275-.00262.00104-.00504.00201-.00763.00311-.00226.00092-.00455.00183-.00677.00281-.00198.00079-.0054.0022-.00739.00299-.00241.00104-.00482.00201-.00723.00299-.00394.00165-.00732.00299-.01123.00464-.00177.00073-.00348.0014-.00522.00214-.00394.00159-.00711.00293-.01102.00452-.00195.00085-.00385.00159-.0058.00238-.00327.0014-.00552.00232-.00879.00366-.00198.00079-.00397.00165-.00595.00244-.00259.0011-.00555.00232-.00815.00336-.00223.00092-.00439.00183-.00659.00275-.00259.0011-.00513.00214-.00775.00323-.00412.00165-.00821.00336-.01233.00507-.00259.0011-.00446.00183-.00705.00293s-.00525.0022-.00784.00323c-.00195.00085-.00418.00177-.00616.00256-.00266.0011-.00537.00226-.00803.00336-.00195.00079-.00391.00159-.00586.00244-.00278.0011-.00555.00226-.0083.00342-.00262.0011-.00403.00165-.00662.00275-.00363.00153-.00732.00305-.01093.00458-.0033.00134-.00601.0025-.00928.00385-.00229.00092-.00458.00189-.00687.00287-.00195.00079-.00555.00232-.00751.00311-.00232.00098-.0047.00195-.00699.00293-.00262.00104-.00455.00189-.00714.00293-.00238.00104-.00473.00201-.00711.00299-.00327.00134-.00543.00226-.0087.00366-.00174.00067-.0036.00146-.00534.0022-.00455.00189-.00897.00378-.01355.00568l-.00531.0022c-.00327.0014-.00626.00262-.00952.00397-.00162.00073-.00327.0014-.00491.00208-.00327.00134-.0062.00262-.00946.00397-.00189.00079-.00378.00159-.00565.00238-.00391.00165-.00702.00293-.01093.00458l-.00302.00128c-.00522.0022-.00925.00385-.01447.00604-.00107.00049-.0022.00092-.0033.0014-.00391.00165-.00735.00311-.01129.00476-.0015.00061-.00299.00122-.00449.00189-.00394.00165-.0062.00256-.0101.00421-.00153.00067-.00302.00128-.00458.00195-.00455.00189-.00848.00354-.01303.00549-.0004.00012-.00073.00031-.00113.00049-.00522.0022-.01004.00421-.01526.00641-.00031.00012-.00064.00024-.00098.00043-.00458.00189-.00912.00385-.01367.00574-.00101.00043-.00198.00085-.00296.00128-.00391.00165-.0079.0033-.01181.005-.00119.00049-.00232.00098-.00348.00146-.02023.00854-.04071.01721-.06091.02582-.00015.00006-.00024.00006-.0004.00012-.13681.05817-.27277.11676-.40906.17639-.37796.16669-.55008.60791-.38443.98669.1232.28168.39859.44965.68756.44965.10034,0,.20233-.02026.30011-.06299.51236-.22406,1.03653-.44049,1.55801-.64319.38608-.15009.57739-.58472.42731-.97076-.11536-.29675-.39886-.47845-.69922-.47845h0Zm-4.6723,2.15991c-.11975,0-.24127.02881-.3541.08936-.08606.04651-.17276.09375-.25851.14087-.00003,0-.00006.00006-.00009.00006-.01505.00824-.02939.01611-.0444.02441-.00082.00049-.00162.00092-.00247.00134-.00375.00208-.00714.00397-.01089.00604-.00162.00085-.00317.00177-.00479.00262-.00375.00208-.0061.00336-.00986.00543-.00125.00073-.0025.0014-.00375.00208-.00375.00208-.00797.00439-.01172.00647-.00168.00098-.0033.00183-.00497.00275-.00375.00208-.00677.00378-.01053.00586-.00192.00104-.00388.00214-.0058.00317-.0025.0014-.00497.00275-.00748.00415-.00223.00122-.00439.00244-.00659.00366-.0025.0014-.00488.00269-.00739.00409-.00211.00116-.00424.00238-.00638.00354-.00186.00104-.00409.00226-.00595.0033-.00574.00317-.01144.00635-.01715.00952-.00064.00037-.00116.00061-.0018.00098-.00336.00189-.00668.00372-.01004.00555-.00061.00037-.00204.00116-.00266.00153-.00354.00195-.00711.00391-.01065.00592l-.00085.00043c-.21033.11694-.4198.23584-.62848.35663l-.00079.00043c-.00381.0022-.0076.00439-.01138.00659-.00061.00037.00043-.00024-.00021.00012-.01093.00635-.02188.0127-.03284.01904-.00122.00073-.00214.00128-.00339.00195-.00284.00165-.00571.00336-.00854.005-.00122.00067-.00406.00232-.00528.00305-.00241.0014-.00485.00281-.00726.00421-.00247.00146-.00446.00262-.00693.00403-.00241.0014-.00479.00281-.0072.00421-.00369.00214-.00821.00476-.0119.0069-.00159.00092-.00308.00183-.00467.00275-.00308.00177-.00589.00342-.00897.00525-.00171.00098-.00339.00195-.00507.00293-.00372.00214-.00589.00342-.00961.00562-.00128.00073-.00256.00146-.00388.00226-.0043.0025-.00891.00519-.01324.00769-.00006.00006-.00018.00012-.00024.00018-.00989.00574-.01932.01129-.02921.01709-.00031.00018-.00064.00037-.00095.00055-.09338.05463-.18607.10931-.27911.16473-.35425.21246-.47012.67169-.25861,1.02692.14029.2356.38943.36639.64511.36639.13049,0,.26273-.03412.383-.10571.48053-.28613.97366-.56604,1.46573-.83197.36441-.1969.50018-.65198.30325-1.01642-.13568-.25104-.39383-.39355-.66049-.39355h0Zm-4.36639,2.72485c-.14999,0-.30148.04486-.43304.13812-.47375.33838-.94189.68762-1.40411,1.04773-.32587.2547-.38403.72534-.12973,1.05176.14789.18982.36887.28912.59219.28912.1611,0,.32343-.0517.46039-.15839.44144-.34387.89597-.68304,1.35089-1.00806.33704-.24072.4151-.70917.17432-1.0462-.14639-.20496-.37689-.31415-.6109-.31409h0Zm-3.99408,3.24646c-.18161,0-.36377.06561-.50787.1983l-.00052.00049c-.00604.00555-.01212.01117-.01816.01672-.00107.00098-.00119.0011-.00229.00214-.00623.00574-.01245.01147-.01865.01721-.00055.00049-.00098.00085-.00153.0014-.00565.00519-.01132.01044-.017.01569-.00055.00049-.00241.0022-.00293.00275-.00598.00549-.0119.01099-.01788.01648-.00107.00104-.00201.00189-.00311.00293-.00531.00488-.01053.00977-.01584.01465-.0011.00104-.00198.00183-.00305.00287-.00583.00537-.01166.0108-.01746.01617-.0011.00104-.0029.00269-.004.00372-.00516.00476-.01038.00964-.01553.0144-.00055.00049-.00208.00195-.00262.00244l-.01712.01593c-.00162.00153-.00351.00323-.00516.00476-.00467.00433-.00934.00873-.01401.01306-.00162.00153-.00214.00201-.00378.00354-.00546.00507-.01093.01019-.01639.01526-.00165.00153-.00424.00397-.00586.00549-.00446.00415-.00891.0083-.01334.01245-.00162.00153-.0043.00403-.00595.00555-.00461.00427-.00925.00861-.01385.01294-.00217.00201-.00464.00433-.00681.00635-.00439.00415-.00873.00818-.01312.01233-.00272.0025-.00494.00458-.00763.00714-.00388.0036-.00775.0072-.0116.01086-.00272.0025-.00494.00464-.00766.00714-.00406.00385-.00815.00769-.01221.01147-.00323.00305-.0065.0061-.00974.00916-.00308.00287-.0061.00574-.00919.00861-.00269.00256-.00595.00562-.00867.00818-.00363.00342-.00729.00684-.01096.01025-.00378.0036-.00729.0069-.01108.0105-.00293.00275-.00583.00549-.00876.00824-.00323.00305-.00537.00507-.00864.00812-.00455.00433-.00916.00861-.01373.01294-.00323.00305-.0058.00549-.00903.00854-.00238.00226-.00479.00452-.0072.00677-.00323.00305-.00626.00592-.00949.00897-.00436.00415-.00873.0083-.01309.01239-.00323.00305-.00668.00635-.00992.0094l-.00641.00604c-.00592.00562-.01089.01031-.01682.01599-.00208.00195-.00409.00385-.00613.0058-.00378.00354-.00635.00598-.0101.00958-.00183.00171-.00375.00354-.00558.00525-.00644.00616-.01303.01239-.0195.01855-.00119.00116-.00241.00226-.00357.00342-.00378.0036-.00677.00641-.01056.01001-.00183.00177-.00363.00348-.00546.00519-.00644.00616-.01227.01172-.01874.01788-.00146.0014-.0029.00275-.00436.00415-.00323.00305-.00745.00708-.01065.01019-.00168.00159-.00333.00311-.005.00476-.00644.0061-.01266.01208-.0191.01825-.00134.00122-.00272.00256-.00406.00385-.00375.0036-.00745.00714-.0112.01068-.0011.00104-.0022.00214-.0033.00317-.00644.00616-.01425.01361-.02069.01978-.00119.00116-.00241.00232-.00363.00348-.01181.01135-.02408.02313-.03586.03442-.00092.00085-.00177.00171-.00269.00256-.01178.01135-.02414.02319-.03595.03455-.00098.00098-.00192.00189-.00287.00281-.01181.01135-.02414.02325-.03592.03461-.00092.00092-.00186.00183-.00278.00269-.01178.01135-.02359.02277-.03537.03418-.00131.00128-.00266.00256-.00397.00385-.01178.01141-.02356.02283-.03531.03424-.00092.00085-.00177.00165-.00266.00256-.008.00775-.01572.0152-.02371.02301-.00009.00006-.00018.00018-.00031.00031-.00372.0036-.00787.00763-.01163.01129-.00116.00116-.00232.00226-.00351.00342-.00748.00726-.01346.01306-.0209.02032-.00098.00098-.00198.00195-.00293.00287-.00427.00415-.0072.00702-.01147.01117l-.00284.00275c-.00693.00677-.01398.01367-.0209.02045-.00116.0011-.00235.00226-.00351.00342-.0032.00311-.00784.00763-.01105.01074-.00128.00128-.00266.00262-.00394.00391-.00641.00623-.01318.01288-.01956.0191-.00143.0014-.00281.00275-.00424.00415-.00372.00366-.0072.00708-.01093.01074-.00134.00128-.00266.00256-.004.00391-.00638.00623-.01187.01166-.01825.01788-.00204.00201-.00406.00397-.0061.00598-.00372.00366-.00629.00616-.01001.00983l-.00522.00513c-.00583.00574-.01135.01117-.01721.01691l-.00632.00623c-.00317.00311-.00674.00665-.00992.00977-.00055.00055-.00113.0011-.00168.00165-.0069.00684-.01355.01337-.02045.02014-.00235.00232-.00467.00464-.00699.00696-.0032.00311-.00586.00574-.00906.00891-.00446.00439-.00897.00885-.01343.01324-.0032.00317-.00552.00549-.00873.00861-.00256.00256-.00519.00519-.00778.00775-.00372.00366-.00757.00745-.01129.01117-.00372.00366-.00739.00726-.01111.01099l-.00797.00787c-.00305.00305-.00613.0061-.00919.00916-.00317.00311-.00665.00653-.00983.0097-.004.00397-.00797.00793-.01196.0119-.00266.00262-.0043.00427-.00696.0069-.00381.00378-.00772.00769-.01154.01147-.00266.00262-.00497.00494-.00763.00757-.00433.00433-.00864.00861-.01297.01294-.00211.00208-.004.00397-.00613.0061-.00476.0047-.00955.00952-.01431.01422-.00159.00159-.00296.00299-.00455.00458-.00467.00464-.00934.00928-.01398.01392-.00159.00159-.00375.00378-.00534.00537-.0054.00537-.01083.0108-.01624.01617-.00052.00055-.00043.00049-.00098.00098-.29263.29291-.29263.76758.00012,1.06042.14648.14648.33841.21973.5304.21973.19189,0,.38385-.07318.53027-.2196.39621-.39612.80554-.78894,1.21667-1.16766.30466-.28058.32416-.75507.04352-1.05975-.14786-.16052-.34952-.24188-.55182-.24188h0Zm-3.56683,3.71417c-.21234.00006-.42334.08972-.57166.2641-.00183.0022-.00351.00415-.00534.00629-.00101.00122-.00201.00238-.00305.0036-.00366.00433-.00613.00726-.0098.0116-.00089.00098-.00177.00208-.00266.00311-.00275.00323-.00494.0058-.00766.00903-.00104.00122-.00211.00244-.00314.00366-.00183.00214-.00531.00629-.00714.00848-.00113.00128-.00223.00262-.00336.00391-.00183.0022-.00555.00653-.00735.00873-.00095.0011-.00189.0022-.00281.0033-.00366.00433-.00644.00763-.0101.0119l-.00073.00092c-.00366.00433-.00613.0072-.00977.01154-.00064.00073-.00125.00146-.00189.0022-.00272.00323-.00546.00647-.00818.0097-.00098.00116-.00192.00232-.0029.00342-.0018.0022-.00577.00684-.0076.00903-.00092.0011-.00186.0022-.00278.0033-.00729.00867-.01324.01569-.02054.02435-.00049.00055-.00098.00116-.00146.00177-.00366.00433-.00525.00623-.00891.01056-.00073.00085-.00143.00171-.00217.00256-.00363.00433-.00488.0058-.00851.01013-.00061.00073-.00122.00146-.0018.00214-.00366.00433-.00635.00757-.00998.01184-.00015.00018-.00027.00037-.0004.00049-.00363.00433-.00693.00824-.01056.01257-.00043.00049-.00079.00092-.00119.0014-.00363.00433-.00546.00653-.00909.01086-.0007.00085-.00137.00165-.00204.00244-.00363.00433-.00485.00574-.00845.01007-.00073.00085-.00146.00177-.00217.00262-.00275.00323-.00577.00684-.00848.01007-.00064.00079-.00128.00153-.00192.00232-.00363.00433-.00665.00793-.01028.01227-.00034.00043-.00064.00073-.00098.00116-.00363.00433-.00565.00677-.00928.01111-.0007.00085-.00146.00177-.00217.00256-.00183.0022-.00629.00751-.00809.0097-.00085.00104-.00165.00195-.0025.00299-.00272.00323-.00531.00635-.00803.00958-.00079.00098-.00159.00189-.00235.00281-.00723.00867-.01285.01544-.02008.02411-.00107.00122-.00208.00244-.00311.00372-.00183.0022-.00497.00598-.00677.00812-.00128.00153-.00259.00311-.00388.00464-.0018.0022-.00446.00537-.00626.00751-.00122.00146-.00244.00293-.00366.00446-.00272.00323-.00555.00665-.00827.00989-.00125.00153-.0025.00299-.00375.00452-.00272.00323-.00476.00574-.00748.00903-.00137.00165-.00281.00336-.00415.005-.00183.00214-.00381.00458-.00565.00677-.00146.00177-.00299.0036-.00446.00537-.0018.00214-.00348.00415-.00528.00635-.00171.00208-.00339.00409-.0051.00616-.00092.00104-.00293.00348-.00385.00458-.00363.00439-.0072.00873-.01083.01312l-.00366.00439c-.00189.00232-.00378.00458-.00571.0069-.00089.0011-.00302.00366-.00394.00476-.00211.0025-.00418.00507-.00629.00763-.00092.00104-.00168.00201-.00256.00305-.00238.00287-.00479.0058-.00714.00867l-.00122.00146c-.00818.00989-.01639.01984-.02457.02972l-.00079.00098c-.00262.00317-.00522.00635-.00784.00952l-.00125.00146c-.23752.28809-.47064.57849-.69934.87109-.25507.32635-.1973.79767.12909,1.05273.13712.10718.2998.15912.4613.15912.2229,0,.44357-.09894.59146-.28815.34421-.44043.7027-.88025,1.06549-1.30725.26822-.31567.22974-.789-.08594-1.05719-.14105-.11987-.31357-.17847-.48526-.17847h0Zm-3.08545,4.12061c-.24417,0-.48364.11908-.62766.3385-.32068.48846-.63013.98193-.92834,1.4801-.21277.35535-.09717.81598.25824,1.02875.12067.0722.25342.10657.38452.10657.25504,0,.50369-.13013.64423-.36487.28708-.47949.58829-.95972.89529-1.42737.22733-.34631.13089-.81128-.21536-1.03857-.12692-.08331-.26968-.12317-.41092-.12311h0Zm-2.55118,4.4696c-.2771,0-.54355.15417-.67386.41974-.09625.19611-.19089.39282-.28391.59009l-.00116.00244c-.00162.00342-.0032.00677-.00479.01013l-.00131.00281c-.00159.00336-.00314.00665-.0047.01001l-.00174.00366c-.00143.00305-.0029.00616-.00433.00922-.00113.00244-.00256.00543-.00369.00787-.00122.00256-.00241.00513-.00363.00769-.00171.00366-.00342.00726-.00513.01093-.00061.00128-.00122.00256-.00183.00391-.00171.00366-.00311.00659-.00482.01031-.00058.00116-.00113.00238-.00168.00354-.00174.00372-.00394.00842-.00565.01208l-.00052.00104c-.14023.29932-.27689.60028-.40967.90204-.16479.37848.00739.81934.38559.98578.0983.04327.20081.06372.3017.06372.28833,0,.56326-.16724.68686-.44806.22534-.51202.46454-1.02618.711-1.52838.18246-.37183.02899-.82123-.34286-1.00372-.10629-.05219-.21893-.07684-.32986-.07684h0Zm-1.97549,4.75305c-.31131,0-.60217.19531-.70914.50616-.0593.1723-.11743.34497-.17444.51782l-.0004.00128c-.00531.01611-.01062.03223-.01593.0484-.0004.00122-.0007.00208-.0011.00336-.00101.00311-.00204.00623-.00305.00928-.00043.00128-.00128.00391-.00168.00519-.00082.00244-.00165.00494-.00244.00745-.00085.00256-.00183.00549-.00266.00806-.00064.00189-.00128.00391-.00189.0058-.00085.00256-.00284.00867-.00366.01123-.00027.00079-.00055.00159-.00079.00238-.005.01526-.0097.02966-.01468.04498-.00009.00031-.00021.00067-.00034.00104-.00165.00507-.00299.00922-.00464.01434-.00009.00018-.00015.00037-.00021.00061-.10641.32727-.20883.65601-.30698.98517-.11676.39624.10892.81256.50504.93073.0715.02136.14365.03149.21466.03149.32303,0,.62137-.21039.71841-.53583.15991-.53607.33322-1.07599.51514-1.60474.13477-.39166-.07349-.81842-.46518-.95319-.08081-.02783-.16312-.04102-.24405-.04102h0Zm-1.36942,4.96179c-.34729,0-.65903.24261-.73325.59601-.05981.28479-.11667.57001-.17053.85571-.00027.00128-.00049.0025-.00073.00385-.00061.00323-.00122.00647-.00183.00977-.00024.00128-.0007.00366-.00095.00494-.00055.00293-.0011.00592-.00168.00885-.00024.00128-.00107.00568-.00131.00702-.00046.00244-.00092.00494-.0014.00745-.00098.00525-.00162.00867-.00259.01392-.00024.00122-.00049.00256-.0007.00378-.00073.00397-.0014.00757-.00214.01147-.00021.00104-.00043.00214-.00061.00323-.00073.00391-.00156.00824-.00229.01221-.00018.00098-.00037.00189-.00055.00287-.00095.00525-.00146.00793-.00244.01312l-.00027.00146c-.04712.25336-.09189.50696-.13437.76099-.06644.40735.20898.79224.61649.86041.0419.00696.08353.01038.12463.01038.35983,0,.67749-.2597.73883-.6264.09235-.55194.19745-1.10938.31241-1.65668.08517-.4054-.17444-.80304-.5798-.88818-.05197-.01093-.10382-.01617-.15491-.01617h0Zm-.74469,5.09375c-.38589.00006-.71384.29608-.74652.68762-.00372.04443-.00735.08887-.01093.1333-.00012.00134-.00021.0025-.00034.00385-.00024.00305-.00049.0061-.00073.00922-.00021.00262-.00027.00348-.00049.0061-.00018.00244-.00037.00482-.00058.00726-.00021.00269-.00049.00604-.00067.00867-.00018.00195-.00034.00391-.00049.00586-.00021.00262-.00067.00867-.00089.01129-.00009.00104-.00015.00195-.00024.00299-.02921.36951-.0535.73755-.07303,1.10748-.00006.00146-.00015.00305-.00024.00452-.00012.00269-.00037.00726-.00052.00995-.00012.0025-.00024.005-.0004.00751-.00012.00269-.00018.00342-.00031.00604-.00015.00317-.00034.00635-.00049.00952-.00009.00128-.00015.0025-.00021.00385-.00702.13562-.0134.27124-.01913.40692-.01749.41382.3038.76349.71765.78101.01077.00049.02151.00067.0322.00067.39963,0,.73178-.31525.74881-.71832.02362-.55914.05923-1.12531.1058-1.6828.03448-.41278-.27219-.77533-.68497-.80981-.02127-.00177-.04233-.00269-.06329-.00269h0Zm-.11035,5.14691c-.0101,0-.02026.00018-.03046.00061-.41388.01654-.73602.36542-.71948.7793.0065.16339.01398.32666.02237.48999l.00012.00214c.00018.00391.0004.00781.00061.01172.00006.00134.00003.00092.00009.00226.00021.00397.00043.00787.00064.0119l.00009.00171c.00064.01245.00128.02484.00195.03729l.00012.00256c.00015.00293.00034.00592.00049.00885.00006.00134.00024.00482.00031.0061.00015.00281.00031.00568.00046.00848.00015.00262.00021.0036.00034.00623.00015.00262.00031.00531.00043.00787.00015.00269.00024.0047.0004.00739.00015.00244.00027.00494.0004.00745.00015.00262.00034.00568.00046.00836.00012.00195.00021.00397.00034.00592.00021.00397.00046.00842.00067.01239.00006.00098.00012.00201.00018.00305.00027.00525.00052.00946.00079.01477.00006.00067.00009.00134.00012.00201.00031.00531.0004.0072.0007.01245.00006.00153.00015.00311.00024.00464.00021.00391.00043.00739.00064.01135.00006.0011.00012.00214.00018.00323.00031.00531.0004.00714.0007.01239.00006.00092.00009.00183.00015.00275.00031.00525.00052.00928.00082.01459,0,.00012,0,.00024.00003.00037.0195.34314.04309.685.07092,1.02759.03336.39069.36075.68622.74646.68622.02032,0,.04086-.00085.06149-.0025.41284-.03351.72037-.39532.68689-.80817-.04526-.55774-.0795-1.12402-.10184-1.68317-.01608-.40369-.34842-.72009-.74884-.72009h0Zm.52191,5.12146c-.04044,0-.08148.0033-.12268.01007-.4079.06714-.68442.4516-.61865.85938.01395.0849.0278.16748.04227.25226.00009.00055.00018.0011.00027.00159.00089.00525.00159.00928.00247.01453.00006.00018.00009.00043.00012.00067.00067.00391.00159.00928.00226.01318.00015.00092.00034.00189.00049.00281.00089.00519.00153.00885.00241.0141.00043.0025.00085.005.00131.00751.00021.00128.00089.00513.0011.00647.00052.00299.00104.00604.00156.00903.00021.00128.00067.00391.00092.00519.00058.00342.00116.00677.00174.01019l.00049.00281c.0007.00403.00137.008.00208.01196l.00006.00043c.07919.45728.16592.91339.26013,1.36823.07339.35431.3855.59802.73364.59802.05042,0,.10162-.00513.15292-.01575.40558-.08405.66626-.48096.58224-.88654-.11349-.54779-.2171-1.10559-.30798-1.65778-.06049-.36749-.37851-.62836-.73917-.62836h0Zm1.14743,5.01813c-.07022,0-.14169.00995-.21246.03082-.39706.11713-.62411.53375-.50745.93085.00076.0025.00137.00464.00214.0072.00015.00043.00027.00092.00043.0014.16403.55591.3399,1.10962.52713,1.65948.10669.31104.39767.50684.70932.50684.08017,0,.16168-.01294.24179-.04022.39212-.13348.60178-.55957.46826-.95172-.18021-.52936-.35184-1.06989-.5101-1.60657-.09628-.32654-.39508-.53809-.71906-.53809h0Zm1.75873,4.83704c-.10004,0-.20172.02014-.29929.06268-.37973.16553-.55334.60748-.38782.98724.04349.09973.0874.19946.13168.29895.00055.00122.00015.00031.0007.00153.00662.01489.01331.02985.01996.0448.00055.00122.0018.00403.00235.00525.00095.00214.00189.00421.00287.00635.00107.0025.00232.00525.00342.00769.00082.00183.00162.0036.00244.00543.0011.00244.00317.00714.00427.00958.00055.00128.0011.0025.00168.00372.00217.00488.00354.00793.00574.01282.00006.00018.00015.00037.00024.00055.00876.01959.01749.039.02631.05859l.00003.00006c.1189.26416.24036.52679.36493.78888.00037.00079.00073.00153.0011.00232.00229.00488.0029.0061.00519.01099.00079.00165.00159.0033.00235.00488.00116.00244.00259.00543.00375.00787.0011.00232.00217.00464.0033.0069.00113.00244.00168.0036.00284.00604.00119.00244.00238.00494.00354.00739.00058.00122.00183.00385.00241.00507.00711.01495.01425.02985.02136.04474.00058.00122-.00012-.00024.00046.00098.03931.08215.07886.16412.11868.24603.12979.26691.39694.42218.67502.42218.11005,0,.22186-.02435.32745-.07568.3725-.18115.52762-.63.34647-1.0025-.24457-.50293-.48193-1.01794-.70551-1.53082-.12299-.2821-.39862-.4505-.68793-.4505h0Zm2.34653,4.58081c-.13022,0-.26218.03394-.38226.10522-.35538.21106-.47287.66974-.26321,1.02557.15442.26007.31232.51953.47275.77686.00009.00018.00024.00037.00034.00055.0029.00464.00488.00787.00778.01245.00034.00061.00067.0011.00101.00165.0029.00464.0054.00867.0083.01331h0c.0029.00464.00549.00879.00839.01337.00058.00098.00125.00201.00186.00299.00217.00348.00397.00641.00613.00983l.00275.00439c.00143.00232.00381.0061.00525.00842.00116.00177.00232.00366.00345.00549.00143.00226.00305.00488.00452.0072.00116.00183.00232.00372.00351.00562.00073.0011.00339.00537.00409.00653.00601.00958.01202.0191.01804.02869l.00085.0014.00613.0097c.0007.00116.00089.0014.00159.00256.00214.00342.0043.00684.00644.01025l.00058.00092c.00235.00372.00464.00732.00696.01105l.00006.00012c.11646.18494.2345.3692.35406.55267.14377.22064.38397.34064.62906.34064.14038,0,.28238-.03937.40878-.1217.34702-.22614.44501-.6908.21887-1.03784-.30536-.46857-.60498-.94995-.8905-1.43079-.1402-.23608-.38959-.36719-.64557-.36713h0Zm2.8992,4.25287c-.1608,0-.32288.05151-.45969.15784-.32611.25342-.38583.72266-.13419,1.04956.12952.16675.26065.33289.39297.49805.00034.00043.00067.00079.00101.00122.00345.00433.00516.00647.00864.01074.00064.00085.00131.00171.00195.0025.00348.00433.00491.0061.00836.01038.00055.00073.00113.0014.00168.00208.00345.00433.00516.00647.00861.01074.00116.00146.00235.00293.00351.00439.00259.00323.0043.00531.0069.00854.0018.00226.00357.00446.00537.00671.00085.00104.00275.00342.0036.00446.00226.00281.00449.00562.00674.00836l.00174.0022c.00247.00305.00491.0061.00735.00916l.00116.0014c.01108.01373.02209.0274.03317.04114l.00037.00049c.00281.00342.00558.0069.00839.01038l.00012.00012c.09424.11658.18921.23285.28485.34863l.00064.00079c.00272.0033.00546.00665.00818.00995.00089.00104-.00024-.00031.00064.00073.00748.00909.01498.01813.02249.02716.00089.0011.00296.0036.00385.0047.00168.00201.00339.00409.00504.00604.00177.00214.00311.00378.00488.00592.00143.00171.00293.00354.00439.00531.00177.00214.00424.00513.00601.00726.00122.00146.00247.00293.00369.00439.00354.00427.00494.00598.00848.01025.00034.00037.00067.00079.00101.00122.00354.00427.00687.00824.01041.01251.00012.00018.00024.00031.0004.00049.00354.00427.0065.00781.01007.01208.00021.00031.00046.00061.0007.00085.07541.0907.15115.18103.22742.27118.14825.17389.35895.26331.57101.26331.17111,0,.34311-.05823.48395-.17731.31628-.26752.35583-.74072.08838-1.05701-.36142-.42731-.71857-.8678-1.06152-1.30914-.14786-.19025-.36911-.28979-.59274-.28979h0Zm3.40448,3.86127c-.19162,0-.38327.073-.52966.21899-.29324.29248-.29388.7674-.00134,1.06067.20477.20532.41211.409.62195.61096l.00052.00049c.01276.01233.02551.0246.0383.03687.00101.00098.00034.00031.00134.00128.00626.00598.01251.01202.01874.01801l.00122.00116.01877.01794.00024.00024c.00607.00586.01215.01166.01822.01746l.00296.00281c.00592.00568.01187.01135.01779.01703.00104.00098.00076.00073.0018.00171.00546.00525.01096.01044.01642.01569.00101.00098.00229.0022.0033.00317.00565.00537.01126.01068.01691.01611.00104.00098.00317.00299.00421.00397.00531.00507.01059.01013.01593.0152.00101.00098.00064.00061.00168.00159.00568.00543.01132.0108.017.01617.00208.00195.00269.00256.00473.00452.00552.00519.01105.01044.01654.01569.00104.00098.00262.0025.00366.00348.00467.00446.00937.00885.01404.01331.00208.00195.0029.00275.00494.0047.0054.00513.01074.01019.01611.01526.00104.00098.00385.00366.00488.00464.00491.00464.00986.00934.01477.01398.00104.00098.00177.00165.00281.00262.00548.00525.01102.01044.01654.01569.00208.00189.00305.00287.00513.00482.0054.00507.01077.01019.01617.01526.00208.00195.00244.00226.00449.00421.00464.00439.00925.00873.01385.01306.00208.00195.00235.0022.00443.00415.00549.00519.01102.01044.01654.01556.00101.00098.00345.0033.00449.00427.0058.00543.01157.01086.01736.0163h0c.00595.00562.0119.01117.01785.01678.00104.00098.00284.00262.00388.0036.00583.00549.01169.01099.01755.01648l.00214.00201c.00577.00543.01154.0108.01733.01624l.0018.00165c.00623.00586.01242.01166.01868.01752.00104.00098.00067.00061.00171.00159l.03882.03625.00052.00049c.04672.04352.09354.08704.1405.13043.14426.1333.32678.19916.50885.19916.20184,0,.40317-.08099.55096-.24091.28116-.3042.26245-.77875-.04175-1.05988-.41177-.38055-.82077-.77423-1.21561-1.1701-.14651-.14691-.33875-.22034-.53101-.22034h0Zm3.85303,3.41797c-.22263,0-.44299.09869-.59091.28754-.25497.32544-.19843.79565.12601,1.05145.21024.16473.42087.3266.63339.48676.00076.00061.00146.0011.00223.00171.00317.00238.00629.00476.00946.00714.00113.00085.00232.00171.00348.00256.00314.00238.00555.00421.0087.00659.00122.00092.00253.00189.00375.00281.00262.00195.005.00378.00766.00574.00153.00116.00308.00232.00461.00348.00262.00201.00491.00372.00754.00568.00153.00116.00302.00226.00452.00342.00262.00195.00638.00476.009.00677.00327.00244.0065.00488.00977.00726.00156.00122.00223.00171.00381.00293.00287.00214.00571.00427.00858.00641.00104.00079.00153.00116.00259.00195.0032.00238.00638.00476.00958.00714.00055.00043.00076.00061.00128.00098.00327.00244.00653.00488.00977.00732.00055.00043.00085.00061.00137.00104.21829.16345.43777.32446.65839.48309.13254.09534.28558.14117.43723.14117.23318,0,.46301-.10846.60956-.31219.24182-.3363.16525-.80493-.17105-1.04675-.45383-.32635-.90744-.66693-1.3483-1.01233-.13724-.10754-.30023-.15967-.46201-.15967h0Zm4.24051,2.91791c-.25473,0-.50311.12982-.64374.36407-.21317.35516-.09811.81592.25705,1.02905.41492.24908.8331.49036,1.25427.72382l.00018.00012c.00394.0022.00784.00433.01175.00653l.00018.00012c.00391.00214.00784.00433.01175.00647l.00049.00024c.00574.00323.01154.00641.01727.00958.00226.00122.00452.0025.00677.00372.00134.00079.00275.00153.00412.00232.00339.00183.0061.00336.00946.00519.00079.00043.00156.00085.00232.00128.00394.0022.00739.00409.01132.00629.00055.00031.00104.00055.00159.00085.06198.03418.12534.06891.18747.10278.11343.0614.23572.09052.35629.09052.26569,0,.5231-.14148.65921-.39117.19821-.36371.06409-.81921-.29962-1.01746-.49097-.26764-.98312-.54932-1.46286-.83728-.12082-.07251-.25391-.10706-.38528-.10706h0Zm4.56924,2.36853c-.28802,0-.56271.16687-.68652.44727-.16724.37885.00421.82153.38293.98895.00119.00049.00262.0011.00378.00165.00253.0011.0051.00226.00766.00336.00232.00104.00336.00146.00568.0025.0025.0011.00494.0022.00745.0033.00177.00079.00357.00159.00534.00238.00388.00171.00772.00336.0116.00507.00293.00128.0061.00269.00903.00397.00146.00067.0029.00128.00436.00195.00293.00128.00601.00262.00891.00391.00177.00079.00351.00153.00528.00232.0029.00128.00534.00232.00824.0036.00177.00079.00351.00159.00528.00232.0029.00128.005.0022.00793.00348.00186.00085.00372.00165.00558.00244.0029.00128.00534.00238.00824.00366.00168.00073.00333.00146.00497.00214.00293.00128.00565.0025.00854.00378.00162.00067.00323.0014.00482.00208.00293.00128.00641.00281.00934.00409.00131.00061.00262.00116.00394.00171.00351.00159.00711.00311.01062.00464.00095.00043.00183.00085.00278.00122.00934.00409.01801.00787.02734.01196.00046.00018.00092.00037.00137.00061.00409.00177.00793.00342.01202.00525.00101.00043.00201.00085.00305.00128.00348.00153.00699.00305.01047.00458.00125.00055.00247.0011.00372.00165.00351.00153.00638.00275.00986.00427.00122.00055.00241.00104.00363.00159.00348.00153.00687.00299.01038.00452l.00302.00128c.00409.00177.00775.00336.01184.00513.00043.00018.00082.00037.00125.00055.00467.00201.00836.00366.01303.00568.00024.00012.00055.00024.00079.00031.01871.00812.03693.01599.05563.02411.00027.00012.00055.00024.00085.00037.00467.00201.0083.00354.01297.00555.00037.00018.0007.00031.00107.00049.00467.00201.00842.00366.01312.00568.00015.00006.0004.00012.00055.00024.03271.0141.06519.02802.09793.04199l.00003.00006c.00467.00195.00916.00391.01385.00592.00012.00006.00024.00006.0004.00012.00467.00201.00912.00391.01379.00592h.00003c.00467.00201.00912.00391.01379.00592.00015.00006.00021.00006.00037.00012.02808.01196.05569.02374.0838.03564.00031.00012.00058.00024.00085.00037.0047.00201.0083.00354.013.00549.00034.00018.00076.00031.0011.00049.0047.00195.0083.00348.013.00549.00027.00012.00052.00024.00082.00037.02344.00989.04623.01953.06967.02942.00043.00012.00085.00031.00128.00049.00409.00177.00812.00342.01221.00519l.00266.0011c.00354.00146.00739.00311.01089.00458l.00311.00128c.00351.00146.0069.00293.01044.00439.00119.00049.00241.00104.00363.00153.00354.00146.00665.00281.01016.00427.0011.00049.00226.00092.00336.0014.00354.00146.0069.00287.01041.00433.0011.00049.00223.00098.00336.0014.0047.00201.00815.00342.01285.00543.00012,0,.00027.00006.0004.00012.0094.00397.01837.00769.02774.0116.0007.00031.0014.00061.00208.00085.00354.00153.0079.00336.01144.00482.0011.00043.0022.00092.0033.00134.00351.00146.00674.00281.01028.00427.00134.00061.00269.00116.00403.00171.00296.00122.00586.00244.00879.00366.00192.00079.00378.00159.00571.00238.00235.00098.00525.0022.0076.00317.00198.00079.00397.00165.00592.00244.00293.00122.00449.00183.00742.00305.00204.00085.00403.00171.00607.00256.00235.00098.00458.00189.00693.00287.00229.00098.00461.00189.00693.00287.00116.00049.00229.00098.00345.00146l.03104.01282c.00119.00049.00323.00134.00439.00183.00296.00122.00589.00244.00885.00366.00119.00049.00293.00122.00409.00171.00311.00128.00623.00256.00937.00385.00116.00049.00235.00098.00354.00146.00336.0014.00671.00275.01004.00415.00119.00049.00143.00061.00259.0011.00345.0014.00681.00281.01025.00421.00061.00024.00217.00085.00275.0011.0036.00153.00717.00299.0108.00446.00058.00024.00015.00006.00073.00031.21442.08832.42932.17474.64481.25934.09.03534.18271.05212.2739.05212.29941,0,.58228-.18054.69833-.47607.15137-.38556-.03845-.82086-.42401-.97223-.52066-.20447-1.04404-.42261-1.5556-.6485-.09854-.04352-.20132-.06409-.30252-.06409h0Zm4.82809,1.78113c-.32272,0-.62082.20996-.71817.53497-.11887.39679.10645.81482.50323.93365.21371.06403.42786.12634.64233.18689l.00085.00024c.00378.00104.0076.00214.01135.00317.00122.00037.00116.00037.00238.00067.00345.00098.00687.00195.01031.00293.00122.00031.00266.00073.00385.0011.00296.00079.00598.00165.00894.0025.0018.00049.00339.00092.00519.00146.00293.00079.00586.00165.00876.00244.00183.00049.0032.00092.005.0014.00272.00073.0054.00153.00812.00226.00241.00073.00421.00122.00662.00189s.00476.00134.00717.00201c.00302.00085.00711.00195.01013.00281.00104.00031.00208.00061.00308.00085.00485.0014.0094.00262.01425.00403.00015,0,.00027.00006.00043.00012.00485.00134.00882.00244.01364.00378l.0033.00092c.00302.00085.00751.00208.01053.00293.00137.00043.00269.00079.00406.00116.00363.00098.0072.00201.01083.00299.00079.00024.00162.00049.00241.00067.00363.00104.00836.00232.01199.00336.00073.00018.00146.00043.00217.00061.00424.00116.00876.00244.013.0036.00024.00006.00046.00012.0007.00018.28793.07996.57547.15649.86465.23016.06155.01556.12326.02295.18399.02295.33469,0,.63977-.22571.72623-.56488.10233-.40143-.14011-.80975-.5415-.91205-.54218-.13818-1.08868-.28961-1.62436-.45007-.07178-.02155-.14423-.0318-.21548-.03174h0Zm5.01242,1.16809c-.35944.00006-.67697.25928-.73868.62555-.06882.40826.20633.79504.61453.86407.00125.00024.00281.00049.00403.00073.00211.00031.00418.00067.00629.00104.00247.00043.00467.00079.00711.00122.0025.00037.00494.00079.00745.00122.00186.00031.00491.00079.00677.00116.00244.00037.00491.00079.00735.00122.00247.00043.00433.00073.00681.0011.00238.00043.00479.00085.00717.00122.00247.00043.00452.00073.00699.00116s.005.00085.00748.00128c.00125.00018.00381.00061.00504.00079.00473.00079.00949.00159.01425.00238.00308.00055.00519.00085.00827.0014.00192.00031.00391.00061.00583.00098.00247.00037.00595.00098.00842.0014.00256.00043.0051.00079.00766.00122.00247.00043.00345.00061.00592.00104.0029.00043.00568.00092.00854.0014.00186.00031.00369.00061.00555.00092.00293.00049.00592.00098.00888.00146.00183.00031.00311.00049.00494.00079.00287.00049.0058.00098.00864.0014.00247.00043.00327.00055.00574.00098.00284.00043.00574.00092.00858.0014.00186.00031.00333.00055.00519.00085.00287.00049.00568.00092.00858.0014.00183.00031.00381.00061.00565.00092.00287.00049.00574.00092.00858.0014.00186.00031.00375.00061.00562.00092.00269.00043.00543.00092.00812.00134.00186.00031.00424.00067.00607.00098.0152.0025.0303.00494.04547.00739.00125.00018.00281.00043.00403.00067.00305.00049.00613.00098.00922.00146.00122.00018.00354.00061.00479.00079.00287.00043.0058.00092.00867.0014.00186.00031.00385.00061.00571.00092.00278.00043.00558.00092.00836.00134.00186.00031.00369.00061.00555.00092.00275.00043.00546.00085.00821.00128.00186.00031.00446.00073.00632.00104.00266.00043.00537.00085.00803.00128.00186.00031.00348.00055.00531.00085.00293.00043.00592.00092.00885.0014.00186.00031.00269.00043.00455.00073.00327.00049.00662.00104.00989.00159l.00061.00006c.01227.00195.02457.00391.03687.00586.00122.00024.0022.00037.00345.00055.00281.00049.00571.00092.00851.0014.00186.00024.00391.00061.00574.00085.00241.00043.00476.00079.00714.00116.00247.00037.00485.00073.00732.00116.0025.00037.00497.00079.00748.00116.00186.00031.00443.00073.00626.00098.00256.00043.0051.00079.00766.00122.00247.00037.00427.00067.00674.00104.00253.00043.0051.00085.0076.00122.00186.00031.00461.00073.00647.00104.00244.00037.00488.00073.00735.00116.00247.00037.00415.00061.00662.00104.00272.00037.00543.00079.00812.00122.00186.00031.00366.00061.00549.00085l.00815.00128c.00183.00031.00494.00079.00677.00104.00253.00043.0051.00079.00763.00122.0043.00067.0094.00146.01373.00214.00113.00018.00226.00037.00339.00049.00308.00049.0072.00116.01031.00165.00244.00037.00485.00073.00732.0011.00247.00043.00464.00073.00711.0011.00235.00037.00476.00073.00711.0011.00247.00043.0043.00067.00677.00104.00244.00043.00497.00079.00742.00116.00186.00031.0051.00079.00696.0011.0025.00037.005.00073.00751.00116.00247.00037.00378.00055.00626.00092.0025.00043.00507.00079.00757.00116.00247.00043.00507.00079.00754.00116.00208.00037.00424.00067.00632.00098.00308.00049.00519.00079.00827.00128.00189.00031.00381.00055.00574.00085.00308.00049.00601.00092.00909.0014.00177.00024.00357.00055.00534.00079.00308.00049.0065.00098.00958.00146.0015.00024.00299.00049.00452.00067.00989.00153.01886.00287.02875.00439.00116.00018.00226.00031.00342.00049.00308.00049.00742.00116.01053.00159.0018.00031.00354.00055.00534.00085.00308.00043.00589.00085.00897.00134.00183.00024.00366.00055.00549.00079.00308.00049.00616.00092.00925.0014.00143.00024.00287.00043.00427.00067.00369.00055.00693.00104.01065.00159l.00375.00055c.00372.00055.00708.00104.01077.00159.00119.00018.00241.00037.0036.00055.00308.00049.00745.0011.01056.00159.00143.00018.00284.00043.00427.00061.00369.00055.00769.00116.01138.00171.00085.00012.00168.00024.00253.00037.00433.00067.00906.00134.0134.00201.00037.00006.00076.00012.0011.00018.00989.00146.01953.00287.02942.00433.00021.00006.0004.00006.00061.00006.00494.00073.00928.0014.01425.00214.00015,0,.00024.00006.00043.00006.00494.00073.00888.00128.01382.00201.00067.00012.00143.00024.00211.00031.00372.00055.00864.00128.01233.00183.00095.00012.00186.00024.00281.00043.00369.00055.00775.0011.01144.00165.0011.00018.00211.00031.0032.00049.00372.00055.00864.00122.01236.00177.00052.00012.0011.00018.00165.00024.00494.00073.0087.00128.01364.00201.00024,0,.00052.00006.00076.00012.26288.03821.52615.07397.78955.10724.03156.00397.06281.00586.09381.00586.37231,0,.69525-.27704.74313-.65607.05194-.41095-.23911-.78613-.65005-.83807-.55524-.07019-1.11642-.15283-1.66797-.24579-.04218-.00708-.08411-.01056-.12549-.01056h0Zm5.11975.54028c-.3992,0-.73123.3147-.74875.71747-.01794.41382.30295.76385.71677.7818.58224.02533,1.16483.03864,1.74731.03998h.0018c.41339,0,.74899-.33466.74994-.74823.00098-.41425-.33401-.75079-.74823-.75177-.55963-.00128-1.12677-.01428-1.68573-.03851-.01108-.00049-.02209-.00073-.03311-.00073h0Zm6.85709-.26569c-.03015,0-.06064.00183-.09134.00555-.55542.06744-1.11987.12427-1.6777.16888-.4129.03296-.72089.39447-.68787.80737.0314.39258.35968.69025.74683.69025.01978,0,.03979-.00079.05984-.00232.00208-.00018.00412-.00037.0062-.00055.00177-.00012.00351-.00024.00528-.00043.00281-.00018.00626-.00049.00906-.00067.00232-.00024.00461-.00043.00696-.00061.00208-.00012.00385-.00031.00592-.00043.00632-.00055.01266-.00104.01898-.00159.0007-.00006.00259-.00018.0033-.00024.00397-.00031.00793-.00067.0119-.00098.0007-.00006.00119-.00006.00189-.00012.52133-.04254,1.04202-.09473,1.56168-.15643.00067-.00012.00137-.00018.00204-.00024.00531-.00067.01068-.00128.01596-.00195.00348-.00037.00769-.00092.01114-.00128.00143-.00018.00278-.00037.00418-.00055.00418-.00049.00851-.00098.0127-.00146.00073-.00012.0015-.00018.00223-.00031.00488-.00055.01044-.00122.01529-.00183.00015,0,.00031-.00006.00046-.00006.01529-.00183.03058-.00366.04584-.00555.41052-.05054.70273-.42401.65286-.83478-.04623-.38049-.36975-.65967-.74362-.65967h0Zm5.06195-.93457c-.06006,0-.12109.00726-.18198.02246-.54272.13525-1.09583.26111-1.64395.37402-.4057.0835-.66687.48016-.58331.88586.07303.35468.38531.59888.73383.59888.04929,0,.09937-.00494.14954-.01508.50156-.10327.99988-.21527,1.49799-.33679.00073-.00018.00153-.00037.00229-.00055.00409-.00098.00879-.00214.01288-.00311.00119-.00031.00238-.00061.0036-.00092.00339-.00079.00751-.00183.01093-.00269.00183-.00043.00363-.00085.00546-.00128.00409-.00104.00916-.00226.01324-.0033.00211-.00049.00424-.00104.00635-.00153.00342-.00085.00531-.00128.0087-.00214.00302-.00073.00601-.00146.009-.0022.00204-.00055.00381-.00098.00586-.00146.00293-.00073.00586-.00146.00879-.00214.00204-.00055.0032-.00079.00525-.00128.00327-.00085.00656-.00165.00983-.00244.0007-.00018.00162-.00043.00229-.00055.03476-.00861.06955-.01721.10428-.02588.40192-.10022.64651-.50726.54633-.90912-.08502-.34106-.3909-.56885-.72717-.56879h0Zm4.90707-1.55206c-.08978,0-.18115.01624-.26993.05048-.5217.20142-1.0549.39459-1.58481.57434-.39224.133-.60242.55884-.46939.95111.10596.31244.39761.50934.71021.50934.07983,0,.1611-.01288.24094-.03992.55109-.18689,1.09894-.38538,1.64322-.59552.38641-.14911.57877-.58331.4296-.96973-.1149-.29767-.3988-.48016-.69983-.4801h0Zm4.67636-2.1488c-.11981,0-.24139.02881-.35434.08948-.49258.26471-.99756.52264-1.50089.76672-.37271.18073-.52838.62933-.34766,1.00208.12961.26727.397.42291.67542.42291.10947,0,.2207-.02405.32587-.07489.52383-.25397,1.04446-.5199,1.55933-.79657.36334-.19666.4993-.65039.30359-1.01459-.13538-.25189-.39401-.39514-.66132-.39514h0Zm4.37283-2.71423c-.15027,0-.30203.04504-.43387.13873-.45596.3241-.9249.64294-1.39374.94769-.34729.22571-.44586.69025-.22012,1.03754.14371.22113.38416.34137.62955.34137.13928,0,.28015-.03876.40579-.11975.27975-.18182.55716-.36682.8334-.55585.00055-.00043.00107-.00073.00162-.00116.00357-.00244.00854-.0058.01212-.00824.00073-.00055.00137-.00098.00211-.00146.0036-.00244.00873-.00598.0123-.00842.00049-.00037.00089-.00061.00137-.00092.00476-.0033.00861-.00592.0134-.00922.00101-.00073.00208-.00146.00311-.00214.00357-.00244.00613-.00421.0097-.00665.0018-.00128.00366-.0025.00543-.00378.00238-.00159.00491-.00336.00729-.005.00195-.00128.00388-.00262.0058-.00397.00238-.00165.00418-.00287.00656-.00452.00525-.0036.01053-.00726.01578-.01086.00061-.00037.0015-.00098.00208-.0014.00296-.00201.00592-.00409.00888-.0061.00119-.00085.00198-.0014.00317-.0022.00299-.00208.00598-.00415.00897-.00616.00058-.00043.00266-.00183.00327-.00226.01419-.00983.02841-.01959.0426-.02942.00058-.00043.00015-.00012.00076-.00055.14984-.10358.2991-.20825.44785-.31396.33762-.23999.41675-.70819.17679-1.04578-.14627-.20581-.37735-.31561-.61197-.31555h0Zm4.00259-3.23694c-.18106,0-.36267.06519-.50665.19714-.41278.37842-.83868.75305-1.26593,1.11353-.31659.26709-.35669.7403-.0896,1.05688.14835.17584.36026.26636.57361.26636.17078,0,.34253-.05804.48328-.17676.09335-.0788.18643-.15802.27927-.23773q.00055-.00043.0011-.00092c.00305-.00262.00607-.00525.00912-.00781.0011-.00098.0015-.00134.00259-.00226.00845-.00726.01694-.01459.02539-.02185.00168-.0014.00385-.0033.00552-.00476.00183-.00159.00366-.00317.00549-.0047.00223-.00195.00497-.00433.00723-.00623.00165-.00146.00333-.00287.005-.00433.00388-.00336.00739-.00635.01126-.0097.00064-.00055.00122-.00104.00183-.00159.00336-.00287.00699-.00604.01035-.00891.00143-.00122.00278-.00244.00421-.00366.00278-.00238.00589-.00507.00867-.00751.00119-.00098.00238-.00201.00357-.00305.00388-.00336.0076-.00659.01151-.00995l.00046-.00037c.00446-.00385.00854-.00745.013-.01129.00031-.00024.00064-.00055.00095-.00079.00391-.00342.00787-.00684.01178-.01019.00061-.00055.00125-.0011.00186-.00165.00388-.00336.00836-.0072.01224-.01062.00009-.00006.00015-.00006.00021-.00018.00891-.00769.01749-.01514.0264-.02289.00021-.00018.0004-.00031.00061-.00049.00446-.00391.00827-.0072.01273-.01105.00012-.00012.00027-.00024.0004-.00037.17786-.1546.35406-.31036.52988-.46838.00031-.00024.00067-.00061.00098-.00085.01321-.0119.0253-.02277.03845-.03461.00049-.00043.00098-.00092.00146-.00134.00327-.00293.00775-.00696.01105-.00995.00067-.00061.00137-.00122.00204-.00183.00821-.00745.01636-.01477.0246-.02222.00098-.00085.00195-.00177.00293-.00262.0033-.00299.00595-.00537.00925-.00836.00119-.0011.00238-.0022.00357-.00323.0033-.00299.00595-.00537.00922-.00836.00101-.00085.00195-.00177.00293-.00262.00436-.00397.00735-.00665.01172-.01062.00104-.00092.00208-.00189.00311-.00281.0033-.00299.00583-.00531.00912-.00824.00122-.0011.00241-.00226.00363-.00336.0033-.00293.0062-.00562.00949-.00854.00082-.00079.00162-.00153.00244-.00226.00439-.00397.00772-.00702.01208-.01099.00076-.00067.0015-.00134.00223-.00201.0033-.00299.00641-.0058.0097-.00879.00137-.00128.00281-.00256.00418-.00378.0022-.00201.00565-.00513.00784-.00714.00143-.00134.00287-.00262.00433-.00397.00272-.00244.00613-.00555.00885-.00806.00107-.00098.00211-.00189.00317-.00287.00381-.00348.00729-.00665.01111-.01013.00168-.00153.0033-.00299.005-.00452.00217-.00201.00476-.00439.00696-.00635.00159-.00146.0032-.00293.00476-.00439.00275-.0025.00507-.00458.00781-.00708.00143-.00128.00287-.00262.0043-.00391.00327-.00299.00769-.00708.01099-.01007.00165-.00153.00336-.00305.005-.00458.0022-.00201.00433-.00391.0065-.00592.00192-.00177.00391-.0036.00583-.00531.0022-.00201.00381-.00348.00598-.00549.00195-.00177.00394-.0036.00589-.00537.00217-.00201.00443-.00409.00662-.00604.0029-.00269.0058-.00531.0087-.008.0022-.00201.00476-.00439.00696-.00635.00177-.00165.00357-.0033.00534-.00494.0011-.00098.00275-.0025.00385-.00348.30499-.27997.3255-.75421.04568-1.05939-.14792-.16138-.35013-.24316-.55301-.24316h0Zm3.57648-3.70593c-.21185,0-.42242.08929-.57077.26306-.31378.36755-.63516.73108-.9642,1.09021l-.15762.17114c-.28064.30463-.26181.77979.04205,1.06128.1441.13348.32635.19946.50815.19946.20023,0,.3999-.08008.54718-.23816.03891-.04193.07733-.08356.11612-.12573.00232-.00256.00464-.00507.00696-.00763.00104-.0011.0022-.00238.0032-.00348.01337-.01453.0267-.02911.04004-.04364.00461-.005.00919-.01001.01379-.01508.00192-.00208.0036-.00391.00552-.00604.00269-.00293.0054-.00592.00809-.00885.0029-.00311.004-.00433.00687-.00751.00192-.00208.00385-.00421.00574-.00629.00482-.00525.01056-.01154.01535-.01678.00113-.00122.00226-.0025.00339-.00372.00381-.00421.00623-.00684.01007-.01105.00052-.00055.00101-.0011.00153-.00165.31693-.34766.62671-.69885.92987-1.05402.26758-.31506.22983-.78741-.08472-1.05597-.14127-.12054-.31436-.17957-.4866-.17957h0Zm3.09589-4.11365c-.24356.00006-.48251.11853-.62668.33704-.30801.4668-.63022.93378-.95773,1.38806-.24222.336-.1662.80475.1698,1.047.13269.09564.28604.14166.43799.14166.23288,0,.46243-.10815.60901-.31146.34207-.47455.67303-.95435.99292-1.43915.22815-.3457.13281-.81091-.21292-1.03906-.12723-.08392-.27057-.12408-.41238-.12408h0Zm2.56155-4.46381c-.27646,0-.54242.15344-.67307.41815-.24753.50134-.50906,1.00439-.77731,1.49512-.19864.36346-.06506.81915.2984,1.01782.1142.06244.23746.09204.35904.09204.26486,0,.52151-.14056.65796-.38892.15717-.28748.30975-.57458.45972-.86475,0-.00006.00003-.00006.00006-.00012.00247-.00482.00479-.00928.00726-.0141.00009-.00018.00021-.00037.00027-.00055.005-.00964.00977-.01892.01474-.02856.00024-.00043.00049-.00092.0007-.00134.0025-.00488.00391-.00757.00641-.01245.00055-.0011.0011-.00214.00168-.00323l.005-.00977c.00085-.00165.00171-.0033.00256-.005.00125-.00238.00323-.00629.00449-.00867.00089-.00177.00177-.00348.00266-.00519.00125-.00244.00284-.00555.00409-.008l.00293-.00568c.00247-.00482.00378-.00739.00626-.01221.00137-.00262.00266-.00519.004-.00781.00061-.00122.0022-.00427.00281-.00543.00146-.00287.0029-.00568.00436-.00854.00061-.00122.00156-.00305.00217-.00421.00156-.00305.00314-.00616.0047-.00922.00061-.00116.00095-.00183.00159-.00305.09082-.17755.1803-.35565.26846-.53418.18335-.3714.03091-.82117-.34048-1.00452-.10675-.05267-.21997-.07764-.33145-.07764h0Zm1.98544-4.74829c-.31061,0-.6011.19452-.70859.50452-.18326.52856-.38013,1.06036-.58511,1.58063-.15186.38538.03745.82086.42285.97272.09027.03558.18323.05243.27472.05243.29904,0,.58173-.18018.698-.47528.02142-.05438.04276-.10883.06393-.16333.00049-.00122.00073-.00177.00122-.00305l.00311-.00806c.00098-.0025.00171-.00433.00266-.00684.00079-.00201.00162-.00409.00241-.0061.00143-.00378.0025-.00653.00397-.01025.00034-.00092.0007-.00183.00104-.00269.11487-.29596.22549-.59082.3334-.88873.00049-.00128.00098-.00262.00146-.00397.00092-.0025.00278-.00769.00369-.01019.00058-.00165.00116-.00323.00174-.00482.00092-.0025.00235-.00647.00323-.00897.0007-.00195.0014-.00385.00208-.00574.00092-.0025.00192-.00531.00284-.00781.00082-.00232.00165-.00458.00247-.0069l.00076-.00214c.00439-.01215.00879-.02429.01315-.03644l.00009-.00024c.05542-.15405.10992-.30835.16351-.46289.13568-.39136-.07156-.8186-.46292-.95428-.08136-.0282-.16422-.04156-.24573-.04156h0Zm1.37973-4.95856c-.34656,0-.65796.24164-.73288.59424-.11633.54736-.24567,1.09961-.38446,1.64136-.10278.40125.13919.80981.54044.9126.06247.01599.12503.02368.18665.02368.33432,0,.63922-.22528.72601-.56409.14474-.56506.27762-1.13245.39859-1.70172.08609-.40521-.17255-.80341-.57773-.88953-.05255-.01117-.10495-.01654-.15662-.01654h0Zm.75638-5.09174c-.38516.00006-.71283.29504-.7464.68585-.04791.55762-.10806,1.1217-.17886,1.67657-.0524.41089.23819.78644.64911.83887.03223.00409.06415.0061.09583.0061.37146,0,.69397-.27588.74286-.65387.00418-.03284.00815-.06433.01227-.09717.00009-.00067.00018-.00128.00024-.00189.00067-.00525.00089-.00714.00156-.01239l.00092-.00732c.00034-.00262.00049-.00385.00079-.00647.0004-.00311.00076-.0061.00116-.00922.00031-.00262.00021-.00177.00055-.00439.00046-.00378.00092-.00751.0014-.01129.00015-.00134-.00006.00043.00009-.00085.0347-.27985.06656-.56.09564-.84033.00015-.00128-.00003.00055.00009-.00073.0004-.00397.00082-.00793.00122-.01184l.00034-.00336c.0004-.00354.00076-.00708.00113-.01068.00012-.00128.00021-.00208.00034-.00336.00037-.00366.00073-.0072.0011-.0108.00015-.00128.00027-.0025.0004-.00385.00055-.00519.00107-.01038.00162-.01556.00027-.00262.00061-.00592.00085-.00861.00018-.00171.00037-.00342.00055-.00519.0004-.00397.00064-.00623.00104-.01013.00012-.00146.00027-.00281.00043-.00421.0004-.00397.00073-.00745.00116-.01135l.00037-.00366c.0004-.00397.00085-.00842.00125-.01239.00006-.00079.00015-.00153.00021-.00232.00055-.00531.00095-.00934.0015-.01459,0-.00012,0-.00031.00003-.00043.02066-.20557.03992-.41229.05759-.6181.03357-.41132-.2717-.77289-.68332-.80823-.02185-.00189-.04352-.00281-.06503-.00281h0Zm.12512-5.14655c-.00949,0-.01907.00018-.02866.00055-.41391.01556-.73685.36371-.72131.77765.02103.5592.03067,1.1264.02872,1.68597-.00146.41418.33316.75116.74738.75262h.00266c.41193,0,.74683-.3324.74994-.74426.00089-.24854-.0004-.49835-.00388-.74689v-.00073c-.00037-.02643-.00076-.05231-.00119-.07874v-.00055c-.00009-.00531-.00015-.00909-.00024-.0144,0-.00073,0-.00159-.00003-.00238-.00009-.00525-.00012-.00787-.00021-.01318,0-.00079-.00003-.00159-.00003-.00232-.00009-.00531-.00015-.00848-.00024-.01373,0-.00055,0-.00104-.00003-.00159-.00024-.01587-.00052-.03046-.00079-.04633-.00003-.00098-.00003-.00195-.00006-.00293-.00006-.00262-.00015-.00916-.00021-.01178-.00003-.00165-.00006-.00317-.00009-.00476-.00006-.00262-.00015-.00787-.00018-.01056-.00003-.0014-.00006-.00281-.00009-.00427-.00006-.00397-.00015-.00763-.00021-.0116-.00003-.00116-.00006-.00238-.00006-.0036-.00021-.01056-.0004-.01953-.00061-.03009-.00003-.00122-.00003-.0025-.00006-.00372-.00009-.00397-.00015-.00763-.00024-.0116-.00003-.00146-.00006-.00287-.00009-.00433-.00006-.00269-.00015-.00763-.00021-.01025-.00003-.00183-.00006-.00378-.00009-.00562-.00006-.00262-.00015-.00702-.00021-.00964-.00003-.00183-.00009-.00372-.00012-.00562-.00006-.00262-.00012-.00647-.00018-.00909-.00006-.00195-.00009-.00391-.00012-.00586-.00009-.00397-.00018-.00763-.00027-.0116,0-.00098-.00003-.00201-.00006-.00299-.00012-.00531-.00021-.01007-.00034-.01538v-.00024c-.00012-.00525-.00021-.00928-.00034-.01459l-.00009-.00458c-.00006-.00262-.00015-.0072-.00021-.00989-.00006-.0022-.00012-.00439-.00016-.00659-.00005-.00269-.00014-.00562-.0002-.0083-.00003-.00201-.00009-.00415-.00012-.00623-.00006-.00262-.00015-.00653-.00024-.00922-.00003-.00195-.00009-.00391-.00012-.00586-.00006-.00262-.00018-.00775-.00024-.01038l-.00009-.00421c-.00015-.00525-.00024-.00891-.00037-.01422-.00003-.00092-.00003-.00189-.00006-.00281-.00012-.00531-.00018-.00787-.00034-.01318l-.00009-.00385c-.00006-.00262-.00018-.00787-.00024-.01056-.00006-.00201-.00012-.00403-.00015-.0061-.00009-.00262-.00018-.00616-.00024-.00879-.00006-.0022-.00009-.00439-.00015-.00659-.00009-.00269-.00015-.00519-.00021-.00781-.00006-.00238-.00012-.0047-.00018-.00708-.00006-.00262-.00015-.00629-.00024-.00891-.00003-.00189-.00009-.00385-.00012-.00574-.00012-.00397-.00024-.00824-.00034-.01221-.00003-.00085-.00006-.00171-.00006-.00256-.00015-.00531-.00024-.00934-.0004-.01465-.00006-.00159-.00009-.00323-.00012-.00482-.00012-.00397-.00018-.00629-.00031-.01025-.00003-.00183-.00009-.00372-.00015-.00549-.00006-.00269-.00018-.00684-.00024-.00952-.00006-.00183-.00009-.00372-.00015-.00555-.00009-.00262-.00018-.00671-.00027-.00934-.00006-.00201-.00009-.00403-.00015-.00604-.00009-.00262-.00018-.00653-.00027-.00916-.00006-.00189-.00009-.00378-.00015-.00562-.00012-.00397-.00015-.00562-.00027-.00952-.00006-.0025-.00015-.00507-.00021-.00757-.00012-.00397-.00024-.00861-.00037-.01257-.00006-.00153-.00009-.00293-.00012-.00446-.00012-.00397-.00018-.00623-.00031-.01019-.00006-.00201-.00012-.00397-.00018-.00604-.00009-.00262-.00018-.00629-.00027-.00891-.00006-.0022-.00012-.00446-.00018-.00665-.00009-.00262-.00015-.00507-.00024-.00775-.00006-.00238-.00015-.00476-.00021-.00714-.00009-.00262-.00018-.00562-.00024-.0083-.00009-.0022-.00015-.00433-.00021-.00653-.00012-.00397-.00012-.00439-.00027-.00836-.00006-.0022-.00012-.00439-.00018-.00653-.00009-.00262-.00012-.00421-.00021-.0069-.00018-.00531-.00034-.01062-.00052-.01593-.00003-.00134-.00012-.00415-.00015-.00549-.00009-.00293-.00018-.0058-.00027-.00867-.00006-.00134-.00018-.00494-.00021-.00629-.00009-.00262-.00015-.00519-.00024-.00781s-.00015-.00446-.00024-.00708c-.00009-.00269-.00015-.00531-.00024-.00793-.00009-.00269-.00012-.00385-.00021-.00647-.00009-.00275-.00018-.00555-.00027-.00836-.00006-.00128-.00015-.00391-.00018-.00525-.00037-.01135-.00076-.02277-.00116-.03412l-.00009-.00299c-.00012-.0033-.00021-.00659-.00034-.00989-.00003-.00128-.00012-.00366-.00015-.00494-.00012-.00323-.00024-.00647-.00034-.0097-.00006-.00134-.00012-.00311-.00015-.00439-.00012-.00323-.00024-.00653-.00037-.00977-.00003-.00134-.00012-.00378-.00015-.00513l-.00037-.0097c-.00003-.00128-.00006-.00201-.00012-.00336-.00058-.01703-.00119-.03394-.00183-.05096l-.00003-.00134c-.00015-.00403-.00031-.00793-.00046-.0119l-.00006-.00238c-.00015-.00403-.00031-.00806-.00046-.01215l-.00006-.00134c-.00015-.00421-.00031-.00848-.00046-.01263l-.00003-.00024c-.01523-.4043-.34775-.7218-.74896-.7218h0Zm-.50919-5.12292c-.03989,0-.08035.00323-.121.00983-.40887.06628-.68655.45148-.62024.86035.08957.55225.16885,1.11401.23566,1.66962.04581.38086.36948.66052.74368.66052.02988,0,.06012-.00177.09052-.00543.4104-.04938.70334-.42145.65536-.83173-.06976-.58038-.15125-1.15802-.24496-1.73547-.06067-.36694-.37842-.62769-.73901-.62769h0Zm-1.13684-5.02087c-.06967,0-.14053.00977-.21075.03027-.39758.11627-.62567.53278-.50943.93036.15695.5368.30484,1.08441.43958,1.62762.08469.34143.39075.56958.72736.56958.05975,0,.12054-.0072.18115-.02222.40204-.09973.64709-.50647.54736-.90851-.07666-.30902-.1568-.61725-.24048-.92474h0c-.00119-.00433-.00235-.00867-.00354-.013l-.00012-.00049c-.00116-.00421-.00229-.00836-.00342-.01257l-.00034-.00116c-.00452-.01648-.009-.03296-.01352-.04944-.00037-.00128-.00052-.00195-.00089-.00323-.00092-.00336-.00189-.00684-.00281-.01025-.00037-.00128-.00058-.00208-.00095-.00336-.00092-.00342-.00186-.00677-.00278-.01013-.00037-.00128-.00082-.00305-.00119-.00433-.00085-.00311-.00174-.00629-.00259-.00946-.00037-.00128-.00085-.00311-.00122-.00439-.00085-.00317-.00174-.00641-.00262-.00952-.00034-.00128-.00073-.00269-.00107-.00397-.00296-.01068-.00592-.02142-.00888-.03217-.00037-.00128-.00107-.00378-.00143-.00507-.00073-.00275-.0015-.00543-.00223-.00818-.00073-.00256-.00098-.00348-.00168-.00604-.00079-.00281-.00162-.00574-.00241-.00861-.0007-.00256-.0007-.00262-.00143-.00513-.00079-.00299-.00162-.00592-.00244-.00885-.00034-.00128-.00107-.00391-.00143-.00519-.00082-.00299-.00165-.00592-.00247-.00891-.00037-.00128-.00171-.00616-.00208-.00745-.00073-.00269-.0015-.00537-.00223-.00806-.00107-.00385-.00232-.0083-.00339-.01215-.00052-.00177-.00104-.00366-.00153-.00543-.0007-.00256-.0018-.00647-.0025-.00903-.00058-.00201-.00116-.00409-.00171-.0061-.00073-.00256-.00156-.00555-.00226-.00806-.00061-.00214-.00116-.00415-.00174-.00623-.00073-.00256-.0018-.00641-.00253-.00897-.00049-.00177-.00098-.0036-.0015-.00537-.0007-.00256-.00201-.00714-.00272-.0097-.00043-.00159-.00085-.00311-.00128-.00464-.00287-.01025-.00537-.0191-.00824-.02936-.00018-.00055-.00034-.0011-.00049-.00171-.00143-.00513-.00223-.00787-.00366-.01294-.00027-.00104-.00055-.00201-.00082-.00299-.00073-.00256-.0025-.00891-.00323-.01147-.00037-.00128-.00076-.00262-.00113-.00397-.00107-.00378-.0022-.00775-.00327-.0116l-.00073-.00256c-.00143-.00513-.00253-.00897-.00397-.0141-.00006-.00018-.00009-.00031-.00015-.00049-.00433-.01532-.00864-.03058-.013-.0459-.00003,0,0,0-.00003-.00006-.00143-.00507-.00256-.00903-.00403-.01416-.00021-.00079-.00043-.00153-.00064-.00226-.02835-.09967-.0563-.19666-.08542-.29614-.09622-.32635-.39499-.53802-.71906-.53802h0Zm-1.74878-4.84125c-.09946,0-.20059.0199-.2977.06195-.3801.16461-.55478.6062-.39014.98627.22223.51312.43677,1.03809.6376,1.56024.11465.2981.39883.48096.70016.48096.08951,0,.18057-.01611.2691-.05017.38593-.14844.57877-.58112.43155-.96722-.2095-.54474-.43027-1.08502-.66296-1.62219-.12308-.28162-.39844-.44989-.68762-.44983h0Zm-2.33627-4.58606c-.12961,0-.26102.03363-.38071.10437-.35666.21063-.47501.67053-.26434,1.02716.28442.48151.56256.97565.82672,1.46857.13522.25238.39413.39594.66171.39594.11954,0,.24084-.02863.35361-.08905.36508-.19562.50247-.65021.30682-1.01532-.03809-.07104-.07639-.14209-.1149-.21295-.00067-.00122-.00168-.00311-.00232-.00427-.00137-.0025-.00278-.00507-.00412-.00757-.00128-.00238-.00186-.00348-.00317-.00586-.00119-.0022-.00241-.00446-.00363-.00665-.00128-.00238-.00299-.00549-.0043-.00787-.00092-.00171-.0018-.00336-.00272-.005-.00192-.0036-.00394-.00726-.00589-.0108-.0004-.00079-.00079-.00153-.00122-.00226-.00256-.00476-.00488-.00897-.00748-.01373-.00021-.00037-.00046-.00085-.00067-.00128-.00259-.0047-.00412-.00745-.00668-.01221-.00052-.00098-.00104-.00183-.00153-.00281-.00195-.00354-.00418-.00763-.00613-.01123-.00043-.00073-.00082-.00153-.00125-.00226-.00259-.00476-.00409-.00745-.00668-.01221-.00024-.00049-.00049-.00092-.00073-.0014-.02594-.04736-.05164-.09412-.07776-.14148-.00006-.00006-.00012-.00018-.00015-.00024-.01047-.01898-.02066-.03741-.03116-.05634-.00015-.00031-.00034-.00061-.00049-.00092-.00262-.0047-.00488-.00879-.00751-.01349-.00003-.00012-.00006-.00012-.00012-.00024-.00262-.0047-.00513-.00922-.00775-.01398,0,0-.00006-.00012-.00009-.00012-.00787-.01422-.01553-.02802-.02344-.04218-.00018-.00037-.0004-.00073-.00058-.0011-.00262-.0047-.00409-.00732-.00671-.01202-.00058-.00104-.0011-.00195-.00165-.00299-.00266-.0047-.00345-.00616-.00607-.01086-.00052-.00092-.00101-.00183-.00153-.00269-.00195-.0036-.00369-.00671-.00568-.01025-.00073-.00128-.00146-.00262-.0022-.00391-.00262-.00476-.0047-.00842-.00735-.01312-.00006-.00012-.00012-.00031-.00018-.00043-.00266-.0047-.00443-.00787-.00705-.01257l-.00256-.00458c-.00131-.00232-.00351-.00623-.00482-.00861-.00107-.00195-.00217-.00391-.00323-.0058-.00134-.00238-.0022-.00391-.00354-.00629-.0014-.00256-.00281-.00507-.00424-.00757-.00064-.00122-.00208-.00372-.00272-.00488-.00153-.00275-.00305-.00543-.00458-.00818l-.00168-.00299c-.0061-.01086-.01221-.02179-.01834-.03265l-.00031-.00055c-.00214-.00378-.00421-.00751-.00632-.01123l-.00058-.00104c-.00208-.00372-.00418-.00739-.00626-.01111-.00067-.00122.00024.00043-.00043-.00079-.14282-.25366-.28842-.50616-.43686-.75745-.13995-.23694-.38983-.36871-.64645-.36865h0Zm-2.88892-4.25977c-.16025,0-.32175.05115-.45828.15674-.32767.25336-.38788.72443-.13446,1.05212.34241.44275.68002.89856,1.00348,1.35474.14621.20624.37753.31622.61243.31622.15002,0,.30148-.04486.43317-.13824.33777-.23944.41754-.70728.17834-1.04517-.21881-.30859-.44272-.61554-.67072-.91937-.00015-.00018-.00034-.00043-.00049-.00061-.0033-.00439-.00583-.00775-.00912-.01221-.00031-.00037-.00061-.00079-.00092-.00116-.0033-.00439-.00552-.00739-.00882-.01178-.00031-.00037-.00061-.00079-.00092-.00122-.00662-.00879-.01254-.01666-.01917-.02545-.00064-.00085-.00125-.00165-.00186-.0025-.00168-.0022-.00543-.0072-.00711-.0094-.0011-.00146-.00223-.00299-.00336-.00446-.00165-.0022-.00385-.00513-.00552-.00732-.00137-.00183-.00278-.00372-.00415-.00555-.00165-.0022-.00342-.00452-.00507-.00671-.00137-.00177-.00272-.00354-.00409-.00537-.00165-.0022-.00345-.00458-.0051-.00677-.0029-.00385-.0058-.00763-.0087-.01147-.00082-.0011-.00281-.00378-.00363-.00488-.00195-.00256-.00385-.005-.00577-.00757-.00082-.0011-.00204-.00269-.00287-.00378-.00201-.00269-.00403-.00537-.00604-.008-.00082-.0011-.00214-.00287-.00299-.00397-.00201-.00269-.00409-.00543-.00613-.00812-.00082-.0011-.0007-.00092-.00156-.00201-.08496-.11218-.17053-.224-.25677-.33551-.1478-.1911-.36957-.29126-.59381-.2912h0Zm-3.39429-3.86908c-.19104.00006-.38214.07257-.52841.21777-.29395.29187-.29565.76672-.00381,1.06067.39456.3974.78586.80798,1.16296,1.22028.14795.1618.35043.24384.55362.24384.18076,0,.36209-.065.50598-.19659.30527-.27917.32675-.75275.04834-1.05841-.00946-.01031-.01746-.01904-.02692-.02942-.0007-.00073-.00137-.00146-.00208-.00226-.01892-.02063-.03564-.03882-.0546-.05945-.00061-.00067-.00125-.00134-.00183-.00201-.01138-.01233-.02164-.0235-.03305-.03583-.00034-.00037-.00064-.00073-.00098-.0011-.01901-.02057-.03662-.03967-.05566-.06024-.00052-.00055-.00104-.0011-.00153-.00165-.03046-.0329-.06009-.06476-.09067-.0976-.00009-.00012-.00018-.00018-.00031-.00031-.0191-.02051-.03806-.04083-.05722-.06128l-.00003-.00006c-.28937-.30933-.58383-.61493-.88416-.91736-.1463-.14594-.33795-.21899-.52966-.21899h0Zm-3.84415-3.42694c-.22198,0-.44183.09814-.58978.28607-.25623.3255-.2001.797.1254,1.05322.43918.34576.87775.70575,1.3035,1.07007.14136.12097.31473.18011.48724.18011.21158,0,.42188-.08905.57022-.26239.26852-.31384.2327-.78546-.07956-1.05511-.44702-.38257-.89893-.75342-1.35736-1.1142-.13672-.10626-.29874-.15784-.45966-.15778h0Zm-4.23322-2.92798c-.25412,0-.50198.12915-.64285.36261-.21402.35461-.10001.81561.25461,1.0296.47864.28888.95798.59186,1.42471.90063.12738.08429.27103.12457.41312.12457.24326,0,.48193-.11816.62619-.33624.22656-.34247.13541-.80267-.2027-1.03333-.4939-.3269-.9928-.64215-1.49664-.94604-.11844-.06891-.24823-.10181-.37643-.10181h0Zm-4.56415-2.37946c-.28735,0-.56158.16608-.68579.44562-.16818.37854.00232.82172.38083.98993.51111.22711,1.02441.46808,1.5256.71631.10699.05292.22046.078.33224.078.27612,0,.54184-.15314.67267-.4173.18161-.3667.03555-.81024-.32593-.99817-.53281-.2641-1.06873-.51562-1.60965-.75574-.09467-.03979-.19305-.05872-.28998-.05865h0Zm-4.82529-1.7926c-.32205,0-.61972.20911-.71768.53333-.11981.39648.10452.81506.50104.93481.53555.1618,1.07489.3371,1.603.52087.0816.02838.16473.04187.24652.04187.31027,0,.60056-.19409.70831-.50366.13437-.38611-.06528-.80756-.44656-.9494-.5611-.1955-1.12561-.37891-1.6926-.54999-.06735-.0188-.13522-.02783-.20203-.02783h0Zm-5.01083-1.17975c-.35873,0-.67593.25824-.7384.62378-.06976.40833.20465.79584.61295.8656.55164.0943,1.10864.20135,1.65555.31824.05286.01129.10553.01672.1575.01672.34619,0,.65741-.24115.7327-.59338.08566-.40088-.16635-.79541-.56421-.88739-.57806-.12378-1.15863-.23535-1.74023-.33459-.03894-.00604-.07761-.00897-.11584-.00897h0Zm-5.11786-.552c-.39841,0-.73022.3136-.74863.7157-.01895.41382.30112.76459.7149.78351.55905.02563,1.12509.06317,1.68243.11176.02213.00189.04407.00287.06589.00287.38477,0,.71234-.29449.74634-.685.03571-.41022-.2659-.77203-.6748-.81158-.58435-.05103-1.16937-.08984-1.75479-.11664-.0105-.00043-.02094-.00061-.03134-.00061h0Z"/><circle class="cls-1" cx="46.55951" cy="57.5" r="5.49941"/><path class="cls-1" d="m43.1037,84.89447c-.02203-.06171-.03943-.12598-.03943-.19525v-10.99475c0-.32422.26288-.5871.5871-.5871s.5871.26288.5871.5871v10.73944c1.48639-.61945,3.05981-1.3822,4.65588-2.31793v-8.42151c0-.32422.26282-.5871.5871-.5871.32434,0,.5871.26288.5871.5871v7.70184c1.14893-.73297,2.30011-1.56183,3.43188-2.49286v-4.53979c0-3.83337-3.10754-6.94092-6.94092-6.94092s-6.94092,3.10754-6.94092,6.94092v11.64893h.07819c1.03375-.29132,2.18146-.66095,3.40692-1.12811Z"/></svg>