<?xml version="1.0" encoding="UTF-8"?><svg id="Layer_1" xmlns="http://www.w3.org/2000/svg" viewBox="0 0 115 115"><defs><style>.cls-1{fill:none;stroke:#4d52f8;stroke-dasharray:0 0 1.7479 3.49579;stroke-linecap:round;stroke-miterlimit:10;stroke-width:1.5px;}.cls-2{fill:#4d52f8;}</style></defs><path class="cls-1" d="m8.08587,32.1555V12.5855c0-2.35987,1.91305-4.27291,4.27291-4.27291h19.57"/><path class="cls-1" d="m106.91413,32.1555V12.5855c0-2.35987-1.91305-4.27291-4.27291-4.27291h-19.57"/><path class="cls-1" d="m8.08587,82.8445v19.57c0,2.35987,1.91305,4.27291,4.27291,4.27291h19.57"/><path class="cls-1" d="m106.91413,82.8445v19.57c0,2.35987-1.91305,4.27291-4.27291,4.27291h-19.57"/><circle class="cls-2" cx="57.26367" cy="57.82825" r="5.49941"/><path class="cls-2" d="m57.26364,32.92529c.02988,0,.05807.00732.08344.02197l21.42145,12.36816c.05185.02979.08405.08545.08405.14502v24.73584c0,.05957-.03201.11475-.0834.14453l-21.42212,12.36792c-.0257.01489-.05374.02246-.0834.02246-.02963,0-.05765-.00757-.0834-.02246l-21.42194-12.36792c-.05154-.02979-.08356-.08496-.08356-.14453v-24.73584c0-.05957.03223-.11523.08344-.14502l21.42163-12.36768c.02582-.01514.05402-.02246.08383-.02246m.00003-4c-.71942,0-1.43881.18604-2.08344.55811l-21.42206,12.36816c-1.28922.74463-2.08344,2.12012-2.08344,3.60889v24.73584c0,1.48877.79422,2.86426,2.08344,3.60864l21.42206,12.36792c.64462.37231,1.36401.55835,2.08344.55835s1.43881-.18604,2.08344-.55835l21.42203-12.36792c1.28925-.74438,2.08344-2.11987,2.08344-3.60864v-24.73584c0-1.48877-.79419-2.86426-2.08344-3.60889l-21.42203-12.36816c-.64462-.37207-1.36404-.55811-2.08344-.55811h0Z"/></svg>