<?xml version="1.0" encoding="UTF-8"?><svg id="Layer_1" xmlns="http://www.w3.org/2000/svg" viewBox="0 0 115 115"><defs><style>.cls-1,.cls-2,.cls-3,.cls-4{stroke-linejoin:round;}.cls-1,.cls-2,.cls-3,.cls-4,.cls-5{fill:none;stroke:#4d52f8;stroke-linecap:round;}.cls-1,.cls-5{stroke-width:1.5px;}.cls-6{fill:#4d52f8;}.cls-2{stroke-width:2.5px;}.cls-3{stroke-width:5px;}.cls-4{stroke-width:3.5226px;}.cls-5{stroke-dasharray:0 0 1.7479 3.49579;stroke-miterlimit:10;}</style></defs><g><g><path class="cls-4" d="m66.90252,37.18222l7.36136,7.36136c1.50645,1.50638.43946,4.08204-1.69078,4.08204h-4.93603v15.78288h.00372c0,1.32069,1.07043,2.39126,2.39111,2.39126h24.92951"/><path class="cls-4" d="m20.03858,66.79976h24.94155c1.32069,0,2.39126-1.07057,2.39126-2.39126h.00372v-15.78288h-4.93617c-2.13024,0-3.19723-2.57566-1.69078-4.08204l7.41526-7.41526"/><circle class="cls-6" cx="57.5" cy="15.69378" r="5.49941"/><g><circle class="cls-6" cx="57.5" cy="93.73921" r="5.49941"/><rect class="cls-5" x="32.6329" y="82.67279" width="49.7342" height="22.13283" rx="2.25062" ry="2.25062"/></g></g><line class="cls-1" x1="57.5" y1="76.27302" x2="57.5" y2="33.4759"/><line class="cls-2" x1="57.5" y1="59.65767" x2="57.5" y2="30.63977"/><line class="cls-3" x1="57.5" y1="42.03533" x2="57.5" y2="27.92347"/></g><line class="cls-5" x1="86.3671" y1="82.67279" x2="100.1143" y2="82.67279"/><line class="cls-5" x1="14.8857" y1="104.80562" x2="28.6329" y2="104.80562"/></svg>