<?xml version="1.0" encoding="UTF-8"?><svg id="Layer_1" xmlns="http://www.w3.org/2000/svg" viewBox="0 0 115 115"><defs><style>.cls-1{fill:#4d52f8;}.cls-2{fill:none;stroke:#4d52f8;stroke-dasharray:0 0 1.55407 3.10813;stroke-linecap:round;stroke-miterlimit:10;stroke-width:1.33366px;}</style></defs><circle class="cls-1" cx="57.5" cy="57.52012" r="5.49941"/><path class="cls-2" d="m36.51908,92.54283c-11.88568-7.13563-19.83923-20.15034-19.83923-35.02271,0-22.54435,18.2758-40.82015,40.82015-40.82015s40.82015,18.2758,40.82015,40.82015-18.2758,40.82015-40.82015,40.82015H10"/><path class="cls-1" d="m57.5,36.073c11.82599,0,21.44711,9.62122,21.44711,21.44714s-9.62112,21.44702-21.44711,21.44702-21.44711-9.62109-21.44711-21.44702,9.62112-21.44714,21.44711-21.44714m0-4c-14.05405,0-25.44711,11.39307-25.44711,25.44714s11.39307,25.44702,25.44711,25.44702,25.44711-11.39294,25.44711-25.44702-11.39307-25.44714-25.44711-25.44714h0Z"/><line class="cls-2" x1="98.7913" y1="92.13157" x2="105" y2="98.34027"/><line class="cls-2" x1="98.7913" y1="104.54897" x2="105" y2="98.34027"/><line class="cls-2" x1="105" y1="98.34027" x2="78.88816" y2="98.34027"/></svg>