<?xml version="1.0" encoding="UTF-8"?><svg id="Layer_1" xmlns="http://www.w3.org/2000/svg" viewBox="0 0 115 115"><defs><style>.cls-1{fill:none;stroke:#4d52f8;stroke-dasharray:0 0 1.7479 3.49579;stroke-linecap:round;stroke-miterlimit:10;stroke-width:1.5px;}.cls-2{fill:#4d52f8;}</style></defs><circle class="cls-2" cx="57.5" cy="57.5219" r="5.49941"/><g><path class="cls-2" d="m57.5,32.00443c14.07037,0,25.51746,11.44709,25.51746,25.51747s-11.44708,25.51747-25.51746,25.51747-25.51746-11.44709-25.51746-25.51747,11.44708-25.51747,25.51746-25.51747m0-4c-16.30206,0-29.51746,13.21542-29.51746,29.51747s13.21539,29.51747,29.51746,29.51747,29.51746-13.21542,29.51746-29.51747-13.21539-29.51747-29.51746-29.51747h0Z"/><line class="cls-1" x1="57.5" y1="20.13368" x2="57.5" y2="6.93012"/><line class="cls-1" x1="57.5" y1="108.06988" x2="57.5" y2="94.86632"/><line class="cls-1" x1="35.52376" y1="27.2742" x2="27.76289" y2="16.59229"/><line class="cls-1" x1="87.23711" y1="98.45152" x2="79.47624" y2="87.76961"/><line class="cls-1" x1="21.94169" y1="45.96831" x2="9.38435" y2="41.88818"/><line class="cls-1" x1="105.61565" y1="73.15563" x2="93.05831" y2="69.0755"/><line class="cls-1" x1="21.94169" y1="69.0755" x2="9.38435" y2="73.15563"/><line class="cls-1" x1="105.61565" y1="41.88818" x2="93.05831" y2="45.96831"/><line class="cls-1" x1="35.52376" y1="87.76961" x2="27.76289" y2="98.45152"/><line class="cls-1" x1="87.23711" y1="16.59229" x2="79.47624" y2="27.2742"/></g><path class="cls-2" d="m55.86061,66.84708l3.62702-.66315c.43742-.07998.7552-.46112.7552-.90579h0c0-.57487-.52093-1.00919-1.08642-.90579l-3.62702.66315c-.43742.07998-.7552.46112-.7552.90579h0c0,.57487.52093,1.00919,1.08642.90579Z"/><path class="cls-2" d="m56.21491,69.18934l2.84746-.52062c.34369-.06284.59337-.36231.59337-.71169h0c0-.45168-.4093-.79293-.85361-.71169l-2.84746.52062c-.34369.06284-.59337.36231-.59337.71169h0c0,.45168.4093.79293.85361.71169Z"/></svg>