<?xml version="1.0" encoding="UTF-8"?><svg id="Layer_1" xmlns="http://www.w3.org/2000/svg" viewBox="0 0 115 115"><defs><style>.cls-1{fill:#4d52f8;}.cls-2{fill:none;stroke:#4d52f8;stroke-dasharray:0 0 1.55407 3.10813;stroke-linecap:round;stroke-miterlimit:10;stroke-width:1.33366px;}</style></defs><circle class="cls-1" cx="57.5" cy="57.52012" r="5.49941"/><circle class="cls-1" cx="57.5" cy="102.02686" r="5.49941"/><circle class="cls-1" cx="57.5" cy="12.97314" r="5.49941"/><path class="cls-1" d="m57.5,32.00269c14.07037,0,25.51746,11.44714,25.51746,25.51746s-11.44708,25.51746-25.51746,25.51746-25.51746-11.44714-25.51746-25.51746,11.44708-25.51746,25.51746-25.51746m0-4c-16.30206,0-29.51746,13.21533-29.51746,29.51746s13.21539,29.51746,29.51746,29.51746,29.51746-13.21545,29.51746-29.51746-13.21539-29.51746-29.51746-29.51746h0Z"/><path class="cls-2" d="m47.13585,100.7911c-19.58137-4.67044-34.14186-22.28127-34.14186-43.29288,0-21.00931,14.55729-38.61858,34.13541-43.29134"/><path class="cls-2" d="m67.83465,14.19831c19.59624,4.65978,34.17136,22.27774,34.17136,43.29991,0,21.0129-14.56228,38.6246-34.14547,43.29374"/><polyline class="cls-2" points="77.03438 105.43451 67.89956 100.81213 72.52193 91.67731"/><polyline class="cls-2" points="37.99304 9.58754 47.12786 14.20992 42.50549 23.34474"/></svg>