<?xml version="1.0" encoding="UTF-8"?><svg id="Layer_1" xmlns="http://www.w3.org/2000/svg" viewBox="0 0 115 115"><defs><style>.cls-1{fill:#4d52f8;}.cls-2{fill:none;stroke:#4d52f8;stroke-dasharray:0 0 1.7479 3.49579;stroke-linecap:round;stroke-miterlimit:10;stroke-width:1.5px;}</style></defs><circle class="cls-1" cx="57.5" cy="57.23913" r="5.49941"/><path class="cls-1" d="m105.35199,51.73975c3.03726,0,5.49942,2.46216,5.49942,5.49939s-2.46216,5.49939-5.49942,5.49939-5.49939-2.46216-5.49939-5.49939,2.46216-5.49939,5.49939-5.49939m0-3c-4.68658,0-8.49939,3.81287-8.49939,8.49939s3.81281,8.49939,8.49939,8.49939,8.49942-3.81287,8.49942-8.49939-3.81281-8.49939-8.49942-8.49939h0Z"/><path class="cls-1" d="m9.64801,51.73975c3.03723,0,5.49939,2.46216,5.49939,5.49939s-2.46216,5.49939-5.49939,5.49939-5.49942-2.46216-5.49942-5.49939,2.46216-5.49939,5.49942-5.49939m0-3c-4.68661,0-8.49942,3.81287-8.49942,8.49939s3.81281,8.49939,8.49942,8.49939,8.49939-3.81287,8.49939-8.49939-3.81281-8.49939-8.49939-8.49939h0Z"/><path class="cls-1" d="m58.30011,70.5127h.005-.005m-.80011.80005l12.3356,12.33569h-2.20453c-1.94547,0-3.52261,1.57715-3.52261,3.52258v21.65149h-13.21677v-21.65149c0-1.94543-1.57715-3.52258-3.52261-3.52258h-2.20468l12.3356-12.33569m.00006-3.99133c-.61197,0-1.22394.23352-1.69083.70044l-15.06711,15.06714c-1.50644,1.50635-.43945,4.08203,1.6908,4.08203h4.93616v22.78284c0,1.32068,1.07043,2.39124,2.39111,2.39124h15.47961c1.32068,0,2.39127-1.07056,2.39127-2.39124v-22.78284h4.936c2.13025,0,3.19724-2.57568,1.6908-4.08203l-15.06711-15.06714c-.46683-.46692-1.07877-.70044-1.6907-.70044h0Z"/><path class="cls-2" d="m35.37282,86.37569c-8.78538-6.68218-14.45706-17.24702-14.45706-29.13656,0-20.20492,16.37932-36.58424,36.58424-36.58424s36.58424,16.37932,36.58424,36.58424c0,11.73532-5.5255,22.18009-14.11678,28.87459"/><path class="cls-2" d="m43.55349,74.22369c-4.90276-4.03049-8.02967-10.14236-8.02967-16.98455,0-12.13711,9.83907-21.97618,21.97618-21.97618s21.97618,9.83907,21.97618,21.97618c0,6.7-2.99829,12.69971-7.7263,16.73058"/></svg>