<?xml version="1.0" encoding="UTF-8"?><svg id="Layer_1" xmlns="http://www.w3.org/2000/svg" viewBox="0 0 115 115"><defs><style>.cls-1{fill:#4d52f8;}.cls-2{stroke-linejoin:round;stroke-width:2.3484px;}.cls-2,.cls-3{fill:none;stroke:#4d52f8;stroke-linecap:round;}.cls-3{stroke-dasharray:0 0 1.7479 3.49579;stroke-miterlimit:10;stroke-width:1.5px;}</style></defs><g><path class="cls-1" d="m32.6694,30.01141c15.15726,0,27.48859,12.33136,27.48859,27.48859s-12.33133,27.48859-27.48859,27.48859-27.48856-12.33136-27.48856-27.48859,12.3313-27.48859,27.48856-27.48859m0-4C15.27875,26.01141,1.18085,40.10938,1.18085,57.5s14.0979,31.48859,31.48856,31.48859,31.48859-14.09796,31.48859-31.48859-14.09793-31.48859-31.48859-31.48859h0Z"/><circle class="cls-1" cx="32.66942" cy="57.5" r="5.49941"/></g><path class="cls-3" d="m56.21977,39.89445c5.65872-8.37601,15.24165-13.88301,26.11081-13.88301,17.39065,0,31.48856,14.09791,31.48856,31.48856s-14.09791,31.48856-31.48856,31.48856c-10.6375,0-20.04301-5.27475-25.74367-13.35138"/><polyline class="cls-2" points="76.49096 58.981 84.61331 64.87081 95.30299 50.12919"/></svg>