<svg width="215" height="38" viewBox="0 0 215 38" fill="none" xmlns="http://www.w3.org/2000/svg">
<g clip-path="url(#clip0_375_902)">
<path d="M5.92771 9.39139H1.3119L0 15.4655H4.81006C8.5685 15.4655 9.63833 13.6826 9.63833 12.0338C9.63833 10.8692 8.92524 9.39138 5.92773 9.39138L5.92771 9.39139ZM11.3041 2.89824C11.3041 1.73359 10.591 0.259164 7.59345 0.259164H2.97763L1.6657 6.32954H6.47746C10.2342 6.32954 11.3041 4.55125 11.3041 2.89824ZM16.5796 18.8998H11.9613L10.6489 24.974H15.459C19.2174 24.974 20.2856 23.1957 20.2856 21.5469C20.2856 20.3768 19.5742 18.8998 16.5796 18.8998ZM18.363 9.39138H13.7472L12.4336 15.4655H17.2453C21.0037 15.4655 22.0719 13.6826 22.0719 12.0338C22.0719 10.8692 21.3575 9.39137 18.363 9.39137L18.363 9.39138ZM23.7376 2.89823C23.7376 1.73358 23.0262 0.259155 20.0296 0.259155H15.4129L14.1018 6.32953H18.911C22.6694 6.32953 23.7376 4.55124 23.7376 2.89823ZM29.5782 15.2023H24.9624L23.6505 21.2731H28.4605C32.2189 21.2731 33.2871 19.4897 33.2871 17.8414C33.2871 16.6759 32.5748 15.2023 29.5782 15.2023H29.5782ZM35.0802 8.3283C35.0802 7.16282 34.3663 5.68583 31.3717 5.68583H26.7559L25.4418 11.76H30.2519C34.0107 11.76 35.0802 9.98172 35.0802 8.3283H35.0802ZM55.5918 12.3614C55.5918 13.8007 54.2498 15.0686 51.6247 15.0686H46.7503L47.8108 10.1637H52.4889C54.692 10.1637 55.5918 11.1811 55.5918 12.3614V12.3614ZM45.7791 19.5617H50.0186C53.2832 19.5617 54.0187 21.0103 54.0187 22.1521C54.0187 24.0383 52.4152 25.4378 49.309 25.4378H44.509L45.7791 19.5617ZM60.6181 11.3368C60.6181 9.19714 59.0565 5.67065 52.7127 5.67065H43.9682C43.9682 5.67065 40.7125 20.7081 40.3283 22.4496C39.404 26.6304 42.0109 29.9622 46.8654 29.9622H49.5015C55.2828 29.9622 59.0103 26.5741 59.0103 22.53C59.0103 18.8126 56.1085 17.6628 55.599 17.4948C56.147 17.3234 60.6181 16.0712 60.6181 11.3368H60.6181ZM65.8805 22.7539C66.1239 21.6159 69.5785 5.70109 69.5785 5.70109H64.9897L61.1822 23.2571C61.0317 23.9501 60.9548 24.6571 60.9528 25.3663C60.9528 29.2161 63.9309 30.3478 66.3148 30.3478C66.9324 30.337 67.5483 30.2812 68.1578 30.1806C68.2331 29.7955 68.9538 26.4903 68.989 26.3456C68.8844 26.3519 68.3787 26.39 67.7926 26.39C66.0862 26.39 65.5534 25.6663 65.5534 24.7146C65.6023 24.0524 65.7118 23.3961 65.8806 22.7539H65.8805ZM83.169 21.2498C83.0937 21.5651 82.9748 22.0691 82.888 22.4411C82.3535 24.7264 80.0281 26.1936 77.4614 26.1936C75.8232 26.1936 74.8667 25.3125 74.8667 24.266C74.8667 23.4005 75.6602 22.3768 78.8012 21.9125C79.8114 21.7632 82.7666 21.307 83.169 21.2498V21.2498ZM88.462 17.8147C89.2737 13.8384 87.0917 11.0287 81.5012 11.0287C74.3119 11.0287 72.2404 16.1964 71.9052 16.9925H77.0847C77.1981 16.8054 78.3784 14.9856 81.318 14.9856C83.147 14.9856 84.0832 15.6518 84.0832 16.4592C84.0832 17.598 82.2401 17.8947 79.0484 18.3518C73.5645 19.1444 70.0998 20.8461 70.0998 24.8068C70.0998 27.6135 72.4304 30.3473 76.5697 30.3473C77.5747 30.3672 78.5731 30.179 79.5019 29.7944C80.4307 29.4099 81.2699 28.8373 81.9667 28.1128C81.9815 28.6114 82.0459 29.357 82.0992 29.9597H86.8411C86.4822 28.3404 86.5028 26.6601 86.9012 25.0501C87.1987 23.7247 88.0354 19.9163 88.462 17.8147V17.8147ZM109.202 18.4241C109.495 16.5959 108.045 11.0063 100.306 11.0063C94.6475 11.0063 90.1184 15.5261 90.1184 21.5689C90.1184 26.5127 93.2082 30.3241 98.9353 30.3241C106.072 30.3241 107.998 24.726 108.235 23.3523H103.078C102.74 24.0999 102.192 24.7328 101.5 25.1734C100.808 25.6141 100.002 25.8435 99.182 25.8335C96.1248 25.8335 94.9323 23.2977 94.9323 21.4144C94.9323 18.2989 97.0313 15.4994 100.119 15.4994C103.444 15.4994 104.236 17.9755 104.313 18.4241H109.202ZM121.235 19.0217L130.726 11.0668H124.324L116.103 18.4698L118.875 5.663H114.252L109.004 29.9597H113.622L114.898 24.0556L117.74 21.7936L121.67 29.9597H126.811L121.235 19.0217ZM143.883 12.3614C143.883 13.8007 142.542 15.0686 139.919 15.0686H135.043L136.102 10.1637H140.779C142.987 10.1637 143.883 11.1811 143.883 12.3614L143.883 12.3614ZM134.069 19.5617H138.312C141.575 19.5617 142.31 21.0103 142.31 22.1521C142.31 24.0383 140.707 25.4378 137.603 25.4378H132.801L134.069 19.5617ZM148.913 11.3368C148.913 9.19714 147.351 5.67065 141.007 5.67065H132.26C132.26 5.67065 129.005 20.7081 128.62 22.4496C127.695 26.6304 130.302 29.9622 135.159 29.9622H137.793C143.574 29.9622 147.306 26.5741 147.306 22.53C147.306 18.8126 144.396 17.6628 143.894 17.4948C144.443 17.3234 148.913 16.0712 148.913 11.3368ZM163.711 18.5985H154.876C155.201 17.6104 155.829 16.7501 156.672 16.1403C157.515 15.5305 158.528 15.2022 159.568 15.2023C162.656 15.2023 163.837 17.0877 163.711 18.5985ZM168.175 22.3464C168.415 21.4086 168.548 20.4465 168.57 19.4788C168.57 15.0538 165.571 11.0059 159.519 11.0059C153.985 11.0059 149.546 15.6594 149.546 21.1851C149.546 26.5318 152.756 30.3245 158.432 30.3245C165.448 30.3245 167.337 24.8297 167.52 24.2998H162.288C162.12 24.6693 161.004 26.2267 158.509 26.2267C154.918 26.2267 154.1 23.1813 154.183 22.3464H168.175ZM181.987 15.5075C182.113 14.8595 182.752 11.9543 182.906 11.242C182.156 11.1363 181.4 11.0815 180.643 11.0779C175.747 11.0779 172.416 13.9759 171.294 19.4144C170.81 21.7522 169.035 29.9698 169.035 29.9698H173.62C173.62 29.9698 175.311 22.155 175.845 19.7001C176.545 16.4812 178.247 15.3885 180.535 15.3885C181.021 15.3877 181.507 15.4275 181.987 15.5074V15.5075ZM196.248 37.1976L211.641 11.0778H206.687L199.614 23.37L197.962 11.063H192.661C186.592 11.063 183.445 13.8383 182.33 19.1516C181.77 21.8025 179.991 29.9694 179.991 29.9694H184.58C184.58 29.9694 186.264 22.2126 186.934 19.0826C187.581 16.0432 189.835 15.1147 192.266 15.6327L193.233 11.1735C193.948 15.4084 196.138 28.9385 196.138 28.9385L191.335 37.1976L196.248 37.1976ZM211.484 26.4188H210.785V25.3045H211.54C211.917 25.3045 212.369 25.3591 212.369 25.8195C212.369 26.3726 211.954 26.4188 211.484 26.4188ZM213.069 28.5821L212.001 26.9071C212.571 26.8423 212.995 26.5567 212.995 25.8656C212.995 25.0924 212.525 24.7704 211.605 24.7704H210.159V28.5821H210.785V26.9532H211.374L212.36 28.5821L213.069 28.5821ZM214.1 26.6121C214.1 28.2978 212.94 29.4586 211.466 29.4586C209.827 29.4586 208.813 28.178 208.813 26.6121C208.813 24.9359 209.974 23.7665 211.466 23.7665C212.94 23.7665 214.1 24.9359 214.1 26.6121ZM214.837 26.6121C214.846 26.1629 214.764 25.7165 214.598 25.2989C214.432 24.8814 214.185 24.5012 213.87 24.1805C213.555 23.8597 213.18 23.605 212.766 23.4311C212.351 23.2572 211.907 23.1676 211.457 23.1676C211.008 23.1676 210.563 23.2572 210.149 23.4311C209.734 23.605 209.359 23.8597 209.044 24.1805C208.73 24.5012 208.482 24.8814 208.316 25.2989C208.15 25.7165 208.069 26.1629 208.077 26.6121C208.077 28.5741 209.487 30.0566 211.466 30.0566C211.917 30.0613 212.363 29.9749 212.779 29.8026C213.195 29.6302 213.572 29.3755 213.887 29.0537C214.202 28.7319 214.448 28.3497 214.612 27.9301C214.775 27.5105 214.852 27.0622 214.837 26.6121" fill="#141418"/>
</g>
<defs>
<clipPath id="clip0_375_902">
<rect width="214.837" height="36.9384" fill="white" transform="translate(0 0.259277)"/>
</clipPath>
</defs>
</svg>
